M48
; DRILL file {KiCad (5.1.8)-1} date 12/16/20 21:52:36
; FORMAT={-:-/ absolute / inch / decimal}
; #@! TF.CreationDate,2020-12-16T21:52:36-05:00
; #@! TF.GenerationSoftware,Kicad,Pcbnew,(5.1.8)-1
; #@! TF.FileFunction,Plated,1,2,PTH
FMAT,2
INCH
T1C0.0157
T2C0.0394
%
G90
G05
T1
X5.8341Y-4.5426
X5.8989Y-4.1682
X5.9076Y-4.6088
X5.9268Y-4.5169
X6.023Y-4.3127
X6.0389Y-4.7261
X6.0472Y-4.392
X6.0522Y-4.6867
X6.0636Y-4.5032
X6.0719Y-4.5623
X6.096Y-4.7021
X6.0973Y-4.3724
X6.4319Y-4.5843
X6.4355Y-4.727
X6.4463Y-4.3115
X6.504Y-4.5804
X6.584Y-4.3925
X6.8528Y-4.5331
X6.8712Y-4.7649
T2
X6.1925Y-4.0625
X6.2925Y-4.0625
X6.3925Y-4.0625
X6.4925Y-4.0625
X5.7375Y-4.2675
X5.7375Y-4.3659
X6.7875Y-4.0625
X6.8875Y-4.0625
X6.9875Y-4.0625
X7.0875Y-4.0625
X5.7Y-4.6
X5.7Y-4.7
X5.7Y-4.8
X5.8Y-4.6
X5.8Y-4.7
X5.8Y-4.8
X6.1325Y-4.9725
X6.2325Y-4.9725
X6.3325Y-4.9725
X6.4325Y-4.9725
X6.5325Y-4.9725
X6.6325Y-4.9725
X6.7325Y-4.9725
X6.8325Y-4.9725
X6.9325Y-4.9725
T0
M30
