%TF.GenerationSoftware,KiCad,Pcbnew,(5.1.8)-1*%
%TF.CreationDate,2020-12-16T21:52:19-05:00*%
%TF.ProjectId,Arduino Clone,41726475-696e-46f2-9043-6c6f6e652e6b,1.0*%
%TF.SameCoordinates,Original*%
%TF.FileFunction,Legend,Top*%
%TF.FilePolarity,Positive*%
%FSLAX46Y46*%
G04 Gerber Fmt 4.6, Leading zero omitted, Abs format (unit mm)*
G04 Created by KiCad (PCBNEW (5.1.8)-1) date 2020-12-16 21:52:19*
%MOMM*%
%LPD*%
G01*
G04 APERTURE LIST*
%ADD10C,0.150000*%
%ADD11C,0.120000*%
%ADD12C,0.125000*%
G04 APERTURE END LIST*
D10*
X148399500Y-112736214D02*
X148399500Y-111307642D01*
X147955047Y-107830928D02*
X148716952Y-107830928D01*
X148336000Y-108211880D02*
X148336000Y-107449976D01*
X178500285Y-107522928D02*
X178500285Y-106922928D01*
X178643142Y-106922928D01*
X178728857Y-106951500D01*
X178786000Y-107008642D01*
X178814571Y-107065785D01*
X178843142Y-107180071D01*
X178843142Y-107265785D01*
X178814571Y-107380071D01*
X178786000Y-107437214D01*
X178728857Y-107494357D01*
X178643142Y-107522928D01*
X178500285Y-107522928D01*
X179071714Y-107494357D02*
X179157428Y-107522928D01*
X179300285Y-107522928D01*
X179357428Y-107494357D01*
X179386000Y-107465785D01*
X179414571Y-107408642D01*
X179414571Y-107351500D01*
X179386000Y-107294357D01*
X179357428Y-107265785D01*
X179300285Y-107237214D01*
X179186000Y-107208642D01*
X179128857Y-107180071D01*
X179100285Y-107151500D01*
X179071714Y-107094357D01*
X179071714Y-107037214D01*
X179100285Y-106980071D01*
X179128857Y-106951500D01*
X179186000Y-106922928D01*
X179328857Y-106922928D01*
X179414571Y-106951500D01*
X179986000Y-107522928D02*
X179643142Y-107522928D01*
X179814571Y-107522928D02*
X179814571Y-106922928D01*
X179757428Y-107008642D01*
X179700285Y-107065785D01*
X179643142Y-107094357D01*
X180186000Y-106922928D02*
X180557428Y-106922928D01*
X180357428Y-107151500D01*
X180443142Y-107151500D01*
X180500285Y-107180071D01*
X180528857Y-107208642D01*
X180557428Y-107265785D01*
X180557428Y-107408642D01*
X180528857Y-107465785D01*
X180500285Y-107494357D01*
X180443142Y-107522928D01*
X180271714Y-107522928D01*
X180214571Y-107494357D01*
X180186000Y-107465785D01*
X180757428Y-106922928D02*
X181128857Y-106922928D01*
X180928857Y-107151500D01*
X181014571Y-107151500D01*
X181071714Y-107180071D01*
X181100285Y-107208642D01*
X181128857Y-107265785D01*
X181128857Y-107408642D01*
X181100285Y-107465785D01*
X181071714Y-107494357D01*
X181014571Y-107522928D01*
X180843142Y-107522928D01*
X180786000Y-107494357D01*
X180757428Y-107465785D01*
X181328857Y-106922928D02*
X181728857Y-106922928D01*
X181471714Y-107522928D01*
D11*
X146431000Y-124333000D02*
X147129500Y-124333000D01*
X146431000Y-125031500D02*
X146431000Y-124333000D01*
X146748500Y-124587000D02*
X146748500Y-124650500D01*
X151955500Y-124587000D02*
X146748500Y-124587000D01*
X151955500Y-128016000D02*
X151955500Y-124587000D01*
X146748500Y-128016000D02*
X151955500Y-128016000D01*
X146748500Y-124650500D02*
X146748500Y-128016000D01*
D10*
X149496571Y-127652428D02*
X149296571Y-127366714D01*
X149153714Y-127652428D02*
X149153714Y-127052428D01*
X149382285Y-127052428D01*
X149439428Y-127081000D01*
X149468000Y-127109571D01*
X149496571Y-127166714D01*
X149496571Y-127252428D01*
X149468000Y-127309571D01*
X149439428Y-127338142D01*
X149382285Y-127366714D01*
X149153714Y-127366714D01*
X149753714Y-127338142D02*
X149953714Y-127338142D01*
X150039428Y-127652428D02*
X149753714Y-127652428D01*
X149753714Y-127052428D01*
X150039428Y-127052428D01*
X150268000Y-127623857D02*
X150353714Y-127652428D01*
X150496571Y-127652428D01*
X150553714Y-127623857D01*
X150582285Y-127595285D01*
X150610857Y-127538142D01*
X150610857Y-127481000D01*
X150582285Y-127423857D01*
X150553714Y-127395285D01*
X150496571Y-127366714D01*
X150382285Y-127338142D01*
X150325142Y-127309571D01*
X150296571Y-127281000D01*
X150268000Y-127223857D01*
X150268000Y-127166714D01*
X150296571Y-127109571D01*
X150325142Y-127081000D01*
X150382285Y-127052428D01*
X150525142Y-127052428D01*
X150610857Y-127081000D01*
X150868000Y-127338142D02*
X151068000Y-127338142D01*
X151153714Y-127652428D02*
X150868000Y-127652428D01*
X150868000Y-127052428D01*
X151153714Y-127052428D01*
X151325142Y-127052428D02*
X151668000Y-127052428D01*
X151496571Y-127652428D02*
X151496571Y-127052428D01*
X149533071Y-126734857D02*
X149618785Y-126763428D01*
X149761642Y-126763428D01*
X149818785Y-126734857D01*
X149847357Y-126706285D01*
X149875928Y-126649142D01*
X149875928Y-126592000D01*
X149847357Y-126534857D01*
X149818785Y-126506285D01*
X149761642Y-126477714D01*
X149647357Y-126449142D01*
X149590214Y-126420571D01*
X149561642Y-126392000D01*
X149533071Y-126334857D01*
X149533071Y-126277714D01*
X149561642Y-126220571D01*
X149590214Y-126192000D01*
X149647357Y-126163428D01*
X149790214Y-126163428D01*
X149875928Y-126192000D01*
X150475928Y-126706285D02*
X150447357Y-126734857D01*
X150361642Y-126763428D01*
X150304500Y-126763428D01*
X150218785Y-126734857D01*
X150161642Y-126677714D01*
X150133071Y-126620571D01*
X150104500Y-126506285D01*
X150104500Y-126420571D01*
X150133071Y-126306285D01*
X150161642Y-126249142D01*
X150218785Y-126192000D01*
X150304500Y-126163428D01*
X150361642Y-126163428D01*
X150447357Y-126192000D01*
X150475928Y-126220571D01*
X150733071Y-126763428D02*
X150733071Y-126163428D01*
X151075928Y-126763428D02*
X150818785Y-126420571D01*
X151075928Y-126163428D02*
X150733071Y-126506285D01*
X149552142Y-125620428D02*
X149552142Y-125020428D01*
X149752142Y-125449000D01*
X149952142Y-125020428D01*
X149952142Y-125620428D01*
X150237857Y-125620428D02*
X150237857Y-125020428D01*
X150495000Y-125591857D02*
X150580714Y-125620428D01*
X150723571Y-125620428D01*
X150780714Y-125591857D01*
X150809285Y-125563285D01*
X150837857Y-125506142D01*
X150837857Y-125449000D01*
X150809285Y-125391857D01*
X150780714Y-125363285D01*
X150723571Y-125334714D01*
X150609285Y-125306142D01*
X150552142Y-125277571D01*
X150523571Y-125249000D01*
X150495000Y-125191857D01*
X150495000Y-125134714D01*
X150523571Y-125077571D01*
X150552142Y-125049000D01*
X150609285Y-125020428D01*
X150752142Y-125020428D01*
X150837857Y-125049000D01*
X151209285Y-125020428D02*
X151323571Y-125020428D01*
X151380714Y-125049000D01*
X151437857Y-125106142D01*
X151466428Y-125220428D01*
X151466428Y-125420428D01*
X151437857Y-125534714D01*
X151380714Y-125591857D01*
X151323571Y-125620428D01*
X151209285Y-125620428D01*
X151152142Y-125591857D01*
X151095000Y-125534714D01*
X151066428Y-125420428D01*
X151066428Y-125220428D01*
X151095000Y-125106142D01*
X151152142Y-125049000D01*
X151209285Y-125020428D01*
X147434357Y-127017500D02*
X147377214Y-126988928D01*
X147291500Y-126988928D01*
X147205785Y-127017500D01*
X147148642Y-127074642D01*
X147120071Y-127131785D01*
X147091500Y-127246071D01*
X147091500Y-127331785D01*
X147120071Y-127446071D01*
X147148642Y-127503214D01*
X147205785Y-127560357D01*
X147291500Y-127588928D01*
X147348642Y-127588928D01*
X147434357Y-127560357D01*
X147462928Y-127531785D01*
X147462928Y-127331785D01*
X147348642Y-127331785D01*
X147720071Y-127588928D02*
X147720071Y-126988928D01*
X148062928Y-127588928D01*
X148062928Y-126988928D01*
X148348642Y-127588928D02*
X148348642Y-126988928D01*
X148491500Y-126988928D01*
X148577214Y-127017500D01*
X148634357Y-127074642D01*
X148662928Y-127131785D01*
X148691500Y-127246071D01*
X148691500Y-127331785D01*
X148662928Y-127446071D01*
X148634357Y-127503214D01*
X148577214Y-127560357D01*
X148491500Y-127588928D01*
X148348642Y-127588928D01*
X147012142Y-126636428D02*
X147012142Y-126036428D01*
X147212142Y-126465000D01*
X147412142Y-126036428D01*
X147412142Y-126636428D01*
X147812142Y-126036428D02*
X147926428Y-126036428D01*
X147983571Y-126065000D01*
X148040714Y-126122142D01*
X148069285Y-126236428D01*
X148069285Y-126436428D01*
X148040714Y-126550714D01*
X147983571Y-126607857D01*
X147926428Y-126636428D01*
X147812142Y-126636428D01*
X147755000Y-126607857D01*
X147697857Y-126550714D01*
X147669285Y-126436428D01*
X147669285Y-126236428D01*
X147697857Y-126122142D01*
X147755000Y-126065000D01*
X147812142Y-126036428D01*
X148297857Y-126607857D02*
X148383571Y-126636428D01*
X148526428Y-126636428D01*
X148583571Y-126607857D01*
X148612142Y-126579285D01*
X148640714Y-126522142D01*
X148640714Y-126465000D01*
X148612142Y-126407857D01*
X148583571Y-126379285D01*
X148526428Y-126350714D01*
X148412142Y-126322142D01*
X148355000Y-126293571D01*
X148326428Y-126265000D01*
X148297857Y-126207857D01*
X148297857Y-126150714D01*
X148326428Y-126093571D01*
X148355000Y-126065000D01*
X148412142Y-126036428D01*
X148555000Y-126036428D01*
X148640714Y-126065000D01*
X148897857Y-126636428D02*
X148897857Y-126036428D01*
X147240714Y-124956928D02*
X147440714Y-125556928D01*
X147640714Y-124956928D01*
X148097857Y-125528357D02*
X148040714Y-125556928D01*
X147926428Y-125556928D01*
X147869285Y-125528357D01*
X147840714Y-125499785D01*
X147812142Y-125442642D01*
X147812142Y-125271214D01*
X147840714Y-125214071D01*
X147869285Y-125185500D01*
X147926428Y-125156928D01*
X148040714Y-125156928D01*
X148097857Y-125185500D01*
X148612142Y-125528357D02*
X148555000Y-125556928D01*
X148440714Y-125556928D01*
X148383571Y-125528357D01*
X148355000Y-125499785D01*
X148326428Y-125442642D01*
X148326428Y-125271214D01*
X148355000Y-125214071D01*
X148383571Y-125185500D01*
X148440714Y-125156928D01*
X148555000Y-125156928D01*
X148612142Y-125185500D01*
X175276023Y-123340880D02*
X175609357Y-124340880D01*
X175942690Y-123340880D01*
X176704595Y-124293261D02*
X176609357Y-124340880D01*
X176418880Y-124340880D01*
X176323642Y-124293261D01*
X176276023Y-124245642D01*
X176228404Y-124150404D01*
X176228404Y-123864690D01*
X176276023Y-123769452D01*
X176323642Y-123721833D01*
X176418880Y-123674214D01*
X176609357Y-123674214D01*
X176704595Y-123721833D01*
X177561738Y-124293261D02*
X177466500Y-124340880D01*
X177276023Y-124340880D01*
X177180785Y-124293261D01*
X177133166Y-124245642D01*
X177085547Y-124150404D01*
X177085547Y-123864690D01*
X177133166Y-123769452D01*
X177180785Y-123721833D01*
X177276023Y-123674214D01*
X177466500Y-123674214D01*
X177561738Y-123721833D01*
X172720095Y-123388500D02*
X172624857Y-123340880D01*
X172482000Y-123340880D01*
X172339142Y-123388500D01*
X172243904Y-123483738D01*
X172196285Y-123578976D01*
X172148666Y-123769452D01*
X172148666Y-123912309D01*
X172196285Y-124102785D01*
X172243904Y-124198023D01*
X172339142Y-124293261D01*
X172482000Y-124340880D01*
X172577238Y-124340880D01*
X172720095Y-124293261D01*
X172767714Y-124245642D01*
X172767714Y-123912309D01*
X172577238Y-123912309D01*
X173196285Y-124340880D02*
X173196285Y-123340880D01*
X173767714Y-124340880D01*
X173767714Y-123340880D01*
X174243904Y-124340880D02*
X174243904Y-123340880D01*
X174482000Y-123340880D01*
X174624857Y-123388500D01*
X174720095Y-123483738D01*
X174767714Y-123578976D01*
X174815333Y-123769452D01*
X174815333Y-123912309D01*
X174767714Y-124102785D01*
X174720095Y-124198023D01*
X174624857Y-124293261D01*
X174482000Y-124340880D01*
X174243904Y-124340880D01*
X170203904Y-124404380D02*
X170203904Y-123404380D01*
X170442000Y-123404380D01*
X170584857Y-123452000D01*
X170680095Y-123547238D01*
X170727714Y-123642476D01*
X170775333Y-123832952D01*
X170775333Y-123975809D01*
X170727714Y-124166285D01*
X170680095Y-124261523D01*
X170584857Y-124356761D01*
X170442000Y-124404380D01*
X170203904Y-124404380D01*
X171346761Y-123832952D02*
X171251523Y-123785333D01*
X171203904Y-123737714D01*
X171156285Y-123642476D01*
X171156285Y-123594857D01*
X171203904Y-123499619D01*
X171251523Y-123452000D01*
X171346761Y-123404380D01*
X171537238Y-123404380D01*
X171632476Y-123452000D01*
X171680095Y-123499619D01*
X171727714Y-123594857D01*
X171727714Y-123642476D01*
X171680095Y-123737714D01*
X171632476Y-123785333D01*
X171537238Y-123832952D01*
X171346761Y-123832952D01*
X171251523Y-123880571D01*
X171203904Y-123928190D01*
X171156285Y-124023428D01*
X171156285Y-124213904D01*
X171203904Y-124309142D01*
X171251523Y-124356761D01*
X171346761Y-124404380D01*
X171537238Y-124404380D01*
X171632476Y-124356761D01*
X171680095Y-124309142D01*
X171727714Y-124213904D01*
X171727714Y-124023428D01*
X171680095Y-123928190D01*
X171632476Y-123880571D01*
X171537238Y-123832952D01*
X167790904Y-124404380D02*
X167790904Y-123404380D01*
X168029000Y-123404380D01*
X168171857Y-123452000D01*
X168267095Y-123547238D01*
X168314714Y-123642476D01*
X168362333Y-123832952D01*
X168362333Y-123975809D01*
X168314714Y-124166285D01*
X168267095Y-124261523D01*
X168171857Y-124356761D01*
X168029000Y-124404380D01*
X167790904Y-124404380D01*
X168695666Y-123404380D02*
X169362333Y-123404380D01*
X168933761Y-124404380D01*
X165187404Y-124404380D02*
X165187404Y-123404380D01*
X165425500Y-123404380D01*
X165568357Y-123452000D01*
X165663595Y-123547238D01*
X165711214Y-123642476D01*
X165758833Y-123832952D01*
X165758833Y-123975809D01*
X165711214Y-124166285D01*
X165663595Y-124261523D01*
X165568357Y-124356761D01*
X165425500Y-124404380D01*
X165187404Y-124404380D01*
X166615976Y-123404380D02*
X166425500Y-123404380D01*
X166330261Y-123452000D01*
X166282642Y-123499619D01*
X166187404Y-123642476D01*
X166139785Y-123832952D01*
X166139785Y-124213904D01*
X166187404Y-124309142D01*
X166235023Y-124356761D01*
X166330261Y-124404380D01*
X166520738Y-124404380D01*
X166615976Y-124356761D01*
X166663595Y-124309142D01*
X166711214Y-124213904D01*
X166711214Y-123975809D01*
X166663595Y-123880571D01*
X166615976Y-123832952D01*
X166520738Y-123785333D01*
X166330261Y-123785333D01*
X166235023Y-123832952D01*
X166187404Y-123880571D01*
X166139785Y-123975809D01*
X162583904Y-124404380D02*
X162583904Y-123404380D01*
X162822000Y-123404380D01*
X162964857Y-123452000D01*
X163060095Y-123547238D01*
X163107714Y-123642476D01*
X163155333Y-123832952D01*
X163155333Y-123975809D01*
X163107714Y-124166285D01*
X163060095Y-124261523D01*
X162964857Y-124356761D01*
X162822000Y-124404380D01*
X162583904Y-124404380D01*
X164060095Y-123404380D02*
X163583904Y-123404380D01*
X163536285Y-123880571D01*
X163583904Y-123832952D01*
X163679142Y-123785333D01*
X163917238Y-123785333D01*
X164012476Y-123832952D01*
X164060095Y-123880571D01*
X164107714Y-123975809D01*
X164107714Y-124213904D01*
X164060095Y-124309142D01*
X164012476Y-124356761D01*
X163917238Y-124404380D01*
X163679142Y-124404380D01*
X163583904Y-124356761D01*
X163536285Y-124309142D01*
X160107404Y-124404380D02*
X160107404Y-123404380D01*
X160345500Y-123404380D01*
X160488357Y-123452000D01*
X160583595Y-123547238D01*
X160631214Y-123642476D01*
X160678833Y-123832952D01*
X160678833Y-123975809D01*
X160631214Y-124166285D01*
X160583595Y-124261523D01*
X160488357Y-124356761D01*
X160345500Y-124404380D01*
X160107404Y-124404380D01*
X161535976Y-123737714D02*
X161535976Y-124404380D01*
X161297880Y-123356761D02*
X161059785Y-124071047D01*
X161678833Y-124071047D01*
X157503904Y-124404380D02*
X157503904Y-123404380D01*
X157742000Y-123404380D01*
X157884857Y-123452000D01*
X157980095Y-123547238D01*
X158027714Y-123642476D01*
X158075333Y-123832952D01*
X158075333Y-123975809D01*
X158027714Y-124166285D01*
X157980095Y-124261523D01*
X157884857Y-124356761D01*
X157742000Y-124404380D01*
X157503904Y-124404380D01*
X158408666Y-123404380D02*
X159027714Y-123404380D01*
X158694380Y-123785333D01*
X158837238Y-123785333D01*
X158932476Y-123832952D01*
X158980095Y-123880571D01*
X159027714Y-123975809D01*
X159027714Y-124213904D01*
X158980095Y-124309142D01*
X158932476Y-124356761D01*
X158837238Y-124404380D01*
X158551523Y-124404380D01*
X158456285Y-124356761D01*
X158408666Y-124309142D01*
X155027404Y-124340880D02*
X155027404Y-123340880D01*
X155265500Y-123340880D01*
X155408357Y-123388500D01*
X155503595Y-123483738D01*
X155551214Y-123578976D01*
X155598833Y-123769452D01*
X155598833Y-123912309D01*
X155551214Y-124102785D01*
X155503595Y-124198023D01*
X155408357Y-124293261D01*
X155265500Y-124340880D01*
X155027404Y-124340880D01*
X155979785Y-123436119D02*
X156027404Y-123388500D01*
X156122642Y-123340880D01*
X156360738Y-123340880D01*
X156455976Y-123388500D01*
X156503595Y-123436119D01*
X156551214Y-123531357D01*
X156551214Y-123626595D01*
X156503595Y-123769452D01*
X155932166Y-124340880D01*
X156551214Y-124340880D01*
X167592642Y-115743071D02*
X167621214Y-115714500D01*
X167678357Y-115685928D01*
X167821214Y-115685928D01*
X167878357Y-115714500D01*
X167906928Y-115743071D01*
X167935500Y-115800214D01*
X167935500Y-115857357D01*
X167906928Y-115943071D01*
X167564071Y-116285928D01*
X167935500Y-116285928D01*
X168449785Y-115885928D02*
X168449785Y-116285928D01*
X168306928Y-115657357D02*
X168164071Y-116085928D01*
X168535500Y-116085928D01*
X169049785Y-116285928D02*
X168764071Y-116285928D01*
X168764071Y-115685928D01*
X169592642Y-116228785D02*
X169564071Y-116257357D01*
X169478357Y-116285928D01*
X169421214Y-116285928D01*
X169335500Y-116257357D01*
X169278357Y-116200214D01*
X169249785Y-116143071D01*
X169221214Y-116028785D01*
X169221214Y-115943071D01*
X169249785Y-115828785D01*
X169278357Y-115771642D01*
X169335500Y-115714500D01*
X169421214Y-115685928D01*
X169478357Y-115685928D01*
X169564071Y-115714500D01*
X169592642Y-115743071D01*
X170164071Y-116285928D02*
X169821214Y-116285928D01*
X169992642Y-116285928D02*
X169992642Y-115685928D01*
X169935500Y-115771642D01*
X169878357Y-115828785D01*
X169821214Y-115857357D01*
X170535500Y-115685928D02*
X170592642Y-115685928D01*
X170649785Y-115714500D01*
X170678357Y-115743071D01*
X170706928Y-115800214D01*
X170735500Y-115914500D01*
X170735500Y-116057357D01*
X170706928Y-116171642D01*
X170678357Y-116228785D01*
X170649785Y-116257357D01*
X170592642Y-116285928D01*
X170535500Y-116285928D01*
X170478357Y-116257357D01*
X170449785Y-116228785D01*
X170421214Y-116171642D01*
X170392642Y-116057357D01*
X170392642Y-115914500D01*
X170421214Y-115800214D01*
X170449785Y-115743071D01*
X170478357Y-115714500D01*
X170535500Y-115685928D01*
X170964071Y-115743071D02*
X170992642Y-115714500D01*
X171049785Y-115685928D01*
X171192642Y-115685928D01*
X171249785Y-115714500D01*
X171278357Y-115743071D01*
X171306928Y-115800214D01*
X171306928Y-115857357D01*
X171278357Y-115943071D01*
X170935500Y-116285928D01*
X171306928Y-116285928D01*
X171849785Y-115685928D02*
X171564071Y-115685928D01*
X171535500Y-115971642D01*
X171564071Y-115943071D01*
X171621214Y-115914500D01*
X171764071Y-115914500D01*
X171821214Y-115943071D01*
X171849785Y-115971642D01*
X171878357Y-116028785D01*
X171878357Y-116171642D01*
X171849785Y-116228785D01*
X171821214Y-116257357D01*
X171764071Y-116285928D01*
X171621214Y-116285928D01*
X171564071Y-116257357D01*
X171535500Y-116228785D01*
X167338642Y-108504071D02*
X167367214Y-108475500D01*
X167424357Y-108446928D01*
X167567214Y-108446928D01*
X167624357Y-108475500D01*
X167652928Y-108504071D01*
X167681500Y-108561214D01*
X167681500Y-108618357D01*
X167652928Y-108704071D01*
X167310071Y-109046928D01*
X167681500Y-109046928D01*
X168195785Y-108646928D02*
X168195785Y-109046928D01*
X168052928Y-108418357D02*
X167910071Y-108846928D01*
X168281500Y-108846928D01*
X168795785Y-109046928D02*
X168510071Y-109046928D01*
X168510071Y-108446928D01*
X169338642Y-108989785D02*
X169310071Y-109018357D01*
X169224357Y-109046928D01*
X169167214Y-109046928D01*
X169081500Y-109018357D01*
X169024357Y-108961214D01*
X168995785Y-108904071D01*
X168967214Y-108789785D01*
X168967214Y-108704071D01*
X168995785Y-108589785D01*
X169024357Y-108532642D01*
X169081500Y-108475500D01*
X169167214Y-108446928D01*
X169224357Y-108446928D01*
X169310071Y-108475500D01*
X169338642Y-108504071D01*
X169910071Y-109046928D02*
X169567214Y-109046928D01*
X169738642Y-109046928D02*
X169738642Y-108446928D01*
X169681500Y-108532642D01*
X169624357Y-108589785D01*
X169567214Y-108618357D01*
X170281500Y-108446928D02*
X170338642Y-108446928D01*
X170395785Y-108475500D01*
X170424357Y-108504071D01*
X170452928Y-108561214D01*
X170481500Y-108675500D01*
X170481500Y-108818357D01*
X170452928Y-108932642D01*
X170424357Y-108989785D01*
X170395785Y-109018357D01*
X170338642Y-109046928D01*
X170281500Y-109046928D01*
X170224357Y-109018357D01*
X170195785Y-108989785D01*
X170167214Y-108932642D01*
X170138642Y-108818357D01*
X170138642Y-108675500D01*
X170167214Y-108561214D01*
X170195785Y-108504071D01*
X170224357Y-108475500D01*
X170281500Y-108446928D01*
X170710071Y-108504071D02*
X170738642Y-108475500D01*
X170795785Y-108446928D01*
X170938642Y-108446928D01*
X170995785Y-108475500D01*
X171024357Y-108504071D01*
X171052928Y-108561214D01*
X171052928Y-108618357D01*
X171024357Y-108704071D01*
X170681500Y-109046928D01*
X171052928Y-109046928D01*
X171595785Y-108446928D02*
X171310071Y-108446928D01*
X171281500Y-108732642D01*
X171310071Y-108704071D01*
X171367214Y-108675500D01*
X171510071Y-108675500D01*
X171567214Y-108704071D01*
X171595785Y-108732642D01*
X171624357Y-108789785D01*
X171624357Y-108932642D01*
X171595785Y-108989785D01*
X171567214Y-109018357D01*
X171510071Y-109046928D01*
X171367214Y-109046928D01*
X171310071Y-109018357D01*
X171281500Y-108989785D01*
X153313142Y-111352000D02*
X153598857Y-111352000D01*
X153256000Y-111523428D02*
X153456000Y-110923428D01*
X153656000Y-111523428D01*
X153770285Y-111123428D02*
X153998857Y-111123428D01*
X153856000Y-110923428D02*
X153856000Y-111437714D01*
X153884571Y-111494857D01*
X153941714Y-111523428D01*
X153998857Y-111523428D01*
X154198857Y-111523428D02*
X154198857Y-111123428D01*
X154198857Y-111180571D02*
X154227428Y-111152000D01*
X154284571Y-111123428D01*
X154370285Y-111123428D01*
X154427428Y-111152000D01*
X154456000Y-111209142D01*
X154456000Y-111523428D01*
X154456000Y-111209142D02*
X154484571Y-111152000D01*
X154541714Y-111123428D01*
X154627428Y-111123428D01*
X154684571Y-111152000D01*
X154713142Y-111209142D01*
X154713142Y-111523428D01*
X155227428Y-111494857D02*
X155170285Y-111523428D01*
X155056000Y-111523428D01*
X154998857Y-111494857D01*
X154970285Y-111437714D01*
X154970285Y-111209142D01*
X154998857Y-111152000D01*
X155056000Y-111123428D01*
X155170285Y-111123428D01*
X155227428Y-111152000D01*
X155256000Y-111209142D01*
X155256000Y-111266285D01*
X154970285Y-111323428D01*
X155770285Y-111123428D02*
X155770285Y-111609142D01*
X155741714Y-111666285D01*
X155713142Y-111694857D01*
X155656000Y-111723428D01*
X155570285Y-111723428D01*
X155513142Y-111694857D01*
X155770285Y-111494857D02*
X155713142Y-111523428D01*
X155598857Y-111523428D01*
X155541714Y-111494857D01*
X155513142Y-111466285D01*
X155484571Y-111409142D01*
X155484571Y-111237714D01*
X155513142Y-111180571D01*
X155541714Y-111152000D01*
X155598857Y-111123428D01*
X155713142Y-111123428D01*
X155770285Y-111152000D01*
X156313142Y-111523428D02*
X156313142Y-111209142D01*
X156284571Y-111152000D01*
X156227428Y-111123428D01*
X156113142Y-111123428D01*
X156056000Y-111152000D01*
X156313142Y-111494857D02*
X156256000Y-111523428D01*
X156113142Y-111523428D01*
X156056000Y-111494857D01*
X156027428Y-111437714D01*
X156027428Y-111380571D01*
X156056000Y-111323428D01*
X156113142Y-111294857D01*
X156256000Y-111294857D01*
X156313142Y-111266285D01*
X156541714Y-110923428D02*
X156913142Y-110923428D01*
X156713142Y-111152000D01*
X156798857Y-111152000D01*
X156856000Y-111180571D01*
X156884571Y-111209142D01*
X156913142Y-111266285D01*
X156913142Y-111409142D01*
X156884571Y-111466285D01*
X156856000Y-111494857D01*
X156798857Y-111523428D01*
X156627428Y-111523428D01*
X156570285Y-111494857D01*
X156541714Y-111466285D01*
X157141714Y-110980571D02*
X157170285Y-110952000D01*
X157227428Y-110923428D01*
X157370285Y-110923428D01*
X157427428Y-110952000D01*
X157456000Y-110980571D01*
X157484571Y-111037714D01*
X157484571Y-111094857D01*
X157456000Y-111180571D01*
X157113142Y-111523428D01*
X157484571Y-111523428D01*
X157827428Y-111180571D02*
X157770285Y-111152000D01*
X157741714Y-111123428D01*
X157713142Y-111066285D01*
X157713142Y-111037714D01*
X157741714Y-110980571D01*
X157770285Y-110952000D01*
X157827428Y-110923428D01*
X157941714Y-110923428D01*
X157998857Y-110952000D01*
X158027428Y-110980571D01*
X158056000Y-111037714D01*
X158056000Y-111066285D01*
X158027428Y-111123428D01*
X157998857Y-111152000D01*
X157941714Y-111180571D01*
X157827428Y-111180571D01*
X157770285Y-111209142D01*
X157741714Y-111237714D01*
X157713142Y-111294857D01*
X157713142Y-111409142D01*
X157741714Y-111466285D01*
X157770285Y-111494857D01*
X157827428Y-111523428D01*
X157941714Y-111523428D01*
X157998857Y-111494857D01*
X158027428Y-111466285D01*
X158056000Y-111409142D01*
X158056000Y-111294857D01*
X158027428Y-111237714D01*
X157998857Y-111209142D01*
X157941714Y-111180571D01*
X158313142Y-111123428D02*
X158313142Y-111723428D01*
X158313142Y-111152000D02*
X158370285Y-111123428D01*
X158484571Y-111123428D01*
X158541714Y-111152000D01*
X158570285Y-111180571D01*
X158598857Y-111237714D01*
X158598857Y-111409142D01*
X158570285Y-111466285D01*
X158541714Y-111494857D01*
X158484571Y-111523428D01*
X158370285Y-111523428D01*
X158313142Y-111494857D01*
X174291714Y-105144928D02*
X174491714Y-105744928D01*
X174691714Y-105144928D01*
X175148857Y-105716357D02*
X175091714Y-105744928D01*
X174977428Y-105744928D01*
X174920285Y-105716357D01*
X174891714Y-105687785D01*
X174863142Y-105630642D01*
X174863142Y-105459214D01*
X174891714Y-105402071D01*
X174920285Y-105373500D01*
X174977428Y-105344928D01*
X175091714Y-105344928D01*
X175148857Y-105373500D01*
X175663142Y-105716357D02*
X175606000Y-105744928D01*
X175491714Y-105744928D01*
X175434571Y-105716357D01*
X175406000Y-105687785D01*
X175377428Y-105630642D01*
X175377428Y-105459214D01*
X175406000Y-105402071D01*
X175434571Y-105373500D01*
X175491714Y-105344928D01*
X175606000Y-105344928D01*
X175663142Y-105373500D01*
X179505071Y-105716357D02*
X179590785Y-105744928D01*
X179733642Y-105744928D01*
X179790785Y-105716357D01*
X179819357Y-105687785D01*
X179847928Y-105630642D01*
X179847928Y-105573500D01*
X179819357Y-105516357D01*
X179790785Y-105487785D01*
X179733642Y-105459214D01*
X179619357Y-105430642D01*
X179562214Y-105402071D01*
X179533642Y-105373500D01*
X179505071Y-105316357D01*
X179505071Y-105259214D01*
X179533642Y-105202071D01*
X179562214Y-105173500D01*
X179619357Y-105144928D01*
X179762214Y-105144928D01*
X179847928Y-105173500D01*
X180447928Y-105687785D02*
X180419357Y-105716357D01*
X180333642Y-105744928D01*
X180276500Y-105744928D01*
X180190785Y-105716357D01*
X180133642Y-105659214D01*
X180105071Y-105602071D01*
X180076500Y-105487785D01*
X180076500Y-105402071D01*
X180105071Y-105287785D01*
X180133642Y-105230642D01*
X180190785Y-105173500D01*
X180276500Y-105144928D01*
X180333642Y-105144928D01*
X180419357Y-105173500D01*
X180447928Y-105202071D01*
X180705071Y-105744928D02*
X180705071Y-105144928D01*
X181047928Y-105744928D02*
X180790785Y-105402071D01*
X181047928Y-105144928D02*
X180705071Y-105487785D01*
X176944428Y-105716357D02*
X177030142Y-105744928D01*
X177173000Y-105744928D01*
X177230142Y-105716357D01*
X177258714Y-105687785D01*
X177287285Y-105630642D01*
X177287285Y-105573500D01*
X177258714Y-105516357D01*
X177230142Y-105487785D01*
X177173000Y-105459214D01*
X177058714Y-105430642D01*
X177001571Y-105402071D01*
X176973000Y-105373500D01*
X176944428Y-105316357D01*
X176944428Y-105259214D01*
X176973000Y-105202071D01*
X177001571Y-105173500D01*
X177058714Y-105144928D01*
X177201571Y-105144928D01*
X177287285Y-105173500D01*
X177544428Y-105744928D02*
X177544428Y-105144928D01*
X177687285Y-105144928D01*
X177773000Y-105173500D01*
X177830142Y-105230642D01*
X177858714Y-105287785D01*
X177887285Y-105402071D01*
X177887285Y-105487785D01*
X177858714Y-105602071D01*
X177830142Y-105659214D01*
X177773000Y-105716357D01*
X177687285Y-105744928D01*
X177544428Y-105744928D01*
X178115857Y-105573500D02*
X178401571Y-105573500D01*
X178058714Y-105744928D02*
X178258714Y-105144928D01*
X178458714Y-105744928D01*
X171945357Y-105173500D02*
X171888214Y-105144928D01*
X171802500Y-105144928D01*
X171716785Y-105173500D01*
X171659642Y-105230642D01*
X171631071Y-105287785D01*
X171602500Y-105402071D01*
X171602500Y-105487785D01*
X171631071Y-105602071D01*
X171659642Y-105659214D01*
X171716785Y-105716357D01*
X171802500Y-105744928D01*
X171859642Y-105744928D01*
X171945357Y-105716357D01*
X171973928Y-105687785D01*
X171973928Y-105487785D01*
X171859642Y-105487785D01*
X172231071Y-105744928D02*
X172231071Y-105144928D01*
X172573928Y-105744928D01*
X172573928Y-105144928D01*
X172859642Y-105744928D02*
X172859642Y-105144928D01*
X173002500Y-105144928D01*
X173088214Y-105173500D01*
X173145357Y-105230642D01*
X173173928Y-105287785D01*
X173202500Y-105402071D01*
X173202500Y-105487785D01*
X173173928Y-105602071D01*
X173145357Y-105659214D01*
X173088214Y-105716357D01*
X173002500Y-105744928D01*
X172859642Y-105744928D01*
X164431714Y-105081428D02*
X164774571Y-105081428D01*
X164603142Y-105681428D02*
X164603142Y-105081428D01*
X164917428Y-105681428D02*
X165231714Y-105281428D01*
X164917428Y-105281428D02*
X165231714Y-105681428D01*
X162248857Y-105681428D02*
X162048857Y-105395714D01*
X161906000Y-105681428D02*
X161906000Y-105081428D01*
X162134571Y-105081428D01*
X162191714Y-105110000D01*
X162220285Y-105138571D01*
X162248857Y-105195714D01*
X162248857Y-105281428D01*
X162220285Y-105338571D01*
X162191714Y-105367142D01*
X162134571Y-105395714D01*
X161906000Y-105395714D01*
X162448857Y-105681428D02*
X162763142Y-105281428D01*
X162448857Y-105281428D02*
X162763142Y-105681428D01*
X159115214Y-105081428D02*
X159315214Y-105681428D01*
X159515214Y-105081428D01*
X159972357Y-105652857D02*
X159915214Y-105681428D01*
X159800928Y-105681428D01*
X159743785Y-105652857D01*
X159715214Y-105624285D01*
X159686642Y-105567142D01*
X159686642Y-105395714D01*
X159715214Y-105338571D01*
X159743785Y-105310000D01*
X159800928Y-105281428D01*
X159915214Y-105281428D01*
X159972357Y-105310000D01*
X160486642Y-105652857D02*
X160429500Y-105681428D01*
X160315214Y-105681428D01*
X160258071Y-105652857D01*
X160229500Y-105624285D01*
X160200928Y-105567142D01*
X160200928Y-105395714D01*
X160229500Y-105338571D01*
X160258071Y-105310000D01*
X160315214Y-105281428D01*
X160429500Y-105281428D01*
X160486642Y-105310000D01*
X157022857Y-105110000D02*
X156965714Y-105081428D01*
X156880000Y-105081428D01*
X156794285Y-105110000D01*
X156737142Y-105167142D01*
X156708571Y-105224285D01*
X156680000Y-105338571D01*
X156680000Y-105424285D01*
X156708571Y-105538571D01*
X156737142Y-105595714D01*
X156794285Y-105652857D01*
X156880000Y-105681428D01*
X156937142Y-105681428D01*
X157022857Y-105652857D01*
X157051428Y-105624285D01*
X157051428Y-105424285D01*
X156937142Y-105424285D01*
X157308571Y-105681428D02*
X157308571Y-105081428D01*
X157651428Y-105681428D01*
X157651428Y-105081428D01*
X157937142Y-105681428D02*
X157937142Y-105081428D01*
X158080000Y-105081428D01*
X158165714Y-105110000D01*
X158222857Y-105167142D01*
X158251428Y-105224285D01*
X158280000Y-105338571D01*
X158280000Y-105424285D01*
X158251428Y-105538571D01*
X158222857Y-105595714D01*
X158165714Y-105652857D01*
X158080000Y-105681428D01*
X157937142Y-105681428D01*
X150906214Y-102760428D02*
X150563357Y-102760428D01*
X150734785Y-102760428D02*
X150734785Y-102160428D01*
X150677642Y-102246142D01*
X150620500Y-102303285D01*
X150563357Y-102331857D01*
X151277642Y-102160428D02*
X151334785Y-102160428D01*
X151391928Y-102189000D01*
X151420500Y-102217571D01*
X151449071Y-102274714D01*
X151477642Y-102389000D01*
X151477642Y-102531857D01*
X151449071Y-102646142D01*
X151420500Y-102703285D01*
X151391928Y-102731857D01*
X151334785Y-102760428D01*
X151277642Y-102760428D01*
X151220500Y-102731857D01*
X151191928Y-102703285D01*
X151163357Y-102646142D01*
X151134785Y-102531857D01*
X151134785Y-102389000D01*
X151163357Y-102274714D01*
X151191928Y-102217571D01*
X151220500Y-102189000D01*
X151277642Y-102160428D01*
X151734785Y-102760428D02*
X151734785Y-102160428D01*
X152077642Y-102760428D02*
X151820500Y-102417571D01*
X152077642Y-102160428D02*
X151734785Y-102503285D01*
D11*
%TO.C,BT1*%
X147442000Y-105784000D02*
X143422000Y-105784000D01*
X143422000Y-105784000D02*
X143422000Y-113504000D01*
X143422000Y-113504000D02*
X147442000Y-113504000D01*
X147442000Y-113504000D02*
X147442000Y-105784000D01*
X145732000Y-105784000D02*
X145732000Y-106284000D01*
X145732000Y-106284000D02*
X146942000Y-106284000D01*
X146942000Y-106284000D02*
X146942000Y-113004000D01*
X146942000Y-113004000D02*
X145732000Y-113004000D01*
X145732000Y-113004000D02*
X145732000Y-113504000D01*
X144922000Y-105784000D02*
X144922000Y-106784000D01*
X144922000Y-106784000D02*
X143422000Y-106784000D01*
X144922000Y-113504000D02*
X144922000Y-112504000D01*
X144922000Y-112504000D02*
X143422000Y-112504000D01*
X145622000Y-105484000D02*
X143122000Y-105484000D01*
X143122000Y-105484000D02*
X143122000Y-107984000D01*
%TO.C,C1*%
X160840748Y-107542000D02*
X161363252Y-107542000D01*
X160840748Y-106072000D02*
X161363252Y-106072000D01*
%TO.C,C2*%
X160840748Y-108612000D02*
X161363252Y-108612000D01*
X160840748Y-110082000D02*
X161363252Y-110082000D01*
%TO.C,C3*%
X177408748Y-120807000D02*
X177931252Y-120807000D01*
X177408748Y-122277000D02*
X177931252Y-122277000D01*
%TO.C,D1*%
X184070000Y-116754000D02*
X181385000Y-116754000D01*
X181385000Y-116754000D02*
X181385000Y-118674000D01*
X181385000Y-118674000D02*
X184070000Y-118674000D01*
%TO.C,J1*%
X157036000Y-127632000D02*
X157036000Y-124972000D01*
X157036000Y-127632000D02*
X177416000Y-127632000D01*
X177416000Y-127632000D02*
X177416000Y-124972000D01*
X157036000Y-124972000D02*
X177416000Y-124972000D01*
X154436000Y-124972000D02*
X155766000Y-124972000D01*
X154436000Y-126302000D02*
X154436000Y-124972000D01*
%TO.C,J2*%
X143450000Y-115510000D02*
X146050000Y-115510000D01*
X143450000Y-115510000D02*
X143450000Y-123250000D01*
X143450000Y-123250000D02*
X148650000Y-123250000D01*
X148650000Y-118110000D02*
X148650000Y-123250000D01*
X146050000Y-118110000D02*
X148650000Y-118110000D01*
X146050000Y-115510000D02*
X146050000Y-118110000D01*
X148650000Y-115510000D02*
X148650000Y-116840000D01*
X147320000Y-115510000D02*
X148650000Y-115510000D01*
%TO.C,J3*%
X155960000Y-103188000D02*
X155960000Y-101858000D01*
X155960000Y-101858000D02*
X157290000Y-101858000D01*
X158560000Y-101858000D02*
X166240000Y-101858000D01*
X166240000Y-104518000D02*
X166240000Y-101858000D01*
X158560000Y-104518000D02*
X166240000Y-104518000D01*
X158560000Y-104518000D02*
X158560000Y-101858000D01*
%TO.C,J4*%
X173672000Y-104518000D02*
X173672000Y-101858000D01*
X173672000Y-104518000D02*
X181352000Y-104518000D01*
X181352000Y-104518000D02*
X181352000Y-101858000D01*
X173672000Y-101858000D02*
X181352000Y-101858000D01*
X171072000Y-101858000D02*
X172402000Y-101858000D01*
X171072000Y-103188000D02*
X171072000Y-101858000D01*
%TO.C,R1*%
X182842936Y-122307000D02*
X183297064Y-122307000D01*
X182842936Y-120837000D02*
X183297064Y-120837000D01*
%TO.C,R2*%
X150902936Y-103405000D02*
X151357064Y-103405000D01*
X150902936Y-104875000D02*
X151357064Y-104875000D01*
D10*
%TO.C,U1*%
X166668000Y-116815000D02*
X166668000Y-117020000D01*
X172168000Y-116815000D02*
X172168000Y-117115000D01*
X172168000Y-122325000D02*
X172168000Y-122025000D01*
X166668000Y-122325000D02*
X166668000Y-122025000D01*
X166668000Y-116815000D02*
X172168000Y-116815000D01*
X166668000Y-122325000D02*
X172168000Y-122325000D01*
X166668000Y-117020000D02*
X164918000Y-117020000D01*
%TO.C,U2*%
X166668000Y-109654000D02*
X164918000Y-109654000D01*
X166668000Y-114959000D02*
X172168000Y-114959000D01*
X166668000Y-109449000D02*
X172168000Y-109449000D01*
X166668000Y-114959000D02*
X166668000Y-114659000D01*
X172168000Y-114959000D02*
X172168000Y-114659000D01*
X172168000Y-109449000D02*
X172168000Y-109749000D01*
X166668000Y-109449000D02*
X166668000Y-109654000D01*
D11*
%TO.C,U3*%
X180150000Y-114335000D02*
X182910000Y-114335000D01*
X182910000Y-114335000D02*
X182910000Y-113590000D01*
X180150000Y-114335000D02*
X177390000Y-114335000D01*
X177390000Y-114335000D02*
X177390000Y-113590000D01*
X180150000Y-107915000D02*
X182910000Y-107915000D01*
X182910000Y-107915000D02*
X182910000Y-108660000D01*
X180150000Y-107915000D02*
X177390000Y-107915000D01*
X177390000Y-107915000D02*
X177390000Y-108660000D01*
X177390000Y-108660000D02*
X175700000Y-108660000D01*
D10*
%TO.C,U4*%
X152585000Y-113596000D02*
X152585000Y-113821000D01*
X159835000Y-113596000D02*
X159835000Y-113921000D01*
X159835000Y-120846000D02*
X159835000Y-120521000D01*
X152585000Y-120846000D02*
X152585000Y-120521000D01*
X152585000Y-113596000D02*
X152910000Y-113596000D01*
X152585000Y-120846000D02*
X152910000Y-120846000D01*
X159835000Y-120846000D02*
X159510000Y-120846000D01*
X159835000Y-113596000D02*
X159510000Y-113596000D01*
X152585000Y-113821000D02*
X151160000Y-113821000D01*
D11*
%TO.C,Y1*%
X177420000Y-116970000D02*
X178520000Y-116970000D01*
X177420000Y-118870000D02*
X178520000Y-118870000D01*
X176020000Y-117020000D02*
X176020000Y-118820000D01*
%TO.C,Y2*%
X156818000Y-105896000D02*
X149568000Y-105896000D01*
X149568000Y-105896000D02*
X149568000Y-109496000D01*
X149568000Y-109496000D02*
X156818000Y-109496000D01*
%TO.C,BT1*%
D10*
X148460571Y-110429714D02*
X148508190Y-110286857D01*
X148555809Y-110239238D01*
X148651047Y-110191619D01*
X148793904Y-110191619D01*
X148889142Y-110239238D01*
X148936761Y-110286857D01*
X148984380Y-110382095D01*
X148984380Y-110763047D01*
X147984380Y-110763047D01*
X147984380Y-110429714D01*
X148032000Y-110334476D01*
X148079619Y-110286857D01*
X148174857Y-110239238D01*
X148270095Y-110239238D01*
X148365333Y-110286857D01*
X148412952Y-110334476D01*
X148460571Y-110429714D01*
X148460571Y-110763047D01*
X147984380Y-109905904D02*
X147984380Y-109334476D01*
X148984380Y-109620190D02*
X147984380Y-109620190D01*
X148984380Y-108477333D02*
X148984380Y-109048761D01*
X148984380Y-108763047D02*
X147984380Y-108763047D01*
X148127238Y-108858285D01*
X148222476Y-108953523D01*
X148270095Y-109048761D01*
%TO.C,C1*%
X163663333Y-107354642D02*
X163615714Y-107402261D01*
X163472857Y-107449880D01*
X163377619Y-107449880D01*
X163234761Y-107402261D01*
X163139523Y-107307023D01*
X163091904Y-107211785D01*
X163044285Y-107021309D01*
X163044285Y-106878452D01*
X163091904Y-106687976D01*
X163139523Y-106592738D01*
X163234761Y-106497500D01*
X163377619Y-106449880D01*
X163472857Y-106449880D01*
X163615714Y-106497500D01*
X163663333Y-106545119D01*
X164615714Y-107449880D02*
X164044285Y-107449880D01*
X164330000Y-107449880D02*
X164330000Y-106449880D01*
X164234761Y-106592738D01*
X164139523Y-106687976D01*
X164044285Y-106735595D01*
%TO.C,C2*%
X163599833Y-109767642D02*
X163552214Y-109815261D01*
X163409357Y-109862880D01*
X163314119Y-109862880D01*
X163171261Y-109815261D01*
X163076023Y-109720023D01*
X163028404Y-109624785D01*
X162980785Y-109434309D01*
X162980785Y-109291452D01*
X163028404Y-109100976D01*
X163076023Y-109005738D01*
X163171261Y-108910500D01*
X163314119Y-108862880D01*
X163409357Y-108862880D01*
X163552214Y-108910500D01*
X163599833Y-108958119D01*
X163980785Y-108958119D02*
X164028404Y-108910500D01*
X164123642Y-108862880D01*
X164361738Y-108862880D01*
X164456976Y-108910500D01*
X164504595Y-108958119D01*
X164552214Y-109053357D01*
X164552214Y-109148595D01*
X164504595Y-109291452D01*
X163933166Y-109862880D01*
X164552214Y-109862880D01*
%TO.C,C3*%
X177503333Y-120219142D02*
X177455714Y-120266761D01*
X177312857Y-120314380D01*
X177217619Y-120314380D01*
X177074761Y-120266761D01*
X176979523Y-120171523D01*
X176931904Y-120076285D01*
X176884285Y-119885809D01*
X176884285Y-119742952D01*
X176931904Y-119552476D01*
X176979523Y-119457238D01*
X177074761Y-119362000D01*
X177217619Y-119314380D01*
X177312857Y-119314380D01*
X177455714Y-119362000D01*
X177503333Y-119409619D01*
X177836666Y-119314380D02*
X178455714Y-119314380D01*
X178122380Y-119695333D01*
X178265238Y-119695333D01*
X178360476Y-119742952D01*
X178408095Y-119790571D01*
X178455714Y-119885809D01*
X178455714Y-120123904D01*
X178408095Y-120219142D01*
X178360476Y-120266761D01*
X178265238Y-120314380D01*
X177979523Y-120314380D01*
X177884285Y-120266761D01*
X177836666Y-120219142D01*
%TO.C,D1*%
X182331904Y-116516380D02*
X182331904Y-115516380D01*
X182570000Y-115516380D01*
X182712857Y-115564000D01*
X182808095Y-115659238D01*
X182855714Y-115754476D01*
X182903333Y-115944952D01*
X182903333Y-116087809D01*
X182855714Y-116278285D01*
X182808095Y-116373523D01*
X182712857Y-116468761D01*
X182570000Y-116516380D01*
X182331904Y-116516380D01*
X183855714Y-116516380D02*
X183284285Y-116516380D01*
X183570000Y-116516380D02*
X183570000Y-115516380D01*
X183474761Y-115659238D01*
X183379523Y-115754476D01*
X183284285Y-115802095D01*
%TO.C,J1*%
X152448380Y-126635333D02*
X153162666Y-126635333D01*
X153305523Y-126682952D01*
X153400761Y-126778190D01*
X153448380Y-126921047D01*
X153448380Y-127016285D01*
X153448380Y-125635333D02*
X153448380Y-126206761D01*
X153448380Y-125921047D02*
X152448380Y-125921047D01*
X152591238Y-126016285D01*
X152686476Y-126111523D01*
X152734095Y-126206761D01*
%TO.C,J2*%
X145716666Y-113522380D02*
X145716666Y-114236666D01*
X145669047Y-114379523D01*
X145573809Y-114474761D01*
X145430952Y-114522380D01*
X145335714Y-114522380D01*
X146145238Y-113617619D02*
X146192857Y-113570000D01*
X146288095Y-113522380D01*
X146526190Y-113522380D01*
X146621428Y-113570000D01*
X146669047Y-113617619D01*
X146716666Y-113712857D01*
X146716666Y-113808095D01*
X146669047Y-113950952D01*
X146097619Y-114522380D01*
X146716666Y-114522380D01*
%TO.C,J3*%
X153972380Y-103521333D02*
X154686666Y-103521333D01*
X154829523Y-103568952D01*
X154924761Y-103664190D01*
X154972380Y-103807047D01*
X154972380Y-103902285D01*
X153972380Y-103140380D02*
X153972380Y-102521333D01*
X154353333Y-102854666D01*
X154353333Y-102711809D01*
X154400952Y-102616571D01*
X154448571Y-102568952D01*
X154543809Y-102521333D01*
X154781904Y-102521333D01*
X154877142Y-102568952D01*
X154924761Y-102616571D01*
X154972380Y-102711809D01*
X154972380Y-102997523D01*
X154924761Y-103092761D01*
X154877142Y-103140380D01*
%TO.C,J4*%
X169084380Y-103521333D02*
X169798666Y-103521333D01*
X169941523Y-103568952D01*
X170036761Y-103664190D01*
X170084380Y-103807047D01*
X170084380Y-103902285D01*
X169417714Y-102616571D02*
X170084380Y-102616571D01*
X169036761Y-102854666D02*
X169751047Y-103092761D01*
X169751047Y-102473714D01*
%TO.C,R1*%
X182903333Y-120374380D02*
X182570000Y-119898190D01*
X182331904Y-120374380D02*
X182331904Y-119374380D01*
X182712857Y-119374380D01*
X182808095Y-119422000D01*
X182855714Y-119469619D01*
X182903333Y-119564857D01*
X182903333Y-119707714D01*
X182855714Y-119802952D01*
X182808095Y-119850571D01*
X182712857Y-119898190D01*
X182331904Y-119898190D01*
X183855714Y-120374380D02*
X183284285Y-120374380D01*
X183570000Y-120374380D02*
X183570000Y-119374380D01*
X183474761Y-119517238D01*
X183379523Y-119612476D01*
X183284285Y-119660095D01*
%TO.C,R2*%
X148363000Y-104284428D02*
X148163000Y-103998714D01*
X148020142Y-104284428D02*
X148020142Y-103684428D01*
X148248714Y-103684428D01*
X148305857Y-103713000D01*
X148334428Y-103741571D01*
X148363000Y-103798714D01*
X148363000Y-103884428D01*
X148334428Y-103941571D01*
X148305857Y-103970142D01*
X148248714Y-103998714D01*
X148020142Y-103998714D01*
X148591571Y-103741571D02*
X148620142Y-103713000D01*
X148677285Y-103684428D01*
X148820142Y-103684428D01*
X148877285Y-103713000D01*
X148905857Y-103741571D01*
X148934428Y-103798714D01*
X148934428Y-103855857D01*
X148905857Y-103941571D01*
X148563000Y-104284428D01*
X148934428Y-104284428D01*
%TO.C,U1*%
D12*
X172974047Y-115740690D02*
X172974047Y-116145452D01*
X172997857Y-116193071D01*
X173021666Y-116216880D01*
X173069285Y-116240690D01*
X173164523Y-116240690D01*
X173212142Y-116216880D01*
X173235952Y-116193071D01*
X173259761Y-116145452D01*
X173259761Y-115740690D01*
X173759761Y-116240690D02*
X173474047Y-116240690D01*
X173616904Y-116240690D02*
X173616904Y-115740690D01*
X173569285Y-115812119D01*
X173521666Y-115859738D01*
X173474047Y-115883547D01*
%TO.C,U2*%
X165544547Y-108501690D02*
X165544547Y-108906452D01*
X165568357Y-108954071D01*
X165592166Y-108977880D01*
X165639785Y-109001690D01*
X165735023Y-109001690D01*
X165782642Y-108977880D01*
X165806452Y-108954071D01*
X165830261Y-108906452D01*
X165830261Y-108501690D01*
X166044547Y-108549309D02*
X166068357Y-108525500D01*
X166115976Y-108501690D01*
X166235023Y-108501690D01*
X166282642Y-108525500D01*
X166306452Y-108549309D01*
X166330261Y-108596928D01*
X166330261Y-108644547D01*
X166306452Y-108715976D01*
X166020738Y-109001690D01*
X166330261Y-109001690D01*
%TO.C,U3*%
D10*
X176580857Y-106922928D02*
X176580857Y-107408642D01*
X176609428Y-107465785D01*
X176638000Y-107494357D01*
X176695142Y-107522928D01*
X176809428Y-107522928D01*
X176866571Y-107494357D01*
X176895142Y-107465785D01*
X176923714Y-107408642D01*
X176923714Y-106922928D01*
X177152285Y-106922928D02*
X177523714Y-106922928D01*
X177323714Y-107151500D01*
X177409428Y-107151500D01*
X177466571Y-107180071D01*
X177495142Y-107208642D01*
X177523714Y-107265785D01*
X177523714Y-107408642D01*
X177495142Y-107465785D01*
X177466571Y-107494357D01*
X177409428Y-107522928D01*
X177238000Y-107522928D01*
X177180857Y-107494357D01*
X177152285Y-107465785D01*
%TO.C,U4*%
X151066595Y-112228380D02*
X151066595Y-113037904D01*
X151114214Y-113133142D01*
X151161833Y-113180761D01*
X151257071Y-113228380D01*
X151447547Y-113228380D01*
X151542785Y-113180761D01*
X151590404Y-113133142D01*
X151638023Y-113037904D01*
X151638023Y-112228380D01*
X152542785Y-112561714D02*
X152542785Y-113228380D01*
X152304690Y-112180761D02*
X152066595Y-112895047D01*
X152685642Y-112895047D01*
%TO.C,Y1*%
X177493809Y-115946190D02*
X177493809Y-116422380D01*
X177160476Y-115422380D02*
X177493809Y-115946190D01*
X177827142Y-115422380D01*
X178684285Y-116422380D02*
X178112857Y-116422380D01*
X178398571Y-116422380D02*
X178398571Y-115422380D01*
X178303333Y-115565238D01*
X178208095Y-115660476D01*
X178112857Y-115708095D01*
%TO.C,Y2*%
X153641809Y-104872190D02*
X153641809Y-105348380D01*
X153308476Y-104348380D02*
X153641809Y-104872190D01*
X153975142Y-104348380D01*
X154260857Y-104443619D02*
X154308476Y-104396000D01*
X154403714Y-104348380D01*
X154641809Y-104348380D01*
X154737047Y-104396000D01*
X154784666Y-104443619D01*
X154832285Y-104538857D01*
X154832285Y-104634095D01*
X154784666Y-104776952D01*
X154213238Y-105348380D01*
X154832285Y-105348380D01*
%TD*%
M02*
