%TF.GenerationSoftware,KiCad,Pcbnew,(5.1.8)-1*%
%TF.CreationDate,2020-12-16T21:52:19-05:00*%
%TF.ProjectId,Arduino Clone,41726475-696e-46f2-9043-6c6f6e652e6b,1.0*%
%TF.SameCoordinates,Original*%
%TF.FileFunction,Copper,L2,Bot*%
%TF.FilePolarity,Positive*%
%FSLAX46Y46*%
G04 Gerber Fmt 4.6, Leading zero omitted, Abs format (unit mm)*
G04 Created by KiCad (PCBNEW (5.1.8)-1) date 2020-12-16 21:52:19*
%MOMM*%
%LPD*%
G01*
G04 APERTURE LIST*
%TA.AperFunction,ComponentPad*%
%ADD10O,2.000000X1.700000*%
%TD*%
%TA.AperFunction,ComponentPad*%
%ADD11R,1.700000X1.700000*%
%TD*%
%TA.AperFunction,ComponentPad*%
%ADD12O,1.700000X1.700000*%
%TD*%
%TA.AperFunction,ViaPad*%
%ADD13C,0.800000*%
%TD*%
%TA.AperFunction,Conductor*%
%ADD14C,0.300000*%
%TD*%
%TA.AperFunction,Conductor*%
%ADD15C,0.250000*%
%TD*%
%TA.AperFunction,Conductor*%
%ADD16C,0.254000*%
%TD*%
%TA.AperFunction,Conductor*%
%ADD17C,0.100000*%
%TD*%
G04 APERTURE END LIST*
%TO.P,BT1,1*%
%TO.N,/Vcc*%
%TA.AperFunction,ComponentPad*%
G36*
G01*
X144982000Y-107544000D02*
X146482000Y-107544000D01*
G75*
G02*
X146732000Y-107794000I0J-250000D01*
G01*
X146732000Y-108994000D01*
G75*
G02*
X146482000Y-109244000I-250000J0D01*
G01*
X144982000Y-109244000D01*
G75*
G02*
X144732000Y-108994000I0J250000D01*
G01*
X144732000Y-107794000D01*
G75*
G02*
X144982000Y-107544000I250000J0D01*
G01*
G37*
%TD.AperFunction*%
D10*
%TO.P,BT1,2*%
%TO.N,GNDPWR*%
X145732000Y-110894000D03*
%TD*%
D11*
%TO.P,J1,1*%
%TO.N,/D2*%
X155766000Y-126302000D03*
D12*
%TO.P,J1,2*%
%TO.N,/D3*%
X158306000Y-126302000D03*
%TO.P,J1,3*%
%TO.N,/D4*%
X160846000Y-126302000D03*
%TO.P,J1,4*%
%TO.N,/D5*%
X163386000Y-126302000D03*
%TO.P,J1,5*%
%TO.N,/D6*%
X165926000Y-126302000D03*
%TO.P,J1,6*%
%TO.N,/D7*%
X168466000Y-126302000D03*
%TO.P,J1,7*%
%TO.N,/D8*%
X171006000Y-126302000D03*
%TO.P,J1,8*%
%TO.N,GNDPWR*%
X173546000Y-126302000D03*
%TO.P,J1,9*%
%TO.N,/Vcc*%
X176086000Y-126302000D03*
%TD*%
D11*
%TO.P,J2,1*%
%TO.N,/MISO*%
X147320000Y-116840000D03*
D12*
%TO.P,J2,2*%
%TO.N,/Vcc*%
X144780000Y-116840000D03*
%TO.P,J2,3*%
%TO.N,/SCK*%
X147320000Y-119380000D03*
%TO.P,J2,4*%
%TO.N,/MOSI*%
X144780000Y-119380000D03*
%TO.P,J2,5*%
%TO.N,/RESET*%
X147320000Y-121920000D03*
%TO.P,J2,6*%
%TO.N,GNDPWR*%
X144780000Y-121920000D03*
%TD*%
%TO.P,J3,4*%
%TO.N,/Tx*%
X164910000Y-103188000D03*
%TO.P,J3,3*%
%TO.N,/Rx*%
X162370000Y-103188000D03*
%TO.P,J3,2*%
%TO.N,/Vcc*%
X159830000Y-103188000D03*
D11*
%TO.P,J3,1*%
%TO.N,GNDPWR*%
X157290000Y-103188000D03*
%TD*%
%TO.P,J4,1*%
%TO.N,GNDPWR*%
X172402000Y-103188000D03*
D12*
%TO.P,J4,2*%
%TO.N,/Vcc*%
X174942000Y-103188000D03*
%TO.P,J4,3*%
%TO.N,/SDA*%
X177482000Y-103188000D03*
%TO.P,J4,4*%
%TO.N,/SCK*%
X180022000Y-103188000D03*
%TD*%
D13*
%TO.N,Net-(C1-Pad1)*%
X153724700Y-119042200D03*
X149831600Y-105872200D03*
%TO.N,Net-(C2-Pad1)*%
X152984800Y-109542800D03*
X148185800Y-115383000D03*
%TO.N,/SCK*%
X163460900Y-120065500D03*
%TO.N,/D2*%
X154016300Y-114382300D03*
%TO.N,/D3*%
X150541500Y-114729900D03*
%TO.N,/D4*%
X154225000Y-115883000D03*
%TO.N,/MISO*%
X150053600Y-117063200D03*
X154837400Y-119433900D03*
%TO.N,/MOSI*%
X153389100Y-120042900D03*
%TO.N,/Tx*%
X153599200Y-111556500D03*
%TO.N,/Rx*%
X154872500Y-111059400D03*
%TO.N,/SDA*%
X174527600Y-121027500D03*
X174060100Y-115142000D03*
%TO.N,/ADDS1*%
X163735500Y-109511700D03*
X163369100Y-116441300D03*
%TO.N,/ADDS2*%
X165201800Y-116342000D03*
X167234300Y-111569000D03*
%TD*%
D14*
%TO.N,/Vcc*%
X159830000Y-103188000D02*
X161030300Y-103188000D01*
X174942000Y-103188000D02*
X173741700Y-103188000D01*
X161030300Y-103188000D02*
X161030300Y-102812900D01*
X161030300Y-102812900D02*
X161855600Y-101987600D01*
X161855600Y-101987600D02*
X173478000Y-101987600D01*
X173478000Y-101987600D02*
X173741700Y-102251300D01*
X173741700Y-102251300D02*
X173741700Y-103188000D01*
X144780000Y-116840000D02*
X144780000Y-115639700D01*
X144780000Y-115639700D02*
X144357400Y-115217100D01*
X144357400Y-115217100D02*
X144357400Y-109768600D01*
X144357400Y-109768600D02*
X145732000Y-108394000D01*
%TO.N,GNDPWR*%
X157290000Y-103188000D02*
X156089700Y-103188000D01*
X156089700Y-103188000D02*
X148383700Y-110894000D01*
X148383700Y-110894000D02*
X145732000Y-110894000D01*
X145732000Y-110894000D02*
X145732000Y-112094300D01*
X144780000Y-121920000D02*
X144780000Y-120719700D01*
X144780000Y-120719700D02*
X145155100Y-120719700D01*
X145155100Y-120719700D02*
X146022700Y-119852100D01*
X146022700Y-119852100D02*
X146022700Y-112385000D01*
X146022700Y-112385000D02*
X145732000Y-112094300D01*
D15*
%TO.N,Net-(C1-Pad1)*%
X153724700Y-119042200D02*
X153724700Y-119346900D01*
X153724700Y-119346900D02*
X154114500Y-119736700D01*
X154114500Y-119736700D02*
X154114500Y-120422600D01*
X154114500Y-120422600D02*
X150922900Y-123614200D01*
X150922900Y-123614200D02*
X144115600Y-123614200D01*
X144115600Y-123614200D02*
X143152900Y-122651500D01*
X143152900Y-122651500D02*
X143152900Y-108760900D01*
X143152900Y-108760900D02*
X146041600Y-105872200D01*
X146041600Y-105872200D02*
X149831600Y-105872200D01*
%TO.N,Net-(C2-Pad1)*%
X148185800Y-115383000D02*
X148185800Y-114341800D01*
X148185800Y-114341800D02*
X152984800Y-109542800D01*
%TO.N,/SCK*%
X147320000Y-118204700D02*
X148128100Y-118204700D01*
X148128100Y-118204700D02*
X148945600Y-117387200D01*
X148945600Y-117387200D02*
X148945600Y-114619100D01*
X148945600Y-114619100D02*
X150071800Y-113492900D01*
X150071800Y-113492900D02*
X156888300Y-113492900D01*
X156888300Y-113492900D02*
X163460900Y-120065500D01*
X163460900Y-120065500D02*
X164319800Y-120065500D01*
X164319800Y-120065500D02*
X180022000Y-104363300D01*
X147320000Y-119380000D02*
X147320000Y-118204700D01*
X180022000Y-103188000D02*
X180022000Y-104363300D01*
%TO.N,/D2*%
X155766000Y-125126700D02*
X155766000Y-119326000D01*
X155766000Y-119326000D02*
X152624500Y-116184500D01*
X152624500Y-116184500D02*
X150918500Y-116184500D01*
X150918500Y-116184500D02*
X149798100Y-115064100D01*
X149798100Y-115064100D02*
X149798100Y-114447500D01*
X149798100Y-114447500D02*
X150241100Y-114004500D01*
X150241100Y-114004500D02*
X153638500Y-114004500D01*
X153638500Y-114004500D02*
X154016300Y-114382300D01*
X155766000Y-126302000D02*
X155766000Y-125126700D01*
%TO.N,/D3*%
X158306000Y-125126700D02*
X158306000Y-121172100D01*
X158306000Y-121172100D02*
X151863800Y-114729900D01*
X151863800Y-114729900D02*
X150541500Y-114729900D01*
X158306000Y-126302000D02*
X158306000Y-125126700D01*
%TO.N,/D4*%
X160846000Y-126302000D02*
X160846000Y-122504000D01*
X160846000Y-122504000D02*
X154225000Y-115883000D01*
%TO.N,/MISO*%
X154837400Y-119433900D02*
X154837400Y-119048900D01*
X154837400Y-119048900D02*
X152851700Y-117063200D01*
X152851700Y-117063200D02*
X150053600Y-117063200D01*
%TO.N,/MOSI*%
X153389100Y-120042900D02*
X150321600Y-123110400D01*
X150321600Y-123110400D02*
X144250100Y-123110400D01*
X144250100Y-123110400D02*
X143604600Y-122464900D01*
X143604600Y-122464900D02*
X143604600Y-120555400D01*
X143604600Y-120555400D02*
X144780000Y-119380000D01*
%TO.N,/Tx*%
X163734700Y-103188000D02*
X163734700Y-103555300D01*
X163734700Y-103555300D02*
X155499600Y-111790400D01*
X155499600Y-111790400D02*
X153833100Y-111790400D01*
X153833100Y-111790400D02*
X153599200Y-111556500D01*
X164910000Y-103188000D02*
X163734700Y-103188000D01*
%TO.N,/Rx*%
X154872500Y-111059400D02*
X162370000Y-103561900D01*
X162370000Y-103561900D02*
X162370000Y-103188000D01*
%TO.N,/SDA*%
X174060100Y-115142000D02*
X174527600Y-115609500D01*
X174527600Y-115609500D02*
X174527600Y-121027500D01*
X178657300Y-103188000D02*
X178657300Y-102820700D01*
X178657300Y-102820700D02*
X179483600Y-101994400D01*
X179483600Y-101994400D02*
X180499900Y-101994400D01*
X180499900Y-101994400D02*
X181201600Y-102696100D01*
X181201600Y-102696100D02*
X181201600Y-108000500D01*
X181201600Y-108000500D02*
X174060100Y-115142000D01*
X177482000Y-103188000D02*
X178657300Y-103188000D01*
%TO.N,/ADDS1*%
X163735500Y-109511700D02*
X163735500Y-116074900D01*
X163735500Y-116074900D02*
X163369100Y-116441300D01*
%TO.N,/ADDS2*%
X165201800Y-116342000D02*
X167234300Y-114309500D01*
X167234300Y-114309500D02*
X167234300Y-111569000D01*
%TD*%
D16*
%TO.N,GNDPWR*%
X182163457Y-104632135D02*
X182451365Y-104920043D01*
X182789909Y-105146250D01*
X183166079Y-105302065D01*
X183565418Y-105381499D01*
X183972582Y-105381499D01*
X184371921Y-105302065D01*
X184748091Y-105146250D01*
X185086635Y-104920043D01*
X185374543Y-104632135D01*
X185395000Y-104601519D01*
X185395001Y-125258323D01*
X185277135Y-125140457D01*
X184938591Y-124914250D01*
X184562421Y-124758435D01*
X184163082Y-124679001D01*
X183755918Y-124679001D01*
X183356579Y-124758435D01*
X182980409Y-124914250D01*
X182641865Y-125140457D01*
X182353957Y-125428365D01*
X182127750Y-125766909D01*
X181971935Y-126143079D01*
X181892501Y-126542418D01*
X181892501Y-126949582D01*
X181971935Y-127348921D01*
X182127750Y-127725091D01*
X182347853Y-128054500D01*
X146394678Y-128054500D01*
X146639543Y-127809635D01*
X146865750Y-127471091D01*
X147021565Y-127094921D01*
X147100999Y-126695582D01*
X147100999Y-126288418D01*
X147021565Y-125889079D01*
X146865750Y-125512909D01*
X146639543Y-125174365D01*
X146351635Y-124886457D01*
X146013091Y-124660250D01*
X145636921Y-124504435D01*
X145237582Y-124425001D01*
X144830418Y-124425001D01*
X144431079Y-124504435D01*
X144054909Y-124660250D01*
X143716365Y-124886457D01*
X143428457Y-125174365D01*
X143202250Y-125512909D01*
X143046435Y-125889079D01*
X143027000Y-125986785D01*
X143027000Y-123600402D01*
X143551805Y-124125208D01*
X143575599Y-124154201D01*
X143604592Y-124177995D01*
X143604596Y-124177999D01*
X143675285Y-124236011D01*
X143691324Y-124249174D01*
X143823353Y-124319746D01*
X143966614Y-124363203D01*
X144078267Y-124374200D01*
X144078276Y-124374200D01*
X144115599Y-124377876D01*
X144152922Y-124374200D01*
X150885578Y-124374200D01*
X150922900Y-124377876D01*
X150960222Y-124374200D01*
X150960233Y-124374200D01*
X151071886Y-124363203D01*
X151215147Y-124319746D01*
X151347176Y-124249174D01*
X151462901Y-124154201D01*
X151486704Y-124125197D01*
X154625503Y-120986399D01*
X154654501Y-120962601D01*
X154684899Y-120925561D01*
X154749474Y-120846877D01*
X154820046Y-120714847D01*
X154863503Y-120571586D01*
X154873617Y-120468900D01*
X154939339Y-120468900D01*
X155006001Y-120455640D01*
X155006000Y-124813928D01*
X154916000Y-124813928D01*
X154791518Y-124826188D01*
X154671820Y-124862498D01*
X154561506Y-124921463D01*
X154464815Y-125000815D01*
X154385463Y-125097506D01*
X154326498Y-125207820D01*
X154290188Y-125327518D01*
X154277928Y-125452000D01*
X154277928Y-127152000D01*
X154290188Y-127276482D01*
X154326498Y-127396180D01*
X154385463Y-127506494D01*
X154464815Y-127603185D01*
X154561506Y-127682537D01*
X154671820Y-127741502D01*
X154791518Y-127777812D01*
X154916000Y-127790072D01*
X156616000Y-127790072D01*
X156740482Y-127777812D01*
X156860180Y-127741502D01*
X156970494Y-127682537D01*
X157067185Y-127603185D01*
X157146537Y-127506494D01*
X157205502Y-127396180D01*
X157227513Y-127323620D01*
X157359368Y-127455475D01*
X157602589Y-127617990D01*
X157872842Y-127729932D01*
X158159740Y-127787000D01*
X158452260Y-127787000D01*
X158739158Y-127729932D01*
X159009411Y-127617990D01*
X159252632Y-127455475D01*
X159459475Y-127248632D01*
X159576000Y-127074240D01*
X159692525Y-127248632D01*
X159899368Y-127455475D01*
X160142589Y-127617990D01*
X160412842Y-127729932D01*
X160699740Y-127787000D01*
X160992260Y-127787000D01*
X161279158Y-127729932D01*
X161549411Y-127617990D01*
X161792632Y-127455475D01*
X161999475Y-127248632D01*
X162116000Y-127074240D01*
X162232525Y-127248632D01*
X162439368Y-127455475D01*
X162682589Y-127617990D01*
X162952842Y-127729932D01*
X163239740Y-127787000D01*
X163532260Y-127787000D01*
X163819158Y-127729932D01*
X164089411Y-127617990D01*
X164332632Y-127455475D01*
X164539475Y-127248632D01*
X164656000Y-127074240D01*
X164772525Y-127248632D01*
X164979368Y-127455475D01*
X165222589Y-127617990D01*
X165492842Y-127729932D01*
X165779740Y-127787000D01*
X166072260Y-127787000D01*
X166359158Y-127729932D01*
X166629411Y-127617990D01*
X166872632Y-127455475D01*
X167079475Y-127248632D01*
X167196000Y-127074240D01*
X167312525Y-127248632D01*
X167519368Y-127455475D01*
X167762589Y-127617990D01*
X168032842Y-127729932D01*
X168319740Y-127787000D01*
X168612260Y-127787000D01*
X168899158Y-127729932D01*
X169169411Y-127617990D01*
X169412632Y-127455475D01*
X169619475Y-127248632D01*
X169736000Y-127074240D01*
X169852525Y-127248632D01*
X170059368Y-127455475D01*
X170302589Y-127617990D01*
X170572842Y-127729932D01*
X170859740Y-127787000D01*
X171152260Y-127787000D01*
X171439158Y-127729932D01*
X171709411Y-127617990D01*
X171952632Y-127455475D01*
X172159475Y-127248632D01*
X172281195Y-127066466D01*
X172350822Y-127183355D01*
X172545731Y-127399588D01*
X172779080Y-127573641D01*
X173041901Y-127698825D01*
X173189110Y-127743476D01*
X173419000Y-127622155D01*
X173419000Y-126429000D01*
X173399000Y-126429000D01*
X173399000Y-126175000D01*
X173419000Y-126175000D01*
X173419000Y-124981845D01*
X173673000Y-124981845D01*
X173673000Y-126175000D01*
X173693000Y-126175000D01*
X173693000Y-126429000D01*
X173673000Y-126429000D01*
X173673000Y-127622155D01*
X173902890Y-127743476D01*
X174050099Y-127698825D01*
X174312920Y-127573641D01*
X174546269Y-127399588D01*
X174741178Y-127183355D01*
X174810805Y-127066466D01*
X174932525Y-127248632D01*
X175139368Y-127455475D01*
X175382589Y-127617990D01*
X175652842Y-127729932D01*
X175939740Y-127787000D01*
X176232260Y-127787000D01*
X176519158Y-127729932D01*
X176789411Y-127617990D01*
X177032632Y-127455475D01*
X177239475Y-127248632D01*
X177401990Y-127005411D01*
X177513932Y-126735158D01*
X177571000Y-126448260D01*
X177571000Y-126155740D01*
X177513932Y-125868842D01*
X177401990Y-125598589D01*
X177239475Y-125355368D01*
X177032632Y-125148525D01*
X176789411Y-124986010D01*
X176519158Y-124874068D01*
X176232260Y-124817000D01*
X175939740Y-124817000D01*
X175652842Y-124874068D01*
X175382589Y-124986010D01*
X175139368Y-125148525D01*
X174932525Y-125355368D01*
X174810805Y-125537534D01*
X174741178Y-125420645D01*
X174546269Y-125204412D01*
X174312920Y-125030359D01*
X174050099Y-124905175D01*
X173902890Y-124860524D01*
X173673000Y-124981845D01*
X173419000Y-124981845D01*
X173189110Y-124860524D01*
X173041901Y-124905175D01*
X172779080Y-125030359D01*
X172545731Y-125204412D01*
X172350822Y-125420645D01*
X172281195Y-125537534D01*
X172159475Y-125355368D01*
X171952632Y-125148525D01*
X171709411Y-124986010D01*
X171439158Y-124874068D01*
X171152260Y-124817000D01*
X170859740Y-124817000D01*
X170572842Y-124874068D01*
X170302589Y-124986010D01*
X170059368Y-125148525D01*
X169852525Y-125355368D01*
X169736000Y-125529760D01*
X169619475Y-125355368D01*
X169412632Y-125148525D01*
X169169411Y-124986010D01*
X168899158Y-124874068D01*
X168612260Y-124817000D01*
X168319740Y-124817000D01*
X168032842Y-124874068D01*
X167762589Y-124986010D01*
X167519368Y-125148525D01*
X167312525Y-125355368D01*
X167196000Y-125529760D01*
X167079475Y-125355368D01*
X166872632Y-125148525D01*
X166629411Y-124986010D01*
X166359158Y-124874068D01*
X166072260Y-124817000D01*
X165779740Y-124817000D01*
X165492842Y-124874068D01*
X165222589Y-124986010D01*
X164979368Y-125148525D01*
X164772525Y-125355368D01*
X164656000Y-125529760D01*
X164539475Y-125355368D01*
X164332632Y-125148525D01*
X164089411Y-124986010D01*
X163819158Y-124874068D01*
X163532260Y-124817000D01*
X163239740Y-124817000D01*
X162952842Y-124874068D01*
X162682589Y-124986010D01*
X162439368Y-125148525D01*
X162232525Y-125355368D01*
X162116000Y-125529760D01*
X161999475Y-125355368D01*
X161792632Y-125148525D01*
X161606000Y-125023822D01*
X161606000Y-122541322D01*
X161609676Y-122504000D01*
X161606000Y-122466677D01*
X161606000Y-122466667D01*
X161595003Y-122355014D01*
X161551546Y-122211753D01*
X161530647Y-122172654D01*
X161480974Y-122079723D01*
X161409799Y-121992997D01*
X161386001Y-121963999D01*
X161357003Y-121940201D01*
X155260000Y-115843199D01*
X155260000Y-115781061D01*
X155220226Y-115581102D01*
X155142205Y-115392744D01*
X155028937Y-115223226D01*
X154884774Y-115079063D01*
X154823070Y-115037834D01*
X154933505Y-114872556D01*
X155011526Y-114684198D01*
X155051300Y-114484239D01*
X155051300Y-114280361D01*
X155045838Y-114252900D01*
X156573499Y-114252900D01*
X162425900Y-120105302D01*
X162425900Y-120167439D01*
X162465674Y-120367398D01*
X162543695Y-120555756D01*
X162656963Y-120725274D01*
X162801126Y-120869437D01*
X162970644Y-120982705D01*
X163159002Y-121060726D01*
X163358961Y-121100500D01*
X163562839Y-121100500D01*
X163762798Y-121060726D01*
X163951156Y-120982705D01*
X164120674Y-120869437D01*
X164164611Y-120825500D01*
X164282478Y-120825500D01*
X164319800Y-120829176D01*
X164357122Y-120825500D01*
X164357133Y-120825500D01*
X164468786Y-120814503D01*
X164612047Y-120771046D01*
X164744076Y-120700474D01*
X164859801Y-120605501D01*
X164883604Y-120576497D01*
X180441600Y-105018502D01*
X180441601Y-107685697D01*
X174020299Y-114107000D01*
X173958161Y-114107000D01*
X173758202Y-114146774D01*
X173569844Y-114224795D01*
X173400326Y-114338063D01*
X173256163Y-114482226D01*
X173142895Y-114651744D01*
X173064874Y-114840102D01*
X173025100Y-115040061D01*
X173025100Y-115243939D01*
X173064874Y-115443898D01*
X173142895Y-115632256D01*
X173256163Y-115801774D01*
X173400326Y-115945937D01*
X173569844Y-116059205D01*
X173758202Y-116137226D01*
X173767600Y-116139095D01*
X173767601Y-120323788D01*
X173723663Y-120367726D01*
X173610395Y-120537244D01*
X173532374Y-120725602D01*
X173492600Y-120925561D01*
X173492600Y-121129439D01*
X173532374Y-121329398D01*
X173610395Y-121517756D01*
X173723663Y-121687274D01*
X173867826Y-121831437D01*
X174037344Y-121944705D01*
X174225702Y-122022726D01*
X174425661Y-122062500D01*
X174629539Y-122062500D01*
X174829498Y-122022726D01*
X175017856Y-121944705D01*
X175187374Y-121831437D01*
X175331537Y-121687274D01*
X175444805Y-121517756D01*
X175522826Y-121329398D01*
X175562600Y-121129439D01*
X175562600Y-120925561D01*
X175522826Y-120725602D01*
X175444805Y-120537244D01*
X175331537Y-120367726D01*
X175287600Y-120323789D01*
X175287600Y-115646823D01*
X175291276Y-115609500D01*
X175287600Y-115572177D01*
X175287600Y-115572167D01*
X175276603Y-115460514D01*
X175233146Y-115317253D01*
X175162574Y-115185224D01*
X175130617Y-115146284D01*
X181712603Y-108564299D01*
X181741601Y-108540501D01*
X181793961Y-108476700D01*
X181836574Y-108424777D01*
X181907146Y-108292747D01*
X181928940Y-108220899D01*
X181950603Y-108149486D01*
X181961600Y-108037833D01*
X181961600Y-108037824D01*
X181965276Y-108000501D01*
X181961600Y-107963178D01*
X181961600Y-104330033D01*
X182163457Y-104632135D01*
%TA.AperFunction,Conductor*%
D17*
G36*
X182163457Y-104632135D02*
G01*
X182451365Y-104920043D01*
X182789909Y-105146250D01*
X183166079Y-105302065D01*
X183565418Y-105381499D01*
X183972582Y-105381499D01*
X184371921Y-105302065D01*
X184748091Y-105146250D01*
X185086635Y-104920043D01*
X185374543Y-104632135D01*
X185395000Y-104601519D01*
X185395001Y-125258323D01*
X185277135Y-125140457D01*
X184938591Y-124914250D01*
X184562421Y-124758435D01*
X184163082Y-124679001D01*
X183755918Y-124679001D01*
X183356579Y-124758435D01*
X182980409Y-124914250D01*
X182641865Y-125140457D01*
X182353957Y-125428365D01*
X182127750Y-125766909D01*
X181971935Y-126143079D01*
X181892501Y-126542418D01*
X181892501Y-126949582D01*
X181971935Y-127348921D01*
X182127750Y-127725091D01*
X182347853Y-128054500D01*
X146394678Y-128054500D01*
X146639543Y-127809635D01*
X146865750Y-127471091D01*
X147021565Y-127094921D01*
X147100999Y-126695582D01*
X147100999Y-126288418D01*
X147021565Y-125889079D01*
X146865750Y-125512909D01*
X146639543Y-125174365D01*
X146351635Y-124886457D01*
X146013091Y-124660250D01*
X145636921Y-124504435D01*
X145237582Y-124425001D01*
X144830418Y-124425001D01*
X144431079Y-124504435D01*
X144054909Y-124660250D01*
X143716365Y-124886457D01*
X143428457Y-125174365D01*
X143202250Y-125512909D01*
X143046435Y-125889079D01*
X143027000Y-125986785D01*
X143027000Y-123600402D01*
X143551805Y-124125208D01*
X143575599Y-124154201D01*
X143604592Y-124177995D01*
X143604596Y-124177999D01*
X143675285Y-124236011D01*
X143691324Y-124249174D01*
X143823353Y-124319746D01*
X143966614Y-124363203D01*
X144078267Y-124374200D01*
X144078276Y-124374200D01*
X144115599Y-124377876D01*
X144152922Y-124374200D01*
X150885578Y-124374200D01*
X150922900Y-124377876D01*
X150960222Y-124374200D01*
X150960233Y-124374200D01*
X151071886Y-124363203D01*
X151215147Y-124319746D01*
X151347176Y-124249174D01*
X151462901Y-124154201D01*
X151486704Y-124125197D01*
X154625503Y-120986399D01*
X154654501Y-120962601D01*
X154684899Y-120925561D01*
X154749474Y-120846877D01*
X154820046Y-120714847D01*
X154863503Y-120571586D01*
X154873617Y-120468900D01*
X154939339Y-120468900D01*
X155006001Y-120455640D01*
X155006000Y-124813928D01*
X154916000Y-124813928D01*
X154791518Y-124826188D01*
X154671820Y-124862498D01*
X154561506Y-124921463D01*
X154464815Y-125000815D01*
X154385463Y-125097506D01*
X154326498Y-125207820D01*
X154290188Y-125327518D01*
X154277928Y-125452000D01*
X154277928Y-127152000D01*
X154290188Y-127276482D01*
X154326498Y-127396180D01*
X154385463Y-127506494D01*
X154464815Y-127603185D01*
X154561506Y-127682537D01*
X154671820Y-127741502D01*
X154791518Y-127777812D01*
X154916000Y-127790072D01*
X156616000Y-127790072D01*
X156740482Y-127777812D01*
X156860180Y-127741502D01*
X156970494Y-127682537D01*
X157067185Y-127603185D01*
X157146537Y-127506494D01*
X157205502Y-127396180D01*
X157227513Y-127323620D01*
X157359368Y-127455475D01*
X157602589Y-127617990D01*
X157872842Y-127729932D01*
X158159740Y-127787000D01*
X158452260Y-127787000D01*
X158739158Y-127729932D01*
X159009411Y-127617990D01*
X159252632Y-127455475D01*
X159459475Y-127248632D01*
X159576000Y-127074240D01*
X159692525Y-127248632D01*
X159899368Y-127455475D01*
X160142589Y-127617990D01*
X160412842Y-127729932D01*
X160699740Y-127787000D01*
X160992260Y-127787000D01*
X161279158Y-127729932D01*
X161549411Y-127617990D01*
X161792632Y-127455475D01*
X161999475Y-127248632D01*
X162116000Y-127074240D01*
X162232525Y-127248632D01*
X162439368Y-127455475D01*
X162682589Y-127617990D01*
X162952842Y-127729932D01*
X163239740Y-127787000D01*
X163532260Y-127787000D01*
X163819158Y-127729932D01*
X164089411Y-127617990D01*
X164332632Y-127455475D01*
X164539475Y-127248632D01*
X164656000Y-127074240D01*
X164772525Y-127248632D01*
X164979368Y-127455475D01*
X165222589Y-127617990D01*
X165492842Y-127729932D01*
X165779740Y-127787000D01*
X166072260Y-127787000D01*
X166359158Y-127729932D01*
X166629411Y-127617990D01*
X166872632Y-127455475D01*
X167079475Y-127248632D01*
X167196000Y-127074240D01*
X167312525Y-127248632D01*
X167519368Y-127455475D01*
X167762589Y-127617990D01*
X168032842Y-127729932D01*
X168319740Y-127787000D01*
X168612260Y-127787000D01*
X168899158Y-127729932D01*
X169169411Y-127617990D01*
X169412632Y-127455475D01*
X169619475Y-127248632D01*
X169736000Y-127074240D01*
X169852525Y-127248632D01*
X170059368Y-127455475D01*
X170302589Y-127617990D01*
X170572842Y-127729932D01*
X170859740Y-127787000D01*
X171152260Y-127787000D01*
X171439158Y-127729932D01*
X171709411Y-127617990D01*
X171952632Y-127455475D01*
X172159475Y-127248632D01*
X172281195Y-127066466D01*
X172350822Y-127183355D01*
X172545731Y-127399588D01*
X172779080Y-127573641D01*
X173041901Y-127698825D01*
X173189110Y-127743476D01*
X173419000Y-127622155D01*
X173419000Y-126429000D01*
X173399000Y-126429000D01*
X173399000Y-126175000D01*
X173419000Y-126175000D01*
X173419000Y-124981845D01*
X173673000Y-124981845D01*
X173673000Y-126175000D01*
X173693000Y-126175000D01*
X173693000Y-126429000D01*
X173673000Y-126429000D01*
X173673000Y-127622155D01*
X173902890Y-127743476D01*
X174050099Y-127698825D01*
X174312920Y-127573641D01*
X174546269Y-127399588D01*
X174741178Y-127183355D01*
X174810805Y-127066466D01*
X174932525Y-127248632D01*
X175139368Y-127455475D01*
X175382589Y-127617990D01*
X175652842Y-127729932D01*
X175939740Y-127787000D01*
X176232260Y-127787000D01*
X176519158Y-127729932D01*
X176789411Y-127617990D01*
X177032632Y-127455475D01*
X177239475Y-127248632D01*
X177401990Y-127005411D01*
X177513932Y-126735158D01*
X177571000Y-126448260D01*
X177571000Y-126155740D01*
X177513932Y-125868842D01*
X177401990Y-125598589D01*
X177239475Y-125355368D01*
X177032632Y-125148525D01*
X176789411Y-124986010D01*
X176519158Y-124874068D01*
X176232260Y-124817000D01*
X175939740Y-124817000D01*
X175652842Y-124874068D01*
X175382589Y-124986010D01*
X175139368Y-125148525D01*
X174932525Y-125355368D01*
X174810805Y-125537534D01*
X174741178Y-125420645D01*
X174546269Y-125204412D01*
X174312920Y-125030359D01*
X174050099Y-124905175D01*
X173902890Y-124860524D01*
X173673000Y-124981845D01*
X173419000Y-124981845D01*
X173189110Y-124860524D01*
X173041901Y-124905175D01*
X172779080Y-125030359D01*
X172545731Y-125204412D01*
X172350822Y-125420645D01*
X172281195Y-125537534D01*
X172159475Y-125355368D01*
X171952632Y-125148525D01*
X171709411Y-124986010D01*
X171439158Y-124874068D01*
X171152260Y-124817000D01*
X170859740Y-124817000D01*
X170572842Y-124874068D01*
X170302589Y-124986010D01*
X170059368Y-125148525D01*
X169852525Y-125355368D01*
X169736000Y-125529760D01*
X169619475Y-125355368D01*
X169412632Y-125148525D01*
X169169411Y-124986010D01*
X168899158Y-124874068D01*
X168612260Y-124817000D01*
X168319740Y-124817000D01*
X168032842Y-124874068D01*
X167762589Y-124986010D01*
X167519368Y-125148525D01*
X167312525Y-125355368D01*
X167196000Y-125529760D01*
X167079475Y-125355368D01*
X166872632Y-125148525D01*
X166629411Y-124986010D01*
X166359158Y-124874068D01*
X166072260Y-124817000D01*
X165779740Y-124817000D01*
X165492842Y-124874068D01*
X165222589Y-124986010D01*
X164979368Y-125148525D01*
X164772525Y-125355368D01*
X164656000Y-125529760D01*
X164539475Y-125355368D01*
X164332632Y-125148525D01*
X164089411Y-124986010D01*
X163819158Y-124874068D01*
X163532260Y-124817000D01*
X163239740Y-124817000D01*
X162952842Y-124874068D01*
X162682589Y-124986010D01*
X162439368Y-125148525D01*
X162232525Y-125355368D01*
X162116000Y-125529760D01*
X161999475Y-125355368D01*
X161792632Y-125148525D01*
X161606000Y-125023822D01*
X161606000Y-122541322D01*
X161609676Y-122504000D01*
X161606000Y-122466677D01*
X161606000Y-122466667D01*
X161595003Y-122355014D01*
X161551546Y-122211753D01*
X161530647Y-122172654D01*
X161480974Y-122079723D01*
X161409799Y-121992997D01*
X161386001Y-121963999D01*
X161357003Y-121940201D01*
X155260000Y-115843199D01*
X155260000Y-115781061D01*
X155220226Y-115581102D01*
X155142205Y-115392744D01*
X155028937Y-115223226D01*
X154884774Y-115079063D01*
X154823070Y-115037834D01*
X154933505Y-114872556D01*
X155011526Y-114684198D01*
X155051300Y-114484239D01*
X155051300Y-114280361D01*
X155045838Y-114252900D01*
X156573499Y-114252900D01*
X162425900Y-120105302D01*
X162425900Y-120167439D01*
X162465674Y-120367398D01*
X162543695Y-120555756D01*
X162656963Y-120725274D01*
X162801126Y-120869437D01*
X162970644Y-120982705D01*
X163159002Y-121060726D01*
X163358961Y-121100500D01*
X163562839Y-121100500D01*
X163762798Y-121060726D01*
X163951156Y-120982705D01*
X164120674Y-120869437D01*
X164164611Y-120825500D01*
X164282478Y-120825500D01*
X164319800Y-120829176D01*
X164357122Y-120825500D01*
X164357133Y-120825500D01*
X164468786Y-120814503D01*
X164612047Y-120771046D01*
X164744076Y-120700474D01*
X164859801Y-120605501D01*
X164883604Y-120576497D01*
X180441600Y-105018502D01*
X180441601Y-107685697D01*
X174020299Y-114107000D01*
X173958161Y-114107000D01*
X173758202Y-114146774D01*
X173569844Y-114224795D01*
X173400326Y-114338063D01*
X173256163Y-114482226D01*
X173142895Y-114651744D01*
X173064874Y-114840102D01*
X173025100Y-115040061D01*
X173025100Y-115243939D01*
X173064874Y-115443898D01*
X173142895Y-115632256D01*
X173256163Y-115801774D01*
X173400326Y-115945937D01*
X173569844Y-116059205D01*
X173758202Y-116137226D01*
X173767600Y-116139095D01*
X173767601Y-120323788D01*
X173723663Y-120367726D01*
X173610395Y-120537244D01*
X173532374Y-120725602D01*
X173492600Y-120925561D01*
X173492600Y-121129439D01*
X173532374Y-121329398D01*
X173610395Y-121517756D01*
X173723663Y-121687274D01*
X173867826Y-121831437D01*
X174037344Y-121944705D01*
X174225702Y-122022726D01*
X174425661Y-122062500D01*
X174629539Y-122062500D01*
X174829498Y-122022726D01*
X175017856Y-121944705D01*
X175187374Y-121831437D01*
X175331537Y-121687274D01*
X175444805Y-121517756D01*
X175522826Y-121329398D01*
X175562600Y-121129439D01*
X175562600Y-120925561D01*
X175522826Y-120725602D01*
X175444805Y-120537244D01*
X175331537Y-120367726D01*
X175287600Y-120323789D01*
X175287600Y-115646823D01*
X175291276Y-115609500D01*
X175287600Y-115572177D01*
X175287600Y-115572167D01*
X175276603Y-115460514D01*
X175233146Y-115317253D01*
X175162574Y-115185224D01*
X175130617Y-115146284D01*
X181712603Y-108564299D01*
X181741601Y-108540501D01*
X181793961Y-108476700D01*
X181836574Y-108424777D01*
X181907146Y-108292747D01*
X181928940Y-108220899D01*
X181950603Y-108149486D01*
X181961600Y-108037833D01*
X181961600Y-108037824D01*
X181965276Y-108000501D01*
X181961600Y-107963178D01*
X181961600Y-104330033D01*
X182163457Y-104632135D01*
G37*
%TD.AperFunction*%
D16*
X144907000Y-121793000D02*
X144927000Y-121793000D01*
X144927000Y-122047000D01*
X144907000Y-122047000D01*
X144907000Y-122067000D01*
X144653000Y-122067000D01*
X144653000Y-122047000D01*
X144633000Y-122047000D01*
X144633000Y-121793000D01*
X144653000Y-121793000D01*
X144653000Y-121773000D01*
X144907000Y-121773000D01*
X144907000Y-121793000D01*
%TA.AperFunction,Conductor*%
D17*
G36*
X144907000Y-121793000D02*
G01*
X144927000Y-121793000D01*
X144927000Y-122047000D01*
X144907000Y-122047000D01*
X144907000Y-122067000D01*
X144653000Y-122067000D01*
X144653000Y-122047000D01*
X144633000Y-122047000D01*
X144633000Y-121793000D01*
X144653000Y-121793000D01*
X144653000Y-121773000D01*
X144907000Y-121773000D01*
X144907000Y-121793000D01*
G37*
%TD.AperFunction*%
D16*
X160729806Y-102003237D02*
X160533411Y-101872010D01*
X160263158Y-101760068D01*
X159976260Y-101703000D01*
X159683740Y-101703000D01*
X159396842Y-101760068D01*
X159126589Y-101872010D01*
X158883368Y-102034525D01*
X158751513Y-102166380D01*
X158729502Y-102093820D01*
X158670537Y-101983506D01*
X158591185Y-101886815D01*
X158494494Y-101807463D01*
X158384180Y-101748498D01*
X158264482Y-101712188D01*
X158140000Y-101699928D01*
X157575750Y-101703000D01*
X157417000Y-101861750D01*
X157417000Y-103061000D01*
X157437000Y-103061000D01*
X157437000Y-103315000D01*
X157417000Y-103315000D01*
X157417000Y-104514250D01*
X157575750Y-104673000D01*
X158140000Y-104676072D01*
X158264482Y-104663812D01*
X158384180Y-104627502D01*
X158494494Y-104568537D01*
X158591185Y-104489185D01*
X158670537Y-104392494D01*
X158729502Y-104282180D01*
X158751513Y-104209620D01*
X158883368Y-104341475D01*
X159126589Y-104503990D01*
X159396842Y-104615932D01*
X159683740Y-104673000D01*
X159976260Y-104673000D01*
X160235706Y-104621393D01*
X154832699Y-110024400D01*
X154770561Y-110024400D01*
X154570602Y-110064174D01*
X154382244Y-110142195D01*
X154212726Y-110255463D01*
X154068563Y-110399626D01*
X153955295Y-110569144D01*
X153950140Y-110581588D01*
X153901098Y-110561274D01*
X153701139Y-110521500D01*
X153497261Y-110521500D01*
X153297302Y-110561274D01*
X153108944Y-110639295D01*
X152939426Y-110752563D01*
X152795263Y-110896726D01*
X152681995Y-111066244D01*
X152603974Y-111254602D01*
X152564200Y-111454561D01*
X152564200Y-111658439D01*
X152603974Y-111858398D01*
X152681995Y-112046756D01*
X152795263Y-112216274D01*
X152939426Y-112360437D01*
X153108944Y-112473705D01*
X153297302Y-112551726D01*
X153497261Y-112591500D01*
X153701139Y-112591500D01*
X153901098Y-112551726D01*
X153904299Y-112550400D01*
X155462278Y-112550400D01*
X155499600Y-112554076D01*
X155536922Y-112550400D01*
X155536933Y-112550400D01*
X155648586Y-112539403D01*
X155791847Y-112495946D01*
X155923876Y-112425374D01*
X156039601Y-112330401D01*
X156063404Y-112301397D01*
X163999311Y-104365491D01*
X164206589Y-104503990D01*
X164476842Y-104615932D01*
X164763740Y-104673000D01*
X165056260Y-104673000D01*
X165343158Y-104615932D01*
X165613411Y-104503990D01*
X165856632Y-104341475D01*
X166063475Y-104134632D01*
X166128042Y-104038000D01*
X170913928Y-104038000D01*
X170926188Y-104162482D01*
X170962498Y-104282180D01*
X171021463Y-104392494D01*
X171100815Y-104489185D01*
X171197506Y-104568537D01*
X171307820Y-104627502D01*
X171427518Y-104663812D01*
X171552000Y-104676072D01*
X172116250Y-104673000D01*
X172275000Y-104514250D01*
X172275000Y-103315000D01*
X171075750Y-103315000D01*
X170917000Y-103473750D01*
X170913928Y-104038000D01*
X166128042Y-104038000D01*
X166225990Y-103891411D01*
X166337932Y-103621158D01*
X166395000Y-103334260D01*
X166395000Y-103041740D01*
X166341464Y-102772600D01*
X170916294Y-102772600D01*
X170917000Y-102902250D01*
X171075750Y-103061000D01*
X172275000Y-103061000D01*
X172275000Y-103041000D01*
X172529000Y-103041000D01*
X172529000Y-103061000D01*
X172549000Y-103061000D01*
X172549000Y-103315000D01*
X172529000Y-103315000D01*
X172529000Y-104514250D01*
X172687750Y-104673000D01*
X173252000Y-104676072D01*
X173376482Y-104663812D01*
X173496180Y-104627502D01*
X173606494Y-104568537D01*
X173703185Y-104489185D01*
X173782537Y-104392494D01*
X173841502Y-104282180D01*
X173863513Y-104209620D01*
X173995368Y-104341475D01*
X174238589Y-104503990D01*
X174508842Y-104615932D01*
X174795740Y-104673000D01*
X175088260Y-104673000D01*
X175375158Y-104615932D01*
X175645411Y-104503990D01*
X175888632Y-104341475D01*
X176095475Y-104134632D01*
X176212000Y-103960240D01*
X176328525Y-104134632D01*
X176535368Y-104341475D01*
X176778589Y-104503990D01*
X177048842Y-104615932D01*
X177335740Y-104673000D01*
X177628260Y-104673000D01*
X177915158Y-104615932D01*
X178185411Y-104503990D01*
X178428632Y-104341475D01*
X178635475Y-104134632D01*
X178752000Y-103960240D01*
X178868525Y-104134632D01*
X179022196Y-104288303D01*
X164077670Y-119232829D01*
X163951156Y-119148295D01*
X163762798Y-119070274D01*
X163562839Y-119030500D01*
X163500702Y-119030500D01*
X160809563Y-116339361D01*
X162334100Y-116339361D01*
X162334100Y-116543239D01*
X162373874Y-116743198D01*
X162451895Y-116931556D01*
X162565163Y-117101074D01*
X162709326Y-117245237D01*
X162878844Y-117358505D01*
X163067202Y-117436526D01*
X163267161Y-117476300D01*
X163471039Y-117476300D01*
X163670998Y-117436526D01*
X163859356Y-117358505D01*
X164028874Y-117245237D01*
X164173037Y-117101074D01*
X164286305Y-116931556D01*
X164311042Y-116871837D01*
X164397863Y-117001774D01*
X164542026Y-117145937D01*
X164711544Y-117259205D01*
X164899902Y-117337226D01*
X165099861Y-117377000D01*
X165303739Y-117377000D01*
X165503698Y-117337226D01*
X165692056Y-117259205D01*
X165861574Y-117145937D01*
X166005737Y-117001774D01*
X166119005Y-116832256D01*
X166197026Y-116643898D01*
X166236800Y-116443939D01*
X166236800Y-116381801D01*
X167745304Y-114873298D01*
X167774301Y-114849501D01*
X167832268Y-114778868D01*
X167869274Y-114733777D01*
X167939846Y-114601747D01*
X167946165Y-114580915D01*
X167983303Y-114458486D01*
X167994300Y-114346833D01*
X167994300Y-114346824D01*
X167997976Y-114309501D01*
X167994300Y-114272178D01*
X167994300Y-112272711D01*
X168038237Y-112228774D01*
X168151505Y-112059256D01*
X168229526Y-111870898D01*
X168269300Y-111670939D01*
X168269300Y-111467061D01*
X168229526Y-111267102D01*
X168151505Y-111078744D01*
X168038237Y-110909226D01*
X167894074Y-110765063D01*
X167724556Y-110651795D01*
X167536198Y-110573774D01*
X167336239Y-110534000D01*
X167132361Y-110534000D01*
X166932402Y-110573774D01*
X166744044Y-110651795D01*
X166574526Y-110765063D01*
X166430363Y-110909226D01*
X166317095Y-111078744D01*
X166239074Y-111267102D01*
X166199300Y-111467061D01*
X166199300Y-111670939D01*
X166239074Y-111870898D01*
X166317095Y-112059256D01*
X166430363Y-112228774D01*
X166474301Y-112272712D01*
X166474300Y-113994698D01*
X165161999Y-115307000D01*
X165099861Y-115307000D01*
X164899902Y-115346774D01*
X164711544Y-115424795D01*
X164542026Y-115538063D01*
X164495500Y-115584589D01*
X164495500Y-110215411D01*
X164539437Y-110171474D01*
X164652705Y-110001956D01*
X164730726Y-109813598D01*
X164770500Y-109613639D01*
X164770500Y-109409761D01*
X164730726Y-109209802D01*
X164652705Y-109021444D01*
X164539437Y-108851926D01*
X164395274Y-108707763D01*
X164225756Y-108594495D01*
X164037398Y-108516474D01*
X163837439Y-108476700D01*
X163633561Y-108476700D01*
X163433602Y-108516474D01*
X163245244Y-108594495D01*
X163075726Y-108707763D01*
X162931563Y-108851926D01*
X162818295Y-109021444D01*
X162740274Y-109209802D01*
X162700500Y-109409761D01*
X162700500Y-109613639D01*
X162740274Y-109813598D01*
X162818295Y-110001956D01*
X162931563Y-110171474D01*
X162975500Y-110215411D01*
X162975501Y-115484058D01*
X162878844Y-115524095D01*
X162709326Y-115637363D01*
X162565163Y-115781526D01*
X162451895Y-115951044D01*
X162373874Y-116139402D01*
X162334100Y-116339361D01*
X160809563Y-116339361D01*
X157452104Y-112981903D01*
X157428301Y-112952899D01*
X157312576Y-112857926D01*
X157180547Y-112787354D01*
X157037286Y-112743897D01*
X156925633Y-112732900D01*
X156925622Y-112732900D01*
X156888300Y-112729224D01*
X156850978Y-112732900D01*
X150869501Y-112732900D01*
X153024602Y-110577800D01*
X153086739Y-110577800D01*
X153286698Y-110538026D01*
X153475056Y-110460005D01*
X153644574Y-110346737D01*
X153788737Y-110202574D01*
X153902005Y-110033056D01*
X153980026Y-109844698D01*
X154019800Y-109644739D01*
X154019800Y-109440861D01*
X153980026Y-109240902D01*
X153902005Y-109052544D01*
X153788737Y-108883026D01*
X153644574Y-108738863D01*
X153475056Y-108625595D01*
X153286698Y-108547574D01*
X153086739Y-108507800D01*
X152882861Y-108507800D01*
X152682902Y-108547574D01*
X152494544Y-108625595D01*
X152325026Y-108738863D01*
X152180863Y-108883026D01*
X152067595Y-109052544D01*
X151989574Y-109240902D01*
X151949800Y-109440861D01*
X151949800Y-109502998D01*
X147674798Y-113778001D01*
X147645800Y-113801799D01*
X147622002Y-113830797D01*
X147622001Y-113830798D01*
X147550826Y-113917524D01*
X147480254Y-114049554D01*
X147466491Y-114094926D01*
X147436798Y-114192814D01*
X147426561Y-114296747D01*
X147422124Y-114341800D01*
X147425801Y-114379132D01*
X147425801Y-114679288D01*
X147381863Y-114723226D01*
X147268595Y-114892744D01*
X147190574Y-115081102D01*
X147150800Y-115281061D01*
X147150800Y-115351928D01*
X146470000Y-115351928D01*
X146345518Y-115364188D01*
X146225820Y-115400498D01*
X146115506Y-115459463D01*
X146018815Y-115538815D01*
X145939463Y-115635506D01*
X145880498Y-115745820D01*
X145858487Y-115818380D01*
X145726632Y-115686525D01*
X145562616Y-115576933D01*
X145561020Y-115560726D01*
X145553642Y-115485813D01*
X145508754Y-115337840D01*
X145498791Y-115319201D01*
X145435862Y-115201467D01*
X145337764Y-115081936D01*
X145307805Y-115057349D01*
X145142400Y-114891944D01*
X145142400Y-112309089D01*
X145372258Y-112365285D01*
X145605000Y-112221232D01*
X145605000Y-111021000D01*
X145859000Y-111021000D01*
X145859000Y-112221232D01*
X146091742Y-112365285D01*
X146374745Y-112296096D01*
X146638812Y-112173025D01*
X146873795Y-112000802D01*
X147070664Y-111786046D01*
X147221854Y-111537009D01*
X147321554Y-111263261D01*
X147323476Y-111250890D01*
X147202155Y-111021000D01*
X145859000Y-111021000D01*
X145605000Y-111021000D01*
X145585000Y-111021000D01*
X145585000Y-110767000D01*
X145605000Y-110767000D01*
X145605000Y-110747000D01*
X145859000Y-110747000D01*
X145859000Y-110767000D01*
X147202155Y-110767000D01*
X147323476Y-110537110D01*
X147321554Y-110524739D01*
X147221854Y-110250991D01*
X147070664Y-110001954D01*
X146873795Y-109787198D01*
X146873407Y-109786914D01*
X146975386Y-109732405D01*
X147109962Y-109621962D01*
X147220405Y-109487386D01*
X147302472Y-109333850D01*
X147353008Y-109167254D01*
X147370072Y-108994000D01*
X147370072Y-107794000D01*
X147353008Y-107620746D01*
X147302472Y-107454150D01*
X147220405Y-107300614D01*
X147109962Y-107166038D01*
X146975386Y-107055595D01*
X146821850Y-106973528D01*
X146655254Y-106922992D01*
X146482000Y-106905928D01*
X146082674Y-106905928D01*
X146356402Y-106632200D01*
X149127889Y-106632200D01*
X149171826Y-106676137D01*
X149341344Y-106789405D01*
X149529702Y-106867426D01*
X149729661Y-106907200D01*
X149933539Y-106907200D01*
X150133498Y-106867426D01*
X150321856Y-106789405D01*
X150491374Y-106676137D01*
X150635537Y-106531974D01*
X150748805Y-106362456D01*
X150826826Y-106174098D01*
X150866600Y-105974139D01*
X150866600Y-105770261D01*
X150826826Y-105570302D01*
X150748805Y-105381944D01*
X150635537Y-105212426D01*
X150491374Y-105068263D01*
X150321856Y-104954995D01*
X150133498Y-104876974D01*
X149933539Y-104837200D01*
X149729661Y-104837200D01*
X149529702Y-104876974D01*
X149341344Y-104954995D01*
X149171826Y-105068263D01*
X149127889Y-105112200D01*
X146078925Y-105112200D01*
X146041600Y-105108524D01*
X146004275Y-105112200D01*
X146004267Y-105112200D01*
X145892614Y-105123197D01*
X145749353Y-105166654D01*
X145617324Y-105237226D01*
X145501599Y-105332199D01*
X145477801Y-105361197D01*
X143027000Y-107811999D01*
X143027000Y-103966949D01*
X143174457Y-104187635D01*
X143462365Y-104475543D01*
X143800909Y-104701750D01*
X144177079Y-104857565D01*
X144576418Y-104936999D01*
X144983582Y-104936999D01*
X145382921Y-104857565D01*
X145759091Y-104701750D01*
X146097635Y-104475543D01*
X146385543Y-104187635D01*
X146485525Y-104038000D01*
X155801928Y-104038000D01*
X155814188Y-104162482D01*
X155850498Y-104282180D01*
X155909463Y-104392494D01*
X155988815Y-104489185D01*
X156085506Y-104568537D01*
X156195820Y-104627502D01*
X156315518Y-104663812D01*
X156440000Y-104676072D01*
X157004250Y-104673000D01*
X157163000Y-104514250D01*
X157163000Y-103315000D01*
X155963750Y-103315000D01*
X155805000Y-103473750D01*
X155801928Y-104038000D01*
X146485525Y-104038000D01*
X146611750Y-103849091D01*
X146767565Y-103472921D01*
X146846999Y-103073582D01*
X146846999Y-102666418D01*
X146781673Y-102338000D01*
X155801928Y-102338000D01*
X155805000Y-102902250D01*
X155963750Y-103061000D01*
X157163000Y-103061000D01*
X157163000Y-101861750D01*
X157004250Y-101703000D01*
X156440000Y-101699928D01*
X156315518Y-101712188D01*
X156195820Y-101748498D01*
X156085506Y-101807463D01*
X155988815Y-101886815D01*
X155909463Y-101983506D01*
X155850498Y-102093820D01*
X155814188Y-102213518D01*
X155801928Y-102338000D01*
X146781673Y-102338000D01*
X146767565Y-102267079D01*
X146611750Y-101890909D01*
X146385543Y-101552365D01*
X146331178Y-101498000D01*
X161235042Y-101498000D01*
X160729806Y-102003237D01*
%TA.AperFunction,Conductor*%
D17*
G36*
X160729806Y-102003237D02*
G01*
X160533411Y-101872010D01*
X160263158Y-101760068D01*
X159976260Y-101703000D01*
X159683740Y-101703000D01*
X159396842Y-101760068D01*
X159126589Y-101872010D01*
X158883368Y-102034525D01*
X158751513Y-102166380D01*
X158729502Y-102093820D01*
X158670537Y-101983506D01*
X158591185Y-101886815D01*
X158494494Y-101807463D01*
X158384180Y-101748498D01*
X158264482Y-101712188D01*
X158140000Y-101699928D01*
X157575750Y-101703000D01*
X157417000Y-101861750D01*
X157417000Y-103061000D01*
X157437000Y-103061000D01*
X157437000Y-103315000D01*
X157417000Y-103315000D01*
X157417000Y-104514250D01*
X157575750Y-104673000D01*
X158140000Y-104676072D01*
X158264482Y-104663812D01*
X158384180Y-104627502D01*
X158494494Y-104568537D01*
X158591185Y-104489185D01*
X158670537Y-104392494D01*
X158729502Y-104282180D01*
X158751513Y-104209620D01*
X158883368Y-104341475D01*
X159126589Y-104503990D01*
X159396842Y-104615932D01*
X159683740Y-104673000D01*
X159976260Y-104673000D01*
X160235706Y-104621393D01*
X154832699Y-110024400D01*
X154770561Y-110024400D01*
X154570602Y-110064174D01*
X154382244Y-110142195D01*
X154212726Y-110255463D01*
X154068563Y-110399626D01*
X153955295Y-110569144D01*
X153950140Y-110581588D01*
X153901098Y-110561274D01*
X153701139Y-110521500D01*
X153497261Y-110521500D01*
X153297302Y-110561274D01*
X153108944Y-110639295D01*
X152939426Y-110752563D01*
X152795263Y-110896726D01*
X152681995Y-111066244D01*
X152603974Y-111254602D01*
X152564200Y-111454561D01*
X152564200Y-111658439D01*
X152603974Y-111858398D01*
X152681995Y-112046756D01*
X152795263Y-112216274D01*
X152939426Y-112360437D01*
X153108944Y-112473705D01*
X153297302Y-112551726D01*
X153497261Y-112591500D01*
X153701139Y-112591500D01*
X153901098Y-112551726D01*
X153904299Y-112550400D01*
X155462278Y-112550400D01*
X155499600Y-112554076D01*
X155536922Y-112550400D01*
X155536933Y-112550400D01*
X155648586Y-112539403D01*
X155791847Y-112495946D01*
X155923876Y-112425374D01*
X156039601Y-112330401D01*
X156063404Y-112301397D01*
X163999311Y-104365491D01*
X164206589Y-104503990D01*
X164476842Y-104615932D01*
X164763740Y-104673000D01*
X165056260Y-104673000D01*
X165343158Y-104615932D01*
X165613411Y-104503990D01*
X165856632Y-104341475D01*
X166063475Y-104134632D01*
X166128042Y-104038000D01*
X170913928Y-104038000D01*
X170926188Y-104162482D01*
X170962498Y-104282180D01*
X171021463Y-104392494D01*
X171100815Y-104489185D01*
X171197506Y-104568537D01*
X171307820Y-104627502D01*
X171427518Y-104663812D01*
X171552000Y-104676072D01*
X172116250Y-104673000D01*
X172275000Y-104514250D01*
X172275000Y-103315000D01*
X171075750Y-103315000D01*
X170917000Y-103473750D01*
X170913928Y-104038000D01*
X166128042Y-104038000D01*
X166225990Y-103891411D01*
X166337932Y-103621158D01*
X166395000Y-103334260D01*
X166395000Y-103041740D01*
X166341464Y-102772600D01*
X170916294Y-102772600D01*
X170917000Y-102902250D01*
X171075750Y-103061000D01*
X172275000Y-103061000D01*
X172275000Y-103041000D01*
X172529000Y-103041000D01*
X172529000Y-103061000D01*
X172549000Y-103061000D01*
X172549000Y-103315000D01*
X172529000Y-103315000D01*
X172529000Y-104514250D01*
X172687750Y-104673000D01*
X173252000Y-104676072D01*
X173376482Y-104663812D01*
X173496180Y-104627502D01*
X173606494Y-104568537D01*
X173703185Y-104489185D01*
X173782537Y-104392494D01*
X173841502Y-104282180D01*
X173863513Y-104209620D01*
X173995368Y-104341475D01*
X174238589Y-104503990D01*
X174508842Y-104615932D01*
X174795740Y-104673000D01*
X175088260Y-104673000D01*
X175375158Y-104615932D01*
X175645411Y-104503990D01*
X175888632Y-104341475D01*
X176095475Y-104134632D01*
X176212000Y-103960240D01*
X176328525Y-104134632D01*
X176535368Y-104341475D01*
X176778589Y-104503990D01*
X177048842Y-104615932D01*
X177335740Y-104673000D01*
X177628260Y-104673000D01*
X177915158Y-104615932D01*
X178185411Y-104503990D01*
X178428632Y-104341475D01*
X178635475Y-104134632D01*
X178752000Y-103960240D01*
X178868525Y-104134632D01*
X179022196Y-104288303D01*
X164077670Y-119232829D01*
X163951156Y-119148295D01*
X163762798Y-119070274D01*
X163562839Y-119030500D01*
X163500702Y-119030500D01*
X160809563Y-116339361D01*
X162334100Y-116339361D01*
X162334100Y-116543239D01*
X162373874Y-116743198D01*
X162451895Y-116931556D01*
X162565163Y-117101074D01*
X162709326Y-117245237D01*
X162878844Y-117358505D01*
X163067202Y-117436526D01*
X163267161Y-117476300D01*
X163471039Y-117476300D01*
X163670998Y-117436526D01*
X163859356Y-117358505D01*
X164028874Y-117245237D01*
X164173037Y-117101074D01*
X164286305Y-116931556D01*
X164311042Y-116871837D01*
X164397863Y-117001774D01*
X164542026Y-117145937D01*
X164711544Y-117259205D01*
X164899902Y-117337226D01*
X165099861Y-117377000D01*
X165303739Y-117377000D01*
X165503698Y-117337226D01*
X165692056Y-117259205D01*
X165861574Y-117145937D01*
X166005737Y-117001774D01*
X166119005Y-116832256D01*
X166197026Y-116643898D01*
X166236800Y-116443939D01*
X166236800Y-116381801D01*
X167745304Y-114873298D01*
X167774301Y-114849501D01*
X167832268Y-114778868D01*
X167869274Y-114733777D01*
X167939846Y-114601747D01*
X167946165Y-114580915D01*
X167983303Y-114458486D01*
X167994300Y-114346833D01*
X167994300Y-114346824D01*
X167997976Y-114309501D01*
X167994300Y-114272178D01*
X167994300Y-112272711D01*
X168038237Y-112228774D01*
X168151505Y-112059256D01*
X168229526Y-111870898D01*
X168269300Y-111670939D01*
X168269300Y-111467061D01*
X168229526Y-111267102D01*
X168151505Y-111078744D01*
X168038237Y-110909226D01*
X167894074Y-110765063D01*
X167724556Y-110651795D01*
X167536198Y-110573774D01*
X167336239Y-110534000D01*
X167132361Y-110534000D01*
X166932402Y-110573774D01*
X166744044Y-110651795D01*
X166574526Y-110765063D01*
X166430363Y-110909226D01*
X166317095Y-111078744D01*
X166239074Y-111267102D01*
X166199300Y-111467061D01*
X166199300Y-111670939D01*
X166239074Y-111870898D01*
X166317095Y-112059256D01*
X166430363Y-112228774D01*
X166474301Y-112272712D01*
X166474300Y-113994698D01*
X165161999Y-115307000D01*
X165099861Y-115307000D01*
X164899902Y-115346774D01*
X164711544Y-115424795D01*
X164542026Y-115538063D01*
X164495500Y-115584589D01*
X164495500Y-110215411D01*
X164539437Y-110171474D01*
X164652705Y-110001956D01*
X164730726Y-109813598D01*
X164770500Y-109613639D01*
X164770500Y-109409761D01*
X164730726Y-109209802D01*
X164652705Y-109021444D01*
X164539437Y-108851926D01*
X164395274Y-108707763D01*
X164225756Y-108594495D01*
X164037398Y-108516474D01*
X163837439Y-108476700D01*
X163633561Y-108476700D01*
X163433602Y-108516474D01*
X163245244Y-108594495D01*
X163075726Y-108707763D01*
X162931563Y-108851926D01*
X162818295Y-109021444D01*
X162740274Y-109209802D01*
X162700500Y-109409761D01*
X162700500Y-109613639D01*
X162740274Y-109813598D01*
X162818295Y-110001956D01*
X162931563Y-110171474D01*
X162975500Y-110215411D01*
X162975501Y-115484058D01*
X162878844Y-115524095D01*
X162709326Y-115637363D01*
X162565163Y-115781526D01*
X162451895Y-115951044D01*
X162373874Y-116139402D01*
X162334100Y-116339361D01*
X160809563Y-116339361D01*
X157452104Y-112981903D01*
X157428301Y-112952899D01*
X157312576Y-112857926D01*
X157180547Y-112787354D01*
X157037286Y-112743897D01*
X156925633Y-112732900D01*
X156925622Y-112732900D01*
X156888300Y-112729224D01*
X156850978Y-112732900D01*
X150869501Y-112732900D01*
X153024602Y-110577800D01*
X153086739Y-110577800D01*
X153286698Y-110538026D01*
X153475056Y-110460005D01*
X153644574Y-110346737D01*
X153788737Y-110202574D01*
X153902005Y-110033056D01*
X153980026Y-109844698D01*
X154019800Y-109644739D01*
X154019800Y-109440861D01*
X153980026Y-109240902D01*
X153902005Y-109052544D01*
X153788737Y-108883026D01*
X153644574Y-108738863D01*
X153475056Y-108625595D01*
X153286698Y-108547574D01*
X153086739Y-108507800D01*
X152882861Y-108507800D01*
X152682902Y-108547574D01*
X152494544Y-108625595D01*
X152325026Y-108738863D01*
X152180863Y-108883026D01*
X152067595Y-109052544D01*
X151989574Y-109240902D01*
X151949800Y-109440861D01*
X151949800Y-109502998D01*
X147674798Y-113778001D01*
X147645800Y-113801799D01*
X147622002Y-113830797D01*
X147622001Y-113830798D01*
X147550826Y-113917524D01*
X147480254Y-114049554D01*
X147466491Y-114094926D01*
X147436798Y-114192814D01*
X147426561Y-114296747D01*
X147422124Y-114341800D01*
X147425801Y-114379132D01*
X147425801Y-114679288D01*
X147381863Y-114723226D01*
X147268595Y-114892744D01*
X147190574Y-115081102D01*
X147150800Y-115281061D01*
X147150800Y-115351928D01*
X146470000Y-115351928D01*
X146345518Y-115364188D01*
X146225820Y-115400498D01*
X146115506Y-115459463D01*
X146018815Y-115538815D01*
X145939463Y-115635506D01*
X145880498Y-115745820D01*
X145858487Y-115818380D01*
X145726632Y-115686525D01*
X145562616Y-115576933D01*
X145561020Y-115560726D01*
X145553642Y-115485813D01*
X145508754Y-115337840D01*
X145498791Y-115319201D01*
X145435862Y-115201467D01*
X145337764Y-115081936D01*
X145307805Y-115057349D01*
X145142400Y-114891944D01*
X145142400Y-112309089D01*
X145372258Y-112365285D01*
X145605000Y-112221232D01*
X145605000Y-111021000D01*
X145859000Y-111021000D01*
X145859000Y-112221232D01*
X146091742Y-112365285D01*
X146374745Y-112296096D01*
X146638812Y-112173025D01*
X146873795Y-112000802D01*
X147070664Y-111786046D01*
X147221854Y-111537009D01*
X147321554Y-111263261D01*
X147323476Y-111250890D01*
X147202155Y-111021000D01*
X145859000Y-111021000D01*
X145605000Y-111021000D01*
X145585000Y-111021000D01*
X145585000Y-110767000D01*
X145605000Y-110767000D01*
X145605000Y-110747000D01*
X145859000Y-110747000D01*
X145859000Y-110767000D01*
X147202155Y-110767000D01*
X147323476Y-110537110D01*
X147321554Y-110524739D01*
X147221854Y-110250991D01*
X147070664Y-110001954D01*
X146873795Y-109787198D01*
X146873407Y-109786914D01*
X146975386Y-109732405D01*
X147109962Y-109621962D01*
X147220405Y-109487386D01*
X147302472Y-109333850D01*
X147353008Y-109167254D01*
X147370072Y-108994000D01*
X147370072Y-107794000D01*
X147353008Y-107620746D01*
X147302472Y-107454150D01*
X147220405Y-107300614D01*
X147109962Y-107166038D01*
X146975386Y-107055595D01*
X146821850Y-106973528D01*
X146655254Y-106922992D01*
X146482000Y-106905928D01*
X146082674Y-106905928D01*
X146356402Y-106632200D01*
X149127889Y-106632200D01*
X149171826Y-106676137D01*
X149341344Y-106789405D01*
X149529702Y-106867426D01*
X149729661Y-106907200D01*
X149933539Y-106907200D01*
X150133498Y-106867426D01*
X150321856Y-106789405D01*
X150491374Y-106676137D01*
X150635537Y-106531974D01*
X150748805Y-106362456D01*
X150826826Y-106174098D01*
X150866600Y-105974139D01*
X150866600Y-105770261D01*
X150826826Y-105570302D01*
X150748805Y-105381944D01*
X150635537Y-105212426D01*
X150491374Y-105068263D01*
X150321856Y-104954995D01*
X150133498Y-104876974D01*
X149933539Y-104837200D01*
X149729661Y-104837200D01*
X149529702Y-104876974D01*
X149341344Y-104954995D01*
X149171826Y-105068263D01*
X149127889Y-105112200D01*
X146078925Y-105112200D01*
X146041600Y-105108524D01*
X146004275Y-105112200D01*
X146004267Y-105112200D01*
X145892614Y-105123197D01*
X145749353Y-105166654D01*
X145617324Y-105237226D01*
X145501599Y-105332199D01*
X145477801Y-105361197D01*
X143027000Y-107811999D01*
X143027000Y-103966949D01*
X143174457Y-104187635D01*
X143462365Y-104475543D01*
X143800909Y-104701750D01*
X144177079Y-104857565D01*
X144576418Y-104936999D01*
X144983582Y-104936999D01*
X145382921Y-104857565D01*
X145759091Y-104701750D01*
X146097635Y-104475543D01*
X146385543Y-104187635D01*
X146485525Y-104038000D01*
X155801928Y-104038000D01*
X155814188Y-104162482D01*
X155850498Y-104282180D01*
X155909463Y-104392494D01*
X155988815Y-104489185D01*
X156085506Y-104568537D01*
X156195820Y-104627502D01*
X156315518Y-104663812D01*
X156440000Y-104676072D01*
X157004250Y-104673000D01*
X157163000Y-104514250D01*
X157163000Y-103315000D01*
X155963750Y-103315000D01*
X155805000Y-103473750D01*
X155801928Y-104038000D01*
X146485525Y-104038000D01*
X146611750Y-103849091D01*
X146767565Y-103472921D01*
X146846999Y-103073582D01*
X146846999Y-102666418D01*
X146781673Y-102338000D01*
X155801928Y-102338000D01*
X155805000Y-102902250D01*
X155963750Y-103061000D01*
X157163000Y-103061000D01*
X157163000Y-101861750D01*
X157004250Y-101703000D01*
X156440000Y-101699928D01*
X156315518Y-101712188D01*
X156195820Y-101748498D01*
X156085506Y-101807463D01*
X155988815Y-101886815D01*
X155909463Y-101983506D01*
X155850498Y-102093820D01*
X155814188Y-102213518D01*
X155801928Y-102338000D01*
X146781673Y-102338000D01*
X146767565Y-102267079D01*
X146611750Y-101890909D01*
X146385543Y-101552365D01*
X146331178Y-101498000D01*
X161235042Y-101498000D01*
X160729806Y-102003237D01*
G37*
%TD.AperFunction*%
%TD*%
M02*
