%TF.GenerationSoftware,KiCad,Pcbnew,(5.1.8)-1*%
%TF.CreationDate,2020-12-16T21:52:19-05:00*%
%TF.ProjectId,Arduino Clone,41726475-696e-46f2-9043-6c6f6e652e6b,1.0*%
%TF.SameCoordinates,Original*%
%TF.FileFunction,Legend,Bot*%
%TF.FilePolarity,Positive*%
%FSLAX46Y46*%
G04 Gerber Fmt 4.6, Leading zero omitted, Abs format (unit mm)*
G04 Created by KiCad (PCBNEW (5.1.8)-1) date 2020-12-16 21:52:19*
%MOMM*%
%LPD*%
G01*
G04 APERTURE LIST*
%ADD10C,0.250000*%
%ADD11C,0.010000*%
G04 APERTURE END LIST*
D10*
X171493976Y-107015642D02*
X171541595Y-107063261D01*
X171684452Y-107110880D01*
X171779690Y-107110880D01*
X171922547Y-107063261D01*
X172017785Y-106968023D01*
X172065404Y-106872785D01*
X172113023Y-106682309D01*
X172113023Y-106539452D01*
X172065404Y-106348976D01*
X172017785Y-106253738D01*
X171922547Y-106158500D01*
X171779690Y-106110880D01*
X171684452Y-106110880D01*
X171541595Y-106158500D01*
X171493976Y-106206119D01*
X171113023Y-106825166D02*
X170636833Y-106825166D01*
X171208261Y-107110880D02*
X170874928Y-106110880D01*
X170541595Y-107110880D01*
X170351119Y-106110880D02*
X169779690Y-106110880D01*
X170065404Y-107110880D02*
X170065404Y-106110880D01*
X169017785Y-107110880D02*
X169017785Y-106110880D01*
X169017785Y-107063261D02*
X169113023Y-107110880D01*
X169303500Y-107110880D01*
X169398738Y-107063261D01*
X169446357Y-107015642D01*
X169493976Y-106920404D01*
X169493976Y-106634690D01*
X169446357Y-106539452D01*
X169398738Y-106491833D01*
X169303500Y-106444214D01*
X169113023Y-106444214D01*
X169017785Y-106491833D01*
X168113023Y-106444214D02*
X168113023Y-107110880D01*
X168541595Y-106444214D02*
X168541595Y-106968023D01*
X168493976Y-107063261D01*
X168398738Y-107110880D01*
X168255880Y-107110880D01*
X168160642Y-107063261D01*
X168113023Y-107015642D01*
X167636833Y-107110880D02*
X167636833Y-106444214D01*
X167636833Y-106110880D02*
X167684452Y-106158500D01*
X167636833Y-106206119D01*
X167589214Y-106158500D01*
X167636833Y-106110880D01*
X167636833Y-106206119D01*
X167160642Y-106444214D02*
X167160642Y-107110880D01*
X167160642Y-106539452D02*
X167113023Y-106491833D01*
X167017785Y-106444214D01*
X166874928Y-106444214D01*
X166779690Y-106491833D01*
X166732071Y-106587071D01*
X166732071Y-107110880D01*
X166113023Y-107110880D02*
X166208261Y-107063261D01*
X166255880Y-107015642D01*
X166303500Y-106920404D01*
X166303500Y-106634690D01*
X166255880Y-106539452D01*
X166208261Y-106491833D01*
X166113023Y-106444214D01*
X165970166Y-106444214D01*
X165874928Y-106491833D01*
X165827309Y-106539452D01*
X165779690Y-106634690D01*
X165779690Y-106920404D01*
X165827309Y-107015642D01*
X165874928Y-107063261D01*
X165970166Y-107110880D01*
X166113023Y-107110880D01*
X172113023Y-108575166D02*
X171636833Y-108575166D01*
X172208261Y-108860880D02*
X171874928Y-107860880D01*
X171541595Y-108860880D01*
X170779690Y-108194214D02*
X170779690Y-108860880D01*
X171208261Y-108194214D02*
X171208261Y-108718023D01*
X171160642Y-108813261D01*
X171065404Y-108860880D01*
X170922547Y-108860880D01*
X170827309Y-108813261D01*
X170779690Y-108765642D01*
X170446357Y-108194214D02*
X170065404Y-108194214D01*
X170303500Y-107860880D02*
X170303500Y-108718023D01*
X170255880Y-108813261D01*
X170160642Y-108860880D01*
X170065404Y-108860880D01*
X169732071Y-108860880D02*
X169732071Y-107860880D01*
X169303500Y-108860880D02*
X169303500Y-108337071D01*
X169351119Y-108241833D01*
X169446357Y-108194214D01*
X169589214Y-108194214D01*
X169684452Y-108241833D01*
X169732071Y-108289452D01*
X168684452Y-108860880D02*
X168779690Y-108813261D01*
X168827309Y-108765642D01*
X168874928Y-108670404D01*
X168874928Y-108384690D01*
X168827309Y-108289452D01*
X168779690Y-108241833D01*
X168684452Y-108194214D01*
X168541595Y-108194214D01*
X168446357Y-108241833D01*
X168398738Y-108289452D01*
X168351119Y-108384690D01*
X168351119Y-108670404D01*
X168398738Y-108765642D01*
X168446357Y-108813261D01*
X168541595Y-108860880D01*
X168684452Y-108860880D01*
X167922547Y-108860880D02*
X167922547Y-108194214D01*
X167922547Y-108384690D02*
X167874928Y-108289452D01*
X167827309Y-108241833D01*
X167732071Y-108194214D01*
X167636833Y-108194214D01*
X167303500Y-108765642D02*
X167255880Y-108813261D01*
X167303500Y-108860880D01*
X167351119Y-108813261D01*
X167303500Y-108765642D01*
X167303500Y-108860880D01*
X167303500Y-108241833D02*
X167255880Y-108289452D01*
X167303500Y-108337071D01*
X167351119Y-108289452D01*
X167303500Y-108241833D01*
X167303500Y-108337071D01*
X165541595Y-107908500D02*
X165636833Y-107860880D01*
X165779690Y-107860880D01*
X165922547Y-107908500D01*
X166017785Y-108003738D01*
X166065404Y-108098976D01*
X166113023Y-108289452D01*
X166113023Y-108432309D01*
X166065404Y-108622785D01*
X166017785Y-108718023D01*
X165922547Y-108813261D01*
X165779690Y-108860880D01*
X165684452Y-108860880D01*
X165541595Y-108813261D01*
X165493976Y-108765642D01*
X165493976Y-108432309D01*
X165684452Y-108432309D01*
X164922547Y-108860880D02*
X165017785Y-108813261D01*
X165065404Y-108765642D01*
X165113023Y-108670404D01*
X165113023Y-108384690D01*
X165065404Y-108289452D01*
X165017785Y-108241833D01*
X164922547Y-108194214D01*
X164779690Y-108194214D01*
X164684452Y-108241833D01*
X164636833Y-108289452D01*
X164589214Y-108384690D01*
X164589214Y-108670404D01*
X164636833Y-108765642D01*
X164684452Y-108813261D01*
X164779690Y-108860880D01*
X164922547Y-108860880D01*
X164160642Y-108194214D02*
X164160642Y-108860880D01*
X164160642Y-108289452D02*
X164113023Y-108241833D01*
X164017785Y-108194214D01*
X163874928Y-108194214D01*
X163779690Y-108241833D01*
X163732071Y-108337071D01*
X163732071Y-108860880D01*
X163351119Y-108194214D02*
X162827309Y-108194214D01*
X163351119Y-108860880D01*
X162827309Y-108860880D01*
X162017785Y-108860880D02*
X162017785Y-108337071D01*
X162065404Y-108241833D01*
X162160642Y-108194214D01*
X162351119Y-108194214D01*
X162446357Y-108241833D01*
X162017785Y-108813261D02*
X162113023Y-108860880D01*
X162351119Y-108860880D01*
X162446357Y-108813261D01*
X162493976Y-108718023D01*
X162493976Y-108622785D01*
X162446357Y-108527547D01*
X162351119Y-108479928D01*
X162113023Y-108479928D01*
X162017785Y-108432309D01*
X161398738Y-108860880D02*
X161493976Y-108813261D01*
X161541595Y-108718023D01*
X161541595Y-107860880D01*
X160636833Y-108813261D02*
X160732071Y-108860880D01*
X160922547Y-108860880D01*
X161017785Y-108813261D01*
X161065404Y-108718023D01*
X161065404Y-108337071D01*
X161017785Y-108241833D01*
X160922547Y-108194214D01*
X160732071Y-108194214D01*
X160636833Y-108241833D01*
X160589214Y-108337071D01*
X160589214Y-108432309D01*
X161065404Y-108527547D01*
X160208261Y-108813261D02*
X160113023Y-108860880D01*
X159922547Y-108860880D01*
X159827309Y-108813261D01*
X159779690Y-108718023D01*
X159779690Y-108670404D01*
X159827309Y-108575166D01*
X159922547Y-108527547D01*
X160065404Y-108527547D01*
X160160642Y-108479928D01*
X160208261Y-108384690D01*
X160208261Y-108337071D01*
X160160642Y-108241833D01*
X160065404Y-108194214D01*
X159922547Y-108194214D01*
X159827309Y-108241833D01*
X165493976Y-110610880D02*
X165970166Y-110610880D01*
X165970166Y-109610880D01*
X165017785Y-110610880D02*
X165113023Y-110563261D01*
X165160642Y-110515642D01*
X165208261Y-110420404D01*
X165208261Y-110134690D01*
X165160642Y-110039452D01*
X165113023Y-109991833D01*
X165017785Y-109944214D01*
X164874928Y-109944214D01*
X164779690Y-109991833D01*
X164732071Y-110039452D01*
X164684452Y-110134690D01*
X164684452Y-110420404D01*
X164732071Y-110515642D01*
X164779690Y-110563261D01*
X164874928Y-110610880D01*
X165017785Y-110610880D01*
X163827309Y-110610880D02*
X163827309Y-110087071D01*
X163874928Y-109991833D01*
X163970166Y-109944214D01*
X164160642Y-109944214D01*
X164255880Y-109991833D01*
X163827309Y-110563261D02*
X163922547Y-110610880D01*
X164160642Y-110610880D01*
X164255880Y-110563261D01*
X164303500Y-110468023D01*
X164303500Y-110372785D01*
X164255880Y-110277547D01*
X164160642Y-110229928D01*
X163922547Y-110229928D01*
X163827309Y-110182309D01*
X163446357Y-109944214D02*
X163208261Y-110610880D01*
X162970166Y-109944214D02*
X163208261Y-110610880D01*
X163303500Y-110848976D01*
X163351119Y-110896595D01*
X163446357Y-110944214D01*
X162684452Y-109944214D02*
X162160642Y-109944214D01*
X162684452Y-110610880D01*
X162160642Y-110610880D01*
X161351119Y-110610880D02*
X161351119Y-110087071D01*
X161398738Y-109991833D01*
X161493976Y-109944214D01*
X161684452Y-109944214D01*
X161779690Y-109991833D01*
X161351119Y-110563261D02*
X161446357Y-110610880D01*
X161684452Y-110610880D01*
X161779690Y-110563261D01*
X161827309Y-110468023D01*
X161827309Y-110372785D01*
X161779690Y-110277547D01*
X161684452Y-110229928D01*
X161446357Y-110229928D01*
X161351119Y-110182309D01*
X160113023Y-110610880D02*
X160113023Y-109610880D01*
X159732071Y-109610880D01*
X159636833Y-109658500D01*
X159589214Y-109706119D01*
X159541595Y-109801357D01*
X159541595Y-109944214D01*
X159589214Y-110039452D01*
X159636833Y-110087071D01*
X159732071Y-110134690D01*
X160113023Y-110134690D01*
X158970166Y-110610880D02*
X159065404Y-110563261D01*
X159113023Y-110515642D01*
X159160642Y-110420404D01*
X159160642Y-110134690D01*
X159113023Y-110039452D01*
X159065404Y-109991833D01*
X158970166Y-109944214D01*
X158827309Y-109944214D01*
X158732071Y-109991833D01*
X158684452Y-110039452D01*
X158636833Y-110134690D01*
X158636833Y-110420404D01*
X158684452Y-110515642D01*
X158732071Y-110563261D01*
X158827309Y-110610880D01*
X158970166Y-110610880D01*
X158065404Y-110610880D02*
X158160642Y-110563261D01*
X158208261Y-110515642D01*
X158255880Y-110420404D01*
X158255880Y-110134690D01*
X158208261Y-110039452D01*
X158160642Y-109991833D01*
X158065404Y-109944214D01*
X157922547Y-109944214D01*
X157827309Y-109991833D01*
X157779690Y-110039452D01*
X157732071Y-110134690D01*
X157732071Y-110420404D01*
X157779690Y-110515642D01*
X157827309Y-110563261D01*
X157922547Y-110610880D01*
X158065404Y-110610880D01*
X157160642Y-110610880D02*
X157255880Y-110563261D01*
X157303500Y-110468023D01*
X157303500Y-109610880D01*
X156017785Y-110610880D02*
X156017785Y-109610880D01*
X155779690Y-109610880D01*
X155636833Y-109658500D01*
X155541595Y-109753738D01*
X155493976Y-109848976D01*
X155446357Y-110039452D01*
X155446357Y-110182309D01*
X155493976Y-110372785D01*
X155541595Y-110468023D01*
X155636833Y-110563261D01*
X155779690Y-110610880D01*
X156017785Y-110610880D01*
X155017785Y-110610880D02*
X155017785Y-109944214D01*
X155017785Y-109610880D02*
X155065404Y-109658500D01*
X155017785Y-109706119D01*
X154970166Y-109658500D01*
X155017785Y-109610880D01*
X155017785Y-109706119D01*
X154160642Y-110563261D02*
X154255880Y-110610880D01*
X154446357Y-110610880D01*
X154541595Y-110563261D01*
X154589214Y-110468023D01*
X154589214Y-110087071D01*
X154541595Y-109991833D01*
X154446357Y-109944214D01*
X154255880Y-109944214D01*
X154160642Y-109991833D01*
X154113023Y-110087071D01*
X154113023Y-110182309D01*
X154589214Y-110277547D01*
X153255880Y-109944214D02*
X153255880Y-110753738D01*
X153303500Y-110848976D01*
X153351119Y-110896595D01*
X153446357Y-110944214D01*
X153589214Y-110944214D01*
X153684452Y-110896595D01*
X153255880Y-110563261D02*
X153351119Y-110610880D01*
X153541595Y-110610880D01*
X153636833Y-110563261D01*
X153684452Y-110515642D01*
X153732071Y-110420404D01*
X153732071Y-110134690D01*
X153684452Y-110039452D01*
X153636833Y-109991833D01*
X153541595Y-109944214D01*
X153351119Y-109944214D01*
X153255880Y-109991833D01*
X152636833Y-110610880D02*
X152732071Y-110563261D01*
X152779690Y-110515642D01*
X152827309Y-110420404D01*
X152827309Y-110134690D01*
X152779690Y-110039452D01*
X152732071Y-109991833D01*
X152636833Y-109944214D01*
X152493976Y-109944214D01*
X152398738Y-109991833D01*
X152351119Y-110039452D01*
X152303500Y-110134690D01*
X152303500Y-110420404D01*
X152351119Y-110515642D01*
X152398738Y-110563261D01*
X152493976Y-110610880D01*
X152636833Y-110610880D01*
X172160642Y-111694214D02*
X171922547Y-112360880D01*
X171684452Y-111694214D01*
X170779690Y-112360880D02*
X171351119Y-112360880D01*
X171065404Y-112360880D02*
X171065404Y-111360880D01*
X171160642Y-111503738D01*
X171255880Y-111598976D01*
X171351119Y-111646595D01*
X170351119Y-112265642D02*
X170303500Y-112313261D01*
X170351119Y-112360880D01*
X170398738Y-112313261D01*
X170351119Y-112265642D01*
X170351119Y-112360880D01*
X169684452Y-111360880D02*
X169589214Y-111360880D01*
X169493976Y-111408500D01*
X169446357Y-111456119D01*
X169398738Y-111551357D01*
X169351119Y-111741833D01*
X169351119Y-111979928D01*
X169398738Y-112170404D01*
X169446357Y-112265642D01*
X169493976Y-112313261D01*
X169589214Y-112360880D01*
X169684452Y-112360880D01*
X169779690Y-112313261D01*
X169827309Y-112265642D01*
X169874928Y-112170404D01*
X169922547Y-111979928D01*
X169922547Y-111741833D01*
X169874928Y-111551357D01*
X169827309Y-111456119D01*
X169779690Y-111408500D01*
X169684452Y-111360880D01*
D11*
%TO.C,G\u002A\u002A\u002A*%
G36*
X180999648Y-107321050D02*
G01*
X180972081Y-107338082D01*
X180952048Y-107363001D01*
X180918327Y-107414848D01*
X180874040Y-107488393D01*
X180822306Y-107578407D01*
X180766249Y-107679660D01*
X180747605Y-107714142D01*
X180687296Y-107826299D01*
X180627648Y-107937124D01*
X180572635Y-108039243D01*
X180526232Y-108125280D01*
X180492411Y-108187859D01*
X180488581Y-108194928D01*
X180448959Y-108268388D01*
X180399419Y-108360761D01*
X180347009Y-108458882D01*
X180309315Y-108529727D01*
X180267833Y-108606860D01*
X180231722Y-108672157D01*
X180204727Y-108718971D01*
X180190596Y-108740654D01*
X180190258Y-108740993D01*
X180170663Y-108742730D01*
X180117130Y-108744513D01*
X180032009Y-108746317D01*
X179917650Y-108748122D01*
X179776400Y-108749905D01*
X179610608Y-108751643D01*
X179422624Y-108753314D01*
X179214796Y-108754895D01*
X178989473Y-108756364D01*
X178749003Y-108757699D01*
X178495737Y-108758877D01*
X178232021Y-108759876D01*
X178200798Y-108759980D01*
X176224881Y-108766428D01*
X175840189Y-108149571D01*
X175754026Y-108012102D01*
X175671858Y-107882329D01*
X175596089Y-107763950D01*
X175529123Y-107660667D01*
X175473364Y-107576179D01*
X175431215Y-107514186D01*
X175405081Y-107478388D01*
X175401134Y-107473750D01*
X175339532Y-107426563D01*
X175275180Y-107415554D01*
X175208215Y-107440731D01*
X175179750Y-107461755D01*
X175123929Y-107508725D01*
X175124360Y-111194648D01*
X175124790Y-114880571D01*
X175169633Y-114989428D01*
X175192601Y-115045951D01*
X175208802Y-115087277D01*
X175214559Y-115103879D01*
X175197353Y-115105315D01*
X175149306Y-115106065D01*
X175075858Y-115106129D01*
X174982447Y-115105507D01*
X174874512Y-115104199D01*
X174853203Y-115103879D01*
X174729744Y-115101795D01*
X174637277Y-115099489D01*
X174570507Y-115096347D01*
X174524144Y-115091754D01*
X174492894Y-115085097D01*
X174471464Y-115075761D01*
X174454563Y-115063133D01*
X174447667Y-115056817D01*
X174399805Y-114987595D01*
X174371111Y-114888555D01*
X174361929Y-114765966D01*
X174368922Y-114643677D01*
X174392188Y-114530675D01*
X174435157Y-114413930D01*
X174478306Y-114323957D01*
X174516115Y-114250489D01*
X174564810Y-114155941D01*
X174618639Y-114051476D01*
X174671851Y-113948260D01*
X174682263Y-113928071D01*
X174750197Y-113788547D01*
X174811927Y-113646817D01*
X174864502Y-113510662D01*
X174904973Y-113387863D01*
X174930390Y-113286201D01*
X174934308Y-113263256D01*
X174943055Y-113205141D01*
X174954342Y-113131334D01*
X174961594Y-113084428D01*
X174972372Y-112980534D01*
X174977488Y-112852318D01*
X174977100Y-112711275D01*
X174971364Y-112568901D01*
X174960437Y-112436689D01*
X174951819Y-112369433D01*
X174900629Y-112134804D01*
X174820394Y-111911162D01*
X174713715Y-111703775D01*
X174583189Y-111517913D01*
X174471983Y-111396563D01*
X174378555Y-111311380D01*
X174301320Y-111253805D01*
X174236078Y-111221432D01*
X174178629Y-111211857D01*
X174153845Y-111214412D01*
X174089104Y-111242616D01*
X174040796Y-111294054D01*
X174017939Y-111358329D01*
X174017215Y-111371908D01*
X174018102Y-111393032D01*
X174023460Y-111412129D01*
X174037331Y-111433843D01*
X174063758Y-111462816D01*
X174106784Y-111503690D01*
X174170451Y-111561109D01*
X174221691Y-111606721D01*
X174342211Y-111736826D01*
X174445172Y-111895570D01*
X174528969Y-112079005D01*
X174592000Y-112283181D01*
X174632662Y-112504149D01*
X174646201Y-112652491D01*
X174647934Y-112871794D01*
X174626680Y-113083335D01*
X174580881Y-113293514D01*
X174508981Y-113508736D01*
X174409423Y-113735404D01*
X174358048Y-113837357D01*
X174274229Y-113999114D01*
X174206097Y-114133401D01*
X174151923Y-114244580D01*
X174109977Y-114337012D01*
X174078529Y-114415059D01*
X174055848Y-114483083D01*
X174040204Y-114545446D01*
X174029868Y-114606510D01*
X174023110Y-114670636D01*
X174022007Y-114684587D01*
X174023026Y-114847238D01*
X174050130Y-114997641D01*
X174101378Y-115131484D01*
X174174834Y-115244454D01*
X174268559Y-115332239D01*
X174329631Y-115369018D01*
X174423482Y-115415785D01*
X177572241Y-115414226D01*
X177908126Y-115413980D01*
X178234576Y-115413585D01*
X178549710Y-115413050D01*
X178851648Y-115412385D01*
X179138511Y-115411598D01*
X179408417Y-115410699D01*
X179659488Y-115409696D01*
X179889844Y-115408600D01*
X180097603Y-115407419D01*
X180280887Y-115406162D01*
X180437814Y-115404839D01*
X180566506Y-115403458D01*
X180665082Y-115402029D01*
X180731662Y-115400562D01*
X180764367Y-115399064D01*
X180767206Y-115398638D01*
X180858197Y-115356987D01*
X180953830Y-115289395D01*
X181045573Y-115203734D01*
X181124899Y-115107873D01*
X181178967Y-115018690D01*
X181229000Y-114916857D01*
X181232980Y-111738427D01*
X178621891Y-111738427D01*
X178618444Y-111772605D01*
X178604236Y-111820491D01*
X178587143Y-111853210D01*
X178552430Y-111876182D01*
X178495422Y-111896711D01*
X178430067Y-111910593D01*
X178385107Y-111914113D01*
X178335215Y-111914214D01*
X178335215Y-112058040D01*
X178334292Y-112131173D01*
X178329840Y-112177631D01*
X178319330Y-112207010D01*
X178300232Y-112228907D01*
X178287411Y-112239469D01*
X178220443Y-112272104D01*
X178151131Y-112269466D01*
X178086762Y-112233321D01*
X178059575Y-112205977D01*
X178042956Y-112174682D01*
X178033258Y-112128689D01*
X178026836Y-112057250D01*
X178026786Y-112056523D01*
X178017715Y-111923474D01*
X177917929Y-111908022D01*
X177847159Y-111890779D01*
X177791566Y-111865578D01*
X177777322Y-111854872D01*
X177742845Y-111800763D01*
X177737578Y-111736821D01*
X177761313Y-111674458D01*
X177781033Y-111650318D01*
X177797400Y-111634898D01*
X177814813Y-111623525D01*
X177838687Y-111615582D01*
X177874434Y-111610455D01*
X177927468Y-111607527D01*
X178003204Y-111606181D01*
X178107054Y-111605804D01*
X178172500Y-111605785D01*
X178519434Y-111605785D01*
X178574590Y-111660941D01*
X178610103Y-111702455D01*
X178621891Y-111738427D01*
X181232980Y-111738427D01*
X181233705Y-111159582D01*
X181234216Y-110751340D01*
X180059038Y-110751340D01*
X180034276Y-110890330D01*
X180028381Y-110908589D01*
X179985113Y-110993381D01*
X179917179Y-111078840D01*
X179834602Y-111154998D01*
X179747409Y-111211890D01*
X179705000Y-111230069D01*
X179611087Y-111250740D01*
X179502822Y-111257103D01*
X179393551Y-111249753D01*
X179296621Y-111229284D01*
X179247398Y-111209664D01*
X179124427Y-111127817D01*
X179029330Y-111024231D01*
X178992079Y-110963347D01*
X178956791Y-110864273D01*
X178941355Y-110748561D01*
X178942261Y-110725857D01*
X177416643Y-110725857D01*
X177401795Y-110858978D01*
X177356265Y-110976200D01*
X177277643Y-111083125D01*
X177251059Y-111110343D01*
X177148430Y-111186125D01*
X177026774Y-111236711D01*
X176894680Y-111260441D01*
X176760736Y-111255656D01*
X176648654Y-111226730D01*
X176530171Y-111166971D01*
X176437205Y-111085222D01*
X176363581Y-110975825D01*
X176353741Y-110956511D01*
X176320168Y-110881951D01*
X176302245Y-110820712D01*
X176295823Y-110755709D01*
X176295619Y-110717141D01*
X176314563Y-110579538D01*
X176366023Y-110454670D01*
X176447280Y-110346610D01*
X176555611Y-110259434D01*
X176626599Y-110221477D01*
X176731864Y-110190132D01*
X176852588Y-110180333D01*
X176975279Y-110191757D01*
X177086445Y-110224078D01*
X177106166Y-110233049D01*
X177226387Y-110310403D01*
X177319019Y-110409844D01*
X177382031Y-110528150D01*
X177413394Y-110662097D01*
X177416643Y-110725857D01*
X178942261Y-110725857D01*
X178946082Y-110630148D01*
X178971286Y-110522973D01*
X178981627Y-110497804D01*
X179051258Y-110387483D01*
X179145600Y-110298298D01*
X179258385Y-110232491D01*
X179383344Y-110192304D01*
X179514209Y-110179982D01*
X179644711Y-110197768D01*
X179732215Y-110229206D01*
X179835972Y-110285826D01*
X179913417Y-110350234D01*
X179974488Y-110431793D01*
X180003305Y-110484553D01*
X180048632Y-110614688D01*
X180059038Y-110751340D01*
X181234216Y-110751340D01*
X181238410Y-107402306D01*
X181193750Y-107354117D01*
X181136798Y-107316991D01*
X181067399Y-107305629D01*
X180999648Y-107321050D01*
G37*
X180999648Y-107321050D02*
X180972081Y-107338082D01*
X180952048Y-107363001D01*
X180918327Y-107414848D01*
X180874040Y-107488393D01*
X180822306Y-107578407D01*
X180766249Y-107679660D01*
X180747605Y-107714142D01*
X180687296Y-107826299D01*
X180627648Y-107937124D01*
X180572635Y-108039243D01*
X180526232Y-108125280D01*
X180492411Y-108187859D01*
X180488581Y-108194928D01*
X180448959Y-108268388D01*
X180399419Y-108360761D01*
X180347009Y-108458882D01*
X180309315Y-108529727D01*
X180267833Y-108606860D01*
X180231722Y-108672157D01*
X180204727Y-108718971D01*
X180190596Y-108740654D01*
X180190258Y-108740993D01*
X180170663Y-108742730D01*
X180117130Y-108744513D01*
X180032009Y-108746317D01*
X179917650Y-108748122D01*
X179776400Y-108749905D01*
X179610608Y-108751643D01*
X179422624Y-108753314D01*
X179214796Y-108754895D01*
X178989473Y-108756364D01*
X178749003Y-108757699D01*
X178495737Y-108758877D01*
X178232021Y-108759876D01*
X178200798Y-108759980D01*
X176224881Y-108766428D01*
X175840189Y-108149571D01*
X175754026Y-108012102D01*
X175671858Y-107882329D01*
X175596089Y-107763950D01*
X175529123Y-107660667D01*
X175473364Y-107576179D01*
X175431215Y-107514186D01*
X175405081Y-107478388D01*
X175401134Y-107473750D01*
X175339532Y-107426563D01*
X175275180Y-107415554D01*
X175208215Y-107440731D01*
X175179750Y-107461755D01*
X175123929Y-107508725D01*
X175124360Y-111194648D01*
X175124790Y-114880571D01*
X175169633Y-114989428D01*
X175192601Y-115045951D01*
X175208802Y-115087277D01*
X175214559Y-115103879D01*
X175197353Y-115105315D01*
X175149306Y-115106065D01*
X175075858Y-115106129D01*
X174982447Y-115105507D01*
X174874512Y-115104199D01*
X174853203Y-115103879D01*
X174729744Y-115101795D01*
X174637277Y-115099489D01*
X174570507Y-115096347D01*
X174524144Y-115091754D01*
X174492894Y-115085097D01*
X174471464Y-115075761D01*
X174454563Y-115063133D01*
X174447667Y-115056817D01*
X174399805Y-114987595D01*
X174371111Y-114888555D01*
X174361929Y-114765966D01*
X174368922Y-114643677D01*
X174392188Y-114530675D01*
X174435157Y-114413930D01*
X174478306Y-114323957D01*
X174516115Y-114250489D01*
X174564810Y-114155941D01*
X174618639Y-114051476D01*
X174671851Y-113948260D01*
X174682263Y-113928071D01*
X174750197Y-113788547D01*
X174811927Y-113646817D01*
X174864502Y-113510662D01*
X174904973Y-113387863D01*
X174930390Y-113286201D01*
X174934308Y-113263256D01*
X174943055Y-113205141D01*
X174954342Y-113131334D01*
X174961594Y-113084428D01*
X174972372Y-112980534D01*
X174977488Y-112852318D01*
X174977100Y-112711275D01*
X174971364Y-112568901D01*
X174960437Y-112436689D01*
X174951819Y-112369433D01*
X174900629Y-112134804D01*
X174820394Y-111911162D01*
X174713715Y-111703775D01*
X174583189Y-111517913D01*
X174471983Y-111396563D01*
X174378555Y-111311380D01*
X174301320Y-111253805D01*
X174236078Y-111221432D01*
X174178629Y-111211857D01*
X174153845Y-111214412D01*
X174089104Y-111242616D01*
X174040796Y-111294054D01*
X174017939Y-111358329D01*
X174017215Y-111371908D01*
X174018102Y-111393032D01*
X174023460Y-111412129D01*
X174037331Y-111433843D01*
X174063758Y-111462816D01*
X174106784Y-111503690D01*
X174170451Y-111561109D01*
X174221691Y-111606721D01*
X174342211Y-111736826D01*
X174445172Y-111895570D01*
X174528969Y-112079005D01*
X174592000Y-112283181D01*
X174632662Y-112504149D01*
X174646201Y-112652491D01*
X174647934Y-112871794D01*
X174626680Y-113083335D01*
X174580881Y-113293514D01*
X174508981Y-113508736D01*
X174409423Y-113735404D01*
X174358048Y-113837357D01*
X174274229Y-113999114D01*
X174206097Y-114133401D01*
X174151923Y-114244580D01*
X174109977Y-114337012D01*
X174078529Y-114415059D01*
X174055848Y-114483083D01*
X174040204Y-114545446D01*
X174029868Y-114606510D01*
X174023110Y-114670636D01*
X174022007Y-114684587D01*
X174023026Y-114847238D01*
X174050130Y-114997641D01*
X174101378Y-115131484D01*
X174174834Y-115244454D01*
X174268559Y-115332239D01*
X174329631Y-115369018D01*
X174423482Y-115415785D01*
X177572241Y-115414226D01*
X177908126Y-115413980D01*
X178234576Y-115413585D01*
X178549710Y-115413050D01*
X178851648Y-115412385D01*
X179138511Y-115411598D01*
X179408417Y-115410699D01*
X179659488Y-115409696D01*
X179889844Y-115408600D01*
X180097603Y-115407419D01*
X180280887Y-115406162D01*
X180437814Y-115404839D01*
X180566506Y-115403458D01*
X180665082Y-115402029D01*
X180731662Y-115400562D01*
X180764367Y-115399064D01*
X180767206Y-115398638D01*
X180858197Y-115356987D01*
X180953830Y-115289395D01*
X181045573Y-115203734D01*
X181124899Y-115107873D01*
X181178967Y-115018690D01*
X181229000Y-114916857D01*
X181232980Y-111738427D01*
X178621891Y-111738427D01*
X178618444Y-111772605D01*
X178604236Y-111820491D01*
X178587143Y-111853210D01*
X178552430Y-111876182D01*
X178495422Y-111896711D01*
X178430067Y-111910593D01*
X178385107Y-111914113D01*
X178335215Y-111914214D01*
X178335215Y-112058040D01*
X178334292Y-112131173D01*
X178329840Y-112177631D01*
X178319330Y-112207010D01*
X178300232Y-112228907D01*
X178287411Y-112239469D01*
X178220443Y-112272104D01*
X178151131Y-112269466D01*
X178086762Y-112233321D01*
X178059575Y-112205977D01*
X178042956Y-112174682D01*
X178033258Y-112128689D01*
X178026836Y-112057250D01*
X178026786Y-112056523D01*
X178017715Y-111923474D01*
X177917929Y-111908022D01*
X177847159Y-111890779D01*
X177791566Y-111865578D01*
X177777322Y-111854872D01*
X177742845Y-111800763D01*
X177737578Y-111736821D01*
X177761313Y-111674458D01*
X177781033Y-111650318D01*
X177797400Y-111634898D01*
X177814813Y-111623525D01*
X177838687Y-111615582D01*
X177874434Y-111610455D01*
X177927468Y-111607527D01*
X178003204Y-111606181D01*
X178107054Y-111605804D01*
X178172500Y-111605785D01*
X178519434Y-111605785D01*
X178574590Y-111660941D01*
X178610103Y-111702455D01*
X178621891Y-111738427D01*
X181232980Y-111738427D01*
X181233705Y-111159582D01*
X181234216Y-110751340D01*
X180059038Y-110751340D01*
X180034276Y-110890330D01*
X180028381Y-110908589D01*
X179985113Y-110993381D01*
X179917179Y-111078840D01*
X179834602Y-111154998D01*
X179747409Y-111211890D01*
X179705000Y-111230069D01*
X179611087Y-111250740D01*
X179502822Y-111257103D01*
X179393551Y-111249753D01*
X179296621Y-111229284D01*
X179247398Y-111209664D01*
X179124427Y-111127817D01*
X179029330Y-111024231D01*
X178992079Y-110963347D01*
X178956791Y-110864273D01*
X178941355Y-110748561D01*
X178942261Y-110725857D01*
X177416643Y-110725857D01*
X177401795Y-110858978D01*
X177356265Y-110976200D01*
X177277643Y-111083125D01*
X177251059Y-111110343D01*
X177148430Y-111186125D01*
X177026774Y-111236711D01*
X176894680Y-111260441D01*
X176760736Y-111255656D01*
X176648654Y-111226730D01*
X176530171Y-111166971D01*
X176437205Y-111085222D01*
X176363581Y-110975825D01*
X176353741Y-110956511D01*
X176320168Y-110881951D01*
X176302245Y-110820712D01*
X176295823Y-110755709D01*
X176295619Y-110717141D01*
X176314563Y-110579538D01*
X176366023Y-110454670D01*
X176447280Y-110346610D01*
X176555611Y-110259434D01*
X176626599Y-110221477D01*
X176731864Y-110190132D01*
X176852588Y-110180333D01*
X176975279Y-110191757D01*
X177086445Y-110224078D01*
X177106166Y-110233049D01*
X177226387Y-110310403D01*
X177319019Y-110409844D01*
X177382031Y-110528150D01*
X177413394Y-110662097D01*
X177416643Y-110725857D01*
X178942261Y-110725857D01*
X178946082Y-110630148D01*
X178971286Y-110522973D01*
X178981627Y-110497804D01*
X179051258Y-110387483D01*
X179145600Y-110298298D01*
X179258385Y-110232491D01*
X179383344Y-110192304D01*
X179514209Y-110179982D01*
X179644711Y-110197768D01*
X179732215Y-110229206D01*
X179835972Y-110285826D01*
X179913417Y-110350234D01*
X179974488Y-110431793D01*
X180003305Y-110484553D01*
X180048632Y-110614688D01*
X180059038Y-110751340D01*
X181234216Y-110751340D01*
X181238410Y-107402306D01*
X181193750Y-107354117D01*
X181136798Y-107316991D01*
X181067399Y-107305629D01*
X180999648Y-107321050D01*
G36*
X180376286Y-105481889D02*
G01*
X180260720Y-105486193D01*
X180145311Y-105491203D01*
X180040279Y-105496427D01*
X179955841Y-105501372D01*
X179922715Y-105503728D01*
X179777572Y-105515159D01*
X179868286Y-105557582D01*
X179921144Y-105582010D01*
X179960478Y-105599653D01*
X179973674Y-105605144D01*
X179971591Y-105622862D01*
X179958691Y-105670585D01*
X179936304Y-105744125D01*
X179905756Y-105839295D01*
X179868376Y-105951906D01*
X179825491Y-106077770D01*
X179805852Y-106134453D01*
X179760529Y-106264765D01*
X179719308Y-106383534D01*
X179683637Y-106486569D01*
X179654964Y-106569679D01*
X179634736Y-106628674D01*
X179624400Y-106659363D01*
X179623358Y-106662806D01*
X179608218Y-106671354D01*
X179569898Y-106688184D01*
X179546863Y-106697595D01*
X179470369Y-106728202D01*
X179775908Y-106853274D01*
X179899036Y-106903727D01*
X179992225Y-106941665D01*
X180059216Y-106968071D01*
X180103751Y-106983933D01*
X180129571Y-106990236D01*
X180140417Y-106987966D01*
X180140030Y-106978108D01*
X180132152Y-106961649D01*
X180123168Y-106944777D01*
X180097297Y-106897019D01*
X180062304Y-106835173D01*
X180039645Y-106796235D01*
X180009855Y-106743211D01*
X179995767Y-106704247D01*
X179994805Y-106663616D01*
X180004392Y-106605589D01*
X180006583Y-106594401D01*
X180028086Y-106485107D01*
X180120543Y-106496217D01*
X180179979Y-106502715D01*
X180227584Y-106506796D01*
X180242796Y-106507485D01*
X180262339Y-106518782D01*
X180280911Y-106555697D01*
X180300833Y-106623097D01*
X180304008Y-106635839D01*
X180335424Y-106764036D01*
X180285610Y-106816031D01*
X180235795Y-106868026D01*
X180296969Y-106877628D01*
X180339263Y-106883028D01*
X180407874Y-106890435D01*
X180492959Y-106898832D01*
X180575858Y-106906429D01*
X180671350Y-106915061D01*
X180763161Y-106923731D01*
X180839859Y-106931338D01*
X180884286Y-106936107D01*
X180975000Y-106946587D01*
X180789322Y-106752571D01*
X180684474Y-106221143D01*
X180294127Y-106221143D01*
X180288896Y-106232075D01*
X180266451Y-106227748D01*
X180219968Y-106208434D01*
X180197164Y-106198365D01*
X180149194Y-106174866D01*
X180118689Y-106155545D01*
X180112970Y-106148472D01*
X180117343Y-106120085D01*
X180129175Y-106070311D01*
X180145699Y-106008747D01*
X180164148Y-105944992D01*
X180181755Y-105888643D01*
X180195752Y-105849297D01*
X180202954Y-105836357D01*
X180211483Y-105852855D01*
X180224482Y-105897016D01*
X180239731Y-105960838D01*
X180246994Y-105995107D01*
X180262741Y-106071649D01*
X180276761Y-106138566D01*
X180286751Y-106184916D01*
X180288970Y-106194678D01*
X180294127Y-106221143D01*
X180684474Y-106221143D01*
X180559608Y-105588259D01*
X180622162Y-105529869D01*
X180684715Y-105471479D01*
X180376286Y-105481889D01*
G37*
X180376286Y-105481889D02*
X180260720Y-105486193D01*
X180145311Y-105491203D01*
X180040279Y-105496427D01*
X179955841Y-105501372D01*
X179922715Y-105503728D01*
X179777572Y-105515159D01*
X179868286Y-105557582D01*
X179921144Y-105582010D01*
X179960478Y-105599653D01*
X179973674Y-105605144D01*
X179971591Y-105622862D01*
X179958691Y-105670585D01*
X179936304Y-105744125D01*
X179905756Y-105839295D01*
X179868376Y-105951906D01*
X179825491Y-106077770D01*
X179805852Y-106134453D01*
X179760529Y-106264765D01*
X179719308Y-106383534D01*
X179683637Y-106486569D01*
X179654964Y-106569679D01*
X179634736Y-106628674D01*
X179624400Y-106659363D01*
X179623358Y-106662806D01*
X179608218Y-106671354D01*
X179569898Y-106688184D01*
X179546863Y-106697595D01*
X179470369Y-106728202D01*
X179775908Y-106853274D01*
X179899036Y-106903727D01*
X179992225Y-106941665D01*
X180059216Y-106968071D01*
X180103751Y-106983933D01*
X180129571Y-106990236D01*
X180140417Y-106987966D01*
X180140030Y-106978108D01*
X180132152Y-106961649D01*
X180123168Y-106944777D01*
X180097297Y-106897019D01*
X180062304Y-106835173D01*
X180039645Y-106796235D01*
X180009855Y-106743211D01*
X179995767Y-106704247D01*
X179994805Y-106663616D01*
X180004392Y-106605589D01*
X180006583Y-106594401D01*
X180028086Y-106485107D01*
X180120543Y-106496217D01*
X180179979Y-106502715D01*
X180227584Y-106506796D01*
X180242796Y-106507485D01*
X180262339Y-106518782D01*
X180280911Y-106555697D01*
X180300833Y-106623097D01*
X180304008Y-106635839D01*
X180335424Y-106764036D01*
X180285610Y-106816031D01*
X180235795Y-106868026D01*
X180296969Y-106877628D01*
X180339263Y-106883028D01*
X180407874Y-106890435D01*
X180492959Y-106898832D01*
X180575858Y-106906429D01*
X180671350Y-106915061D01*
X180763161Y-106923731D01*
X180839859Y-106931338D01*
X180884286Y-106936107D01*
X180975000Y-106946587D01*
X180789322Y-106752571D01*
X180684474Y-106221143D01*
X180294127Y-106221143D01*
X180288896Y-106232075D01*
X180266451Y-106227748D01*
X180219968Y-106208434D01*
X180197164Y-106198365D01*
X180149194Y-106174866D01*
X180118689Y-106155545D01*
X180112970Y-106148472D01*
X180117343Y-106120085D01*
X180129175Y-106070311D01*
X180145699Y-106008747D01*
X180164148Y-105944992D01*
X180181755Y-105888643D01*
X180195752Y-105849297D01*
X180202954Y-105836357D01*
X180211483Y-105852855D01*
X180224482Y-105897016D01*
X180239731Y-105960838D01*
X180246994Y-105995107D01*
X180262741Y-106071649D01*
X180276761Y-106138566D01*
X180286751Y-106184916D01*
X180288970Y-106194678D01*
X180294127Y-106221143D01*
X180684474Y-106221143D01*
X180559608Y-105588259D01*
X180622162Y-105529869D01*
X180684715Y-105471479D01*
X180376286Y-105481889D01*
G36*
X181318749Y-105479193D02*
G01*
X181226198Y-105526713D01*
X181211452Y-105537487D01*
X181162461Y-105573146D01*
X181133841Y-105584465D01*
X181117515Y-105569634D01*
X181105408Y-105526840D01*
X181102407Y-105513024D01*
X181091572Y-105475352D01*
X181081749Y-105461074D01*
X181080513Y-105461725D01*
X181074638Y-105481934D01*
X181065072Y-105529928D01*
X181053112Y-105597550D01*
X181040054Y-105676642D01*
X181027196Y-105759049D01*
X181015834Y-105836613D01*
X181007263Y-105901177D01*
X181002782Y-105944585D01*
X181002421Y-105953015D01*
X181007394Y-105967450D01*
X181025201Y-105957518D01*
X181059712Y-105920812D01*
X181066006Y-105913505D01*
X181140912Y-105845923D01*
X181218571Y-105810440D01*
X181293841Y-105806246D01*
X181361578Y-105832535D01*
X181416640Y-105888497D01*
X181453886Y-105973325D01*
X181454202Y-105974507D01*
X181465129Y-106070481D01*
X181449061Y-106159858D01*
X181410219Y-106236945D01*
X181352822Y-106296053D01*
X181281091Y-106331490D01*
X181199246Y-106337567D01*
X181186415Y-106335604D01*
X181129226Y-106318932D01*
X181063708Y-106291331D01*
X181040277Y-106279223D01*
X180993049Y-106255570D01*
X180960000Y-106243687D01*
X180951435Y-106243945D01*
X180950403Y-106264000D01*
X180953305Y-106312843D01*
X180959351Y-106383284D01*
X180967750Y-106468137D01*
X180977709Y-106560211D01*
X180988437Y-106652319D01*
X180999143Y-106737272D01*
X181009035Y-106807881D01*
X181017322Y-106856958D01*
X181020426Y-106870500D01*
X181027916Y-106884851D01*
X181035048Y-106869133D01*
X181042575Y-106820871D01*
X181046718Y-106783777D01*
X181060435Y-106651698D01*
X181123562Y-106732724D01*
X181224079Y-106838664D01*
X181335743Y-106915560D01*
X181454229Y-106962065D01*
X181575213Y-106976837D01*
X181694372Y-106958531D01*
X181762598Y-106931407D01*
X181850346Y-106870783D01*
X181933761Y-106781587D01*
X182006681Y-106671486D01*
X182056213Y-106566149D01*
X182081318Y-106476224D01*
X182098452Y-106363766D01*
X182106753Y-106241822D01*
X182105364Y-106123441D01*
X182093425Y-106021670D01*
X182092396Y-106016575D01*
X182046516Y-105867237D01*
X181976498Y-105735367D01*
X181886013Y-105624762D01*
X181778730Y-105539220D01*
X181658318Y-105482537D01*
X181554970Y-105460517D01*
X181426131Y-105457622D01*
X181318749Y-105479193D01*
G37*
X181318749Y-105479193D02*
X181226198Y-105526713D01*
X181211452Y-105537487D01*
X181162461Y-105573146D01*
X181133841Y-105584465D01*
X181117515Y-105569634D01*
X181105408Y-105526840D01*
X181102407Y-105513024D01*
X181091572Y-105475352D01*
X181081749Y-105461074D01*
X181080513Y-105461725D01*
X181074638Y-105481934D01*
X181065072Y-105529928D01*
X181053112Y-105597550D01*
X181040054Y-105676642D01*
X181027196Y-105759049D01*
X181015834Y-105836613D01*
X181007263Y-105901177D01*
X181002782Y-105944585D01*
X181002421Y-105953015D01*
X181007394Y-105967450D01*
X181025201Y-105957518D01*
X181059712Y-105920812D01*
X181066006Y-105913505D01*
X181140912Y-105845923D01*
X181218571Y-105810440D01*
X181293841Y-105806246D01*
X181361578Y-105832535D01*
X181416640Y-105888497D01*
X181453886Y-105973325D01*
X181454202Y-105974507D01*
X181465129Y-106070481D01*
X181449061Y-106159858D01*
X181410219Y-106236945D01*
X181352822Y-106296053D01*
X181281091Y-106331490D01*
X181199246Y-106337567D01*
X181186415Y-106335604D01*
X181129226Y-106318932D01*
X181063708Y-106291331D01*
X181040277Y-106279223D01*
X180993049Y-106255570D01*
X180960000Y-106243687D01*
X180951435Y-106243945D01*
X180950403Y-106264000D01*
X180953305Y-106312843D01*
X180959351Y-106383284D01*
X180967750Y-106468137D01*
X180977709Y-106560211D01*
X180988437Y-106652319D01*
X180999143Y-106737272D01*
X181009035Y-106807881D01*
X181017322Y-106856958D01*
X181020426Y-106870500D01*
X181027916Y-106884851D01*
X181035048Y-106869133D01*
X181042575Y-106820871D01*
X181046718Y-106783777D01*
X181060435Y-106651698D01*
X181123562Y-106732724D01*
X181224079Y-106838664D01*
X181335743Y-106915560D01*
X181454229Y-106962065D01*
X181575213Y-106976837D01*
X181694372Y-106958531D01*
X181762598Y-106931407D01*
X181850346Y-106870783D01*
X181933761Y-106781587D01*
X182006681Y-106671486D01*
X182056213Y-106566149D01*
X182081318Y-106476224D01*
X182098452Y-106363766D01*
X182106753Y-106241822D01*
X182105364Y-106123441D01*
X182093425Y-106021670D01*
X182092396Y-106016575D01*
X182046516Y-105867237D01*
X181976498Y-105735367D01*
X181886013Y-105624762D01*
X181778730Y-105539220D01*
X181658318Y-105482537D01*
X181554970Y-105460517D01*
X181426131Y-105457622D01*
X181318749Y-105479193D01*
G36*
X178360453Y-105478499D02*
G01*
X178364567Y-105496781D01*
X178380246Y-105543311D01*
X178405395Y-105612721D01*
X178437916Y-105699646D01*
X178475713Y-105798717D01*
X178516689Y-105904567D01*
X178558746Y-106011830D01*
X178599788Y-106115138D01*
X178637718Y-106209124D01*
X178670440Y-106288421D01*
X178695855Y-106347662D01*
X178711868Y-106381479D01*
X178715353Y-106386882D01*
X178721939Y-106375806D01*
X178729238Y-106334665D01*
X178736442Y-106269646D01*
X178742743Y-106186937D01*
X178743803Y-106169167D01*
X178751146Y-106043142D01*
X178757702Y-105947184D01*
X178764375Y-105881940D01*
X178772067Y-105848056D01*
X178781680Y-105846181D01*
X178794117Y-105876962D01*
X178810281Y-105941044D01*
X178831074Y-106039076D01*
X178857399Y-106171704D01*
X178875305Y-106263444D01*
X178900319Y-106392491D01*
X178922863Y-106510214D01*
X178942042Y-106611818D01*
X178956960Y-106692506D01*
X178966720Y-106747484D01*
X178970425Y-106771956D01*
X178970436Y-106772366D01*
X178955661Y-106791477D01*
X178917909Y-106819499D01*
X178884036Y-106839824D01*
X178817241Y-106877833D01*
X178749235Y-106918136D01*
X178725286Y-106932855D01*
X178652715Y-106978224D01*
X178770643Y-106975887D01*
X178844210Y-106973677D01*
X178913068Y-106970366D01*
X178952072Y-106967547D01*
X178998636Y-106963598D01*
X179069188Y-106958140D01*
X179151510Y-106952107D01*
X179187929Y-106949536D01*
X179360286Y-106937529D01*
X179255965Y-106892142D01*
X179192598Y-106859855D01*
X179157765Y-106831345D01*
X179152312Y-106817806D01*
X179156300Y-106793236D01*
X179167244Y-106737982D01*
X179184144Y-106656761D01*
X179206004Y-106554291D01*
X179231825Y-106435291D01*
X179260607Y-106304479D01*
X179267859Y-106271785D01*
X179304893Y-106108060D01*
X179335660Y-105978417D01*
X179360071Y-105883197D01*
X179378036Y-105822738D01*
X179389465Y-105797380D01*
X179393391Y-105800071D01*
X179398310Y-105833317D01*
X179404915Y-105895392D01*
X179412516Y-105978914D01*
X179420421Y-106076506D01*
X179424807Y-106135714D01*
X179433211Y-106241659D01*
X179442314Y-106337044D01*
X179451508Y-106417518D01*
X179460186Y-106478730D01*
X179467740Y-106516328D01*
X179473560Y-106525960D01*
X179476779Y-106507642D01*
X179480042Y-106482785D01*
X179488240Y-106427315D01*
X179500573Y-106346446D01*
X179516240Y-106245396D01*
X179534440Y-106129381D01*
X179549231Y-106035928D01*
X179568367Y-105913532D01*
X179584985Y-105803464D01*
X179598393Y-105710639D01*
X179607897Y-105639971D01*
X179612801Y-105596376D01*
X179612991Y-105584330D01*
X179593524Y-105580681D01*
X179543034Y-105574713D01*
X179466588Y-105566855D01*
X179369256Y-105557534D01*
X179256103Y-105547180D01*
X179132200Y-105536219D01*
X179002613Y-105525081D01*
X178872410Y-105514193D01*
X178746660Y-105503983D01*
X178630430Y-105494881D01*
X178528789Y-105487314D01*
X178446803Y-105481710D01*
X178389542Y-105478498D01*
X178362073Y-105478105D01*
X178360453Y-105478499D01*
G37*
X178360453Y-105478499D02*
X178364567Y-105496781D01*
X178380246Y-105543311D01*
X178405395Y-105612721D01*
X178437916Y-105699646D01*
X178475713Y-105798717D01*
X178516689Y-105904567D01*
X178558746Y-106011830D01*
X178599788Y-106115138D01*
X178637718Y-106209124D01*
X178670440Y-106288421D01*
X178695855Y-106347662D01*
X178711868Y-106381479D01*
X178715353Y-106386882D01*
X178721939Y-106375806D01*
X178729238Y-106334665D01*
X178736442Y-106269646D01*
X178742743Y-106186937D01*
X178743803Y-106169167D01*
X178751146Y-106043142D01*
X178757702Y-105947184D01*
X178764375Y-105881940D01*
X178772067Y-105848056D01*
X178781680Y-105846181D01*
X178794117Y-105876962D01*
X178810281Y-105941044D01*
X178831074Y-106039076D01*
X178857399Y-106171704D01*
X178875305Y-106263444D01*
X178900319Y-106392491D01*
X178922863Y-106510214D01*
X178942042Y-106611818D01*
X178956960Y-106692506D01*
X178966720Y-106747484D01*
X178970425Y-106771956D01*
X178970436Y-106772366D01*
X178955661Y-106791477D01*
X178917909Y-106819499D01*
X178884036Y-106839824D01*
X178817241Y-106877833D01*
X178749235Y-106918136D01*
X178725286Y-106932855D01*
X178652715Y-106978224D01*
X178770643Y-106975887D01*
X178844210Y-106973677D01*
X178913068Y-106970366D01*
X178952072Y-106967547D01*
X178998636Y-106963598D01*
X179069188Y-106958140D01*
X179151510Y-106952107D01*
X179187929Y-106949536D01*
X179360286Y-106937529D01*
X179255965Y-106892142D01*
X179192598Y-106859855D01*
X179157765Y-106831345D01*
X179152312Y-106817806D01*
X179156300Y-106793236D01*
X179167244Y-106737982D01*
X179184144Y-106656761D01*
X179206004Y-106554291D01*
X179231825Y-106435291D01*
X179260607Y-106304479D01*
X179267859Y-106271785D01*
X179304893Y-106108060D01*
X179335660Y-105978417D01*
X179360071Y-105883197D01*
X179378036Y-105822738D01*
X179389465Y-105797380D01*
X179393391Y-105800071D01*
X179398310Y-105833317D01*
X179404915Y-105895392D01*
X179412516Y-105978914D01*
X179420421Y-106076506D01*
X179424807Y-106135714D01*
X179433211Y-106241659D01*
X179442314Y-106337044D01*
X179451508Y-106417518D01*
X179460186Y-106478730D01*
X179467740Y-106516328D01*
X179473560Y-106525960D01*
X179476779Y-106507642D01*
X179480042Y-106482785D01*
X179488240Y-106427315D01*
X179500573Y-106346446D01*
X179516240Y-106245396D01*
X179534440Y-106129381D01*
X179549231Y-106035928D01*
X179568367Y-105913532D01*
X179584985Y-105803464D01*
X179598393Y-105710639D01*
X179607897Y-105639971D01*
X179612801Y-105596376D01*
X179612991Y-105584330D01*
X179593524Y-105580681D01*
X179543034Y-105574713D01*
X179466588Y-105566855D01*
X179369256Y-105557534D01*
X179256103Y-105547180D01*
X179132200Y-105536219D01*
X179002613Y-105525081D01*
X178872410Y-105514193D01*
X178746660Y-105503983D01*
X178630430Y-105494881D01*
X178528789Y-105487314D01*
X178446803Y-105481710D01*
X178389542Y-105478498D01*
X178362073Y-105478105D01*
X178360453Y-105478499D01*
G36*
X177155818Y-105950023D02*
G01*
X177193087Y-106030745D01*
X177213835Y-106113594D01*
X177219361Y-106193296D01*
X177210963Y-106264577D01*
X177189941Y-106322162D01*
X177157594Y-106360778D01*
X177115220Y-106375149D01*
X177064118Y-106360002D01*
X177056077Y-106355053D01*
X177005903Y-106301715D01*
X176978833Y-106227333D01*
X176976251Y-106139932D01*
X176999544Y-106047537D01*
X177001953Y-106041631D01*
X177017817Y-105998401D01*
X177023423Y-105971887D01*
X177022617Y-105969140D01*
X177003098Y-105963099D01*
X176956856Y-105952470D01*
X176892894Y-105939021D01*
X176820215Y-105924521D01*
X176747820Y-105910739D01*
X176684711Y-105899443D01*
X176639891Y-105892402D01*
X176624607Y-105890945D01*
X176626590Y-105900204D01*
X176653044Y-105924307D01*
X176697592Y-105957569D01*
X176792613Y-106024033D01*
X176750103Y-106079874D01*
X176686472Y-106172582D01*
X176646896Y-106256927D01*
X176626631Y-106346623D01*
X176620932Y-106453214D01*
X176622266Y-106533918D01*
X176628399Y-106591463D01*
X176642118Y-106638919D01*
X176666213Y-106689357D01*
X176674565Y-106704652D01*
X176756671Y-106819764D01*
X176857960Y-106904309D01*
X176977134Y-106957516D01*
X177112895Y-106978615D01*
X177136482Y-106978958D01*
X177218826Y-106971254D01*
X177294423Y-106951734D01*
X177310143Y-106945269D01*
X177412183Y-106878837D01*
X177496257Y-106782713D01*
X177525146Y-106734666D01*
X177545092Y-106690043D01*
X177557058Y-106640528D01*
X177562812Y-106575279D01*
X177564143Y-106495700D01*
X177563396Y-106418723D01*
X177559104Y-106362016D01*
X177548194Y-106313458D01*
X177527589Y-106260928D01*
X177494216Y-106192306D01*
X177480147Y-106164593D01*
X177447235Y-106096322D01*
X177424480Y-106041805D01*
X177414445Y-106007707D01*
X177416647Y-105999541D01*
X177445980Y-105994663D01*
X177493939Y-105982629D01*
X177509715Y-105978129D01*
X177582286Y-105956818D01*
X177391786Y-105925137D01*
X177308696Y-105911809D01*
X177235569Y-105900970D01*
X177181946Y-105893986D01*
X177161077Y-105892121D01*
X177120867Y-105890785D01*
X177155818Y-105950023D01*
G37*
X177155818Y-105950023D02*
X177193087Y-106030745D01*
X177213835Y-106113594D01*
X177219361Y-106193296D01*
X177210963Y-106264577D01*
X177189941Y-106322162D01*
X177157594Y-106360778D01*
X177115220Y-106375149D01*
X177064118Y-106360002D01*
X177056077Y-106355053D01*
X177005903Y-106301715D01*
X176978833Y-106227333D01*
X176976251Y-106139932D01*
X176999544Y-106047537D01*
X177001953Y-106041631D01*
X177017817Y-105998401D01*
X177023423Y-105971887D01*
X177022617Y-105969140D01*
X177003098Y-105963099D01*
X176956856Y-105952470D01*
X176892894Y-105939021D01*
X176820215Y-105924521D01*
X176747820Y-105910739D01*
X176684711Y-105899443D01*
X176639891Y-105892402D01*
X176624607Y-105890945D01*
X176626590Y-105900204D01*
X176653044Y-105924307D01*
X176697592Y-105957569D01*
X176792613Y-106024033D01*
X176750103Y-106079874D01*
X176686472Y-106172582D01*
X176646896Y-106256927D01*
X176626631Y-106346623D01*
X176620932Y-106453214D01*
X176622266Y-106533918D01*
X176628399Y-106591463D01*
X176642118Y-106638919D01*
X176666213Y-106689357D01*
X176674565Y-106704652D01*
X176756671Y-106819764D01*
X176857960Y-106904309D01*
X176977134Y-106957516D01*
X177112895Y-106978615D01*
X177136482Y-106978958D01*
X177218826Y-106971254D01*
X177294423Y-106951734D01*
X177310143Y-106945269D01*
X177412183Y-106878837D01*
X177496257Y-106782713D01*
X177525146Y-106734666D01*
X177545092Y-106690043D01*
X177557058Y-106640528D01*
X177562812Y-106575279D01*
X177564143Y-106495700D01*
X177563396Y-106418723D01*
X177559104Y-106362016D01*
X177548194Y-106313458D01*
X177527589Y-106260928D01*
X177494216Y-106192306D01*
X177480147Y-106164593D01*
X177447235Y-106096322D01*
X177424480Y-106041805D01*
X177414445Y-106007707D01*
X177416647Y-105999541D01*
X177445980Y-105994663D01*
X177493939Y-105982629D01*
X177509715Y-105978129D01*
X177582286Y-105956818D01*
X177391786Y-105925137D01*
X177308696Y-105911809D01*
X177235569Y-105900970D01*
X177181946Y-105893986D01*
X177161077Y-105892121D01*
X177120867Y-105890785D01*
X177155818Y-105950023D01*
G36*
X176084206Y-105477398D02*
G01*
X176079018Y-105483352D01*
X176090076Y-105493937D01*
X176113401Y-105509425D01*
X176114703Y-105510260D01*
X176137517Y-105526592D01*
X176154952Y-105546140D01*
X176169361Y-105575261D01*
X176183096Y-105620313D01*
X176198512Y-105687652D01*
X176217960Y-105783637D01*
X176220345Y-105795704D01*
X176239082Y-105889964D01*
X176256112Y-105974482D01*
X176269822Y-106041333D01*
X176278597Y-106082588D01*
X176279884Y-106088196D01*
X176281125Y-106106773D01*
X176268622Y-106103125D01*
X176238769Y-106075026D01*
X176211469Y-106045982D01*
X176139122Y-105975578D01*
X176074198Y-105932653D01*
X176007695Y-105912329D01*
X175958500Y-105908928D01*
X175867655Y-105922226D01*
X175789693Y-105963935D01*
X175720958Y-106036779D01*
X175666316Y-106126643D01*
X175644686Y-106175043D01*
X175631783Y-106225060D01*
X175625588Y-106288413D01*
X175624074Y-106371571D01*
X175625564Y-106456156D01*
X175631541Y-106516822D01*
X175644332Y-106565873D01*
X175666264Y-106615612D01*
X175672563Y-106627897D01*
X175729295Y-106721489D01*
X175794205Y-106795132D01*
X175872695Y-106851762D01*
X175970165Y-106894317D01*
X176092019Y-106925736D01*
X176243658Y-106948955D01*
X176268157Y-106951784D01*
X176382845Y-106964669D01*
X176465426Y-106973317D01*
X176519912Y-106976984D01*
X176550313Y-106974922D01*
X176560642Y-106966388D01*
X176554908Y-106950634D01*
X176537124Y-106926915D01*
X176519552Y-106905047D01*
X176460698Y-106830737D01*
X176468517Y-106429957D01*
X176264536Y-106429957D01*
X176259134Y-106448023D01*
X176240224Y-106464156D01*
X176199048Y-106486133D01*
X176161291Y-106482044D01*
X176116475Y-106452930D01*
X176077174Y-106406673D01*
X176050190Y-106345537D01*
X176037247Y-106280058D01*
X176040068Y-106220771D01*
X176060376Y-106178213D01*
X176070228Y-106170226D01*
X176096387Y-106173580D01*
X176132992Y-106202573D01*
X176173952Y-106250544D01*
X176213175Y-106310832D01*
X176231879Y-106346995D01*
X176255694Y-106399701D01*
X176264536Y-106429957D01*
X176468517Y-106429957D01*
X176484854Y-105592623D01*
X176581234Y-105515773D01*
X176346974Y-105494505D01*
X176237023Y-105484630D01*
X176159230Y-105478306D01*
X176109617Y-105475806D01*
X176084206Y-105477398D01*
G37*
X176084206Y-105477398D02*
X176079018Y-105483352D01*
X176090076Y-105493937D01*
X176113401Y-105509425D01*
X176114703Y-105510260D01*
X176137517Y-105526592D01*
X176154952Y-105546140D01*
X176169361Y-105575261D01*
X176183096Y-105620313D01*
X176198512Y-105687652D01*
X176217960Y-105783637D01*
X176220345Y-105795704D01*
X176239082Y-105889964D01*
X176256112Y-105974482D01*
X176269822Y-106041333D01*
X176278597Y-106082588D01*
X176279884Y-106088196D01*
X176281125Y-106106773D01*
X176268622Y-106103125D01*
X176238769Y-106075026D01*
X176211469Y-106045982D01*
X176139122Y-105975578D01*
X176074198Y-105932653D01*
X176007695Y-105912329D01*
X175958500Y-105908928D01*
X175867655Y-105922226D01*
X175789693Y-105963935D01*
X175720958Y-106036779D01*
X175666316Y-106126643D01*
X175644686Y-106175043D01*
X175631783Y-106225060D01*
X175625588Y-106288413D01*
X175624074Y-106371571D01*
X175625564Y-106456156D01*
X175631541Y-106516822D01*
X175644332Y-106565873D01*
X175666264Y-106615612D01*
X175672563Y-106627897D01*
X175729295Y-106721489D01*
X175794205Y-106795132D01*
X175872695Y-106851762D01*
X175970165Y-106894317D01*
X176092019Y-106925736D01*
X176243658Y-106948955D01*
X176268157Y-106951784D01*
X176382845Y-106964669D01*
X176465426Y-106973317D01*
X176519912Y-106976984D01*
X176550313Y-106974922D01*
X176560642Y-106966388D01*
X176554908Y-106950634D01*
X176537124Y-106926915D01*
X176519552Y-106905047D01*
X176460698Y-106830737D01*
X176468517Y-106429957D01*
X176264536Y-106429957D01*
X176259134Y-106448023D01*
X176240224Y-106464156D01*
X176199048Y-106486133D01*
X176161291Y-106482044D01*
X176116475Y-106452930D01*
X176077174Y-106406673D01*
X176050190Y-106345537D01*
X176037247Y-106280058D01*
X176040068Y-106220771D01*
X176060376Y-106178213D01*
X176070228Y-106170226D01*
X176096387Y-106173580D01*
X176132992Y-106202573D01*
X176173952Y-106250544D01*
X176213175Y-106310832D01*
X176231879Y-106346995D01*
X176255694Y-106399701D01*
X176264536Y-106429957D01*
X176468517Y-106429957D01*
X176484854Y-105592623D01*
X176581234Y-105515773D01*
X176346974Y-105494505D01*
X176237023Y-105484630D01*
X176159230Y-105478306D01*
X176109617Y-105475806D01*
X176084206Y-105477398D01*
G36*
X177718049Y-105941879D02*
G01*
X177710029Y-105988581D01*
X177701162Y-106058112D01*
X177693110Y-106137102D01*
X177691614Y-106154413D01*
X177678922Y-106306782D01*
X177751307Y-106267133D01*
X177799230Y-106243552D01*
X177831586Y-106238020D01*
X177863167Y-106248712D01*
X177870331Y-106252443D01*
X177917917Y-106296516D01*
X177943452Y-106358940D01*
X177946366Y-106428823D01*
X177926093Y-106495274D01*
X177885571Y-106544733D01*
X177827960Y-106571403D01*
X177767169Y-106562577D01*
X177702083Y-106518074D01*
X177697931Y-106514184D01*
X177650291Y-106468884D01*
X177637779Y-106683299D01*
X177632017Y-106771076D01*
X177625782Y-106848123D01*
X177619856Y-106905707D01*
X177615345Y-106934000D01*
X177611154Y-106959642D01*
X177618683Y-106957824D01*
X177634302Y-106933966D01*
X177654381Y-106893487D01*
X177673090Y-106847792D01*
X177705166Y-106761585D01*
X177785429Y-106835569D01*
X177840900Y-106881347D01*
X177897319Y-106919601D01*
X177927513Y-106935383D01*
X178000258Y-106953831D01*
X178088403Y-106959574D01*
X178174828Y-106952589D01*
X178236045Y-106935813D01*
X178309228Y-106889104D01*
X178379885Y-106818264D01*
X178437429Y-106734537D01*
X178451090Y-106707418D01*
X178476321Y-106622861D01*
X178488276Y-106516940D01*
X178487050Y-106402024D01*
X178472737Y-106290481D01*
X178447223Y-106199214D01*
X178386195Y-106079986D01*
X178308607Y-105988356D01*
X178218446Y-105925662D01*
X178119700Y-105893241D01*
X178016356Y-105892429D01*
X177912401Y-105924563D01*
X177815879Y-105987524D01*
X177759185Y-106035332D01*
X177731791Y-105881714D01*
X177718049Y-105941879D01*
G37*
X177718049Y-105941879D02*
X177710029Y-105988581D01*
X177701162Y-106058112D01*
X177693110Y-106137102D01*
X177691614Y-106154413D01*
X177678922Y-106306782D01*
X177751307Y-106267133D01*
X177799230Y-106243552D01*
X177831586Y-106238020D01*
X177863167Y-106248712D01*
X177870331Y-106252443D01*
X177917917Y-106296516D01*
X177943452Y-106358940D01*
X177946366Y-106428823D01*
X177926093Y-106495274D01*
X177885571Y-106544733D01*
X177827960Y-106571403D01*
X177767169Y-106562577D01*
X177702083Y-106518074D01*
X177697931Y-106514184D01*
X177650291Y-106468884D01*
X177637779Y-106683299D01*
X177632017Y-106771076D01*
X177625782Y-106848123D01*
X177619856Y-106905707D01*
X177615345Y-106934000D01*
X177611154Y-106959642D01*
X177618683Y-106957824D01*
X177634302Y-106933966D01*
X177654381Y-106893487D01*
X177673090Y-106847792D01*
X177705166Y-106761585D01*
X177785429Y-106835569D01*
X177840900Y-106881347D01*
X177897319Y-106919601D01*
X177927513Y-106935383D01*
X178000258Y-106953831D01*
X178088403Y-106959574D01*
X178174828Y-106952589D01*
X178236045Y-106935813D01*
X178309228Y-106889104D01*
X178379885Y-106818264D01*
X178437429Y-106734537D01*
X178451090Y-106707418D01*
X178476321Y-106622861D01*
X178488276Y-106516940D01*
X178487050Y-106402024D01*
X178472737Y-106290481D01*
X178447223Y-106199214D01*
X178386195Y-106079986D01*
X178308607Y-105988356D01*
X178218446Y-105925662D01*
X178119700Y-105893241D01*
X178016356Y-105892429D01*
X177912401Y-105924563D01*
X177815879Y-105987524D01*
X177759185Y-106035332D01*
X177731791Y-105881714D01*
X177718049Y-105941879D01*
G36*
X174974399Y-105906182D02*
G01*
X174869052Y-105947102D01*
X174780972Y-106011074D01*
X174749877Y-106046171D01*
X174722798Y-106085338D01*
X174707066Y-106122340D01*
X174699672Y-106169189D01*
X174697609Y-106237899D01*
X174697572Y-106255082D01*
X174698805Y-106328757D01*
X174704609Y-106378122D01*
X174718139Y-106415127D01*
X174742551Y-106451720D01*
X174753052Y-106465137D01*
X174840008Y-106546467D01*
X174945276Y-106597801D01*
X175063297Y-106616470D01*
X175068310Y-106616500D01*
X175123695Y-106617361D01*
X175148072Y-106621325D01*
X175146706Y-106630459D01*
X175132349Y-106641672D01*
X175092233Y-106662792D01*
X175036404Y-106684502D01*
X175019455Y-106689901D01*
X174924234Y-106701882D01*
X174833802Y-106678736D01*
X174746755Y-106619990D01*
X174713204Y-106587098D01*
X174638123Y-106506955D01*
X174624901Y-106727011D01*
X174611679Y-106947068D01*
X174569936Y-106904248D01*
X174555659Y-106887685D01*
X174544620Y-106867664D01*
X174536037Y-106838968D01*
X174529130Y-106796380D01*
X174523119Y-106734681D01*
X174517223Y-106648656D01*
X174510661Y-106533086D01*
X174508561Y-106494042D01*
X174500738Y-106348262D01*
X174494906Y-106234477D01*
X174491363Y-106148435D01*
X174490407Y-106085884D01*
X174492332Y-106042573D01*
X174497438Y-106014250D01*
X174506020Y-105996664D01*
X174518375Y-105985562D01*
X174534800Y-105976694D01*
X174545044Y-105971556D01*
X174580519Y-105951060D01*
X174595265Y-105938143D01*
X174594936Y-105937161D01*
X174575403Y-105933863D01*
X174527384Y-105929120D01*
X174458617Y-105923626D01*
X174395118Y-105919239D01*
X174201522Y-105906694D01*
X174227329Y-105992445D01*
X174242209Y-106050113D01*
X174245160Y-106081632D01*
X174236657Y-106084147D01*
X174217179Y-106054805D01*
X174216966Y-106054407D01*
X174189973Y-106022578D01*
X174143855Y-105983988D01*
X174112158Y-105962139D01*
X174017910Y-105917717D01*
X173930982Y-105908213D01*
X173852378Y-105933625D01*
X173813394Y-105962182D01*
X173754143Y-106015435D01*
X173697862Y-105961223D01*
X173641580Y-105907010D01*
X173692819Y-106175576D01*
X173716066Y-106298480D01*
X173733538Y-106389622D01*
X173746978Y-106452740D01*
X173758130Y-106491571D01*
X173768737Y-106509851D01*
X173780542Y-106511317D01*
X173795288Y-106499707D01*
X173814720Y-106478757D01*
X173827779Y-106464872D01*
X173904958Y-106403463D01*
X173981029Y-106374595D01*
X174052690Y-106374589D01*
X174116638Y-106399767D01*
X174169571Y-106446452D01*
X174208187Y-106510964D01*
X174229183Y-106589625D01*
X174229256Y-106678758D01*
X174205104Y-106774682D01*
X174170464Y-106846568D01*
X174144757Y-106893224D01*
X174130240Y-106925153D01*
X174129008Y-106933300D01*
X174148371Y-106936190D01*
X174197159Y-106940257D01*
X174268550Y-106945014D01*
X174355720Y-106949973D01*
X174380072Y-106951233D01*
X174625000Y-106963642D01*
X174655540Y-106889535D01*
X174686081Y-106815428D01*
X174808412Y-106882669D01*
X174878216Y-106918522D01*
X174936143Y-106939829D01*
X174998476Y-106951060D01*
X175077229Y-106956501D01*
X175157565Y-106958365D01*
X175215448Y-106953888D01*
X175264467Y-106940932D01*
X175314429Y-106919196D01*
X175417405Y-106853989D01*
X175492390Y-106770221D01*
X175540868Y-106665150D01*
X175564326Y-106536039D01*
X175567096Y-106453214D01*
X175551977Y-106303542D01*
X175537172Y-106255897D01*
X175363115Y-106255897D01*
X175354773Y-106267524D01*
X175289317Y-106301598D01*
X175226175Y-106300173D01*
X175168461Y-106263539D01*
X175131534Y-106202895D01*
X175125827Y-106125264D01*
X175135066Y-106077890D01*
X175147396Y-106051046D01*
X175171287Y-106048927D01*
X175193783Y-106056420D01*
X175247852Y-106085833D01*
X175297478Y-106127907D01*
X175337004Y-106175223D01*
X175360769Y-106220360D01*
X175363115Y-106255897D01*
X175537172Y-106255897D01*
X175510689Y-106170671D01*
X175445269Y-106058630D01*
X175357757Y-105971447D01*
X175306685Y-105938616D01*
X175201952Y-105900252D01*
X175088278Y-105890003D01*
X174974399Y-105906182D01*
G37*
X174974399Y-105906182D02*
X174869052Y-105947102D01*
X174780972Y-106011074D01*
X174749877Y-106046171D01*
X174722798Y-106085338D01*
X174707066Y-106122340D01*
X174699672Y-106169189D01*
X174697609Y-106237899D01*
X174697572Y-106255082D01*
X174698805Y-106328757D01*
X174704609Y-106378122D01*
X174718139Y-106415127D01*
X174742551Y-106451720D01*
X174753052Y-106465137D01*
X174840008Y-106546467D01*
X174945276Y-106597801D01*
X175063297Y-106616470D01*
X175068310Y-106616500D01*
X175123695Y-106617361D01*
X175148072Y-106621325D01*
X175146706Y-106630459D01*
X175132349Y-106641672D01*
X175092233Y-106662792D01*
X175036404Y-106684502D01*
X175019455Y-106689901D01*
X174924234Y-106701882D01*
X174833802Y-106678736D01*
X174746755Y-106619990D01*
X174713204Y-106587098D01*
X174638123Y-106506955D01*
X174624901Y-106727011D01*
X174611679Y-106947068D01*
X174569936Y-106904248D01*
X174555659Y-106887685D01*
X174544620Y-106867664D01*
X174536037Y-106838968D01*
X174529130Y-106796380D01*
X174523119Y-106734681D01*
X174517223Y-106648656D01*
X174510661Y-106533086D01*
X174508561Y-106494042D01*
X174500738Y-106348262D01*
X174494906Y-106234477D01*
X174491363Y-106148435D01*
X174490407Y-106085884D01*
X174492332Y-106042573D01*
X174497438Y-106014250D01*
X174506020Y-105996664D01*
X174518375Y-105985562D01*
X174534800Y-105976694D01*
X174545044Y-105971556D01*
X174580519Y-105951060D01*
X174595265Y-105938143D01*
X174594936Y-105937161D01*
X174575403Y-105933863D01*
X174527384Y-105929120D01*
X174458617Y-105923626D01*
X174395118Y-105919239D01*
X174201522Y-105906694D01*
X174227329Y-105992445D01*
X174242209Y-106050113D01*
X174245160Y-106081632D01*
X174236657Y-106084147D01*
X174217179Y-106054805D01*
X174216966Y-106054407D01*
X174189973Y-106022578D01*
X174143855Y-105983988D01*
X174112158Y-105962139D01*
X174017910Y-105917717D01*
X173930982Y-105908213D01*
X173852378Y-105933625D01*
X173813394Y-105962182D01*
X173754143Y-106015435D01*
X173697862Y-105961223D01*
X173641580Y-105907010D01*
X173692819Y-106175576D01*
X173716066Y-106298480D01*
X173733538Y-106389622D01*
X173746978Y-106452740D01*
X173758130Y-106491571D01*
X173768737Y-106509851D01*
X173780542Y-106511317D01*
X173795288Y-106499707D01*
X173814720Y-106478757D01*
X173827779Y-106464872D01*
X173904958Y-106403463D01*
X173981029Y-106374595D01*
X174052690Y-106374589D01*
X174116638Y-106399767D01*
X174169571Y-106446452D01*
X174208187Y-106510964D01*
X174229183Y-106589625D01*
X174229256Y-106678758D01*
X174205104Y-106774682D01*
X174170464Y-106846568D01*
X174144757Y-106893224D01*
X174130240Y-106925153D01*
X174129008Y-106933300D01*
X174148371Y-106936190D01*
X174197159Y-106940257D01*
X174268550Y-106945014D01*
X174355720Y-106949973D01*
X174380072Y-106951233D01*
X174625000Y-106963642D01*
X174655540Y-106889535D01*
X174686081Y-106815428D01*
X174808412Y-106882669D01*
X174878216Y-106918522D01*
X174936143Y-106939829D01*
X174998476Y-106951060D01*
X175077229Y-106956501D01*
X175157565Y-106958365D01*
X175215448Y-106953888D01*
X175264467Y-106940932D01*
X175314429Y-106919196D01*
X175417405Y-106853989D01*
X175492390Y-106770221D01*
X175540868Y-106665150D01*
X175564326Y-106536039D01*
X175567096Y-106453214D01*
X175551977Y-106303542D01*
X175537172Y-106255897D01*
X175363115Y-106255897D01*
X175354773Y-106267524D01*
X175289317Y-106301598D01*
X175226175Y-106300173D01*
X175168461Y-106263539D01*
X175131534Y-106202895D01*
X175125827Y-106125264D01*
X175135066Y-106077890D01*
X175147396Y-106051046D01*
X175171287Y-106048927D01*
X175193783Y-106056420D01*
X175247852Y-106085833D01*
X175297478Y-106127907D01*
X175337004Y-106175223D01*
X175360769Y-106220360D01*
X175363115Y-106255897D01*
X175537172Y-106255897D01*
X175510689Y-106170671D01*
X175445269Y-106058630D01*
X175357757Y-105971447D01*
X175306685Y-105938616D01*
X175201952Y-105900252D01*
X175088278Y-105890003D01*
X174974399Y-105906182D01*
G36*
X179470302Y-110485281D02*
G01*
X179388800Y-110509512D01*
X179318244Y-110557981D01*
X179267975Y-110622711D01*
X179249820Y-110673622D01*
X179250058Y-110759319D01*
X179279681Y-110836084D01*
X179332220Y-110899062D01*
X179401205Y-110943401D01*
X179480169Y-110964246D01*
X179562642Y-110956745D01*
X179604853Y-110939985D01*
X179679787Y-110884856D01*
X179726157Y-110816682D01*
X179745809Y-110741705D01*
X179740593Y-110666171D01*
X179712355Y-110596321D01*
X179662943Y-110538402D01*
X179594205Y-110498655D01*
X179507987Y-110483325D01*
X179470302Y-110485281D01*
G37*
X179470302Y-110485281D02*
X179388800Y-110509512D01*
X179318244Y-110557981D01*
X179267975Y-110622711D01*
X179249820Y-110673622D01*
X179250058Y-110759319D01*
X179279681Y-110836084D01*
X179332220Y-110899062D01*
X179401205Y-110943401D01*
X179480169Y-110964246D01*
X179562642Y-110956745D01*
X179604853Y-110939985D01*
X179679787Y-110884856D01*
X179726157Y-110816682D01*
X179745809Y-110741705D01*
X179740593Y-110666171D01*
X179712355Y-110596321D01*
X179662943Y-110538402D01*
X179594205Y-110498655D01*
X179507987Y-110483325D01*
X179470302Y-110485281D01*
G36*
X176764893Y-110496448D02*
G01*
X176690091Y-110539582D01*
X176637602Y-110605190D01*
X176612861Y-110688130D01*
X176611643Y-110712555D01*
X176627027Y-110807016D01*
X176671487Y-110882547D01*
X176742489Y-110935166D01*
X176757502Y-110941741D01*
X176823053Y-110964073D01*
X176873990Y-110967862D01*
X176927228Y-110952526D01*
X176966020Y-110934541D01*
X177039138Y-110881774D01*
X177084218Y-110814672D01*
X177102854Y-110739838D01*
X177096639Y-110663881D01*
X177067168Y-110593405D01*
X177016034Y-110535018D01*
X176944832Y-110495325D01*
X176856572Y-110480928D01*
X176764893Y-110496448D01*
G37*
X176764893Y-110496448D02*
X176690091Y-110539582D01*
X176637602Y-110605190D01*
X176612861Y-110688130D01*
X176611643Y-110712555D01*
X176627027Y-110807016D01*
X176671487Y-110882547D01*
X176742489Y-110935166D01*
X176757502Y-110941741D01*
X176823053Y-110964073D01*
X176873990Y-110967862D01*
X176927228Y-110952526D01*
X176966020Y-110934541D01*
X177039138Y-110881774D01*
X177084218Y-110814672D01*
X177102854Y-110739838D01*
X177096639Y-110663881D01*
X177067168Y-110593405D01*
X177016034Y-110535018D01*
X176944832Y-110495325D01*
X176856572Y-110480928D01*
X176764893Y-110496448D01*
%TO.C,REF\u002A\u002A*%
G36*
X166966900Y-118012054D02*
G01*
X166956035Y-118125993D01*
X166924418Y-118233616D01*
X166873515Y-118332615D01*
X166804793Y-118420684D01*
X166719719Y-118495516D01*
X166622732Y-118553384D01*
X166516464Y-118593005D01*
X166409450Y-118611573D01*
X166303800Y-118610434D01*
X166201625Y-118590930D01*
X166105034Y-118554406D01*
X166016138Y-118502205D01*
X165937046Y-118435673D01*
X165869869Y-118356152D01*
X165816717Y-118264987D01*
X165779699Y-118163523D01*
X165760927Y-118053102D01*
X165758989Y-118003206D01*
X165758989Y-117915267D01*
X165707060Y-117915267D01*
X165670753Y-117918111D01*
X165643855Y-117929911D01*
X165616749Y-117953649D01*
X165578367Y-117992031D01*
X165578367Y-120183602D01*
X165578376Y-120445739D01*
X165578408Y-120686241D01*
X165578472Y-120906048D01*
X165578576Y-121106101D01*
X165578727Y-121287344D01*
X165578934Y-121450716D01*
X165579206Y-121597160D01*
X165579550Y-121727617D01*
X165579974Y-121843029D01*
X165580487Y-121944338D01*
X165581097Y-122032484D01*
X165581812Y-122108410D01*
X165582640Y-122173057D01*
X165583589Y-122227367D01*
X165584667Y-122272280D01*
X165585883Y-122308740D01*
X165587245Y-122337687D01*
X165588761Y-122360063D01*
X165590438Y-122376809D01*
X165592286Y-122388868D01*
X165594313Y-122397180D01*
X165596525Y-122402687D01*
X165597608Y-122404537D01*
X165601771Y-122411549D01*
X165605305Y-122417996D01*
X165609135Y-122423900D01*
X165614182Y-122429286D01*
X165621371Y-122434178D01*
X165631623Y-122438598D01*
X165645864Y-122442572D01*
X165665014Y-122446121D01*
X165689999Y-122449270D01*
X165721740Y-122452042D01*
X165761162Y-122454461D01*
X165809186Y-122456551D01*
X165866737Y-122458335D01*
X165934737Y-122459837D01*
X166014110Y-122461080D01*
X166105779Y-122462089D01*
X166210666Y-122462885D01*
X166329696Y-122463494D01*
X166463790Y-122463939D01*
X166613873Y-122464243D01*
X166780867Y-122464430D01*
X166965696Y-122464524D01*
X167169283Y-122464548D01*
X167392550Y-122464525D01*
X167636422Y-122464480D01*
X167901821Y-122464437D01*
X167940204Y-122464432D01*
X168207182Y-122464389D01*
X168452502Y-122464318D01*
X168677083Y-122464213D01*
X168881845Y-122464066D01*
X169067706Y-122463869D01*
X169235588Y-122463616D01*
X169386408Y-122463300D01*
X169521087Y-122462913D01*
X169640544Y-122462447D01*
X169745699Y-122461897D01*
X169837471Y-122461253D01*
X169916779Y-122460511D01*
X169984543Y-122459661D01*
X170041682Y-122458697D01*
X170089117Y-122457611D01*
X170127766Y-122456397D01*
X170158549Y-122455047D01*
X170182385Y-122453555D01*
X170200194Y-122451911D01*
X170212895Y-122450111D01*
X170221408Y-122448145D01*
X170225766Y-122446477D01*
X170234228Y-122442906D01*
X170241997Y-122440270D01*
X170249102Y-122437634D01*
X170255573Y-122434062D01*
X170261439Y-122428621D01*
X170266729Y-122420375D01*
X170271474Y-122408390D01*
X170275702Y-122391731D01*
X170279443Y-122369463D01*
X170282727Y-122340652D01*
X170285583Y-122304363D01*
X170288040Y-122259661D01*
X170290129Y-122205611D01*
X170291878Y-122141279D01*
X170293317Y-122065730D01*
X170294476Y-121978030D01*
X170295383Y-121877243D01*
X170296069Y-121762434D01*
X170296563Y-121632670D01*
X170296895Y-121487015D01*
X170297093Y-121324535D01*
X170297187Y-121144295D01*
X170297208Y-120945360D01*
X170297185Y-120726796D01*
X170297146Y-120487668D01*
X170297122Y-120227040D01*
X170297122Y-120184889D01*
X170297136Y-119921992D01*
X170297161Y-119680732D01*
X170297171Y-119460165D01*
X170297142Y-119259352D01*
X170297048Y-119077349D01*
X170296862Y-118913216D01*
X170296559Y-118766011D01*
X170296114Y-118634792D01*
X170295534Y-118524867D01*
X169992697Y-118524867D01*
X169952907Y-118582711D01*
X169941736Y-118598479D01*
X169931666Y-118612441D01*
X169922638Y-118625784D01*
X169914597Y-118639693D01*
X169907486Y-118655356D01*
X169901247Y-118673958D01*
X169895825Y-118696686D01*
X169891162Y-118724727D01*
X169887201Y-118759267D01*
X169883885Y-118801492D01*
X169881159Y-118852589D01*
X169878964Y-118913744D01*
X169877245Y-118986144D01*
X169875944Y-119070975D01*
X169875005Y-119169422D01*
X169874370Y-119282674D01*
X169873984Y-119411916D01*
X169873788Y-119558334D01*
X169873727Y-119723116D01*
X169873743Y-119907447D01*
X169873780Y-120112513D01*
X169873789Y-120235133D01*
X169873765Y-120452082D01*
X169873731Y-120647642D01*
X169873743Y-120822999D01*
X169873858Y-120979341D01*
X169874130Y-121117857D01*
X169874618Y-121239734D01*
X169875376Y-121346160D01*
X169876462Y-121438322D01*
X169877931Y-121517409D01*
X169879840Y-121584608D01*
X169882244Y-121641107D01*
X169885201Y-121688093D01*
X169888766Y-121726755D01*
X169892995Y-121758280D01*
X169897946Y-121783855D01*
X169903673Y-121804670D01*
X169910233Y-121821911D01*
X169917683Y-121836765D01*
X169926079Y-121850422D01*
X169935476Y-121864069D01*
X169945932Y-121878893D01*
X169952023Y-121887783D01*
X169990796Y-121945400D01*
X169459232Y-121945400D01*
X169335983Y-121945365D01*
X169233487Y-121945215D01*
X169149920Y-121944878D01*
X169083456Y-121944286D01*
X169032271Y-121943367D01*
X168994541Y-121942051D01*
X168968440Y-121940269D01*
X168952144Y-121937951D01*
X168943828Y-121935026D01*
X168941668Y-121931424D01*
X168943839Y-121927075D01*
X168945035Y-121925645D01*
X168970185Y-121888573D01*
X168996083Y-121835772D01*
X169019692Y-121773770D01*
X169027961Y-121747357D01*
X169032578Y-121729416D01*
X169036479Y-121708355D01*
X169039748Y-121682089D01*
X169042466Y-121648532D01*
X169044715Y-121605599D01*
X169046577Y-121551204D01*
X169048136Y-121483262D01*
X169049472Y-121399688D01*
X169050669Y-121298395D01*
X169051808Y-121177300D01*
X169052185Y-121132600D01*
X169053202Y-121007449D01*
X169053960Y-120903082D01*
X169054403Y-120817707D01*
X169054470Y-120749533D01*
X169054105Y-120696765D01*
X169053248Y-120657614D01*
X169051841Y-120630285D01*
X169049825Y-120612986D01*
X169047143Y-120603926D01*
X169043736Y-120601312D01*
X169039544Y-120603351D01*
X169035071Y-120607667D01*
X169024716Y-120620602D01*
X169002658Y-120649676D01*
X168970457Y-120692759D01*
X168929674Y-120747718D01*
X168881870Y-120812423D01*
X168828605Y-120884742D01*
X168771440Y-120962544D01*
X168711937Y-121043698D01*
X168651655Y-121126072D01*
X168592155Y-121207536D01*
X168534998Y-121285957D01*
X168481745Y-121359204D01*
X168433957Y-121425147D01*
X168393193Y-121481654D01*
X168361016Y-121526593D01*
X168338985Y-121557834D01*
X168334417Y-121564466D01*
X168311496Y-121601369D01*
X168284688Y-121649359D01*
X168259289Y-121698897D01*
X168256068Y-121705577D01*
X168234390Y-121753772D01*
X168221804Y-121791334D01*
X168216074Y-121827160D01*
X168214956Y-121869200D01*
X168215590Y-121945400D01*
X167061151Y-121945400D01*
X167152315Y-121851669D01*
X167199112Y-121801775D01*
X167249399Y-121745295D01*
X167295444Y-121691026D01*
X167315869Y-121665673D01*
X167346307Y-121626128D01*
X167386362Y-121572916D01*
X167434861Y-121507667D01*
X167490635Y-121432011D01*
X167552511Y-121347577D01*
X167619319Y-121255994D01*
X167689887Y-121158892D01*
X167763045Y-121057901D01*
X167837621Y-120954650D01*
X167912444Y-120850768D01*
X167986343Y-120747885D01*
X168058146Y-120647631D01*
X168126684Y-120551636D01*
X168190784Y-120461527D01*
X168249275Y-120378936D01*
X168300986Y-120305492D01*
X168344747Y-120242824D01*
X168379385Y-120192561D01*
X168403730Y-120156334D01*
X168416611Y-120135771D01*
X168418369Y-120131668D01*
X168410410Y-120120342D01*
X168389615Y-120093162D01*
X168357347Y-120051829D01*
X168314970Y-119998044D01*
X168263847Y-119933506D01*
X168205341Y-119859918D01*
X168140814Y-119778978D01*
X168071631Y-119692388D01*
X167999153Y-119601848D01*
X167924746Y-119509060D01*
X167865017Y-119434702D01*
X166854011Y-119434702D01*
X166848102Y-119447659D01*
X166833772Y-119469908D01*
X166832725Y-119471391D01*
X166813938Y-119501544D01*
X166794291Y-119538375D01*
X166790392Y-119546511D01*
X166786856Y-119554940D01*
X166783730Y-119565059D01*
X166780986Y-119578260D01*
X166778592Y-119595938D01*
X166776519Y-119619484D01*
X166774735Y-119650293D01*
X166773212Y-119689757D01*
X166771919Y-119739269D01*
X166770826Y-119800223D01*
X166769903Y-119874011D01*
X166769119Y-119962028D01*
X166768445Y-120065665D01*
X166767850Y-120186316D01*
X166767305Y-120325374D01*
X166766779Y-120484232D01*
X166766245Y-120663089D01*
X166765706Y-120848207D01*
X166765272Y-121012145D01*
X166765009Y-121156303D01*
X166764984Y-121282079D01*
X166765265Y-121390871D01*
X166765919Y-121484077D01*
X166767014Y-121563097D01*
X166768618Y-121629328D01*
X166770797Y-121684170D01*
X166773619Y-121729021D01*
X166777151Y-121765278D01*
X166781461Y-121794341D01*
X166786617Y-121817609D01*
X166792685Y-121836479D01*
X166799733Y-121852351D01*
X166807829Y-121866622D01*
X166817040Y-121880691D01*
X166825540Y-121893158D01*
X166842676Y-121919452D01*
X166852822Y-121937037D01*
X166854011Y-121940257D01*
X166843104Y-121941334D01*
X166811911Y-121942335D01*
X166762723Y-121943235D01*
X166697833Y-121944010D01*
X166619530Y-121944637D01*
X166530107Y-121945091D01*
X166431856Y-121945349D01*
X166362945Y-121945400D01*
X166257952Y-121945180D01*
X166161110Y-121944548D01*
X166074607Y-121943549D01*
X166000632Y-121942227D01*
X165941374Y-121940626D01*
X165899020Y-121938791D01*
X165875760Y-121936765D01*
X165871878Y-121935493D01*
X165879576Y-121920591D01*
X165887574Y-121912560D01*
X165900746Y-121895434D01*
X165917985Y-121865183D01*
X165929907Y-121840622D01*
X165956545Y-121781711D01*
X165959620Y-120604845D01*
X165962695Y-119427978D01*
X166408353Y-119427978D01*
X166506170Y-119428142D01*
X166596564Y-119428611D01*
X166677130Y-119429347D01*
X166745462Y-119430316D01*
X166799156Y-119431480D01*
X166835805Y-119432803D01*
X166853004Y-119434249D01*
X166854011Y-119434702D01*
X167865017Y-119434702D01*
X167849770Y-119415722D01*
X167775590Y-119323537D01*
X167703569Y-119234204D01*
X167635069Y-119149424D01*
X167571455Y-119070898D01*
X167514088Y-119000326D01*
X167464333Y-118939409D01*
X167423552Y-118889847D01*
X167406388Y-118869178D01*
X167320096Y-118768516D01*
X167243497Y-118685259D01*
X167174683Y-118617438D01*
X167111748Y-118563089D01*
X167102367Y-118555722D01*
X167062856Y-118525117D01*
X168194616Y-118524867D01*
X168189327Y-118572844D01*
X168192630Y-118630188D01*
X168214161Y-118698463D01*
X168254135Y-118778212D01*
X168299443Y-118850495D01*
X168315661Y-118873140D01*
X168343714Y-118910696D01*
X168381930Y-118961021D01*
X168428637Y-119021973D01*
X168482161Y-119091411D01*
X168540831Y-119167194D01*
X168602975Y-119247180D01*
X168666921Y-119329228D01*
X168730995Y-119411196D01*
X168793527Y-119490943D01*
X168852843Y-119566327D01*
X168907271Y-119635207D01*
X168955139Y-119695442D01*
X168994775Y-119744889D01*
X169024506Y-119781408D01*
X169042661Y-119802858D01*
X169045720Y-119806156D01*
X169048579Y-119798149D01*
X169050793Y-119767855D01*
X169052357Y-119715556D01*
X169053267Y-119641531D01*
X169053520Y-119546063D01*
X169053113Y-119429434D01*
X169052204Y-119309445D01*
X169050882Y-119177333D01*
X169049357Y-119065594D01*
X169047381Y-118972025D01*
X169044706Y-118894419D01*
X169041082Y-118830574D01*
X169036261Y-118778283D01*
X169029994Y-118735344D01*
X169022032Y-118699551D01*
X169012127Y-118668700D01*
X169000031Y-118640586D01*
X168985493Y-118613005D01*
X168970811Y-118587966D01*
X168932814Y-118524867D01*
X169992697Y-118524867D01*
X170295534Y-118524867D01*
X170295501Y-118518617D01*
X170294695Y-118416544D01*
X170293670Y-118327633D01*
X170292400Y-118250941D01*
X170290860Y-118185527D01*
X170289024Y-118130449D01*
X170286867Y-118084765D01*
X170284363Y-118047534D01*
X170281487Y-118017813D01*
X170278213Y-117994662D01*
X170274515Y-117977139D01*
X170270369Y-117964301D01*
X170265747Y-117955208D01*
X170260626Y-117948918D01*
X170254978Y-117944488D01*
X170248779Y-117940978D01*
X170242004Y-117937445D01*
X170236008Y-117933876D01*
X170230775Y-117931300D01*
X170222599Y-117928972D01*
X170210386Y-117926878D01*
X170193041Y-117925007D01*
X170169469Y-117923347D01*
X170138577Y-117921884D01*
X170099268Y-117920608D01*
X170050450Y-117919504D01*
X169991027Y-117918561D01*
X169919904Y-117917767D01*
X169835988Y-117917109D01*
X169738183Y-117916575D01*
X169625394Y-117916153D01*
X169496529Y-117915829D01*
X169350491Y-117915592D01*
X169186186Y-117915430D01*
X169002520Y-117915330D01*
X168798397Y-117915280D01*
X168587253Y-117915267D01*
X166966900Y-117915267D01*
X166966900Y-118012054D01*
G37*
X166966900Y-118012054D02*
X166956035Y-118125993D01*
X166924418Y-118233616D01*
X166873515Y-118332615D01*
X166804793Y-118420684D01*
X166719719Y-118495516D01*
X166622732Y-118553384D01*
X166516464Y-118593005D01*
X166409450Y-118611573D01*
X166303800Y-118610434D01*
X166201625Y-118590930D01*
X166105034Y-118554406D01*
X166016138Y-118502205D01*
X165937046Y-118435673D01*
X165869869Y-118356152D01*
X165816717Y-118264987D01*
X165779699Y-118163523D01*
X165760927Y-118053102D01*
X165758989Y-118003206D01*
X165758989Y-117915267D01*
X165707060Y-117915267D01*
X165670753Y-117918111D01*
X165643855Y-117929911D01*
X165616749Y-117953649D01*
X165578367Y-117992031D01*
X165578367Y-120183602D01*
X165578376Y-120445739D01*
X165578408Y-120686241D01*
X165578472Y-120906048D01*
X165578576Y-121106101D01*
X165578727Y-121287344D01*
X165578934Y-121450716D01*
X165579206Y-121597160D01*
X165579550Y-121727617D01*
X165579974Y-121843029D01*
X165580487Y-121944338D01*
X165581097Y-122032484D01*
X165581812Y-122108410D01*
X165582640Y-122173057D01*
X165583589Y-122227367D01*
X165584667Y-122272280D01*
X165585883Y-122308740D01*
X165587245Y-122337687D01*
X165588761Y-122360063D01*
X165590438Y-122376809D01*
X165592286Y-122388868D01*
X165594313Y-122397180D01*
X165596525Y-122402687D01*
X165597608Y-122404537D01*
X165601771Y-122411549D01*
X165605305Y-122417996D01*
X165609135Y-122423900D01*
X165614182Y-122429286D01*
X165621371Y-122434178D01*
X165631623Y-122438598D01*
X165645864Y-122442572D01*
X165665014Y-122446121D01*
X165689999Y-122449270D01*
X165721740Y-122452042D01*
X165761162Y-122454461D01*
X165809186Y-122456551D01*
X165866737Y-122458335D01*
X165934737Y-122459837D01*
X166014110Y-122461080D01*
X166105779Y-122462089D01*
X166210666Y-122462885D01*
X166329696Y-122463494D01*
X166463790Y-122463939D01*
X166613873Y-122464243D01*
X166780867Y-122464430D01*
X166965696Y-122464524D01*
X167169283Y-122464548D01*
X167392550Y-122464525D01*
X167636422Y-122464480D01*
X167901821Y-122464437D01*
X167940204Y-122464432D01*
X168207182Y-122464389D01*
X168452502Y-122464318D01*
X168677083Y-122464213D01*
X168881845Y-122464066D01*
X169067706Y-122463869D01*
X169235588Y-122463616D01*
X169386408Y-122463300D01*
X169521087Y-122462913D01*
X169640544Y-122462447D01*
X169745699Y-122461897D01*
X169837471Y-122461253D01*
X169916779Y-122460511D01*
X169984543Y-122459661D01*
X170041682Y-122458697D01*
X170089117Y-122457611D01*
X170127766Y-122456397D01*
X170158549Y-122455047D01*
X170182385Y-122453555D01*
X170200194Y-122451911D01*
X170212895Y-122450111D01*
X170221408Y-122448145D01*
X170225766Y-122446477D01*
X170234228Y-122442906D01*
X170241997Y-122440270D01*
X170249102Y-122437634D01*
X170255573Y-122434062D01*
X170261439Y-122428621D01*
X170266729Y-122420375D01*
X170271474Y-122408390D01*
X170275702Y-122391731D01*
X170279443Y-122369463D01*
X170282727Y-122340652D01*
X170285583Y-122304363D01*
X170288040Y-122259661D01*
X170290129Y-122205611D01*
X170291878Y-122141279D01*
X170293317Y-122065730D01*
X170294476Y-121978030D01*
X170295383Y-121877243D01*
X170296069Y-121762434D01*
X170296563Y-121632670D01*
X170296895Y-121487015D01*
X170297093Y-121324535D01*
X170297187Y-121144295D01*
X170297208Y-120945360D01*
X170297185Y-120726796D01*
X170297146Y-120487668D01*
X170297122Y-120227040D01*
X170297122Y-120184889D01*
X170297136Y-119921992D01*
X170297161Y-119680732D01*
X170297171Y-119460165D01*
X170297142Y-119259352D01*
X170297048Y-119077349D01*
X170296862Y-118913216D01*
X170296559Y-118766011D01*
X170296114Y-118634792D01*
X170295534Y-118524867D01*
X169992697Y-118524867D01*
X169952907Y-118582711D01*
X169941736Y-118598479D01*
X169931666Y-118612441D01*
X169922638Y-118625784D01*
X169914597Y-118639693D01*
X169907486Y-118655356D01*
X169901247Y-118673958D01*
X169895825Y-118696686D01*
X169891162Y-118724727D01*
X169887201Y-118759267D01*
X169883885Y-118801492D01*
X169881159Y-118852589D01*
X169878964Y-118913744D01*
X169877245Y-118986144D01*
X169875944Y-119070975D01*
X169875005Y-119169422D01*
X169874370Y-119282674D01*
X169873984Y-119411916D01*
X169873788Y-119558334D01*
X169873727Y-119723116D01*
X169873743Y-119907447D01*
X169873780Y-120112513D01*
X169873789Y-120235133D01*
X169873765Y-120452082D01*
X169873731Y-120647642D01*
X169873743Y-120822999D01*
X169873858Y-120979341D01*
X169874130Y-121117857D01*
X169874618Y-121239734D01*
X169875376Y-121346160D01*
X169876462Y-121438322D01*
X169877931Y-121517409D01*
X169879840Y-121584608D01*
X169882244Y-121641107D01*
X169885201Y-121688093D01*
X169888766Y-121726755D01*
X169892995Y-121758280D01*
X169897946Y-121783855D01*
X169903673Y-121804670D01*
X169910233Y-121821911D01*
X169917683Y-121836765D01*
X169926079Y-121850422D01*
X169935476Y-121864069D01*
X169945932Y-121878893D01*
X169952023Y-121887783D01*
X169990796Y-121945400D01*
X169459232Y-121945400D01*
X169335983Y-121945365D01*
X169233487Y-121945215D01*
X169149920Y-121944878D01*
X169083456Y-121944286D01*
X169032271Y-121943367D01*
X168994541Y-121942051D01*
X168968440Y-121940269D01*
X168952144Y-121937951D01*
X168943828Y-121935026D01*
X168941668Y-121931424D01*
X168943839Y-121927075D01*
X168945035Y-121925645D01*
X168970185Y-121888573D01*
X168996083Y-121835772D01*
X169019692Y-121773770D01*
X169027961Y-121747357D01*
X169032578Y-121729416D01*
X169036479Y-121708355D01*
X169039748Y-121682089D01*
X169042466Y-121648532D01*
X169044715Y-121605599D01*
X169046577Y-121551204D01*
X169048136Y-121483262D01*
X169049472Y-121399688D01*
X169050669Y-121298395D01*
X169051808Y-121177300D01*
X169052185Y-121132600D01*
X169053202Y-121007449D01*
X169053960Y-120903082D01*
X169054403Y-120817707D01*
X169054470Y-120749533D01*
X169054105Y-120696765D01*
X169053248Y-120657614D01*
X169051841Y-120630285D01*
X169049825Y-120612986D01*
X169047143Y-120603926D01*
X169043736Y-120601312D01*
X169039544Y-120603351D01*
X169035071Y-120607667D01*
X169024716Y-120620602D01*
X169002658Y-120649676D01*
X168970457Y-120692759D01*
X168929674Y-120747718D01*
X168881870Y-120812423D01*
X168828605Y-120884742D01*
X168771440Y-120962544D01*
X168711937Y-121043698D01*
X168651655Y-121126072D01*
X168592155Y-121207536D01*
X168534998Y-121285957D01*
X168481745Y-121359204D01*
X168433957Y-121425147D01*
X168393193Y-121481654D01*
X168361016Y-121526593D01*
X168338985Y-121557834D01*
X168334417Y-121564466D01*
X168311496Y-121601369D01*
X168284688Y-121649359D01*
X168259289Y-121698897D01*
X168256068Y-121705577D01*
X168234390Y-121753772D01*
X168221804Y-121791334D01*
X168216074Y-121827160D01*
X168214956Y-121869200D01*
X168215590Y-121945400D01*
X167061151Y-121945400D01*
X167152315Y-121851669D01*
X167199112Y-121801775D01*
X167249399Y-121745295D01*
X167295444Y-121691026D01*
X167315869Y-121665673D01*
X167346307Y-121626128D01*
X167386362Y-121572916D01*
X167434861Y-121507667D01*
X167490635Y-121432011D01*
X167552511Y-121347577D01*
X167619319Y-121255994D01*
X167689887Y-121158892D01*
X167763045Y-121057901D01*
X167837621Y-120954650D01*
X167912444Y-120850768D01*
X167986343Y-120747885D01*
X168058146Y-120647631D01*
X168126684Y-120551636D01*
X168190784Y-120461527D01*
X168249275Y-120378936D01*
X168300986Y-120305492D01*
X168344747Y-120242824D01*
X168379385Y-120192561D01*
X168403730Y-120156334D01*
X168416611Y-120135771D01*
X168418369Y-120131668D01*
X168410410Y-120120342D01*
X168389615Y-120093162D01*
X168357347Y-120051829D01*
X168314970Y-119998044D01*
X168263847Y-119933506D01*
X168205341Y-119859918D01*
X168140814Y-119778978D01*
X168071631Y-119692388D01*
X167999153Y-119601848D01*
X167924746Y-119509060D01*
X167865017Y-119434702D01*
X166854011Y-119434702D01*
X166848102Y-119447659D01*
X166833772Y-119469908D01*
X166832725Y-119471391D01*
X166813938Y-119501544D01*
X166794291Y-119538375D01*
X166790392Y-119546511D01*
X166786856Y-119554940D01*
X166783730Y-119565059D01*
X166780986Y-119578260D01*
X166778592Y-119595938D01*
X166776519Y-119619484D01*
X166774735Y-119650293D01*
X166773212Y-119689757D01*
X166771919Y-119739269D01*
X166770826Y-119800223D01*
X166769903Y-119874011D01*
X166769119Y-119962028D01*
X166768445Y-120065665D01*
X166767850Y-120186316D01*
X166767305Y-120325374D01*
X166766779Y-120484232D01*
X166766245Y-120663089D01*
X166765706Y-120848207D01*
X166765272Y-121012145D01*
X166765009Y-121156303D01*
X166764984Y-121282079D01*
X166765265Y-121390871D01*
X166765919Y-121484077D01*
X166767014Y-121563097D01*
X166768618Y-121629328D01*
X166770797Y-121684170D01*
X166773619Y-121729021D01*
X166777151Y-121765278D01*
X166781461Y-121794341D01*
X166786617Y-121817609D01*
X166792685Y-121836479D01*
X166799733Y-121852351D01*
X166807829Y-121866622D01*
X166817040Y-121880691D01*
X166825540Y-121893158D01*
X166842676Y-121919452D01*
X166852822Y-121937037D01*
X166854011Y-121940257D01*
X166843104Y-121941334D01*
X166811911Y-121942335D01*
X166762723Y-121943235D01*
X166697833Y-121944010D01*
X166619530Y-121944637D01*
X166530107Y-121945091D01*
X166431856Y-121945349D01*
X166362945Y-121945400D01*
X166257952Y-121945180D01*
X166161110Y-121944548D01*
X166074607Y-121943549D01*
X166000632Y-121942227D01*
X165941374Y-121940626D01*
X165899020Y-121938791D01*
X165875760Y-121936765D01*
X165871878Y-121935493D01*
X165879576Y-121920591D01*
X165887574Y-121912560D01*
X165900746Y-121895434D01*
X165917985Y-121865183D01*
X165929907Y-121840622D01*
X165956545Y-121781711D01*
X165959620Y-120604845D01*
X165962695Y-119427978D01*
X166408353Y-119427978D01*
X166506170Y-119428142D01*
X166596564Y-119428611D01*
X166677130Y-119429347D01*
X166745462Y-119430316D01*
X166799156Y-119431480D01*
X166835805Y-119432803D01*
X166853004Y-119434249D01*
X166854011Y-119434702D01*
X167865017Y-119434702D01*
X167849770Y-119415722D01*
X167775590Y-119323537D01*
X167703569Y-119234204D01*
X167635069Y-119149424D01*
X167571455Y-119070898D01*
X167514088Y-119000326D01*
X167464333Y-118939409D01*
X167423552Y-118889847D01*
X167406388Y-118869178D01*
X167320096Y-118768516D01*
X167243497Y-118685259D01*
X167174683Y-118617438D01*
X167111748Y-118563089D01*
X167102367Y-118555722D01*
X167062856Y-118525117D01*
X168194616Y-118524867D01*
X168189327Y-118572844D01*
X168192630Y-118630188D01*
X168214161Y-118698463D01*
X168254135Y-118778212D01*
X168299443Y-118850495D01*
X168315661Y-118873140D01*
X168343714Y-118910696D01*
X168381930Y-118961021D01*
X168428637Y-119021973D01*
X168482161Y-119091411D01*
X168540831Y-119167194D01*
X168602975Y-119247180D01*
X168666921Y-119329228D01*
X168730995Y-119411196D01*
X168793527Y-119490943D01*
X168852843Y-119566327D01*
X168907271Y-119635207D01*
X168955139Y-119695442D01*
X168994775Y-119744889D01*
X169024506Y-119781408D01*
X169042661Y-119802858D01*
X169045720Y-119806156D01*
X169048579Y-119798149D01*
X169050793Y-119767855D01*
X169052357Y-119715556D01*
X169053267Y-119641531D01*
X169053520Y-119546063D01*
X169053113Y-119429434D01*
X169052204Y-119309445D01*
X169050882Y-119177333D01*
X169049357Y-119065594D01*
X169047381Y-118972025D01*
X169044706Y-118894419D01*
X169041082Y-118830574D01*
X169036261Y-118778283D01*
X169029994Y-118735344D01*
X169022032Y-118699551D01*
X169012127Y-118668700D01*
X169000031Y-118640586D01*
X168985493Y-118613005D01*
X168970811Y-118587966D01*
X168932814Y-118524867D01*
X169992697Y-118524867D01*
X170295534Y-118524867D01*
X170295501Y-118518617D01*
X170294695Y-118416544D01*
X170293670Y-118327633D01*
X170292400Y-118250941D01*
X170290860Y-118185527D01*
X170289024Y-118130449D01*
X170286867Y-118084765D01*
X170284363Y-118047534D01*
X170281487Y-118017813D01*
X170278213Y-117994662D01*
X170274515Y-117977139D01*
X170270369Y-117964301D01*
X170265747Y-117955208D01*
X170260626Y-117948918D01*
X170254978Y-117944488D01*
X170248779Y-117940978D01*
X170242004Y-117937445D01*
X170236008Y-117933876D01*
X170230775Y-117931300D01*
X170222599Y-117928972D01*
X170210386Y-117926878D01*
X170193041Y-117925007D01*
X170169469Y-117923347D01*
X170138577Y-117921884D01*
X170099268Y-117920608D01*
X170050450Y-117919504D01*
X169991027Y-117918561D01*
X169919904Y-117917767D01*
X169835988Y-117917109D01*
X169738183Y-117916575D01*
X169625394Y-117916153D01*
X169496529Y-117915829D01*
X169350491Y-117915592D01*
X169186186Y-117915430D01*
X169002520Y-117915330D01*
X168798397Y-117915280D01*
X168587253Y-117915267D01*
X166966900Y-117915267D01*
X166966900Y-118012054D01*
G36*
X163692071Y-118472071D02*
G01*
X163531930Y-118493245D01*
X163367990Y-118533385D01*
X163198187Y-118592889D01*
X163020457Y-118672154D01*
X163009190Y-118677699D01*
X162951495Y-118705725D01*
X162899948Y-118729802D01*
X162858309Y-118748249D01*
X162830338Y-118759386D01*
X162820767Y-118761933D01*
X162801550Y-118766941D01*
X162796939Y-118771147D01*
X162802042Y-118781580D01*
X162818082Y-118807868D01*
X162843212Y-118847257D01*
X162875586Y-118896991D01*
X162913357Y-118954315D01*
X162954678Y-119016476D01*
X162997702Y-119080718D01*
X163040583Y-119144285D01*
X163081474Y-119204425D01*
X163118529Y-119258380D01*
X163149900Y-119303397D01*
X163173741Y-119336721D01*
X163188206Y-119355597D01*
X163190191Y-119357787D01*
X163200309Y-119353138D01*
X163222650Y-119335962D01*
X163253220Y-119309440D01*
X163268964Y-119294964D01*
X163365453Y-119219682D01*
X163472164Y-119164241D01*
X163587668Y-119129141D01*
X163710538Y-119114880D01*
X163779939Y-119116051D01*
X163901077Y-119133212D01*
X164010295Y-119169094D01*
X164107918Y-119223959D01*
X164194272Y-119298070D01*
X164269685Y-119391688D01*
X164334482Y-119505076D01*
X164371899Y-119591667D01*
X164415752Y-119727366D01*
X164448072Y-119874850D01*
X164468943Y-120030314D01*
X164478449Y-120189956D01*
X164476673Y-120349973D01*
X164463697Y-120506561D01*
X164439606Y-120655918D01*
X164404482Y-120794240D01*
X164358408Y-120917724D01*
X164342127Y-120951978D01*
X164273880Y-121066064D01*
X164193421Y-121162557D01*
X164101930Y-121240670D01*
X164000589Y-121299617D01*
X163890580Y-121338612D01*
X163773085Y-121356868D01*
X163731617Y-121358211D01*
X163610059Y-121347290D01*
X163489622Y-121314474D01*
X163371834Y-121260439D01*
X163258223Y-121185865D01*
X163166815Y-121107539D01*
X163120285Y-121063008D01*
X162939017Y-121360271D01*
X162893920Y-121434433D01*
X162852681Y-121502646D01*
X162816765Y-121562459D01*
X162787634Y-121611420D01*
X162766750Y-121647079D01*
X162755576Y-121666984D01*
X162754125Y-121670079D01*
X162762354Y-121679718D01*
X162787933Y-121696999D01*
X162827627Y-121720283D01*
X162878203Y-121747934D01*
X162936426Y-121778315D01*
X162999063Y-121809790D01*
X163062879Y-121840722D01*
X163124640Y-121869473D01*
X163181112Y-121894408D01*
X163229062Y-121913889D01*
X163252514Y-121922318D01*
X163386279Y-121960133D01*
X163524173Y-121985136D01*
X163671878Y-121998140D01*
X163798667Y-122000468D01*
X163866622Y-121999373D01*
X163932223Y-121997275D01*
X163989653Y-121994434D01*
X164033097Y-121991106D01*
X164047202Y-121989422D01*
X164186216Y-121960587D01*
X164327743Y-121915468D01*
X164465225Y-121856750D01*
X164592106Y-121787120D01*
X164669611Y-121734441D01*
X164797019Y-121626239D01*
X164915322Y-121499671D01*
X165022328Y-121357866D01*
X165115848Y-121203951D01*
X165193690Y-121041053D01*
X165237544Y-120923756D01*
X165287792Y-120740128D01*
X165321291Y-120545581D01*
X165338051Y-120344325D01*
X165338084Y-120140568D01*
X165321399Y-119938521D01*
X165288007Y-119742392D01*
X165237920Y-119556391D01*
X165234103Y-119544803D01*
X165171219Y-119382750D01*
X165094472Y-119234832D01*
X165001258Y-119096865D01*
X164888973Y-118964661D01*
X164845108Y-118919399D01*
X164708966Y-118795457D01*
X164569009Y-118692915D01*
X164423089Y-118610656D01*
X164269058Y-118547564D01*
X164104768Y-118502523D01*
X164009211Y-118485033D01*
X163850477Y-118469466D01*
X163692071Y-118472071D01*
G37*
X163692071Y-118472071D02*
X163531930Y-118493245D01*
X163367990Y-118533385D01*
X163198187Y-118592889D01*
X163020457Y-118672154D01*
X163009190Y-118677699D01*
X162951495Y-118705725D01*
X162899948Y-118729802D01*
X162858309Y-118748249D01*
X162830338Y-118759386D01*
X162820767Y-118761933D01*
X162801550Y-118766941D01*
X162796939Y-118771147D01*
X162802042Y-118781580D01*
X162818082Y-118807868D01*
X162843212Y-118847257D01*
X162875586Y-118896991D01*
X162913357Y-118954315D01*
X162954678Y-119016476D01*
X162997702Y-119080718D01*
X163040583Y-119144285D01*
X163081474Y-119204425D01*
X163118529Y-119258380D01*
X163149900Y-119303397D01*
X163173741Y-119336721D01*
X163188206Y-119355597D01*
X163190191Y-119357787D01*
X163200309Y-119353138D01*
X163222650Y-119335962D01*
X163253220Y-119309440D01*
X163268964Y-119294964D01*
X163365453Y-119219682D01*
X163472164Y-119164241D01*
X163587668Y-119129141D01*
X163710538Y-119114880D01*
X163779939Y-119116051D01*
X163901077Y-119133212D01*
X164010295Y-119169094D01*
X164107918Y-119223959D01*
X164194272Y-119298070D01*
X164269685Y-119391688D01*
X164334482Y-119505076D01*
X164371899Y-119591667D01*
X164415752Y-119727366D01*
X164448072Y-119874850D01*
X164468943Y-120030314D01*
X164478449Y-120189956D01*
X164476673Y-120349973D01*
X164463697Y-120506561D01*
X164439606Y-120655918D01*
X164404482Y-120794240D01*
X164358408Y-120917724D01*
X164342127Y-120951978D01*
X164273880Y-121066064D01*
X164193421Y-121162557D01*
X164101930Y-121240670D01*
X164000589Y-121299617D01*
X163890580Y-121338612D01*
X163773085Y-121356868D01*
X163731617Y-121358211D01*
X163610059Y-121347290D01*
X163489622Y-121314474D01*
X163371834Y-121260439D01*
X163258223Y-121185865D01*
X163166815Y-121107539D01*
X163120285Y-121063008D01*
X162939017Y-121360271D01*
X162893920Y-121434433D01*
X162852681Y-121502646D01*
X162816765Y-121562459D01*
X162787634Y-121611420D01*
X162766750Y-121647079D01*
X162755576Y-121666984D01*
X162754125Y-121670079D01*
X162762354Y-121679718D01*
X162787933Y-121696999D01*
X162827627Y-121720283D01*
X162878203Y-121747934D01*
X162936426Y-121778315D01*
X162999063Y-121809790D01*
X163062879Y-121840722D01*
X163124640Y-121869473D01*
X163181112Y-121894408D01*
X163229062Y-121913889D01*
X163252514Y-121922318D01*
X163386279Y-121960133D01*
X163524173Y-121985136D01*
X163671878Y-121998140D01*
X163798667Y-122000468D01*
X163866622Y-121999373D01*
X163932223Y-121997275D01*
X163989653Y-121994434D01*
X164033097Y-121991106D01*
X164047202Y-121989422D01*
X164186216Y-121960587D01*
X164327743Y-121915468D01*
X164465225Y-121856750D01*
X164592106Y-121787120D01*
X164669611Y-121734441D01*
X164797019Y-121626239D01*
X164915322Y-121499671D01*
X165022328Y-121357866D01*
X165115848Y-121203951D01*
X165193690Y-121041053D01*
X165237544Y-120923756D01*
X165287792Y-120740128D01*
X165321291Y-120545581D01*
X165338051Y-120344325D01*
X165338084Y-120140568D01*
X165321399Y-119938521D01*
X165288007Y-119742392D01*
X165237920Y-119556391D01*
X165234103Y-119544803D01*
X165171219Y-119382750D01*
X165094472Y-119234832D01*
X165001258Y-119096865D01*
X164888973Y-118964661D01*
X164845108Y-118919399D01*
X164708966Y-118795457D01*
X164569009Y-118692915D01*
X164423089Y-118610656D01*
X164269058Y-118547564D01*
X164104768Y-118502523D01*
X164009211Y-118485033D01*
X163850477Y-118469466D01*
X163692071Y-118472071D01*
G36*
X161346926Y-119389552D02*
G01*
X161195008Y-119409567D01*
X161059744Y-119443202D01*
X160940261Y-119490725D01*
X160835685Y-119552405D01*
X160758076Y-119615965D01*
X160689235Y-119690099D01*
X160635494Y-119769871D01*
X160592590Y-119862091D01*
X160577116Y-119905161D01*
X160564256Y-119944142D01*
X160553054Y-119980289D01*
X160543380Y-120015434D01*
X160535104Y-120051410D01*
X160528097Y-120090050D01*
X160522228Y-120133185D01*
X160517369Y-120182649D01*
X160513390Y-120240273D01*
X160510160Y-120307891D01*
X160507551Y-120387334D01*
X160505433Y-120480436D01*
X160503676Y-120589027D01*
X160502151Y-120714942D01*
X160500728Y-120860012D01*
X160499475Y-121002778D01*
X160498149Y-121158968D01*
X160496944Y-121294239D01*
X160495734Y-121410246D01*
X160494394Y-121508645D01*
X160492800Y-121591093D01*
X160490825Y-121659246D01*
X160488344Y-121714760D01*
X160485231Y-121759292D01*
X160481362Y-121794498D01*
X160476611Y-121822034D01*
X160470852Y-121843556D01*
X160463961Y-121860722D01*
X160455811Y-121875186D01*
X160446277Y-121888606D01*
X160435234Y-121902638D01*
X160430934Y-121908071D01*
X160415114Y-121930910D01*
X160408078Y-121946463D01*
X160408056Y-121946922D01*
X160418933Y-121949121D01*
X160449918Y-121951147D01*
X160498543Y-121952942D01*
X160562337Y-121954451D01*
X160638831Y-121955616D01*
X160725556Y-121956380D01*
X160820043Y-121956686D01*
X160830950Y-121956689D01*
X161253843Y-121956689D01*
X161257105Y-121860622D01*
X161260367Y-121764556D01*
X161322456Y-121815543D01*
X161419786Y-121883057D01*
X161529687Y-121937749D01*
X161616151Y-121967978D01*
X161685222Y-121982666D01*
X161768575Y-121992659D01*
X161858341Y-121997646D01*
X161946655Y-121997313D01*
X162025649Y-121991351D01*
X162061878Y-121985638D01*
X162201897Y-121947776D01*
X162328322Y-121892932D01*
X162440240Y-121821924D01*
X162536738Y-121735568D01*
X162616900Y-121634679D01*
X162679813Y-121520076D01*
X162724188Y-121393984D01*
X162736522Y-121337401D01*
X162744132Y-121275202D01*
X162747761Y-121200363D01*
X162748255Y-121166467D01*
X162748190Y-121163282D01*
X161988252Y-121163282D01*
X161978959Y-121238333D01*
X161950772Y-121302160D01*
X161902303Y-121357798D01*
X161897246Y-121362211D01*
X161848952Y-121397037D01*
X161797243Y-121419620D01*
X161736511Y-121431540D01*
X161661148Y-121434383D01*
X161643041Y-121433978D01*
X161589222Y-121431325D01*
X161549192Y-121425909D01*
X161514176Y-121415745D01*
X161475397Y-121398850D01*
X161464755Y-121393672D01*
X161404104Y-121357844D01*
X161357285Y-121315212D01*
X161344548Y-121299973D01*
X161299878Y-121243462D01*
X161299878Y-121047586D01*
X161300414Y-120968939D01*
X161302104Y-120910988D01*
X161305072Y-120871875D01*
X161309443Y-120849741D01*
X161313528Y-120843274D01*
X161329453Y-120840111D01*
X161363236Y-120837488D01*
X161410160Y-120835655D01*
X161465507Y-120834857D01*
X161474394Y-120834842D01*
X161595170Y-120840096D01*
X161697840Y-120856263D01*
X161784394Y-120883961D01*
X161856819Y-120923808D01*
X161911749Y-120970758D01*
X161956296Y-121028645D01*
X161981020Y-121091693D01*
X161988252Y-121163282D01*
X162748190Y-121163282D01*
X162746322Y-121072712D01*
X162737978Y-120993812D01*
X162721732Y-120922590D01*
X162696095Y-120851864D01*
X162672099Y-120799493D01*
X162613480Y-120704196D01*
X162535383Y-120616170D01*
X162440185Y-120537017D01*
X162330262Y-120468340D01*
X162207990Y-120411741D01*
X162075745Y-120368821D01*
X162011078Y-120353882D01*
X161874896Y-120331777D01*
X161726451Y-120317194D01*
X161574995Y-120310813D01*
X161448436Y-120312445D01*
X161286550Y-120319224D01*
X161293970Y-120260245D01*
X161313262Y-120161092D01*
X161344396Y-120080372D01*
X161388231Y-120017466D01*
X161445629Y-119971756D01*
X161517452Y-119942622D01*
X161604559Y-119929447D01*
X161707814Y-119931611D01*
X161745789Y-119935612D01*
X161886980Y-119960780D01*
X162023793Y-120001814D01*
X162118322Y-120039815D01*
X162163482Y-120059190D01*
X162201915Y-120074760D01*
X162228266Y-120084405D01*
X162235954Y-120086452D01*
X162245698Y-120077374D01*
X162262417Y-120048405D01*
X162286268Y-119999217D01*
X162317407Y-119929484D01*
X162355993Y-119838879D01*
X162362590Y-119823089D01*
X162392647Y-119750772D01*
X162419626Y-119685425D01*
X162442364Y-119629906D01*
X162459694Y-119587072D01*
X162470452Y-119559781D01*
X162473559Y-119550942D01*
X162463560Y-119546187D01*
X162437283Y-119540910D01*
X162409011Y-119537231D01*
X162378854Y-119532474D01*
X162331067Y-119523028D01*
X162269888Y-119509820D01*
X162199554Y-119493776D01*
X162124306Y-119475820D01*
X162095745Y-119468797D01*
X161990684Y-119443209D01*
X161903020Y-119423147D01*
X161828432Y-119407969D01*
X161762597Y-119397035D01*
X161701193Y-119389704D01*
X161639898Y-119385335D01*
X161574390Y-119383287D01*
X161516372Y-119382889D01*
X161346926Y-119389552D01*
G37*
X161346926Y-119389552D02*
X161195008Y-119409567D01*
X161059744Y-119443202D01*
X160940261Y-119490725D01*
X160835685Y-119552405D01*
X160758076Y-119615965D01*
X160689235Y-119690099D01*
X160635494Y-119769871D01*
X160592590Y-119862091D01*
X160577116Y-119905161D01*
X160564256Y-119944142D01*
X160553054Y-119980289D01*
X160543380Y-120015434D01*
X160535104Y-120051410D01*
X160528097Y-120090050D01*
X160522228Y-120133185D01*
X160517369Y-120182649D01*
X160513390Y-120240273D01*
X160510160Y-120307891D01*
X160507551Y-120387334D01*
X160505433Y-120480436D01*
X160503676Y-120589027D01*
X160502151Y-120714942D01*
X160500728Y-120860012D01*
X160499475Y-121002778D01*
X160498149Y-121158968D01*
X160496944Y-121294239D01*
X160495734Y-121410246D01*
X160494394Y-121508645D01*
X160492800Y-121591093D01*
X160490825Y-121659246D01*
X160488344Y-121714760D01*
X160485231Y-121759292D01*
X160481362Y-121794498D01*
X160476611Y-121822034D01*
X160470852Y-121843556D01*
X160463961Y-121860722D01*
X160455811Y-121875186D01*
X160446277Y-121888606D01*
X160435234Y-121902638D01*
X160430934Y-121908071D01*
X160415114Y-121930910D01*
X160408078Y-121946463D01*
X160408056Y-121946922D01*
X160418933Y-121949121D01*
X160449918Y-121951147D01*
X160498543Y-121952942D01*
X160562337Y-121954451D01*
X160638831Y-121955616D01*
X160725556Y-121956380D01*
X160820043Y-121956686D01*
X160830950Y-121956689D01*
X161253843Y-121956689D01*
X161257105Y-121860622D01*
X161260367Y-121764556D01*
X161322456Y-121815543D01*
X161419786Y-121883057D01*
X161529687Y-121937749D01*
X161616151Y-121967978D01*
X161685222Y-121982666D01*
X161768575Y-121992659D01*
X161858341Y-121997646D01*
X161946655Y-121997313D01*
X162025649Y-121991351D01*
X162061878Y-121985638D01*
X162201897Y-121947776D01*
X162328322Y-121892932D01*
X162440240Y-121821924D01*
X162536738Y-121735568D01*
X162616900Y-121634679D01*
X162679813Y-121520076D01*
X162724188Y-121393984D01*
X162736522Y-121337401D01*
X162744132Y-121275202D01*
X162747761Y-121200363D01*
X162748255Y-121166467D01*
X162748190Y-121163282D01*
X161988252Y-121163282D01*
X161978959Y-121238333D01*
X161950772Y-121302160D01*
X161902303Y-121357798D01*
X161897246Y-121362211D01*
X161848952Y-121397037D01*
X161797243Y-121419620D01*
X161736511Y-121431540D01*
X161661148Y-121434383D01*
X161643041Y-121433978D01*
X161589222Y-121431325D01*
X161549192Y-121425909D01*
X161514176Y-121415745D01*
X161475397Y-121398850D01*
X161464755Y-121393672D01*
X161404104Y-121357844D01*
X161357285Y-121315212D01*
X161344548Y-121299973D01*
X161299878Y-121243462D01*
X161299878Y-121047586D01*
X161300414Y-120968939D01*
X161302104Y-120910988D01*
X161305072Y-120871875D01*
X161309443Y-120849741D01*
X161313528Y-120843274D01*
X161329453Y-120840111D01*
X161363236Y-120837488D01*
X161410160Y-120835655D01*
X161465507Y-120834857D01*
X161474394Y-120834842D01*
X161595170Y-120840096D01*
X161697840Y-120856263D01*
X161784394Y-120883961D01*
X161856819Y-120923808D01*
X161911749Y-120970758D01*
X161956296Y-121028645D01*
X161981020Y-121091693D01*
X161988252Y-121163282D01*
X162748190Y-121163282D01*
X162746322Y-121072712D01*
X162737978Y-120993812D01*
X162721732Y-120922590D01*
X162696095Y-120851864D01*
X162672099Y-120799493D01*
X162613480Y-120704196D01*
X162535383Y-120616170D01*
X162440185Y-120537017D01*
X162330262Y-120468340D01*
X162207990Y-120411741D01*
X162075745Y-120368821D01*
X162011078Y-120353882D01*
X161874896Y-120331777D01*
X161726451Y-120317194D01*
X161574995Y-120310813D01*
X161448436Y-120312445D01*
X161286550Y-120319224D01*
X161293970Y-120260245D01*
X161313262Y-120161092D01*
X161344396Y-120080372D01*
X161388231Y-120017466D01*
X161445629Y-119971756D01*
X161517452Y-119942622D01*
X161604559Y-119929447D01*
X161707814Y-119931611D01*
X161745789Y-119935612D01*
X161886980Y-119960780D01*
X162023793Y-120001814D01*
X162118322Y-120039815D01*
X162163482Y-120059190D01*
X162201915Y-120074760D01*
X162228266Y-120084405D01*
X162235954Y-120086452D01*
X162245698Y-120077374D01*
X162262417Y-120048405D01*
X162286268Y-119999217D01*
X162317407Y-119929484D01*
X162355993Y-119838879D01*
X162362590Y-119823089D01*
X162392647Y-119750772D01*
X162419626Y-119685425D01*
X162442364Y-119629906D01*
X162459694Y-119587072D01*
X162470452Y-119559781D01*
X162473559Y-119550942D01*
X162463560Y-119546187D01*
X162437283Y-119540910D01*
X162409011Y-119537231D01*
X162378854Y-119532474D01*
X162331067Y-119523028D01*
X162269888Y-119509820D01*
X162199554Y-119493776D01*
X162124306Y-119475820D01*
X162095745Y-119468797D01*
X161990684Y-119443209D01*
X161903020Y-119423147D01*
X161828432Y-119407969D01*
X161762597Y-119397035D01*
X161701193Y-119389704D01*
X161639898Y-119385335D01*
X161574390Y-119383287D01*
X161516372Y-119382889D01*
X161346926Y-119389552D01*
G36*
X157833993Y-119995245D02*
G01*
X157833974Y-120229662D01*
X157833948Y-120442603D01*
X157833875Y-120635168D01*
X157833718Y-120808459D01*
X157833436Y-120963576D01*
X157832991Y-121101620D01*
X157832344Y-121223692D01*
X157831455Y-121330894D01*
X157830287Y-121424326D01*
X157828799Y-121505090D01*
X157826954Y-121574286D01*
X157824711Y-121633015D01*
X157822031Y-121682379D01*
X157818877Y-121723478D01*
X157815208Y-121757413D01*
X157810987Y-121785286D01*
X157806173Y-121808198D01*
X157800727Y-121827249D01*
X157794612Y-121843540D01*
X157787788Y-121858173D01*
X157780215Y-121872249D01*
X157771855Y-121886868D01*
X157766661Y-121895974D01*
X157732396Y-121956689D01*
X158590545Y-121956689D01*
X158590545Y-121860733D01*
X158591276Y-121817370D01*
X158593228Y-121784205D01*
X158596037Y-121766424D01*
X158597279Y-121764778D01*
X158608701Y-121771662D01*
X158631416Y-121789505D01*
X158654115Y-121808879D01*
X158708700Y-121849614D01*
X158778179Y-121890617D01*
X158855230Y-121928123D01*
X158932535Y-121958364D01*
X158963387Y-121968012D01*
X159031884Y-121982578D01*
X159114736Y-121992539D01*
X159204129Y-121997583D01*
X159292252Y-121997396D01*
X159371293Y-121991666D01*
X159408989Y-121985858D01*
X159547086Y-121947797D01*
X159674387Y-121890073D01*
X159790208Y-121813211D01*
X159893863Y-121717739D01*
X159984667Y-121604179D01*
X160051469Y-121493381D01*
X160106336Y-121376625D01*
X160148337Y-121257276D01*
X160178333Y-121131283D01*
X160197189Y-120994594D01*
X160205768Y-120843158D01*
X160206494Y-120765711D01*
X160204400Y-120708934D01*
X159375283Y-120708934D01*
X159375076Y-120802002D01*
X159372163Y-120889692D01*
X159366500Y-120966772D01*
X159358045Y-121028009D01*
X159355462Y-121040350D01*
X159323660Y-121147633D01*
X159282002Y-121234658D01*
X159230137Y-121301642D01*
X159167719Y-121348805D01*
X159094400Y-121376365D01*
X159009831Y-121384541D01*
X158913665Y-121373551D01*
X158850189Y-121357829D01*
X158801046Y-121339639D01*
X158746917Y-121313791D01*
X158706256Y-121290089D01*
X158635700Y-121243721D01*
X158635700Y-120093530D01*
X158703108Y-120049962D01*
X158781633Y-120009040D01*
X158865819Y-119982389D01*
X158950943Y-119970465D01*
X159032284Y-119973722D01*
X159105120Y-119992615D01*
X159137074Y-120008184D01*
X159194999Y-120051181D01*
X159243956Y-120107953D01*
X159285110Y-120180575D01*
X159319626Y-120271121D01*
X159348667Y-120381666D01*
X159349948Y-120387533D01*
X159360119Y-120449788D01*
X159367761Y-120527594D01*
X159372830Y-120615720D01*
X159375283Y-120708934D01*
X160204400Y-120708934D01*
X160198643Y-120552895D01*
X160176698Y-120357059D01*
X160140714Y-120178332D01*
X160090741Y-120016845D01*
X160026832Y-119872726D01*
X159949038Y-119746106D01*
X159857411Y-119637115D01*
X159752003Y-119545883D01*
X159706838Y-119514932D01*
X159605889Y-119458785D01*
X159502599Y-119419174D01*
X159392511Y-119395014D01*
X159271170Y-119385219D01*
X159178664Y-119386265D01*
X159049010Y-119397231D01*
X158936416Y-119419046D01*
X158837625Y-119452714D01*
X158749379Y-119499236D01*
X158700514Y-119533448D01*
X158671147Y-119555362D01*
X158649457Y-119570333D01*
X158641247Y-119574733D01*
X158639632Y-119563904D01*
X158638341Y-119533251D01*
X158637362Y-119485526D01*
X158636683Y-119423479D01*
X158636290Y-119349862D01*
X158636170Y-119267427D01*
X158636312Y-119178925D01*
X158636703Y-119087107D01*
X158637329Y-118994724D01*
X158638180Y-118904528D01*
X158639240Y-118819271D01*
X158640499Y-118741703D01*
X158641944Y-118674576D01*
X158643562Y-118620641D01*
X158645339Y-118582650D01*
X158645831Y-118575667D01*
X158653408Y-118505251D01*
X158664969Y-118450102D01*
X158682708Y-118402981D01*
X158708818Y-118356647D01*
X158715085Y-118347067D01*
X158739517Y-118310378D01*
X157834189Y-118310378D01*
X157833993Y-119995245D01*
G37*
X157833993Y-119995245D02*
X157833974Y-120229662D01*
X157833948Y-120442603D01*
X157833875Y-120635168D01*
X157833718Y-120808459D01*
X157833436Y-120963576D01*
X157832991Y-121101620D01*
X157832344Y-121223692D01*
X157831455Y-121330894D01*
X157830287Y-121424326D01*
X157828799Y-121505090D01*
X157826954Y-121574286D01*
X157824711Y-121633015D01*
X157822031Y-121682379D01*
X157818877Y-121723478D01*
X157815208Y-121757413D01*
X157810987Y-121785286D01*
X157806173Y-121808198D01*
X157800727Y-121827249D01*
X157794612Y-121843540D01*
X157787788Y-121858173D01*
X157780215Y-121872249D01*
X157771855Y-121886868D01*
X157766661Y-121895974D01*
X157732396Y-121956689D01*
X158590545Y-121956689D01*
X158590545Y-121860733D01*
X158591276Y-121817370D01*
X158593228Y-121784205D01*
X158596037Y-121766424D01*
X158597279Y-121764778D01*
X158608701Y-121771662D01*
X158631416Y-121789505D01*
X158654115Y-121808879D01*
X158708700Y-121849614D01*
X158778179Y-121890617D01*
X158855230Y-121928123D01*
X158932535Y-121958364D01*
X158963387Y-121968012D01*
X159031884Y-121982578D01*
X159114736Y-121992539D01*
X159204129Y-121997583D01*
X159292252Y-121997396D01*
X159371293Y-121991666D01*
X159408989Y-121985858D01*
X159547086Y-121947797D01*
X159674387Y-121890073D01*
X159790208Y-121813211D01*
X159893863Y-121717739D01*
X159984667Y-121604179D01*
X160051469Y-121493381D01*
X160106336Y-121376625D01*
X160148337Y-121257276D01*
X160178333Y-121131283D01*
X160197189Y-120994594D01*
X160205768Y-120843158D01*
X160206494Y-120765711D01*
X160204400Y-120708934D01*
X159375283Y-120708934D01*
X159375076Y-120802002D01*
X159372163Y-120889692D01*
X159366500Y-120966772D01*
X159358045Y-121028009D01*
X159355462Y-121040350D01*
X159323660Y-121147633D01*
X159282002Y-121234658D01*
X159230137Y-121301642D01*
X159167719Y-121348805D01*
X159094400Y-121376365D01*
X159009831Y-121384541D01*
X158913665Y-121373551D01*
X158850189Y-121357829D01*
X158801046Y-121339639D01*
X158746917Y-121313791D01*
X158706256Y-121290089D01*
X158635700Y-121243721D01*
X158635700Y-120093530D01*
X158703108Y-120049962D01*
X158781633Y-120009040D01*
X158865819Y-119982389D01*
X158950943Y-119970465D01*
X159032284Y-119973722D01*
X159105120Y-119992615D01*
X159137074Y-120008184D01*
X159194999Y-120051181D01*
X159243956Y-120107953D01*
X159285110Y-120180575D01*
X159319626Y-120271121D01*
X159348667Y-120381666D01*
X159349948Y-120387533D01*
X159360119Y-120449788D01*
X159367761Y-120527594D01*
X159372830Y-120615720D01*
X159375283Y-120708934D01*
X160204400Y-120708934D01*
X160198643Y-120552895D01*
X160176698Y-120357059D01*
X160140714Y-120178332D01*
X160090741Y-120016845D01*
X160026832Y-119872726D01*
X159949038Y-119746106D01*
X159857411Y-119637115D01*
X159752003Y-119545883D01*
X159706838Y-119514932D01*
X159605889Y-119458785D01*
X159502599Y-119419174D01*
X159392511Y-119395014D01*
X159271170Y-119385219D01*
X159178664Y-119386265D01*
X159049010Y-119397231D01*
X158936416Y-119419046D01*
X158837625Y-119452714D01*
X158749379Y-119499236D01*
X158700514Y-119533448D01*
X158671147Y-119555362D01*
X158649457Y-119570333D01*
X158641247Y-119574733D01*
X158639632Y-119563904D01*
X158638341Y-119533251D01*
X158637362Y-119485526D01*
X158636683Y-119423479D01*
X158636290Y-119349862D01*
X158636170Y-119267427D01*
X158636312Y-119178925D01*
X158636703Y-119087107D01*
X158637329Y-118994724D01*
X158638180Y-118904528D01*
X158639240Y-118819271D01*
X158640499Y-118741703D01*
X158641944Y-118674576D01*
X158643562Y-118620641D01*
X158645339Y-118582650D01*
X158645831Y-118575667D01*
X158653408Y-118505251D01*
X158664969Y-118450102D01*
X158682708Y-118402981D01*
X158708818Y-118356647D01*
X158715085Y-118347067D01*
X158739517Y-118310378D01*
X157834189Y-118310378D01*
X157833993Y-119995245D01*
G36*
X166293543Y-117549571D02*
G01*
X166197268Y-117573809D01*
X166110684Y-117616641D01*
X166035873Y-117676419D01*
X165974918Y-117751494D01*
X165929899Y-117840220D01*
X165903636Y-117936530D01*
X165897786Y-118033795D01*
X165912640Y-118127654D01*
X165946340Y-118215511D01*
X165997028Y-118294770D01*
X166062845Y-118362836D01*
X166141934Y-118417112D01*
X166232434Y-118455002D01*
X166283700Y-118467426D01*
X166328198Y-118474947D01*
X166362499Y-118477919D01*
X166395460Y-118476094D01*
X166435934Y-118469225D01*
X166469031Y-118462250D01*
X166562447Y-118430741D01*
X166646119Y-118379617D01*
X166718165Y-118310429D01*
X166776700Y-118224728D01*
X166790648Y-118197489D01*
X166807086Y-118161122D01*
X166817394Y-118130582D01*
X166822960Y-118098450D01*
X166825169Y-118057307D01*
X166825448Y-118011222D01*
X166821361Y-117926865D01*
X166807946Y-117857586D01*
X166782756Y-117796961D01*
X166743346Y-117738567D01*
X166704798Y-117694302D01*
X166632906Y-117628484D01*
X166557813Y-117583053D01*
X166475062Y-117555850D01*
X166397428Y-117545576D01*
X166293543Y-117549571D01*
G37*
X166293543Y-117549571D02*
X166197268Y-117573809D01*
X166110684Y-117616641D01*
X166035873Y-117676419D01*
X165974918Y-117751494D01*
X165929899Y-117840220D01*
X165903636Y-117936530D01*
X165897786Y-118033795D01*
X165912640Y-118127654D01*
X165946340Y-118215511D01*
X165997028Y-118294770D01*
X166062845Y-118362836D01*
X166141934Y-118417112D01*
X166232434Y-118455002D01*
X166283700Y-118467426D01*
X166328198Y-118474947D01*
X166362499Y-118477919D01*
X166395460Y-118476094D01*
X166435934Y-118469225D01*
X166469031Y-118462250D01*
X166562447Y-118430741D01*
X166646119Y-118379617D01*
X166718165Y-118310429D01*
X166776700Y-118224728D01*
X166790648Y-118197489D01*
X166807086Y-118161122D01*
X166817394Y-118130582D01*
X166822960Y-118098450D01*
X166825169Y-118057307D01*
X166825448Y-118011222D01*
X166821361Y-117926865D01*
X166807946Y-117857586D01*
X166782756Y-117796961D01*
X166743346Y-117738567D01*
X166704798Y-117694302D01*
X166632906Y-117628484D01*
X166557813Y-117583053D01*
X166475062Y-117555850D01*
X166397428Y-117545576D01*
X166293543Y-117549571D01*
G36*
X170141871Y-122792066D02*
G01*
X170102389Y-122792467D01*
X169986700Y-122795259D01*
X169889811Y-122803550D01*
X169808419Y-122818232D01*
X169739223Y-122840193D01*
X169678920Y-122870322D01*
X169624208Y-122909510D01*
X169604667Y-122926532D01*
X169572250Y-122966363D01*
X169543020Y-123020413D01*
X169520491Y-123080323D01*
X169508179Y-123137739D01*
X169506900Y-123158956D01*
X169514917Y-123217769D01*
X169536399Y-123282013D01*
X169567499Y-123342821D01*
X169604366Y-123391330D01*
X169610354Y-123397182D01*
X169661079Y-123438321D01*
X169716625Y-123470435D01*
X169780196Y-123494365D01*
X169854994Y-123510953D01*
X169944222Y-123521041D01*
X170051082Y-123525469D01*
X170100028Y-123525845D01*
X170162262Y-123525545D01*
X170206028Y-123524292D01*
X170235431Y-123521554D01*
X170254579Y-123516801D01*
X170267577Y-123509501D01*
X170274545Y-123503267D01*
X170281126Y-123495694D01*
X170286288Y-123485924D01*
X170290203Y-123471340D01*
X170293043Y-123449326D01*
X170294980Y-123417264D01*
X170296184Y-123372536D01*
X170296828Y-123312526D01*
X170297083Y-123234617D01*
X170297122Y-123158956D01*
X170297370Y-123058041D01*
X170297317Y-122977427D01*
X170296357Y-122938822D01*
X170150367Y-122938822D01*
X170150367Y-123379089D01*
X170057234Y-123379004D01*
X170001193Y-123377396D01*
X169942499Y-123373256D01*
X169893528Y-123367464D01*
X169892038Y-123367226D01*
X169812892Y-123348090D01*
X169751502Y-123318287D01*
X169704805Y-123275878D01*
X169675135Y-123229961D01*
X169656853Y-123179026D01*
X169658271Y-123131200D01*
X169679488Y-123079933D01*
X169720989Y-123026899D01*
X169778498Y-122987600D01*
X169853250Y-122961331D01*
X169903208Y-122952035D01*
X169959916Y-122945507D01*
X170020019Y-122940782D01*
X170071139Y-122938817D01*
X170074167Y-122938808D01*
X170150367Y-122938822D01*
X170296357Y-122938822D01*
X170295760Y-122914851D01*
X170291498Y-122868055D01*
X170283330Y-122834778D01*
X170270056Y-122812759D01*
X170250474Y-122799739D01*
X170223383Y-122793457D01*
X170187582Y-122791653D01*
X170141871Y-122792066D01*
G37*
X170141871Y-122792066D02*
X170102389Y-122792467D01*
X169986700Y-122795259D01*
X169889811Y-122803550D01*
X169808419Y-122818232D01*
X169739223Y-122840193D01*
X169678920Y-122870322D01*
X169624208Y-122909510D01*
X169604667Y-122926532D01*
X169572250Y-122966363D01*
X169543020Y-123020413D01*
X169520491Y-123080323D01*
X169508179Y-123137739D01*
X169506900Y-123158956D01*
X169514917Y-123217769D01*
X169536399Y-123282013D01*
X169567499Y-123342821D01*
X169604366Y-123391330D01*
X169610354Y-123397182D01*
X169661079Y-123438321D01*
X169716625Y-123470435D01*
X169780196Y-123494365D01*
X169854994Y-123510953D01*
X169944222Y-123521041D01*
X170051082Y-123525469D01*
X170100028Y-123525845D01*
X170162262Y-123525545D01*
X170206028Y-123524292D01*
X170235431Y-123521554D01*
X170254579Y-123516801D01*
X170267577Y-123509501D01*
X170274545Y-123503267D01*
X170281126Y-123495694D01*
X170286288Y-123485924D01*
X170290203Y-123471340D01*
X170293043Y-123449326D01*
X170294980Y-123417264D01*
X170296184Y-123372536D01*
X170296828Y-123312526D01*
X170297083Y-123234617D01*
X170297122Y-123158956D01*
X170297370Y-123058041D01*
X170297317Y-122977427D01*
X170296357Y-122938822D01*
X170150367Y-122938822D01*
X170150367Y-123379089D01*
X170057234Y-123379004D01*
X170001193Y-123377396D01*
X169942499Y-123373256D01*
X169893528Y-123367464D01*
X169892038Y-123367226D01*
X169812892Y-123348090D01*
X169751502Y-123318287D01*
X169704805Y-123275878D01*
X169675135Y-123229961D01*
X169656853Y-123179026D01*
X169658271Y-123131200D01*
X169679488Y-123079933D01*
X169720989Y-123026899D01*
X169778498Y-122987600D01*
X169853250Y-122961331D01*
X169903208Y-122952035D01*
X169959916Y-122945507D01*
X170020019Y-122940782D01*
X170071139Y-122938817D01*
X170074167Y-122938808D01*
X170150367Y-122938822D01*
X170296357Y-122938822D01*
X170295760Y-122914851D01*
X170291498Y-122868055D01*
X170283330Y-122834778D01*
X170270056Y-122812759D01*
X170250474Y-122799739D01*
X170223383Y-122793457D01*
X170187582Y-122791653D01*
X170141871Y-122792066D01*
G36*
X168733294Y-122792146D02*
G01*
X168663886Y-122792518D01*
X168611497Y-122793385D01*
X168573347Y-122794946D01*
X168546659Y-122797403D01*
X168528653Y-122800957D01*
X168516549Y-122805810D01*
X168507569Y-122812161D01*
X168504318Y-122815084D01*
X168484543Y-122846142D01*
X168480982Y-122881828D01*
X168493991Y-122913510D01*
X168500006Y-122919913D01*
X168509735Y-122926121D01*
X168525401Y-122930910D01*
X168549908Y-122934514D01*
X168586161Y-122937164D01*
X168637065Y-122939095D01*
X168705526Y-122940539D01*
X168768117Y-122941418D01*
X169015834Y-122944467D01*
X169019219Y-123009378D01*
X169022605Y-123074289D01*
X168854458Y-123074289D01*
X168781459Y-123074919D01*
X168728017Y-123077553D01*
X168691128Y-123083309D01*
X168667788Y-123093304D01*
X168654994Y-123108656D01*
X168649742Y-123130482D01*
X168648945Y-123150738D01*
X168651423Y-123175592D01*
X168660777Y-123193906D01*
X168679883Y-123206637D01*
X168711618Y-123214741D01*
X168758859Y-123219176D01*
X168824483Y-123220899D01*
X168860301Y-123221045D01*
X169021478Y-123221045D01*
X169021478Y-123379089D01*
X168773122Y-123379089D01*
X168691713Y-123379202D01*
X168629842Y-123379712D01*
X168584468Y-123380870D01*
X168552554Y-123382930D01*
X168531059Y-123386146D01*
X168516943Y-123390772D01*
X168507168Y-123397059D01*
X168502189Y-123401667D01*
X168485110Y-123428560D01*
X168479611Y-123452467D01*
X168487463Y-123481667D01*
X168502189Y-123503267D01*
X168510046Y-123510066D01*
X168520188Y-123515346D01*
X168535344Y-123519298D01*
X168558241Y-123522113D01*
X168591609Y-123523982D01*
X168638175Y-123525098D01*
X168700667Y-123525651D01*
X168781814Y-123525833D01*
X168823922Y-123525845D01*
X168914098Y-123525765D01*
X168984424Y-123525398D01*
X169037629Y-123524552D01*
X169076440Y-123523036D01*
X169103587Y-123520659D01*
X169121798Y-123517229D01*
X169133800Y-123512554D01*
X169142322Y-123506444D01*
X169145656Y-123503267D01*
X169152255Y-123495670D01*
X169157427Y-123485870D01*
X169161346Y-123471239D01*
X169164184Y-123449152D01*
X169166115Y-123416982D01*
X169167312Y-123372103D01*
X169167948Y-123311889D01*
X169168197Y-123233713D01*
X169168234Y-123160923D01*
X169168200Y-123067707D01*
X169167965Y-122994431D01*
X169167330Y-122938458D01*
X169166094Y-122897151D01*
X169164056Y-122867872D01*
X169161017Y-122847984D01*
X169156777Y-122834850D01*
X169151135Y-122825832D01*
X169143891Y-122818293D01*
X169142106Y-122816612D01*
X169133445Y-122809172D01*
X169123382Y-122803409D01*
X169109125Y-122799112D01*
X169087883Y-122796064D01*
X169056864Y-122794051D01*
X169013277Y-122792860D01*
X168954331Y-122792275D01*
X168877234Y-122792083D01*
X168822501Y-122792067D01*
X168733294Y-122792146D01*
G37*
X168733294Y-122792146D02*
X168663886Y-122792518D01*
X168611497Y-122793385D01*
X168573347Y-122794946D01*
X168546659Y-122797403D01*
X168528653Y-122800957D01*
X168516549Y-122805810D01*
X168507569Y-122812161D01*
X168504318Y-122815084D01*
X168484543Y-122846142D01*
X168480982Y-122881828D01*
X168493991Y-122913510D01*
X168500006Y-122919913D01*
X168509735Y-122926121D01*
X168525401Y-122930910D01*
X168549908Y-122934514D01*
X168586161Y-122937164D01*
X168637065Y-122939095D01*
X168705526Y-122940539D01*
X168768117Y-122941418D01*
X169015834Y-122944467D01*
X169019219Y-123009378D01*
X169022605Y-123074289D01*
X168854458Y-123074289D01*
X168781459Y-123074919D01*
X168728017Y-123077553D01*
X168691128Y-123083309D01*
X168667788Y-123093304D01*
X168654994Y-123108656D01*
X168649742Y-123130482D01*
X168648945Y-123150738D01*
X168651423Y-123175592D01*
X168660777Y-123193906D01*
X168679883Y-123206637D01*
X168711618Y-123214741D01*
X168758859Y-123219176D01*
X168824483Y-123220899D01*
X168860301Y-123221045D01*
X169021478Y-123221045D01*
X169021478Y-123379089D01*
X168773122Y-123379089D01*
X168691713Y-123379202D01*
X168629842Y-123379712D01*
X168584468Y-123380870D01*
X168552554Y-123382930D01*
X168531059Y-123386146D01*
X168516943Y-123390772D01*
X168507168Y-123397059D01*
X168502189Y-123401667D01*
X168485110Y-123428560D01*
X168479611Y-123452467D01*
X168487463Y-123481667D01*
X168502189Y-123503267D01*
X168510046Y-123510066D01*
X168520188Y-123515346D01*
X168535344Y-123519298D01*
X168558241Y-123522113D01*
X168591609Y-123523982D01*
X168638175Y-123525098D01*
X168700667Y-123525651D01*
X168781814Y-123525833D01*
X168823922Y-123525845D01*
X168914098Y-123525765D01*
X168984424Y-123525398D01*
X169037629Y-123524552D01*
X169076440Y-123523036D01*
X169103587Y-123520659D01*
X169121798Y-123517229D01*
X169133800Y-123512554D01*
X169142322Y-123506444D01*
X169145656Y-123503267D01*
X169152255Y-123495670D01*
X169157427Y-123485870D01*
X169161346Y-123471239D01*
X169164184Y-123449152D01*
X169166115Y-123416982D01*
X169167312Y-123372103D01*
X169167948Y-123311889D01*
X169168197Y-123233713D01*
X169168234Y-123160923D01*
X169168200Y-123067707D01*
X169167965Y-122994431D01*
X169167330Y-122938458D01*
X169166094Y-122897151D01*
X169164056Y-122867872D01*
X169161017Y-122847984D01*
X169156777Y-122834850D01*
X169151135Y-122825832D01*
X169143891Y-122818293D01*
X169142106Y-122816612D01*
X169133445Y-122809172D01*
X169123382Y-122803409D01*
X169109125Y-122799112D01*
X169087883Y-122796064D01*
X169056864Y-122794051D01*
X169013277Y-122792860D01*
X168954331Y-122792275D01*
X168877234Y-122792083D01*
X168822501Y-122792067D01*
X168733294Y-122792146D01*
G36*
X167712203Y-122793351D02*
G01*
X167637388Y-122798581D01*
X167567806Y-122806750D01*
X167507502Y-122817550D01*
X167460520Y-122830673D01*
X167430906Y-122845813D01*
X167426360Y-122850269D01*
X167410554Y-122884850D01*
X167415347Y-122920351D01*
X167439864Y-122950725D01*
X167441034Y-122951596D01*
X167455454Y-122960954D01*
X167470508Y-122965876D01*
X167491505Y-122966473D01*
X167523757Y-122962861D01*
X167572573Y-122955154D01*
X167576500Y-122954505D01*
X167649239Y-122945569D01*
X167727717Y-122941161D01*
X167806427Y-122941119D01*
X167879861Y-122945279D01*
X167942511Y-122953479D01*
X167988870Y-122965557D01*
X167991916Y-122966771D01*
X168025548Y-122985615D01*
X168037364Y-123004685D01*
X168028114Y-123023439D01*
X167998547Y-123041337D01*
X167949411Y-123057837D01*
X167881457Y-123072396D01*
X167836145Y-123079406D01*
X167741956Y-123092889D01*
X167667044Y-123105214D01*
X167608217Y-123117449D01*
X167562285Y-123130661D01*
X167526055Y-123145917D01*
X167496338Y-123164285D01*
X167469942Y-123186831D01*
X167448730Y-123208971D01*
X167423565Y-123239819D01*
X167411181Y-123266345D01*
X167407308Y-123299026D01*
X167407167Y-123310995D01*
X167410076Y-123350712D01*
X167421702Y-123380259D01*
X167441823Y-123406486D01*
X167482716Y-123446576D01*
X167528317Y-123477149D01*
X167582013Y-123499203D01*
X167647192Y-123513735D01*
X167727244Y-123521741D01*
X167825557Y-123524218D01*
X167841789Y-123524177D01*
X167907349Y-123522818D01*
X167972366Y-123519730D01*
X168029752Y-123515356D01*
X168072422Y-123510140D01*
X168075872Y-123509541D01*
X168118296Y-123499491D01*
X168154280Y-123486796D01*
X168174650Y-123475190D01*
X168193607Y-123444572D01*
X168194927Y-123408918D01*
X168178585Y-123377144D01*
X168174929Y-123373551D01*
X168159815Y-123362876D01*
X168140915Y-123358276D01*
X168111662Y-123359059D01*
X168076151Y-123363127D01*
X168036470Y-123366762D01*
X167980845Y-123369828D01*
X167915906Y-123372053D01*
X167848285Y-123373164D01*
X167830500Y-123373237D01*
X167762628Y-123372964D01*
X167712954Y-123371646D01*
X167677110Y-123368827D01*
X167650724Y-123364050D01*
X167629426Y-123356857D01*
X167616626Y-123350867D01*
X167588500Y-123334233D01*
X167570568Y-123319168D01*
X167567947Y-123314897D01*
X167573476Y-123297263D01*
X167599760Y-123280192D01*
X167644978Y-123264458D01*
X167707308Y-123250838D01*
X167725671Y-123247804D01*
X167821590Y-123232738D01*
X167898141Y-123220146D01*
X167958280Y-123209111D01*
X168004960Y-123198720D01*
X168041137Y-123188056D01*
X168069765Y-123176205D01*
X168093798Y-123162251D01*
X168116192Y-123145281D01*
X168139902Y-123124378D01*
X168147880Y-123117049D01*
X168175853Y-123089699D01*
X168190660Y-123068029D01*
X168196452Y-123043232D01*
X168197389Y-123011983D01*
X168187075Y-122950705D01*
X168156252Y-122898640D01*
X168105095Y-122855958D01*
X168033783Y-122822825D01*
X167982900Y-122807964D01*
X167927600Y-122798366D01*
X167861353Y-122792936D01*
X167788206Y-122791367D01*
X167712203Y-122793351D01*
G37*
X167712203Y-122793351D02*
X167637388Y-122798581D01*
X167567806Y-122806750D01*
X167507502Y-122817550D01*
X167460520Y-122830673D01*
X167430906Y-122845813D01*
X167426360Y-122850269D01*
X167410554Y-122884850D01*
X167415347Y-122920351D01*
X167439864Y-122950725D01*
X167441034Y-122951596D01*
X167455454Y-122960954D01*
X167470508Y-122965876D01*
X167491505Y-122966473D01*
X167523757Y-122962861D01*
X167572573Y-122955154D01*
X167576500Y-122954505D01*
X167649239Y-122945569D01*
X167727717Y-122941161D01*
X167806427Y-122941119D01*
X167879861Y-122945279D01*
X167942511Y-122953479D01*
X167988870Y-122965557D01*
X167991916Y-122966771D01*
X168025548Y-122985615D01*
X168037364Y-123004685D01*
X168028114Y-123023439D01*
X167998547Y-123041337D01*
X167949411Y-123057837D01*
X167881457Y-123072396D01*
X167836145Y-123079406D01*
X167741956Y-123092889D01*
X167667044Y-123105214D01*
X167608217Y-123117449D01*
X167562285Y-123130661D01*
X167526055Y-123145917D01*
X167496338Y-123164285D01*
X167469942Y-123186831D01*
X167448730Y-123208971D01*
X167423565Y-123239819D01*
X167411181Y-123266345D01*
X167407308Y-123299026D01*
X167407167Y-123310995D01*
X167410076Y-123350712D01*
X167421702Y-123380259D01*
X167441823Y-123406486D01*
X167482716Y-123446576D01*
X167528317Y-123477149D01*
X167582013Y-123499203D01*
X167647192Y-123513735D01*
X167727244Y-123521741D01*
X167825557Y-123524218D01*
X167841789Y-123524177D01*
X167907349Y-123522818D01*
X167972366Y-123519730D01*
X168029752Y-123515356D01*
X168072422Y-123510140D01*
X168075872Y-123509541D01*
X168118296Y-123499491D01*
X168154280Y-123486796D01*
X168174650Y-123475190D01*
X168193607Y-123444572D01*
X168194927Y-123408918D01*
X168178585Y-123377144D01*
X168174929Y-123373551D01*
X168159815Y-123362876D01*
X168140915Y-123358276D01*
X168111662Y-123359059D01*
X168076151Y-123363127D01*
X168036470Y-123366762D01*
X167980845Y-123369828D01*
X167915906Y-123372053D01*
X167848285Y-123373164D01*
X167830500Y-123373237D01*
X167762628Y-123372964D01*
X167712954Y-123371646D01*
X167677110Y-123368827D01*
X167650724Y-123364050D01*
X167629426Y-123356857D01*
X167616626Y-123350867D01*
X167588500Y-123334233D01*
X167570568Y-123319168D01*
X167567947Y-123314897D01*
X167573476Y-123297263D01*
X167599760Y-123280192D01*
X167644978Y-123264458D01*
X167707308Y-123250838D01*
X167725671Y-123247804D01*
X167821590Y-123232738D01*
X167898141Y-123220146D01*
X167958280Y-123209111D01*
X168004960Y-123198720D01*
X168041137Y-123188056D01*
X168069765Y-123176205D01*
X168093798Y-123162251D01*
X168116192Y-123145281D01*
X168139902Y-123124378D01*
X168147880Y-123117049D01*
X168175853Y-123089699D01*
X168190660Y-123068029D01*
X168196452Y-123043232D01*
X168197389Y-123011983D01*
X168187075Y-122950705D01*
X168156252Y-122898640D01*
X168105095Y-122855958D01*
X168033783Y-122822825D01*
X167982900Y-122807964D01*
X167927600Y-122798366D01*
X167861353Y-122792936D01*
X167788206Y-122791367D01*
X167712203Y-122793351D01*
G36*
X166944322Y-122814645D02*
G01*
X166937742Y-122822218D01*
X166932579Y-122831987D01*
X166928664Y-122846571D01*
X166925824Y-122868585D01*
X166923887Y-122900648D01*
X166922683Y-122945375D01*
X166922039Y-123005385D01*
X166921784Y-123083294D01*
X166921745Y-123158956D01*
X166921814Y-123252802D01*
X166922138Y-123326689D01*
X166922886Y-123383232D01*
X166924232Y-123425049D01*
X166926346Y-123454757D01*
X166929400Y-123474973D01*
X166933566Y-123488314D01*
X166939016Y-123497398D01*
X166944322Y-123503267D01*
X166977326Y-123522947D01*
X167012491Y-123521181D01*
X167043955Y-123499717D01*
X167051184Y-123491337D01*
X167056834Y-123481614D01*
X167061099Y-123467861D01*
X167064173Y-123447389D01*
X167066252Y-123417512D01*
X167067530Y-123375541D01*
X167068201Y-123318789D01*
X167068459Y-123244567D01*
X167068500Y-123160537D01*
X167068500Y-122847485D01*
X167040791Y-122819776D01*
X167006637Y-122796463D01*
X166973506Y-122795623D01*
X166944322Y-122814645D01*
G37*
X166944322Y-122814645D02*
X166937742Y-122822218D01*
X166932579Y-122831987D01*
X166928664Y-122846571D01*
X166925824Y-122868585D01*
X166923887Y-122900648D01*
X166922683Y-122945375D01*
X166922039Y-123005385D01*
X166921784Y-123083294D01*
X166921745Y-123158956D01*
X166921814Y-123252802D01*
X166922138Y-123326689D01*
X166922886Y-123383232D01*
X166924232Y-123425049D01*
X166926346Y-123454757D01*
X166929400Y-123474973D01*
X166933566Y-123488314D01*
X166939016Y-123497398D01*
X166944322Y-123503267D01*
X166977326Y-123522947D01*
X167012491Y-123521181D01*
X167043955Y-123499717D01*
X167051184Y-123491337D01*
X167056834Y-123481614D01*
X167061099Y-123467861D01*
X167064173Y-123447389D01*
X167066252Y-123417512D01*
X167067530Y-123375541D01*
X167068201Y-123318789D01*
X167068459Y-123244567D01*
X167068500Y-123160537D01*
X167068500Y-122847485D01*
X167040791Y-122819776D01*
X167006637Y-122796463D01*
X166973506Y-122795623D01*
X166944322Y-122814645D01*
G36*
X165970581Y-122797599D02*
G01*
X165902065Y-122809095D01*
X165849443Y-122826967D01*
X165815208Y-122850499D01*
X165805879Y-122863924D01*
X165796393Y-122895148D01*
X165802777Y-122923395D01*
X165822930Y-122950182D01*
X165854245Y-122962713D01*
X165899683Y-122961696D01*
X165934826Y-122954906D01*
X166012919Y-122941971D01*
X166092726Y-122940742D01*
X166182055Y-122951241D01*
X166206729Y-122955690D01*
X166289791Y-122979108D01*
X166354773Y-123013945D01*
X166400961Y-123059604D01*
X166427645Y-123115494D01*
X166433163Y-123144388D01*
X166429551Y-123203012D01*
X166406229Y-123254879D01*
X166365324Y-123298978D01*
X166308959Y-123334299D01*
X166239260Y-123359829D01*
X166158352Y-123374559D01*
X166068360Y-123377478D01*
X165971410Y-123367575D01*
X165965936Y-123366641D01*
X165927375Y-123359459D01*
X165905994Y-123352521D01*
X165896727Y-123342227D01*
X165894506Y-123324976D01*
X165894456Y-123315841D01*
X165894456Y-123277489D01*
X165962931Y-123277489D01*
X166023400Y-123273347D01*
X166064665Y-123260147D01*
X166088675Y-123236730D01*
X166097377Y-123201936D01*
X166097483Y-123197394D01*
X166092392Y-123167654D01*
X166074933Y-123146419D01*
X166042439Y-123132366D01*
X165992243Y-123124173D01*
X165943623Y-123121161D01*
X165872956Y-123119433D01*
X165821698Y-123122070D01*
X165786739Y-123131800D01*
X165764970Y-123151353D01*
X165753280Y-123183456D01*
X165748560Y-123230838D01*
X165747700Y-123293071D01*
X165749109Y-123362535D01*
X165753348Y-123409786D01*
X165760436Y-123435012D01*
X165761811Y-123436988D01*
X165800728Y-123468508D01*
X165857786Y-123493470D01*
X165929369Y-123511340D01*
X166011858Y-123521586D01*
X166101639Y-123523673D01*
X166195092Y-123517068D01*
X166250056Y-123508956D01*
X166336266Y-123484554D01*
X166416392Y-123444662D01*
X166483477Y-123392887D01*
X166493673Y-123382539D01*
X166526802Y-123339035D01*
X166556694Y-123285118D01*
X166579857Y-123228592D01*
X166592798Y-123177259D01*
X166594358Y-123157544D01*
X166587718Y-123116419D01*
X166570068Y-123065252D01*
X166544797Y-123011394D01*
X166515289Y-122962195D01*
X166489219Y-122929334D01*
X166428265Y-122880452D01*
X166349469Y-122841545D01*
X166255657Y-122813494D01*
X166149650Y-122797179D01*
X166052500Y-122793192D01*
X165970581Y-122797599D01*
G37*
X165970581Y-122797599D02*
X165902065Y-122809095D01*
X165849443Y-122826967D01*
X165815208Y-122850499D01*
X165805879Y-122863924D01*
X165796393Y-122895148D01*
X165802777Y-122923395D01*
X165822930Y-122950182D01*
X165854245Y-122962713D01*
X165899683Y-122961696D01*
X165934826Y-122954906D01*
X166012919Y-122941971D01*
X166092726Y-122940742D01*
X166182055Y-122951241D01*
X166206729Y-122955690D01*
X166289791Y-122979108D01*
X166354773Y-123013945D01*
X166400961Y-123059604D01*
X166427645Y-123115494D01*
X166433163Y-123144388D01*
X166429551Y-123203012D01*
X166406229Y-123254879D01*
X166365324Y-123298978D01*
X166308959Y-123334299D01*
X166239260Y-123359829D01*
X166158352Y-123374559D01*
X166068360Y-123377478D01*
X165971410Y-123367575D01*
X165965936Y-123366641D01*
X165927375Y-123359459D01*
X165905994Y-123352521D01*
X165896727Y-123342227D01*
X165894506Y-123324976D01*
X165894456Y-123315841D01*
X165894456Y-123277489D01*
X165962931Y-123277489D01*
X166023400Y-123273347D01*
X166064665Y-123260147D01*
X166088675Y-123236730D01*
X166097377Y-123201936D01*
X166097483Y-123197394D01*
X166092392Y-123167654D01*
X166074933Y-123146419D01*
X166042439Y-123132366D01*
X165992243Y-123124173D01*
X165943623Y-123121161D01*
X165872956Y-123119433D01*
X165821698Y-123122070D01*
X165786739Y-123131800D01*
X165764970Y-123151353D01*
X165753280Y-123183456D01*
X165748560Y-123230838D01*
X165747700Y-123293071D01*
X165749109Y-123362535D01*
X165753348Y-123409786D01*
X165760436Y-123435012D01*
X165761811Y-123436988D01*
X165800728Y-123468508D01*
X165857786Y-123493470D01*
X165929369Y-123511340D01*
X166011858Y-123521586D01*
X166101639Y-123523673D01*
X166195092Y-123517068D01*
X166250056Y-123508956D01*
X166336266Y-123484554D01*
X166416392Y-123444662D01*
X166483477Y-123392887D01*
X166493673Y-123382539D01*
X166526802Y-123339035D01*
X166556694Y-123285118D01*
X166579857Y-123228592D01*
X166592798Y-123177259D01*
X166594358Y-123157544D01*
X166587718Y-123116419D01*
X166570068Y-123065252D01*
X166544797Y-123011394D01*
X166515289Y-122962195D01*
X166489219Y-122929334D01*
X166428265Y-122880452D01*
X166349469Y-122841545D01*
X166255657Y-122813494D01*
X166149650Y-122797179D01*
X166052500Y-122793192D01*
X165970581Y-122797599D01*
G36*
X165320614Y-122796448D02*
G01*
X165297048Y-122810273D01*
X165266235Y-122832881D01*
X165226578Y-122865338D01*
X165176480Y-122908708D01*
X165114343Y-122964058D01*
X165038572Y-123032451D01*
X164951834Y-123111084D01*
X164771211Y-123274878D01*
X164765567Y-123055029D01*
X164763529Y-122979351D01*
X164761563Y-122922994D01*
X164759234Y-122882706D01*
X164756106Y-122855235D01*
X164751745Y-122837329D01*
X164745716Y-122825737D01*
X164737584Y-122817208D01*
X164733272Y-122813623D01*
X164698741Y-122794670D01*
X164665883Y-122797441D01*
X164639818Y-122813633D01*
X164613167Y-122835199D01*
X164609852Y-123150151D01*
X164608935Y-123242779D01*
X164608468Y-123315544D01*
X164608613Y-123371161D01*
X164609532Y-123412342D01*
X164611387Y-123441803D01*
X164614339Y-123462255D01*
X164618550Y-123476413D01*
X164624182Y-123486991D01*
X164630427Y-123495474D01*
X164643939Y-123511207D01*
X164657383Y-123521636D01*
X164672624Y-123525639D01*
X164691526Y-123522094D01*
X164715955Y-123509879D01*
X164747773Y-123487871D01*
X164788848Y-123454949D01*
X164841042Y-123409991D01*
X164906222Y-123351875D01*
X164980056Y-123285099D01*
X165245345Y-123044458D01*
X165250989Y-123263589D01*
X165253031Y-123339128D01*
X165255002Y-123395354D01*
X165257339Y-123435524D01*
X165260481Y-123462896D01*
X165264864Y-123480728D01*
X165270924Y-123492279D01*
X165279100Y-123500807D01*
X165283284Y-123504282D01*
X165320265Y-123523372D01*
X165355208Y-123520493D01*
X165385636Y-123496100D01*
X165392597Y-123486286D01*
X165398023Y-123474826D01*
X165402103Y-123458968D01*
X165405029Y-123435963D01*
X165406992Y-123403062D01*
X165408183Y-123357516D01*
X165408792Y-123296573D01*
X165409011Y-123217486D01*
X165409034Y-123158956D01*
X165408960Y-123067407D01*
X165408613Y-122995687D01*
X165407801Y-122941045D01*
X165406333Y-122900732D01*
X165404019Y-122871998D01*
X165400667Y-122852093D01*
X165396088Y-122838268D01*
X165390089Y-122827772D01*
X165385636Y-122821811D01*
X165374350Y-122807691D01*
X165363801Y-122797029D01*
X165352393Y-122790892D01*
X165338530Y-122790343D01*
X165320614Y-122796448D01*
G37*
X165320614Y-122796448D02*
X165297048Y-122810273D01*
X165266235Y-122832881D01*
X165226578Y-122865338D01*
X165176480Y-122908708D01*
X165114343Y-122964058D01*
X165038572Y-123032451D01*
X164951834Y-123111084D01*
X164771211Y-123274878D01*
X164765567Y-123055029D01*
X164763529Y-122979351D01*
X164761563Y-122922994D01*
X164759234Y-122882706D01*
X164756106Y-122855235D01*
X164751745Y-122837329D01*
X164745716Y-122825737D01*
X164737584Y-122817208D01*
X164733272Y-122813623D01*
X164698741Y-122794670D01*
X164665883Y-122797441D01*
X164639818Y-122813633D01*
X164613167Y-122835199D01*
X164609852Y-123150151D01*
X164608935Y-123242779D01*
X164608468Y-123315544D01*
X164608613Y-123371161D01*
X164609532Y-123412342D01*
X164611387Y-123441803D01*
X164614339Y-123462255D01*
X164618550Y-123476413D01*
X164624182Y-123486991D01*
X164630427Y-123495474D01*
X164643939Y-123511207D01*
X164657383Y-123521636D01*
X164672624Y-123525639D01*
X164691526Y-123522094D01*
X164715955Y-123509879D01*
X164747773Y-123487871D01*
X164788848Y-123454949D01*
X164841042Y-123409991D01*
X164906222Y-123351875D01*
X164980056Y-123285099D01*
X165245345Y-123044458D01*
X165250989Y-123263589D01*
X165253031Y-123339128D01*
X165255002Y-123395354D01*
X165257339Y-123435524D01*
X165260481Y-123462896D01*
X165264864Y-123480728D01*
X165270924Y-123492279D01*
X165279100Y-123500807D01*
X165283284Y-123504282D01*
X165320265Y-123523372D01*
X165355208Y-123520493D01*
X165385636Y-123496100D01*
X165392597Y-123486286D01*
X165398023Y-123474826D01*
X165402103Y-123458968D01*
X165405029Y-123435963D01*
X165406992Y-123403062D01*
X165408183Y-123357516D01*
X165408792Y-123296573D01*
X165409011Y-123217486D01*
X165409034Y-123158956D01*
X165408960Y-123067407D01*
X165408613Y-122995687D01*
X165407801Y-122941045D01*
X165406333Y-122900732D01*
X165404019Y-122871998D01*
X165400667Y-122852093D01*
X165396088Y-122838268D01*
X165390089Y-122827772D01*
X165385636Y-122821811D01*
X165374350Y-122807691D01*
X165363801Y-122797029D01*
X165352393Y-122790892D01*
X165338530Y-122790343D01*
X165320614Y-122796448D01*
G36*
X163790157Y-122792260D02*
G01*
X163713799Y-122793174D01*
X163655283Y-122795311D01*
X163612245Y-122799175D01*
X163582317Y-122805267D01*
X163563132Y-122814090D01*
X163552324Y-122826146D01*
X163547527Y-122841939D01*
X163546373Y-122861970D01*
X163546367Y-122864335D01*
X163547369Y-122886992D01*
X163552104Y-122904503D01*
X163563167Y-122917574D01*
X163583152Y-122926913D01*
X163614654Y-122933227D01*
X163660268Y-122937222D01*
X163722587Y-122939606D01*
X163804207Y-122941086D01*
X163829223Y-122941414D01*
X164071300Y-122944467D01*
X164074686Y-123009378D01*
X164078071Y-123074289D01*
X163909924Y-123074289D01*
X163844234Y-123074531D01*
X163797328Y-123075556D01*
X163765417Y-123077811D01*
X163744709Y-123081742D01*
X163731416Y-123087798D01*
X163721745Y-123096424D01*
X163721683Y-123096493D01*
X163704144Y-123130112D01*
X163704778Y-123166448D01*
X163723186Y-123197423D01*
X163726829Y-123200607D01*
X163739759Y-123208812D01*
X163757476Y-123214521D01*
X163783930Y-123218162D01*
X163823068Y-123220167D01*
X163878838Y-123220964D01*
X163914506Y-123221045D01*
X164076945Y-123221045D01*
X164076945Y-123379089D01*
X163830339Y-123379089D01*
X163748920Y-123379231D01*
X163687090Y-123379814D01*
X163641863Y-123381068D01*
X163610252Y-123383227D01*
X163589269Y-123386523D01*
X163575927Y-123391189D01*
X163567239Y-123397457D01*
X163565050Y-123399733D01*
X163548886Y-123431280D01*
X163547703Y-123467168D01*
X163560964Y-123498285D01*
X163571457Y-123508271D01*
X163582371Y-123513769D01*
X163599283Y-123518022D01*
X163624867Y-123521180D01*
X163661799Y-123523392D01*
X163712754Y-123524806D01*
X163780406Y-123525572D01*
X163867431Y-123525838D01*
X163887106Y-123525845D01*
X163975589Y-123525787D01*
X164044273Y-123525467D01*
X164095936Y-123524667D01*
X164133355Y-123523167D01*
X164159310Y-123520749D01*
X164176578Y-123517194D01*
X164187938Y-123512282D01*
X164196168Y-123505795D01*
X164200683Y-123501138D01*
X164207479Y-123492889D01*
X164212788Y-123482669D01*
X164216794Y-123467800D01*
X164219679Y-123445602D01*
X164221626Y-123413393D01*
X164222819Y-123368496D01*
X164223439Y-123308228D01*
X164223671Y-123229911D01*
X164223700Y-123163994D01*
X164223629Y-123071628D01*
X164223292Y-122999117D01*
X164222502Y-122943737D01*
X164221074Y-122902765D01*
X164218821Y-122873478D01*
X164215557Y-122853153D01*
X164211096Y-122839066D01*
X164205252Y-122828495D01*
X164200303Y-122821811D01*
X164176906Y-122792067D01*
X163886726Y-122792067D01*
X163790157Y-122792260D01*
G37*
X163790157Y-122792260D02*
X163713799Y-122793174D01*
X163655283Y-122795311D01*
X163612245Y-122799175D01*
X163582317Y-122805267D01*
X163563132Y-122814090D01*
X163552324Y-122826146D01*
X163547527Y-122841939D01*
X163546373Y-122861970D01*
X163546367Y-122864335D01*
X163547369Y-122886992D01*
X163552104Y-122904503D01*
X163563167Y-122917574D01*
X163583152Y-122926913D01*
X163614654Y-122933227D01*
X163660268Y-122937222D01*
X163722587Y-122939606D01*
X163804207Y-122941086D01*
X163829223Y-122941414D01*
X164071300Y-122944467D01*
X164074686Y-123009378D01*
X164078071Y-123074289D01*
X163909924Y-123074289D01*
X163844234Y-123074531D01*
X163797328Y-123075556D01*
X163765417Y-123077811D01*
X163744709Y-123081742D01*
X163731416Y-123087798D01*
X163721745Y-123096424D01*
X163721683Y-123096493D01*
X163704144Y-123130112D01*
X163704778Y-123166448D01*
X163723186Y-123197423D01*
X163726829Y-123200607D01*
X163739759Y-123208812D01*
X163757476Y-123214521D01*
X163783930Y-123218162D01*
X163823068Y-123220167D01*
X163878838Y-123220964D01*
X163914506Y-123221045D01*
X164076945Y-123221045D01*
X164076945Y-123379089D01*
X163830339Y-123379089D01*
X163748920Y-123379231D01*
X163687090Y-123379814D01*
X163641863Y-123381068D01*
X163610252Y-123383227D01*
X163589269Y-123386523D01*
X163575927Y-123391189D01*
X163567239Y-123397457D01*
X163565050Y-123399733D01*
X163548886Y-123431280D01*
X163547703Y-123467168D01*
X163560964Y-123498285D01*
X163571457Y-123508271D01*
X163582371Y-123513769D01*
X163599283Y-123518022D01*
X163624867Y-123521180D01*
X163661799Y-123523392D01*
X163712754Y-123524806D01*
X163780406Y-123525572D01*
X163867431Y-123525838D01*
X163887106Y-123525845D01*
X163975589Y-123525787D01*
X164044273Y-123525467D01*
X164095936Y-123524667D01*
X164133355Y-123523167D01*
X164159310Y-123520749D01*
X164176578Y-123517194D01*
X164187938Y-123512282D01*
X164196168Y-123505795D01*
X164200683Y-123501138D01*
X164207479Y-123492889D01*
X164212788Y-123482669D01*
X164216794Y-123467800D01*
X164219679Y-123445602D01*
X164221626Y-123413393D01*
X164222819Y-123368496D01*
X164223439Y-123308228D01*
X164223671Y-123229911D01*
X164223700Y-123163994D01*
X164223629Y-123071628D01*
X164223292Y-122999117D01*
X164222502Y-122943737D01*
X164221074Y-122902765D01*
X164218821Y-122873478D01*
X164215557Y-122853153D01*
X164211096Y-122839066D01*
X164205252Y-122828495D01*
X164200303Y-122821811D01*
X164176906Y-122792067D01*
X163886726Y-122792067D01*
X163790157Y-122792260D01*
G36*
X163002191Y-122792275D02*
G01*
X162873212Y-122796636D01*
X162763509Y-122809861D01*
X162671274Y-122832741D01*
X162594698Y-122866070D01*
X162531973Y-122910638D01*
X162481288Y-122967236D01*
X162440837Y-123036658D01*
X162440041Y-123038351D01*
X162415899Y-123100483D01*
X162407297Y-123155509D01*
X162414269Y-123210887D01*
X162436846Y-123274073D01*
X162441128Y-123283689D01*
X162470328Y-123339966D01*
X162503144Y-123383451D01*
X162545498Y-123420417D01*
X162603310Y-123457135D01*
X162606669Y-123459052D01*
X162656996Y-123483227D01*
X162713879Y-123501282D01*
X162780973Y-123513839D01*
X162861935Y-123521522D01*
X162960418Y-123524953D01*
X162995214Y-123525251D01*
X163160906Y-123525845D01*
X163184303Y-123496100D01*
X163191243Y-123486319D01*
X163196658Y-123474897D01*
X163200735Y-123459095D01*
X163203663Y-123436175D01*
X163205633Y-123403396D01*
X163206275Y-123379089D01*
X163049656Y-123379089D01*
X162955774Y-123379089D01*
X162900836Y-123377483D01*
X162844440Y-123373255D01*
X162798155Y-123367292D01*
X162795361Y-123366790D01*
X162713152Y-123344736D01*
X162649386Y-123311600D01*
X162602048Y-123265847D01*
X162569118Y-123205939D01*
X162563392Y-123190061D01*
X162557779Y-123165333D01*
X162560209Y-123140902D01*
X162572033Y-123108400D01*
X162579160Y-123092434D01*
X162602500Y-123050006D01*
X162630620Y-123020240D01*
X162661560Y-122999511D01*
X162723534Y-122972537D01*
X162802849Y-122952998D01*
X162895247Y-122941746D01*
X162962167Y-122939270D01*
X163049656Y-122938822D01*
X163049656Y-123379089D01*
X163206275Y-123379089D01*
X163206832Y-123358021D01*
X163207450Y-123297311D01*
X163207675Y-123218526D01*
X163207700Y-123156920D01*
X163207700Y-122847485D01*
X163179991Y-122819776D01*
X163167694Y-122808544D01*
X163154397Y-122800853D01*
X163135828Y-122796040D01*
X163107714Y-122793446D01*
X163065783Y-122792410D01*
X163005763Y-122792270D01*
X163002191Y-122792275D01*
G37*
X163002191Y-122792275D02*
X162873212Y-122796636D01*
X162763509Y-122809861D01*
X162671274Y-122832741D01*
X162594698Y-122866070D01*
X162531973Y-122910638D01*
X162481288Y-122967236D01*
X162440837Y-123036658D01*
X162440041Y-123038351D01*
X162415899Y-123100483D01*
X162407297Y-123155509D01*
X162414269Y-123210887D01*
X162436846Y-123274073D01*
X162441128Y-123283689D01*
X162470328Y-123339966D01*
X162503144Y-123383451D01*
X162545498Y-123420417D01*
X162603310Y-123457135D01*
X162606669Y-123459052D01*
X162656996Y-123483227D01*
X162713879Y-123501282D01*
X162780973Y-123513839D01*
X162861935Y-123521522D01*
X162960418Y-123524953D01*
X162995214Y-123525251D01*
X163160906Y-123525845D01*
X163184303Y-123496100D01*
X163191243Y-123486319D01*
X163196658Y-123474897D01*
X163200735Y-123459095D01*
X163203663Y-123436175D01*
X163205633Y-123403396D01*
X163206275Y-123379089D01*
X163049656Y-123379089D01*
X162955774Y-123379089D01*
X162900836Y-123377483D01*
X162844440Y-123373255D01*
X162798155Y-123367292D01*
X162795361Y-123366790D01*
X162713152Y-123344736D01*
X162649386Y-123311600D01*
X162602048Y-123265847D01*
X162569118Y-123205939D01*
X162563392Y-123190061D01*
X162557779Y-123165333D01*
X162560209Y-123140902D01*
X162572033Y-123108400D01*
X162579160Y-123092434D01*
X162602500Y-123050006D01*
X162630620Y-123020240D01*
X162661560Y-122999511D01*
X162723534Y-122972537D01*
X162802849Y-122952998D01*
X162895247Y-122941746D01*
X162962167Y-122939270D01*
X163049656Y-122938822D01*
X163049656Y-123379089D01*
X163206275Y-123379089D01*
X163206832Y-123358021D01*
X163207450Y-123297311D01*
X163207675Y-123218526D01*
X163207700Y-123156920D01*
X163207700Y-122847485D01*
X163179991Y-122819776D01*
X163167694Y-122808544D01*
X163154397Y-122800853D01*
X163135828Y-122796040D01*
X163107714Y-122793446D01*
X163065783Y-122792410D01*
X163005763Y-122792270D01*
X163002191Y-122792275D01*
G36*
X160275835Y-122794034D02*
G01*
X160256245Y-122801035D01*
X160255490Y-122801377D01*
X160228887Y-122821678D01*
X160214230Y-122842561D01*
X160211362Y-122852352D01*
X160211504Y-122865361D01*
X160215539Y-122883895D01*
X160224354Y-122910257D01*
X160238831Y-122946752D01*
X160259855Y-122995687D01*
X160288312Y-123059365D01*
X160325085Y-123140093D01*
X160345325Y-123184216D01*
X160381875Y-123262985D01*
X160416185Y-123335423D01*
X160446948Y-123398880D01*
X160472852Y-123450708D01*
X160492590Y-123488259D01*
X160504850Y-123508884D01*
X160507276Y-123511733D01*
X160538317Y-123524302D01*
X160573379Y-123522619D01*
X160601500Y-123507332D01*
X160602646Y-123506089D01*
X160613832Y-123489154D01*
X160632596Y-123456170D01*
X160656625Y-123411380D01*
X160683603Y-123359032D01*
X160693299Y-123339742D01*
X160766486Y-123193150D01*
X160846260Y-123352393D01*
X160874733Y-123407415D01*
X160901150Y-123455132D01*
X160923352Y-123491893D01*
X160939181Y-123514044D01*
X160944546Y-123518741D01*
X160986243Y-123525102D01*
X161020651Y-123511733D01*
X161030772Y-123497446D01*
X161048286Y-123465692D01*
X161071765Y-123419597D01*
X161099780Y-123362285D01*
X161130901Y-123296880D01*
X161163701Y-123226507D01*
X161196750Y-123154291D01*
X161228619Y-123083355D01*
X161257881Y-123016825D01*
X161283105Y-122957826D01*
X161302864Y-122909481D01*
X161315728Y-122874915D01*
X161320269Y-122857253D01*
X161320223Y-122856613D01*
X161309174Y-122834388D01*
X161287090Y-122811753D01*
X161285790Y-122810768D01*
X161258647Y-122795425D01*
X161233542Y-122795574D01*
X161224132Y-122798466D01*
X161212666Y-122804718D01*
X161200490Y-122817014D01*
X161186143Y-122837908D01*
X161168164Y-122869949D01*
X161145093Y-122915688D01*
X161115470Y-122977677D01*
X161088755Y-123034898D01*
X161058020Y-123101226D01*
X161030479Y-123160874D01*
X161007562Y-123210725D01*
X160990702Y-123247664D01*
X160981327Y-123268573D01*
X160979960Y-123271845D01*
X160973811Y-123266497D01*
X160959678Y-123244109D01*
X160939443Y-123207946D01*
X160914985Y-123161277D01*
X160905252Y-123142022D01*
X160872283Y-123077004D01*
X160846857Y-123029654D01*
X160826888Y-122997219D01*
X160810290Y-122976946D01*
X160794976Y-122966082D01*
X160778860Y-122961875D01*
X160768357Y-122961400D01*
X160749830Y-122963042D01*
X160733596Y-122969831D01*
X160717465Y-122984566D01*
X160699249Y-123010044D01*
X160676761Y-123049061D01*
X160647811Y-123104414D01*
X160631838Y-123135903D01*
X160605930Y-123186087D01*
X160583333Y-123227704D01*
X160566042Y-123257242D01*
X160556050Y-123271189D01*
X160554691Y-123271770D01*
X160548239Y-123260793D01*
X160533792Y-123232290D01*
X160512797Y-123189244D01*
X160486703Y-123134638D01*
X160456954Y-123071454D01*
X160442320Y-123040071D01*
X160404250Y-122959078D01*
X160373595Y-122896756D01*
X160348763Y-122851071D01*
X160328163Y-122819989D01*
X160310202Y-122801478D01*
X160293290Y-122793504D01*
X160275835Y-122794034D01*
G37*
X160275835Y-122794034D02*
X160256245Y-122801035D01*
X160255490Y-122801377D01*
X160228887Y-122821678D01*
X160214230Y-122842561D01*
X160211362Y-122852352D01*
X160211504Y-122865361D01*
X160215539Y-122883895D01*
X160224354Y-122910257D01*
X160238831Y-122946752D01*
X160259855Y-122995687D01*
X160288312Y-123059365D01*
X160325085Y-123140093D01*
X160345325Y-123184216D01*
X160381875Y-123262985D01*
X160416185Y-123335423D01*
X160446948Y-123398880D01*
X160472852Y-123450708D01*
X160492590Y-123488259D01*
X160504850Y-123508884D01*
X160507276Y-123511733D01*
X160538317Y-123524302D01*
X160573379Y-123522619D01*
X160601500Y-123507332D01*
X160602646Y-123506089D01*
X160613832Y-123489154D01*
X160632596Y-123456170D01*
X160656625Y-123411380D01*
X160683603Y-123359032D01*
X160693299Y-123339742D01*
X160766486Y-123193150D01*
X160846260Y-123352393D01*
X160874733Y-123407415D01*
X160901150Y-123455132D01*
X160923352Y-123491893D01*
X160939181Y-123514044D01*
X160944546Y-123518741D01*
X160986243Y-123525102D01*
X161020651Y-123511733D01*
X161030772Y-123497446D01*
X161048286Y-123465692D01*
X161071765Y-123419597D01*
X161099780Y-123362285D01*
X161130901Y-123296880D01*
X161163701Y-123226507D01*
X161196750Y-123154291D01*
X161228619Y-123083355D01*
X161257881Y-123016825D01*
X161283105Y-122957826D01*
X161302864Y-122909481D01*
X161315728Y-122874915D01*
X161320269Y-122857253D01*
X161320223Y-122856613D01*
X161309174Y-122834388D01*
X161287090Y-122811753D01*
X161285790Y-122810768D01*
X161258647Y-122795425D01*
X161233542Y-122795574D01*
X161224132Y-122798466D01*
X161212666Y-122804718D01*
X161200490Y-122817014D01*
X161186143Y-122837908D01*
X161168164Y-122869949D01*
X161145093Y-122915688D01*
X161115470Y-122977677D01*
X161088755Y-123034898D01*
X161058020Y-123101226D01*
X161030479Y-123160874D01*
X161007562Y-123210725D01*
X160990702Y-123247664D01*
X160981327Y-123268573D01*
X160979960Y-123271845D01*
X160973811Y-123266497D01*
X160959678Y-123244109D01*
X160939443Y-123207946D01*
X160914985Y-123161277D01*
X160905252Y-123142022D01*
X160872283Y-123077004D01*
X160846857Y-123029654D01*
X160826888Y-122997219D01*
X160810290Y-122976946D01*
X160794976Y-122966082D01*
X160778860Y-122961875D01*
X160768357Y-122961400D01*
X160749830Y-122963042D01*
X160733596Y-122969831D01*
X160717465Y-122984566D01*
X160699249Y-123010044D01*
X160676761Y-123049061D01*
X160647811Y-123104414D01*
X160631838Y-123135903D01*
X160605930Y-123186087D01*
X160583333Y-123227704D01*
X160566042Y-123257242D01*
X160556050Y-123271189D01*
X160554691Y-123271770D01*
X160548239Y-123260793D01*
X160533792Y-123232290D01*
X160512797Y-123189244D01*
X160486703Y-123134638D01*
X160456954Y-123071454D01*
X160442320Y-123040071D01*
X160404250Y-122959078D01*
X160373595Y-122896756D01*
X160348763Y-122851071D01*
X160328163Y-122819989D01*
X160310202Y-122801478D01*
X160293290Y-122793504D01*
X160275835Y-122794034D01*
G36*
X159831886Y-122798877D02*
G01*
X159808173Y-122813647D01*
X159781522Y-122835227D01*
X159781522Y-123156773D01*
X159781607Y-123250830D01*
X159781971Y-123324932D01*
X159782776Y-123381704D01*
X159784187Y-123423768D01*
X159786367Y-123453748D01*
X159789479Y-123474267D01*
X159793686Y-123487949D01*
X159799152Y-123497416D01*
X159803028Y-123502082D01*
X159834466Y-123522575D01*
X159870267Y-123521739D01*
X159901627Y-123504264D01*
X159928278Y-123482684D01*
X159928278Y-122835227D01*
X159901627Y-122813647D01*
X159875906Y-122797949D01*
X159854900Y-122792067D01*
X159831886Y-122798877D01*
G37*
X159831886Y-122798877D02*
X159808173Y-122813647D01*
X159781522Y-122835227D01*
X159781522Y-123156773D01*
X159781607Y-123250830D01*
X159781971Y-123324932D01*
X159782776Y-123381704D01*
X159784187Y-123423768D01*
X159786367Y-123453748D01*
X159789479Y-123474267D01*
X159793686Y-123487949D01*
X159799152Y-123497416D01*
X159803028Y-123502082D01*
X159834466Y-123522575D01*
X159870267Y-123521739D01*
X159901627Y-123504264D01*
X159928278Y-123482684D01*
X159928278Y-122835227D01*
X159901627Y-122813647D01*
X159875906Y-122797949D01*
X159854900Y-122792067D01*
X159831886Y-122798877D01*
G36*
X159057435Y-122792163D02*
G01*
X158978728Y-122792542D01*
X158917637Y-122793333D01*
X158871683Y-122794670D01*
X158838386Y-122796683D01*
X158815264Y-122799506D01*
X158799838Y-122803269D01*
X158789629Y-122808105D01*
X158784687Y-122811822D01*
X158759043Y-122844358D01*
X158755941Y-122878138D01*
X158771789Y-122908826D01*
X158782152Y-122921089D01*
X158793304Y-122929450D01*
X158809465Y-122934657D01*
X158834858Y-122937457D01*
X158873702Y-122938596D01*
X158930220Y-122938821D01*
X158941320Y-122938822D01*
X159087256Y-122938822D01*
X159087256Y-123209756D01*
X159087352Y-123295154D01*
X159087789Y-123360864D01*
X159088788Y-123409774D01*
X159090572Y-123444773D01*
X159093363Y-123468749D01*
X159097383Y-123484593D01*
X159102855Y-123495191D01*
X159109834Y-123503267D01*
X159142766Y-123523112D01*
X159177146Y-123521548D01*
X159208324Y-123498906D01*
X159210614Y-123496100D01*
X159218071Y-123485492D01*
X159223753Y-123473081D01*
X159227899Y-123455850D01*
X159230750Y-123430784D01*
X159232546Y-123394867D01*
X159233528Y-123345083D01*
X159233936Y-123278417D01*
X159234011Y-123202589D01*
X159234011Y-122938822D01*
X159373373Y-122938822D01*
X159433178Y-122938418D01*
X159474582Y-122936840D01*
X159501752Y-122933547D01*
X159518854Y-122927992D01*
X159530057Y-122919631D01*
X159531417Y-122918178D01*
X159547775Y-122884939D01*
X159546328Y-122847362D01*
X159527522Y-122814645D01*
X159520250Y-122808298D01*
X159510873Y-122803266D01*
X159496891Y-122799396D01*
X159475804Y-122796537D01*
X159445111Y-122794535D01*
X159402311Y-122793239D01*
X159344905Y-122792498D01*
X159270390Y-122792158D01*
X159176267Y-122792068D01*
X159156240Y-122792067D01*
X159057435Y-122792163D01*
G37*
X159057435Y-122792163D02*
X158978728Y-122792542D01*
X158917637Y-122793333D01*
X158871683Y-122794670D01*
X158838386Y-122796683D01*
X158815264Y-122799506D01*
X158799838Y-122803269D01*
X158789629Y-122808105D01*
X158784687Y-122811822D01*
X158759043Y-122844358D01*
X158755941Y-122878138D01*
X158771789Y-122908826D01*
X158782152Y-122921089D01*
X158793304Y-122929450D01*
X158809465Y-122934657D01*
X158834858Y-122937457D01*
X158873702Y-122938596D01*
X158930220Y-122938821D01*
X158941320Y-122938822D01*
X159087256Y-122938822D01*
X159087256Y-123209756D01*
X159087352Y-123295154D01*
X159087789Y-123360864D01*
X159088788Y-123409774D01*
X159090572Y-123444773D01*
X159093363Y-123468749D01*
X159097383Y-123484593D01*
X159102855Y-123495191D01*
X159109834Y-123503267D01*
X159142766Y-123523112D01*
X159177146Y-123521548D01*
X159208324Y-123498906D01*
X159210614Y-123496100D01*
X159218071Y-123485492D01*
X159223753Y-123473081D01*
X159227899Y-123455850D01*
X159230750Y-123430784D01*
X159232546Y-123394867D01*
X159233528Y-123345083D01*
X159233936Y-123278417D01*
X159234011Y-123202589D01*
X159234011Y-122938822D01*
X159373373Y-122938822D01*
X159433178Y-122938418D01*
X159474582Y-122936840D01*
X159501752Y-122933547D01*
X159518854Y-122927992D01*
X159530057Y-122919631D01*
X159531417Y-122918178D01*
X159547775Y-122884939D01*
X159546328Y-122847362D01*
X159527522Y-122814645D01*
X159520250Y-122808298D01*
X159510873Y-122803266D01*
X159496891Y-122799396D01*
X159475804Y-122796537D01*
X159445111Y-122794535D01*
X159402311Y-122793239D01*
X159344905Y-122792498D01*
X159270390Y-122792158D01*
X159176267Y-122792068D01*
X159156240Y-122792067D01*
X159057435Y-122792163D01*
G36*
X157791677Y-122797533D02*
G01*
X157760298Y-122819776D01*
X157732589Y-122847485D01*
X157732589Y-123156920D01*
X157732662Y-123248799D01*
X157733005Y-123320840D01*
X157733808Y-123375780D01*
X157735259Y-123416360D01*
X157737548Y-123445317D01*
X157740864Y-123465391D01*
X157745395Y-123479321D01*
X157751331Y-123489845D01*
X157755986Y-123496100D01*
X157786717Y-123520673D01*
X157822004Y-123523341D01*
X157854255Y-123508271D01*
X157864912Y-123499374D01*
X157872036Y-123487557D01*
X157876333Y-123468526D01*
X157878509Y-123437992D01*
X157879272Y-123391662D01*
X157879345Y-123355871D01*
X157879345Y-123221045D01*
X158376056Y-123221045D01*
X158376056Y-123343700D01*
X158376569Y-123399787D01*
X158378624Y-123438333D01*
X158382992Y-123464361D01*
X158390444Y-123482897D01*
X158399453Y-123496100D01*
X158430356Y-123520604D01*
X158465304Y-123523506D01*
X158498762Y-123506089D01*
X158507896Y-123496959D01*
X158514348Y-123484855D01*
X158518603Y-123466001D01*
X158521148Y-123436620D01*
X158522471Y-123392937D01*
X158523057Y-123331175D01*
X158523125Y-123317000D01*
X158523609Y-123200631D01*
X158523859Y-123104727D01*
X158523777Y-123027177D01*
X158523269Y-122965869D01*
X158522238Y-122918690D01*
X158520587Y-122883530D01*
X158518221Y-122858276D01*
X158515043Y-122840817D01*
X158510956Y-122829041D01*
X158505866Y-122820835D01*
X158500234Y-122814645D01*
X158468372Y-122794844D01*
X158435143Y-122797533D01*
X158403765Y-122819776D01*
X158391067Y-122834126D01*
X158382974Y-122849978D01*
X158378458Y-122872554D01*
X158376494Y-122907078D01*
X158376056Y-122958776D01*
X158376056Y-123074289D01*
X157879345Y-123074289D01*
X157879345Y-122955756D01*
X157878838Y-122901148D01*
X157876802Y-122864275D01*
X157872465Y-122840307D01*
X157865053Y-122824415D01*
X157856767Y-122814645D01*
X157824906Y-122794844D01*
X157791677Y-122797533D01*
G37*
X157791677Y-122797533D02*
X157760298Y-122819776D01*
X157732589Y-122847485D01*
X157732589Y-123156920D01*
X157732662Y-123248799D01*
X157733005Y-123320840D01*
X157733808Y-123375780D01*
X157735259Y-123416360D01*
X157737548Y-123445317D01*
X157740864Y-123465391D01*
X157745395Y-123479321D01*
X157751331Y-123489845D01*
X157755986Y-123496100D01*
X157786717Y-123520673D01*
X157822004Y-123523341D01*
X157854255Y-123508271D01*
X157864912Y-123499374D01*
X157872036Y-123487557D01*
X157876333Y-123468526D01*
X157878509Y-123437992D01*
X157879272Y-123391662D01*
X157879345Y-123355871D01*
X157879345Y-123221045D01*
X158376056Y-123221045D01*
X158376056Y-123343700D01*
X158376569Y-123399787D01*
X158378624Y-123438333D01*
X158382992Y-123464361D01*
X158390444Y-123482897D01*
X158399453Y-123496100D01*
X158430356Y-123520604D01*
X158465304Y-123523506D01*
X158498762Y-123506089D01*
X158507896Y-123496959D01*
X158514348Y-123484855D01*
X158518603Y-123466001D01*
X158521148Y-123436620D01*
X158522471Y-123392937D01*
X158523057Y-123331175D01*
X158523125Y-123317000D01*
X158523609Y-123200631D01*
X158523859Y-123104727D01*
X158523777Y-123027177D01*
X158523269Y-122965869D01*
X158522238Y-122918690D01*
X158520587Y-122883530D01*
X158518221Y-122858276D01*
X158515043Y-122840817D01*
X158510956Y-122829041D01*
X158505866Y-122820835D01*
X158500234Y-122814645D01*
X158468372Y-122794844D01*
X158435143Y-122797533D01*
X158403765Y-122819776D01*
X158391067Y-122834126D01*
X158382974Y-122849978D01*
X158378458Y-122872554D01*
X158376494Y-122907078D01*
X158376056Y-122958776D01*
X158376056Y-123074289D01*
X157879345Y-123074289D01*
X157879345Y-122955756D01*
X157878838Y-122901148D01*
X157876802Y-122864275D01*
X157872465Y-122840307D01*
X157865053Y-122824415D01*
X157856767Y-122814645D01*
X157824906Y-122794844D01*
X157791677Y-122797533D01*
%TD*%
M02*
