%TF.GenerationSoftware,KiCad,Pcbnew,(5.1.8)-1*%
%TF.CreationDate,2020-12-06T18:17:34-05:00*%
%TF.ProjectId,Breadboar Power Supply v1,42726561-6462-46f6-9172-20506f776572,1.0*%
%TF.SameCoordinates,Original*%
%TF.FileFunction,Legend,Top*%
%TF.FilePolarity,Positive*%
%FSLAX46Y46*%
G04 Gerber Fmt 4.6, Leading zero omitted, Abs format (unit mm)*
G04 Created by KiCad (PCBNEW (5.1.8)-1) date 2020-12-06 18:17:34*
%MOMM*%
%LPD*%
G01*
G04 APERTURE LIST*
%ADD10C,0.150000*%
%ADD11C,0.120000*%
%ADD12C,0.100000*%
G04 APERTURE END LIST*
D10*
X188682380Y-130063714D02*
X188682380Y-129444666D01*
X189063333Y-129778000D01*
X189063333Y-129635142D01*
X189110952Y-129539904D01*
X189158571Y-129492285D01*
X189253809Y-129444666D01*
X189491904Y-129444666D01*
X189587142Y-129492285D01*
X189634761Y-129539904D01*
X189682380Y-129635142D01*
X189682380Y-129920857D01*
X189634761Y-130016095D01*
X189587142Y-130063714D01*
X188682380Y-129111333D02*
X188682380Y-128492285D01*
X189063333Y-128825619D01*
X189063333Y-128682761D01*
X189110952Y-128587523D01*
X189158571Y-128539904D01*
X189253809Y-128492285D01*
X189491904Y-128492285D01*
X189587142Y-128539904D01*
X189634761Y-128587523D01*
X189682380Y-128682761D01*
X189682380Y-128968476D01*
X189634761Y-129063714D01*
X189587142Y-129111333D01*
X188682380Y-127873238D02*
X188682380Y-127778000D01*
X188730000Y-127682761D01*
X188777619Y-127635142D01*
X188872857Y-127587523D01*
X189063333Y-127539904D01*
X189301428Y-127539904D01*
X189491904Y-127587523D01*
X189587142Y-127635142D01*
X189634761Y-127682761D01*
X189682380Y-127778000D01*
X189682380Y-127873238D01*
X189634761Y-127968476D01*
X189587142Y-128016095D01*
X189491904Y-128063714D01*
X189301428Y-128111333D01*
X189063333Y-128111333D01*
X188872857Y-128063714D01*
X188777619Y-128016095D01*
X188730000Y-127968476D01*
X188682380Y-127873238D01*
X187666380Y-99964714D02*
X187666380Y-99345666D01*
X188047333Y-99679000D01*
X188047333Y-99536142D01*
X188094952Y-99440904D01*
X188142571Y-99393285D01*
X188237809Y-99345666D01*
X188475904Y-99345666D01*
X188571142Y-99393285D01*
X188618761Y-99440904D01*
X188666380Y-99536142D01*
X188666380Y-99821857D01*
X188618761Y-99917095D01*
X188571142Y-99964714D01*
X187666380Y-99012333D02*
X187666380Y-98393285D01*
X188047333Y-98726619D01*
X188047333Y-98583761D01*
X188094952Y-98488523D01*
X188142571Y-98440904D01*
X188237809Y-98393285D01*
X188475904Y-98393285D01*
X188571142Y-98440904D01*
X188618761Y-98488523D01*
X188666380Y-98583761D01*
X188666380Y-98869476D01*
X188618761Y-98964714D01*
X188571142Y-99012333D01*
X187666380Y-97774238D02*
X187666380Y-97679000D01*
X187714000Y-97583761D01*
X187761619Y-97536142D01*
X187856857Y-97488523D01*
X188047333Y-97440904D01*
X188285428Y-97440904D01*
X188475904Y-97488523D01*
X188571142Y-97536142D01*
X188618761Y-97583761D01*
X188666380Y-97679000D01*
X188666380Y-97774238D01*
X188618761Y-97869476D01*
X188571142Y-97917095D01*
X188475904Y-97964714D01*
X188285428Y-98012333D01*
X188047333Y-98012333D01*
X187856857Y-97964714D01*
X187761619Y-97917095D01*
X187714000Y-97869476D01*
X187666380Y-97774238D01*
X193929095Y-133739000D02*
X193833857Y-133691380D01*
X193691000Y-133691380D01*
X193548142Y-133739000D01*
X193452904Y-133834238D01*
X193405285Y-133929476D01*
X193357666Y-134119952D01*
X193357666Y-134262809D01*
X193405285Y-134453285D01*
X193452904Y-134548523D01*
X193548142Y-134643761D01*
X193691000Y-134691380D01*
X193786238Y-134691380D01*
X193929095Y-134643761D01*
X193976714Y-134596142D01*
X193976714Y-134262809D01*
X193786238Y-134262809D01*
X194405285Y-134691380D02*
X194405285Y-133691380D01*
X194976714Y-134691380D01*
X194976714Y-133691380D01*
X195452904Y-134691380D02*
X195452904Y-133691380D01*
X195691000Y-133691380D01*
X195833857Y-133739000D01*
X195929095Y-133834238D01*
X195976714Y-133929476D01*
X196024333Y-134119952D01*
X196024333Y-134262809D01*
X195976714Y-134453285D01*
X195929095Y-134548523D01*
X195833857Y-134643761D01*
X195691000Y-134691380D01*
X195452904Y-134691380D01*
X193548095Y-88400000D02*
X193452857Y-88352380D01*
X193310000Y-88352380D01*
X193167142Y-88400000D01*
X193071904Y-88495238D01*
X193024285Y-88590476D01*
X192976666Y-88780952D01*
X192976666Y-88923809D01*
X193024285Y-89114285D01*
X193071904Y-89209523D01*
X193167142Y-89304761D01*
X193310000Y-89352380D01*
X193405238Y-89352380D01*
X193548095Y-89304761D01*
X193595714Y-89257142D01*
X193595714Y-88923809D01*
X193405238Y-88923809D01*
X194024285Y-89352380D02*
X194024285Y-88352380D01*
X194595714Y-89352380D01*
X194595714Y-88352380D01*
X195071904Y-89352380D02*
X195071904Y-88352380D01*
X195310000Y-88352380D01*
X195452857Y-88400000D01*
X195548095Y-88495238D01*
X195595714Y-88590476D01*
X195643333Y-88780952D01*
X195643333Y-88923809D01*
X195595714Y-89114285D01*
X195548095Y-89209523D01*
X195452857Y-89304761D01*
X195310000Y-89352380D01*
X195071904Y-89352380D01*
X194627523Y-85812380D02*
X194151333Y-85812380D01*
X194103714Y-86288571D01*
X194151333Y-86240952D01*
X194246571Y-86193333D01*
X194484666Y-86193333D01*
X194579904Y-86240952D01*
X194627523Y-86288571D01*
X194675142Y-86383809D01*
X194675142Y-86621904D01*
X194627523Y-86717142D01*
X194579904Y-86764761D01*
X194484666Y-86812380D01*
X194246571Y-86812380D01*
X194151333Y-86764761D01*
X194103714Y-86717142D01*
X194960857Y-85812380D02*
X195294190Y-86812380D01*
X195627523Y-85812380D01*
X194881523Y-130897380D02*
X194405333Y-130897380D01*
X194357714Y-131373571D01*
X194405333Y-131325952D01*
X194500571Y-131278333D01*
X194738666Y-131278333D01*
X194833904Y-131325952D01*
X194881523Y-131373571D01*
X194929142Y-131468809D01*
X194929142Y-131706904D01*
X194881523Y-131802142D01*
X194833904Y-131849761D01*
X194738666Y-131897380D01*
X194500571Y-131897380D01*
X194405333Y-131849761D01*
X194357714Y-131802142D01*
X195214857Y-130897380D02*
X195548190Y-131897380D01*
X195881523Y-130897380D01*
D11*
%TO.C,D6*%
X193151000Y-100767000D02*
X190466000Y-100767000D01*
X190466000Y-100767000D02*
X190466000Y-102687000D01*
X190466000Y-102687000D02*
X193151000Y-102687000D01*
%TO.C,D5*%
X193151000Y-118166000D02*
X190466000Y-118166000D01*
X190466000Y-118166000D02*
X190466000Y-120086000D01*
X190466000Y-120086000D02*
X193151000Y-120086000D01*
%TO.C,C1*%
X183007000Y-90297000D02*
G75*
G03*
X183007000Y-90297000I-5120000J0D01*
G01*
X177887000Y-85217000D02*
X177887000Y-95377000D01*
X177927000Y-85217000D02*
X177927000Y-95377000D01*
X177967000Y-85217000D02*
X177967000Y-95377000D01*
X178007000Y-85218000D02*
X178007000Y-95376000D01*
X178047000Y-85219000D02*
X178047000Y-95375000D01*
X178087000Y-85220000D02*
X178087000Y-95374000D01*
X178127000Y-85222000D02*
X178127000Y-95372000D01*
X178167000Y-85224000D02*
X178167000Y-95370000D01*
X178207000Y-85227000D02*
X178207000Y-95367000D01*
X178247000Y-85229000D02*
X178247000Y-95365000D01*
X178287000Y-85232000D02*
X178287000Y-95362000D01*
X178327000Y-85235000D02*
X178327000Y-95359000D01*
X178367000Y-85239000D02*
X178367000Y-95355000D01*
X178407000Y-85243000D02*
X178407000Y-95351000D01*
X178447000Y-85247000D02*
X178447000Y-95347000D01*
X178487000Y-85252000D02*
X178487000Y-95342000D01*
X178527000Y-85257000D02*
X178527000Y-95337000D01*
X178567000Y-85262000D02*
X178567000Y-95332000D01*
X178608000Y-85267000D02*
X178608000Y-95327000D01*
X178648000Y-85273000D02*
X178648000Y-95321000D01*
X178688000Y-85279000D02*
X178688000Y-95315000D01*
X178728000Y-85286000D02*
X178728000Y-95308000D01*
X178768000Y-85293000D02*
X178768000Y-95301000D01*
X178808000Y-85300000D02*
X178808000Y-95294000D01*
X178848000Y-85307000D02*
X178848000Y-95287000D01*
X178888000Y-85315000D02*
X178888000Y-95279000D01*
X178928000Y-85323000D02*
X178928000Y-95271000D01*
X178968000Y-85332000D02*
X178968000Y-95262000D01*
X179008000Y-85341000D02*
X179008000Y-95253000D01*
X179048000Y-85350000D02*
X179048000Y-95244000D01*
X179088000Y-85359000D02*
X179088000Y-95235000D01*
X179128000Y-85369000D02*
X179128000Y-95225000D01*
X179168000Y-85379000D02*
X179168000Y-89056000D01*
X179168000Y-91538000D02*
X179168000Y-95215000D01*
X179208000Y-85390000D02*
X179208000Y-89056000D01*
X179208000Y-91538000D02*
X179208000Y-95204000D01*
X179248000Y-85400000D02*
X179248000Y-89056000D01*
X179248000Y-91538000D02*
X179248000Y-95194000D01*
X179288000Y-85412000D02*
X179288000Y-89056000D01*
X179288000Y-91538000D02*
X179288000Y-95182000D01*
X179328000Y-85423000D02*
X179328000Y-89056000D01*
X179328000Y-91538000D02*
X179328000Y-95171000D01*
X179368000Y-85435000D02*
X179368000Y-89056000D01*
X179368000Y-91538000D02*
X179368000Y-95159000D01*
X179408000Y-85447000D02*
X179408000Y-89056000D01*
X179408000Y-91538000D02*
X179408000Y-95147000D01*
X179448000Y-85460000D02*
X179448000Y-89056000D01*
X179448000Y-91538000D02*
X179448000Y-95134000D01*
X179488000Y-85473000D02*
X179488000Y-89056000D01*
X179488000Y-91538000D02*
X179488000Y-95121000D01*
X179528000Y-85486000D02*
X179528000Y-89056000D01*
X179528000Y-91538000D02*
X179528000Y-95108000D01*
X179568000Y-85500000D02*
X179568000Y-89056000D01*
X179568000Y-91538000D02*
X179568000Y-95094000D01*
X179608000Y-85514000D02*
X179608000Y-89056000D01*
X179608000Y-91538000D02*
X179608000Y-95080000D01*
X179648000Y-85529000D02*
X179648000Y-89056000D01*
X179648000Y-91538000D02*
X179648000Y-95065000D01*
X179688000Y-85543000D02*
X179688000Y-89056000D01*
X179688000Y-91538000D02*
X179688000Y-95051000D01*
X179728000Y-85559000D02*
X179728000Y-89056000D01*
X179728000Y-91538000D02*
X179728000Y-95035000D01*
X179768000Y-85574000D02*
X179768000Y-89056000D01*
X179768000Y-91538000D02*
X179768000Y-95020000D01*
X179808000Y-85590000D02*
X179808000Y-89056000D01*
X179808000Y-91538000D02*
X179808000Y-95004000D01*
X179848000Y-85607000D02*
X179848000Y-89056000D01*
X179848000Y-91538000D02*
X179848000Y-94987000D01*
X179888000Y-85623000D02*
X179888000Y-89056000D01*
X179888000Y-91538000D02*
X179888000Y-94971000D01*
X179928000Y-85640000D02*
X179928000Y-89056000D01*
X179928000Y-91538000D02*
X179928000Y-94954000D01*
X179968000Y-85658000D02*
X179968000Y-89056000D01*
X179968000Y-91538000D02*
X179968000Y-94936000D01*
X180008000Y-85676000D02*
X180008000Y-89056000D01*
X180008000Y-91538000D02*
X180008000Y-94918000D01*
X180048000Y-85694000D02*
X180048000Y-89056000D01*
X180048000Y-91538000D02*
X180048000Y-94900000D01*
X180088000Y-85713000D02*
X180088000Y-89056000D01*
X180088000Y-91538000D02*
X180088000Y-94881000D01*
X180128000Y-85733000D02*
X180128000Y-89056000D01*
X180128000Y-91538000D02*
X180128000Y-94861000D01*
X180168000Y-85752000D02*
X180168000Y-89056000D01*
X180168000Y-91538000D02*
X180168000Y-94842000D01*
X180208000Y-85772000D02*
X180208000Y-89056000D01*
X180208000Y-91538000D02*
X180208000Y-94822000D01*
X180248000Y-85793000D02*
X180248000Y-89056000D01*
X180248000Y-91538000D02*
X180248000Y-94801000D01*
X180288000Y-85814000D02*
X180288000Y-89056000D01*
X180288000Y-91538000D02*
X180288000Y-94780000D01*
X180328000Y-85835000D02*
X180328000Y-89056000D01*
X180328000Y-91538000D02*
X180328000Y-94759000D01*
X180368000Y-85857000D02*
X180368000Y-89056000D01*
X180368000Y-91538000D02*
X180368000Y-94737000D01*
X180408000Y-85880000D02*
X180408000Y-89056000D01*
X180408000Y-91538000D02*
X180408000Y-94714000D01*
X180448000Y-85902000D02*
X180448000Y-89056000D01*
X180448000Y-91538000D02*
X180448000Y-94692000D01*
X180488000Y-85926000D02*
X180488000Y-89056000D01*
X180488000Y-91538000D02*
X180488000Y-94668000D01*
X180528000Y-85950000D02*
X180528000Y-89056000D01*
X180528000Y-91538000D02*
X180528000Y-94644000D01*
X180568000Y-85974000D02*
X180568000Y-89056000D01*
X180568000Y-91538000D02*
X180568000Y-94620000D01*
X180608000Y-85999000D02*
X180608000Y-89056000D01*
X180608000Y-91538000D02*
X180608000Y-94595000D01*
X180648000Y-86024000D02*
X180648000Y-89056000D01*
X180648000Y-91538000D02*
X180648000Y-94570000D01*
X180688000Y-86050000D02*
X180688000Y-89056000D01*
X180688000Y-91538000D02*
X180688000Y-94544000D01*
X180728000Y-86076000D02*
X180728000Y-89056000D01*
X180728000Y-91538000D02*
X180728000Y-94518000D01*
X180768000Y-86103000D02*
X180768000Y-89056000D01*
X180768000Y-91538000D02*
X180768000Y-94491000D01*
X180808000Y-86131000D02*
X180808000Y-89056000D01*
X180808000Y-91538000D02*
X180808000Y-94463000D01*
X180848000Y-86159000D02*
X180848000Y-89056000D01*
X180848000Y-91538000D02*
X180848000Y-94435000D01*
X180888000Y-86187000D02*
X180888000Y-89056000D01*
X180888000Y-91538000D02*
X180888000Y-94407000D01*
X180928000Y-86217000D02*
X180928000Y-89056000D01*
X180928000Y-91538000D02*
X180928000Y-94377000D01*
X180968000Y-86247000D02*
X180968000Y-89056000D01*
X180968000Y-91538000D02*
X180968000Y-94347000D01*
X181008000Y-86277000D02*
X181008000Y-89056000D01*
X181008000Y-91538000D02*
X181008000Y-94317000D01*
X181048000Y-86308000D02*
X181048000Y-89056000D01*
X181048000Y-91538000D02*
X181048000Y-94286000D01*
X181088000Y-86340000D02*
X181088000Y-89056000D01*
X181088000Y-91538000D02*
X181088000Y-94254000D01*
X181128000Y-86372000D02*
X181128000Y-89056000D01*
X181128000Y-91538000D02*
X181128000Y-94222000D01*
X181168000Y-86405000D02*
X181168000Y-89056000D01*
X181168000Y-91538000D02*
X181168000Y-94189000D01*
X181208000Y-86439000D02*
X181208000Y-89056000D01*
X181208000Y-91538000D02*
X181208000Y-94155000D01*
X181248000Y-86473000D02*
X181248000Y-89056000D01*
X181248000Y-91538000D02*
X181248000Y-94121000D01*
X181288000Y-86508000D02*
X181288000Y-89056000D01*
X181288000Y-91538000D02*
X181288000Y-94086000D01*
X181328000Y-86544000D02*
X181328000Y-89056000D01*
X181328000Y-91538000D02*
X181328000Y-94050000D01*
X181368000Y-86581000D02*
X181368000Y-89056000D01*
X181368000Y-91538000D02*
X181368000Y-94013000D01*
X181408000Y-86618000D02*
X181408000Y-89056000D01*
X181408000Y-91538000D02*
X181408000Y-93976000D01*
X181448000Y-86657000D02*
X181448000Y-89056000D01*
X181448000Y-91538000D02*
X181448000Y-93937000D01*
X181488000Y-86696000D02*
X181488000Y-89056000D01*
X181488000Y-91538000D02*
X181488000Y-93898000D01*
X181528000Y-86736000D02*
X181528000Y-89056000D01*
X181528000Y-91538000D02*
X181528000Y-93858000D01*
X181568000Y-86777000D02*
X181568000Y-89056000D01*
X181568000Y-91538000D02*
X181568000Y-93817000D01*
X181608000Y-86819000D02*
X181608000Y-89056000D01*
X181608000Y-91538000D02*
X181608000Y-93775000D01*
X181648000Y-86861000D02*
X181648000Y-93733000D01*
X181688000Y-86905000D02*
X181688000Y-93689000D01*
X181728000Y-86950000D02*
X181728000Y-93644000D01*
X181768000Y-86996000D02*
X181768000Y-93598000D01*
X181808000Y-87043000D02*
X181808000Y-93551000D01*
X181848000Y-87091000D02*
X181848000Y-93503000D01*
X181888000Y-87141000D02*
X181888000Y-93453000D01*
X181928000Y-87191000D02*
X181928000Y-93403000D01*
X181968000Y-87243000D02*
X181968000Y-93351000D01*
X182008000Y-87297000D02*
X182008000Y-93297000D01*
X182048000Y-87352000D02*
X182048000Y-93242000D01*
X182088000Y-87408000D02*
X182088000Y-93186000D01*
X182128000Y-87467000D02*
X182128000Y-93127000D01*
X182168000Y-87527000D02*
X182168000Y-93067000D01*
X182208000Y-87588000D02*
X182208000Y-93006000D01*
X182248000Y-87652000D02*
X182248000Y-92942000D01*
X182288000Y-87718000D02*
X182288000Y-92876000D01*
X182328000Y-87787000D02*
X182328000Y-92807000D01*
X182368000Y-87858000D02*
X182368000Y-92736000D01*
X182408000Y-87932000D02*
X182408000Y-92662000D01*
X182448000Y-88008000D02*
X182448000Y-92586000D01*
X182488000Y-88088000D02*
X182488000Y-92506000D01*
X182528000Y-88172000D02*
X182528000Y-92422000D01*
X182568000Y-88260000D02*
X182568000Y-92334000D01*
X182608000Y-88353000D02*
X182608000Y-92241000D01*
X182648000Y-88451000D02*
X182648000Y-92143000D01*
X182688000Y-88555000D02*
X182688000Y-92039000D01*
X182728000Y-88667000D02*
X182728000Y-91927000D01*
X182768000Y-88787000D02*
X182768000Y-91807000D01*
X182808000Y-88919000D02*
X182808000Y-91675000D01*
X182848000Y-89067000D02*
X182848000Y-91527000D01*
X182888000Y-89235000D02*
X182888000Y-91359000D01*
X182928000Y-89435000D02*
X182928000Y-91159000D01*
X182968000Y-89698000D02*
X182968000Y-90896000D01*
X172407354Y-87422000D02*
X173407354Y-87422000D01*
X172907354Y-86922000D02*
X172907354Y-87922000D01*
%TO.C,C2*%
X191591000Y-88392000D02*
G75*
G03*
X191591000Y-88392000I-3270000J0D01*
G01*
X188321000Y-85162000D02*
X188321000Y-91622000D01*
X188361000Y-85162000D02*
X188361000Y-91622000D01*
X188401000Y-85162000D02*
X188401000Y-91622000D01*
X188441000Y-85164000D02*
X188441000Y-91620000D01*
X188481000Y-85165000D02*
X188481000Y-91619000D01*
X188521000Y-85168000D02*
X188521000Y-91616000D01*
X188561000Y-85170000D02*
X188561000Y-87352000D01*
X188561000Y-89432000D02*
X188561000Y-91614000D01*
X188601000Y-85174000D02*
X188601000Y-87352000D01*
X188601000Y-89432000D02*
X188601000Y-91610000D01*
X188641000Y-85177000D02*
X188641000Y-87352000D01*
X188641000Y-89432000D02*
X188641000Y-91607000D01*
X188681000Y-85181000D02*
X188681000Y-87352000D01*
X188681000Y-89432000D02*
X188681000Y-91603000D01*
X188721000Y-85186000D02*
X188721000Y-87352000D01*
X188721000Y-89432000D02*
X188721000Y-91598000D01*
X188761000Y-85191000D02*
X188761000Y-87352000D01*
X188761000Y-89432000D02*
X188761000Y-91593000D01*
X188801000Y-85197000D02*
X188801000Y-87352000D01*
X188801000Y-89432000D02*
X188801000Y-91587000D01*
X188841000Y-85203000D02*
X188841000Y-87352000D01*
X188841000Y-89432000D02*
X188841000Y-91581000D01*
X188881000Y-85210000D02*
X188881000Y-87352000D01*
X188881000Y-89432000D02*
X188881000Y-91574000D01*
X188921000Y-85217000D02*
X188921000Y-87352000D01*
X188921000Y-89432000D02*
X188921000Y-91567000D01*
X188961000Y-85225000D02*
X188961000Y-87352000D01*
X188961000Y-89432000D02*
X188961000Y-91559000D01*
X189001000Y-85233000D02*
X189001000Y-87352000D01*
X189001000Y-89432000D02*
X189001000Y-91551000D01*
X189042000Y-85242000D02*
X189042000Y-87352000D01*
X189042000Y-89432000D02*
X189042000Y-91542000D01*
X189082000Y-85251000D02*
X189082000Y-87352000D01*
X189082000Y-89432000D02*
X189082000Y-91533000D01*
X189122000Y-85261000D02*
X189122000Y-87352000D01*
X189122000Y-89432000D02*
X189122000Y-91523000D01*
X189162000Y-85271000D02*
X189162000Y-87352000D01*
X189162000Y-89432000D02*
X189162000Y-91513000D01*
X189202000Y-85282000D02*
X189202000Y-87352000D01*
X189202000Y-89432000D02*
X189202000Y-91502000D01*
X189242000Y-85294000D02*
X189242000Y-87352000D01*
X189242000Y-89432000D02*
X189242000Y-91490000D01*
X189282000Y-85306000D02*
X189282000Y-87352000D01*
X189282000Y-89432000D02*
X189282000Y-91478000D01*
X189322000Y-85318000D02*
X189322000Y-87352000D01*
X189322000Y-89432000D02*
X189322000Y-91466000D01*
X189362000Y-85331000D02*
X189362000Y-87352000D01*
X189362000Y-89432000D02*
X189362000Y-91453000D01*
X189402000Y-85345000D02*
X189402000Y-87352000D01*
X189402000Y-89432000D02*
X189402000Y-91439000D01*
X189442000Y-85359000D02*
X189442000Y-87352000D01*
X189442000Y-89432000D02*
X189442000Y-91425000D01*
X189482000Y-85374000D02*
X189482000Y-87352000D01*
X189482000Y-89432000D02*
X189482000Y-91410000D01*
X189522000Y-85390000D02*
X189522000Y-87352000D01*
X189522000Y-89432000D02*
X189522000Y-91394000D01*
X189562000Y-85406000D02*
X189562000Y-87352000D01*
X189562000Y-89432000D02*
X189562000Y-91378000D01*
X189602000Y-85422000D02*
X189602000Y-87352000D01*
X189602000Y-89432000D02*
X189602000Y-91362000D01*
X189642000Y-85440000D02*
X189642000Y-87352000D01*
X189642000Y-89432000D02*
X189642000Y-91344000D01*
X189682000Y-85458000D02*
X189682000Y-87352000D01*
X189682000Y-89432000D02*
X189682000Y-91326000D01*
X189722000Y-85476000D02*
X189722000Y-87352000D01*
X189722000Y-89432000D02*
X189722000Y-91308000D01*
X189762000Y-85496000D02*
X189762000Y-87352000D01*
X189762000Y-89432000D02*
X189762000Y-91288000D01*
X189802000Y-85516000D02*
X189802000Y-87352000D01*
X189802000Y-89432000D02*
X189802000Y-91268000D01*
X189842000Y-85536000D02*
X189842000Y-87352000D01*
X189842000Y-89432000D02*
X189842000Y-91248000D01*
X189882000Y-85558000D02*
X189882000Y-87352000D01*
X189882000Y-89432000D02*
X189882000Y-91226000D01*
X189922000Y-85580000D02*
X189922000Y-87352000D01*
X189922000Y-89432000D02*
X189922000Y-91204000D01*
X189962000Y-85602000D02*
X189962000Y-87352000D01*
X189962000Y-89432000D02*
X189962000Y-91182000D01*
X190002000Y-85626000D02*
X190002000Y-87352000D01*
X190002000Y-89432000D02*
X190002000Y-91158000D01*
X190042000Y-85650000D02*
X190042000Y-87352000D01*
X190042000Y-89432000D02*
X190042000Y-91134000D01*
X190082000Y-85676000D02*
X190082000Y-87352000D01*
X190082000Y-89432000D02*
X190082000Y-91108000D01*
X190122000Y-85702000D02*
X190122000Y-87352000D01*
X190122000Y-89432000D02*
X190122000Y-91082000D01*
X190162000Y-85728000D02*
X190162000Y-87352000D01*
X190162000Y-89432000D02*
X190162000Y-91056000D01*
X190202000Y-85756000D02*
X190202000Y-87352000D01*
X190202000Y-89432000D02*
X190202000Y-91028000D01*
X190242000Y-85785000D02*
X190242000Y-87352000D01*
X190242000Y-89432000D02*
X190242000Y-90999000D01*
X190282000Y-85814000D02*
X190282000Y-87352000D01*
X190282000Y-89432000D02*
X190282000Y-90970000D01*
X190322000Y-85844000D02*
X190322000Y-87352000D01*
X190322000Y-89432000D02*
X190322000Y-90940000D01*
X190362000Y-85876000D02*
X190362000Y-87352000D01*
X190362000Y-89432000D02*
X190362000Y-90908000D01*
X190402000Y-85908000D02*
X190402000Y-87352000D01*
X190402000Y-89432000D02*
X190402000Y-90876000D01*
X190442000Y-85942000D02*
X190442000Y-87352000D01*
X190442000Y-89432000D02*
X190442000Y-90842000D01*
X190482000Y-85976000D02*
X190482000Y-87352000D01*
X190482000Y-89432000D02*
X190482000Y-90808000D01*
X190522000Y-86012000D02*
X190522000Y-87352000D01*
X190522000Y-89432000D02*
X190522000Y-90772000D01*
X190562000Y-86049000D02*
X190562000Y-87352000D01*
X190562000Y-89432000D02*
X190562000Y-90735000D01*
X190602000Y-86087000D02*
X190602000Y-87352000D01*
X190602000Y-89432000D02*
X190602000Y-90697000D01*
X190642000Y-86127000D02*
X190642000Y-90657000D01*
X190682000Y-86168000D02*
X190682000Y-90616000D01*
X190722000Y-86210000D02*
X190722000Y-90574000D01*
X190762000Y-86255000D02*
X190762000Y-90529000D01*
X190802000Y-86300000D02*
X190802000Y-90484000D01*
X190842000Y-86348000D02*
X190842000Y-90436000D01*
X190882000Y-86397000D02*
X190882000Y-90387000D01*
X190922000Y-86448000D02*
X190922000Y-90336000D01*
X190962000Y-86502000D02*
X190962000Y-90282000D01*
X191002000Y-86558000D02*
X191002000Y-90226000D01*
X191042000Y-86616000D02*
X191042000Y-90168000D01*
X191082000Y-86678000D02*
X191082000Y-90106000D01*
X191122000Y-86742000D02*
X191122000Y-90042000D01*
X191162000Y-86811000D02*
X191162000Y-89973000D01*
X191202000Y-86883000D02*
X191202000Y-89901000D01*
X191242000Y-86960000D02*
X191242000Y-89824000D01*
X191282000Y-87042000D02*
X191282000Y-89742000D01*
X191322000Y-87130000D02*
X191322000Y-89654000D01*
X191362000Y-87227000D02*
X191362000Y-89557000D01*
X191402000Y-87333000D02*
X191402000Y-89451000D01*
X191442000Y-87452000D02*
X191442000Y-89332000D01*
X191482000Y-87590000D02*
X191482000Y-89194000D01*
X191522000Y-87759000D02*
X191522000Y-89025000D01*
X191562000Y-87990000D02*
X191562000Y-88794000D01*
X184820759Y-86553000D02*
X185450759Y-86553000D01*
X185135759Y-86238000D02*
X185135759Y-86868000D01*
%TO.C,D1*%
X176709001Y-114345333D02*
X176709001Y-117285333D01*
X176709001Y-117285333D02*
X182149001Y-117285333D01*
X182149001Y-117285333D02*
X182149001Y-114345333D01*
X182149001Y-114345333D02*
X176709001Y-114345333D01*
X175689001Y-115815333D02*
X176709001Y-115815333D01*
X183169001Y-115815333D02*
X182149001Y-115815333D01*
X177609001Y-114345333D02*
X177609001Y-117285333D01*
X177729001Y-114345333D02*
X177729001Y-117285333D01*
X177489001Y-114345333D02*
X177489001Y-117285333D01*
%TO.C,D2*%
X177489001Y-105438001D02*
X177489001Y-108378001D01*
X177729001Y-105438001D02*
X177729001Y-108378001D01*
X177609001Y-105438001D02*
X177609001Y-108378001D01*
X183169001Y-106908001D02*
X182149001Y-106908001D01*
X175689001Y-106908001D02*
X176709001Y-106908001D01*
X182149001Y-105438001D02*
X176709001Y-105438001D01*
X182149001Y-108378001D02*
X182149001Y-105438001D01*
X176709001Y-108378001D02*
X182149001Y-108378001D01*
X176709001Y-105438001D02*
X176709001Y-108378001D01*
%TO.C,D3*%
X177489001Y-118799000D02*
X177489001Y-121739000D01*
X177729001Y-118799000D02*
X177729001Y-121739000D01*
X177609001Y-118799000D02*
X177609001Y-121739000D01*
X183169001Y-120269000D02*
X182149001Y-120269000D01*
X175689001Y-120269000D02*
X176709001Y-120269000D01*
X182149001Y-118799000D02*
X176709001Y-118799000D01*
X182149001Y-121739000D02*
X182149001Y-118799000D01*
X176709001Y-121739000D02*
X182149001Y-121739000D01*
X176709001Y-118799000D02*
X176709001Y-121739000D01*
%TO.C,D4*%
X176709001Y-109891667D02*
X176709001Y-112831667D01*
X176709001Y-112831667D02*
X182149001Y-112831667D01*
X182149001Y-112831667D02*
X182149001Y-109891667D01*
X182149001Y-109891667D02*
X176709001Y-109891667D01*
X175689001Y-111361667D02*
X176709001Y-111361667D01*
X183169001Y-111361667D02*
X182149001Y-111361667D01*
X177609001Y-109891667D02*
X177609001Y-112831667D01*
X177729001Y-109891667D02*
X177729001Y-112831667D01*
X177489001Y-109891667D02*
X177489001Y-112831667D01*
%TO.C,J1*%
X181509000Y-134013000D02*
X172509000Y-134013000D01*
X172509000Y-134013000D02*
X172509000Y-124813000D01*
X172509000Y-124813000D02*
X187109000Y-124813000D01*
X187109000Y-124813000D02*
X187109000Y-127613000D01*
X187109000Y-131213000D02*
X187109000Y-134013000D01*
X187109000Y-134013000D02*
X185109000Y-134013000D01*
X185609000Y-124573000D02*
X187349000Y-124573000D01*
X187349000Y-124573000D02*
X187349000Y-126313000D01*
%TO.C,J2*%
X196255000Y-90083000D02*
X201455000Y-90083000D01*
X196255000Y-87483000D02*
X196255000Y-90083000D01*
X201455000Y-84883000D02*
X201455000Y-90083000D01*
X196255000Y-87483000D02*
X198855000Y-87483000D01*
X198855000Y-87483000D02*
X198855000Y-84883000D01*
X198855000Y-84883000D02*
X201455000Y-84883000D01*
X196255000Y-86213000D02*
X196255000Y-84883000D01*
X196255000Y-84883000D02*
X197585000Y-84883000D01*
%TO.C,J3*%
X196255000Y-129877000D02*
X197585000Y-129877000D01*
X196255000Y-131207000D02*
X196255000Y-129877000D01*
X198855000Y-129877000D02*
X201455000Y-129877000D01*
X198855000Y-132477000D02*
X198855000Y-129877000D01*
X196255000Y-132477000D02*
X198855000Y-132477000D01*
X201455000Y-129877000D02*
X201455000Y-135077000D01*
X196255000Y-132477000D02*
X196255000Y-135077000D01*
X196255000Y-135077000D02*
X201455000Y-135077000D01*
%TO.C,R1*%
X192886000Y-126905000D02*
X192556000Y-126905000D01*
X192886000Y-133445000D02*
X192886000Y-126905000D01*
X192556000Y-133445000D02*
X192886000Y-133445000D01*
X190146000Y-126905000D02*
X190476000Y-126905000D01*
X190146000Y-133445000D02*
X190146000Y-126905000D01*
X190476000Y-133445000D02*
X190146000Y-133445000D01*
%TO.C,R2*%
X185015000Y-102076000D02*
X184685000Y-102076000D01*
X184685000Y-102076000D02*
X184685000Y-95536000D01*
X184685000Y-95536000D02*
X185015000Y-95536000D01*
X187095000Y-102076000D02*
X187425000Y-102076000D01*
X187425000Y-102076000D02*
X187425000Y-95536000D01*
X187425000Y-95536000D02*
X187095000Y-95536000D01*
D12*
%TO.C,SW1*%
X194202000Y-104154000D02*
X194202000Y-104654000D01*
X194202000Y-104154000D02*
X193702000Y-104154000D01*
X194202000Y-116054000D02*
X194202000Y-115554000D01*
X194202000Y-116054000D02*
X193702000Y-116054000D01*
X190002000Y-116054000D02*
X190002000Y-115554000D01*
X190002000Y-116054000D02*
X190502000Y-116054000D01*
X190002000Y-104154000D02*
X190502000Y-104154000D01*
X190002000Y-104154000D02*
X190002000Y-104654000D01*
D11*
%TO.C,U1*%
X173129001Y-98076000D02*
X183369001Y-98076000D01*
X173129001Y-102717000D02*
X183369001Y-102717000D01*
X173129001Y-98076000D02*
X173129001Y-102717000D01*
X183369001Y-98076000D02*
X183369001Y-102717000D01*
X173129001Y-99586000D02*
X183369001Y-99586000D01*
X176399001Y-98076000D02*
X176399001Y-99586000D01*
X180100001Y-98076000D02*
X180100001Y-99586000D01*
%TO.C,D6*%
D10*
X191412904Y-100529380D02*
X191412904Y-99529380D01*
X191651000Y-99529380D01*
X191793857Y-99577000D01*
X191889095Y-99672238D01*
X191936714Y-99767476D01*
X191984333Y-99957952D01*
X191984333Y-100100809D01*
X191936714Y-100291285D01*
X191889095Y-100386523D01*
X191793857Y-100481761D01*
X191651000Y-100529380D01*
X191412904Y-100529380D01*
X192841476Y-99529380D02*
X192651000Y-99529380D01*
X192555761Y-99577000D01*
X192508142Y-99624619D01*
X192412904Y-99767476D01*
X192365285Y-99957952D01*
X192365285Y-100338904D01*
X192412904Y-100434142D01*
X192460523Y-100481761D01*
X192555761Y-100529380D01*
X192746238Y-100529380D01*
X192841476Y-100481761D01*
X192889095Y-100434142D01*
X192936714Y-100338904D01*
X192936714Y-100100809D01*
X192889095Y-100005571D01*
X192841476Y-99957952D01*
X192746238Y-99910333D01*
X192555761Y-99910333D01*
X192460523Y-99957952D01*
X192412904Y-100005571D01*
X192365285Y-100100809D01*
%TO.C,D5*%
X191412904Y-117928380D02*
X191412904Y-116928380D01*
X191651000Y-116928380D01*
X191793857Y-116976000D01*
X191889095Y-117071238D01*
X191936714Y-117166476D01*
X191984333Y-117356952D01*
X191984333Y-117499809D01*
X191936714Y-117690285D01*
X191889095Y-117785523D01*
X191793857Y-117880761D01*
X191651000Y-117928380D01*
X191412904Y-117928380D01*
X192889095Y-116928380D02*
X192412904Y-116928380D01*
X192365285Y-117404571D01*
X192412904Y-117356952D01*
X192508142Y-117309333D01*
X192746238Y-117309333D01*
X192841476Y-117356952D01*
X192889095Y-117404571D01*
X192936714Y-117499809D01*
X192936714Y-117737904D01*
X192889095Y-117833142D01*
X192841476Y-117880761D01*
X192746238Y-117928380D01*
X192508142Y-117928380D01*
X192412904Y-117880761D01*
X192365285Y-117833142D01*
%TO.C,C1*%
X181951333Y-85828142D02*
X181903714Y-85875761D01*
X181760857Y-85923380D01*
X181665619Y-85923380D01*
X181522761Y-85875761D01*
X181427523Y-85780523D01*
X181379904Y-85685285D01*
X181332285Y-85494809D01*
X181332285Y-85351952D01*
X181379904Y-85161476D01*
X181427523Y-85066238D01*
X181522761Y-84971000D01*
X181665619Y-84923380D01*
X181760857Y-84923380D01*
X181903714Y-84971000D01*
X181951333Y-85018619D01*
X182903714Y-85923380D02*
X182332285Y-85923380D01*
X182618000Y-85923380D02*
X182618000Y-84923380D01*
X182522761Y-85066238D01*
X182427523Y-85161476D01*
X182332285Y-85209095D01*
%TO.C,C2*%
X191730333Y-86082142D02*
X191682714Y-86129761D01*
X191539857Y-86177380D01*
X191444619Y-86177380D01*
X191301761Y-86129761D01*
X191206523Y-86034523D01*
X191158904Y-85939285D01*
X191111285Y-85748809D01*
X191111285Y-85605952D01*
X191158904Y-85415476D01*
X191206523Y-85320238D01*
X191301761Y-85225000D01*
X191444619Y-85177380D01*
X191539857Y-85177380D01*
X191682714Y-85225000D01*
X191730333Y-85272619D01*
X192111285Y-85272619D02*
X192158904Y-85225000D01*
X192254142Y-85177380D01*
X192492238Y-85177380D01*
X192587476Y-85225000D01*
X192635095Y-85272619D01*
X192682714Y-85367857D01*
X192682714Y-85463095D01*
X192635095Y-85605952D01*
X192063666Y-86177380D01*
X192682714Y-86177380D01*
%TO.C,D1*%
X178712904Y-113990380D02*
X178712904Y-112990380D01*
X178951000Y-112990380D01*
X179093857Y-113038000D01*
X179189095Y-113133238D01*
X179236714Y-113228476D01*
X179284333Y-113418952D01*
X179284333Y-113561809D01*
X179236714Y-113752285D01*
X179189095Y-113847523D01*
X179093857Y-113942761D01*
X178951000Y-113990380D01*
X178712904Y-113990380D01*
X180236714Y-113990380D02*
X179665285Y-113990380D01*
X179951000Y-113990380D02*
X179951000Y-112990380D01*
X179855761Y-113133238D01*
X179760523Y-113228476D01*
X179665285Y-113276095D01*
X174087096Y-114167713D02*
X174087096Y-113167713D01*
X174658524Y-114167713D02*
X174229953Y-113596285D01*
X174658524Y-113167713D02*
X174087096Y-113739142D01*
%TO.C,D2*%
X178690905Y-104890381D02*
X178690905Y-103890381D01*
X178929001Y-103890381D01*
X179071858Y-103938001D01*
X179167096Y-104033239D01*
X179214715Y-104128477D01*
X179262334Y-104318953D01*
X179262334Y-104461810D01*
X179214715Y-104652286D01*
X179167096Y-104747524D01*
X179071858Y-104842762D01*
X178929001Y-104890381D01*
X178690905Y-104890381D01*
X179643286Y-103985620D02*
X179690905Y-103938001D01*
X179786143Y-103890381D01*
X180024239Y-103890381D01*
X180119477Y-103938001D01*
X180167096Y-103985620D01*
X180214715Y-104080858D01*
X180214715Y-104176096D01*
X180167096Y-104318953D01*
X179595667Y-104890381D01*
X180214715Y-104890381D01*
X174087096Y-105260381D02*
X174087096Y-104260381D01*
X174658524Y-105260381D02*
X174229953Y-104688953D01*
X174658524Y-104260381D02*
X174087096Y-104831810D01*
%TO.C,D3*%
X178966904Y-118562380D02*
X178966904Y-117562380D01*
X179205000Y-117562380D01*
X179347857Y-117610000D01*
X179443095Y-117705238D01*
X179490714Y-117800476D01*
X179538333Y-117990952D01*
X179538333Y-118133809D01*
X179490714Y-118324285D01*
X179443095Y-118419523D01*
X179347857Y-118514761D01*
X179205000Y-118562380D01*
X178966904Y-118562380D01*
X179871666Y-117562380D02*
X180490714Y-117562380D01*
X180157380Y-117943333D01*
X180300238Y-117943333D01*
X180395476Y-117990952D01*
X180443095Y-118038571D01*
X180490714Y-118133809D01*
X180490714Y-118371904D01*
X180443095Y-118467142D01*
X180395476Y-118514761D01*
X180300238Y-118562380D01*
X180014523Y-118562380D01*
X179919285Y-118514761D01*
X179871666Y-118467142D01*
X174087096Y-118621380D02*
X174087096Y-117621380D01*
X174658524Y-118621380D02*
X174229953Y-118049952D01*
X174658524Y-117621380D02*
X174087096Y-118192809D01*
%TO.C,D4*%
X178712904Y-109672380D02*
X178712904Y-108672380D01*
X178951000Y-108672380D01*
X179093857Y-108720000D01*
X179189095Y-108815238D01*
X179236714Y-108910476D01*
X179284333Y-109100952D01*
X179284333Y-109243809D01*
X179236714Y-109434285D01*
X179189095Y-109529523D01*
X179093857Y-109624761D01*
X178951000Y-109672380D01*
X178712904Y-109672380D01*
X180141476Y-109005714D02*
X180141476Y-109672380D01*
X179903380Y-108624761D02*
X179665285Y-109339047D01*
X180284333Y-109339047D01*
X174087096Y-109714047D02*
X174087096Y-108714047D01*
X174658524Y-109714047D02*
X174229953Y-109142619D01*
X174658524Y-108714047D02*
X174087096Y-109285476D01*
%TO.C,J1*%
X178990666Y-123150380D02*
X178990666Y-123864666D01*
X178943047Y-124007523D01*
X178847809Y-124102761D01*
X178704952Y-124150380D01*
X178609714Y-124150380D01*
X179990666Y-124150380D02*
X179419238Y-124150380D01*
X179704952Y-124150380D02*
X179704952Y-123150380D01*
X179609714Y-123293238D01*
X179514476Y-123388476D01*
X179419238Y-123436095D01*
%TO.C,J2*%
X194357666Y-87082380D02*
X194357666Y-87796666D01*
X194310047Y-87939523D01*
X194214809Y-88034761D01*
X194071952Y-88082380D01*
X193976714Y-88082380D01*
X194786238Y-87177619D02*
X194833857Y-87130000D01*
X194929095Y-87082380D01*
X195167190Y-87082380D01*
X195262428Y-87130000D01*
X195310047Y-87177619D01*
X195357666Y-87272857D01*
X195357666Y-87368095D01*
X195310047Y-87510952D01*
X194738619Y-88082380D01*
X195357666Y-88082380D01*
%TO.C,J3*%
X194611666Y-132294380D02*
X194611666Y-133008666D01*
X194564047Y-133151523D01*
X194468809Y-133246761D01*
X194325952Y-133294380D01*
X194230714Y-133294380D01*
X194992619Y-132294380D02*
X195611666Y-132294380D01*
X195278333Y-132675333D01*
X195421190Y-132675333D01*
X195516428Y-132722952D01*
X195564047Y-132770571D01*
X195611666Y-132865809D01*
X195611666Y-133103904D01*
X195564047Y-133199142D01*
X195516428Y-133246761D01*
X195421190Y-133294380D01*
X195135476Y-133294380D01*
X195040238Y-133246761D01*
X194992619Y-133199142D01*
%TO.C,R1*%
X189682380Y-131484666D02*
X189206190Y-131818000D01*
X189682380Y-132056095D02*
X188682380Y-132056095D01*
X188682380Y-131675142D01*
X188730000Y-131579904D01*
X188777619Y-131532285D01*
X188872857Y-131484666D01*
X189015714Y-131484666D01*
X189110952Y-131532285D01*
X189158571Y-131579904D01*
X189206190Y-131675142D01*
X189206190Y-132056095D01*
X189682380Y-130532285D02*
X189682380Y-131103714D01*
X189682380Y-130818000D02*
X188682380Y-130818000D01*
X188825238Y-130913238D01*
X188920476Y-131008476D01*
X188968095Y-131103714D01*
%TO.C,R2*%
X184348380Y-96813666D02*
X183872190Y-97147000D01*
X184348380Y-97385095D02*
X183348380Y-97385095D01*
X183348380Y-97004142D01*
X183396000Y-96908904D01*
X183443619Y-96861285D01*
X183538857Y-96813666D01*
X183681714Y-96813666D01*
X183776952Y-96861285D01*
X183824571Y-96908904D01*
X183872190Y-97004142D01*
X183872190Y-97385095D01*
X183443619Y-96432714D02*
X183396000Y-96385095D01*
X183348380Y-96289857D01*
X183348380Y-96051761D01*
X183396000Y-95956523D01*
X183443619Y-95908904D01*
X183538857Y-95861285D01*
X183634095Y-95861285D01*
X183776952Y-95908904D01*
X184348380Y-96480333D01*
X184348380Y-95861285D01*
%TO.C,SW1*%
X189486761Y-111297333D02*
X189534380Y-111154476D01*
X189534380Y-110916380D01*
X189486761Y-110821142D01*
X189439142Y-110773523D01*
X189343904Y-110725904D01*
X189248666Y-110725904D01*
X189153428Y-110773523D01*
X189105809Y-110821142D01*
X189058190Y-110916380D01*
X189010571Y-111106857D01*
X188962952Y-111202095D01*
X188915333Y-111249714D01*
X188820095Y-111297333D01*
X188724857Y-111297333D01*
X188629619Y-111249714D01*
X188582000Y-111202095D01*
X188534380Y-111106857D01*
X188534380Y-110868761D01*
X188582000Y-110725904D01*
X188534380Y-110392571D02*
X189534380Y-110154476D01*
X188820095Y-109964000D01*
X189534380Y-109773523D01*
X188534380Y-109535428D01*
X189534380Y-108630666D02*
X189534380Y-109202095D01*
X189534380Y-108916380D02*
X188534380Y-108916380D01*
X188677238Y-109011619D01*
X188772476Y-109106857D01*
X188820095Y-109202095D01*
%TO.C,U1*%
X177487096Y-96528380D02*
X177487096Y-97337904D01*
X177534715Y-97433142D01*
X177582334Y-97480761D01*
X177677572Y-97528380D01*
X177868048Y-97528380D01*
X177963286Y-97480761D01*
X178010905Y-97433142D01*
X178058524Y-97337904D01*
X178058524Y-96528380D01*
X179058524Y-97528380D02*
X178487096Y-97528380D01*
X178772810Y-97528380D02*
X178772810Y-96528380D01*
X178677572Y-96671238D01*
X178582334Y-96766476D01*
X178487096Y-96814095D01*
%TD*%
M02*
