%TF.GenerationSoftware,KiCad,Pcbnew,(5.1.8)-1*%
%TF.CreationDate,2020-12-07T12:25:25-05:00*%
%TF.ProjectId,Raspberry Pi HAT,52617370-6265-4727-9279-205069204841,1.0*%
%TF.SameCoordinates,Original*%
%TF.FileFunction,Copper,L1,Top*%
%TF.FilePolarity,Positive*%
%FSLAX46Y46*%
G04 Gerber Fmt 4.6, Leading zero omitted, Abs format (unit mm)*
G04 Created by KiCad (PCBNEW (5.1.8)-1) date 2020-12-07 12:25:25*
%MOMM*%
%LPD*%
G01*
G04 APERTURE LIST*
%TA.AperFunction,ComponentPad*%
%ADD10C,2.000000*%
%TD*%
%TA.AperFunction,ComponentPad*%
%ADD11R,1.500000X1.500000*%
%TD*%
%TA.AperFunction,ComponentPad*%
%ADD12C,1.500000*%
%TD*%
%TA.AperFunction,ComponentPad*%
%ADD13R,1.700000X1.700000*%
%TD*%
%TA.AperFunction,ComponentPad*%
%ADD14O,1.700000X1.700000*%
%TD*%
%TA.AperFunction,ViaPad*%
%ADD15C,1.000000*%
%TD*%
%TA.AperFunction,ViaPad*%
%ADD16C,0.800000*%
%TD*%
%TA.AperFunction,Conductor*%
%ADD17C,0.300000*%
%TD*%
%TA.AperFunction,Conductor*%
%ADD18C,0.250000*%
%TD*%
%TA.AperFunction,Conductor*%
%ADD19C,0.254000*%
%TD*%
%TA.AperFunction,Conductor*%
%ADD20C,0.100000*%
%TD*%
G04 APERTURE END LIST*
%TO.P,D1,1*%
%TO.N,GND*%
%TA.AperFunction,SMDPad,CuDef*%
G36*
G01*
X121843500Y-109676250D02*
X121843500Y-108763750D01*
G75*
G02*
X122087250Y-108520000I243750J0D01*
G01*
X122574750Y-108520000D01*
G75*
G02*
X122818500Y-108763750I0J-243750D01*
G01*
X122818500Y-109676250D01*
G75*
G02*
X122574750Y-109920000I-243750J0D01*
G01*
X122087250Y-109920000D01*
G75*
G02*
X121843500Y-109676250I0J243750D01*
G01*
G37*
%TD.AperFunction*%
%TO.P,D1,2*%
%TO.N,Net-(D1-Pad2)*%
%TA.AperFunction,SMDPad,CuDef*%
G36*
G01*
X123718500Y-109676250D02*
X123718500Y-108763750D01*
G75*
G02*
X123962250Y-108520000I243750J0D01*
G01*
X124449750Y-108520000D01*
G75*
G02*
X124693500Y-108763750I0J-243750D01*
G01*
X124693500Y-109676250D01*
G75*
G02*
X124449750Y-109920000I-243750J0D01*
G01*
X123962250Y-109920000D01*
G75*
G02*
X123718500Y-109676250I0J243750D01*
G01*
G37*
%TD.AperFunction*%
%TD*%
%TO.P,D2,2*%
%TO.N,Net-(D2-Pad2)*%
%TA.AperFunction,SMDPad,CuDef*%
G36*
G01*
X113486250Y-100388000D02*
X112573750Y-100388000D01*
G75*
G02*
X112330000Y-100144250I0J243750D01*
G01*
X112330000Y-99656750D01*
G75*
G02*
X112573750Y-99413000I243750J0D01*
G01*
X113486250Y-99413000D01*
G75*
G02*
X113730000Y-99656750I0J-243750D01*
G01*
X113730000Y-100144250D01*
G75*
G02*
X113486250Y-100388000I-243750J0D01*
G01*
G37*
%TD.AperFunction*%
%TO.P,D2,1*%
%TO.N,GND*%
%TA.AperFunction,SMDPad,CuDef*%
G36*
G01*
X113486250Y-102263000D02*
X112573750Y-102263000D01*
G75*
G02*
X112330000Y-102019250I0J243750D01*
G01*
X112330000Y-101531750D01*
G75*
G02*
X112573750Y-101288000I243750J0D01*
G01*
X113486250Y-101288000D01*
G75*
G02*
X113730000Y-101531750I0J-243750D01*
G01*
X113730000Y-102019250D01*
G75*
G02*
X113486250Y-102263000I-243750J0D01*
G01*
G37*
%TD.AperFunction*%
%TD*%
%TO.P,R1,1*%
%TO.N,/button_input*%
%TA.AperFunction,SMDPad,CuDef*%
G36*
G01*
X121843500Y-104590001D02*
X121843500Y-103689999D01*
G75*
G02*
X122093499Y-103440000I249999J0D01*
G01*
X122618501Y-103440000D01*
G75*
G02*
X122868500Y-103689999I0J-249999D01*
G01*
X122868500Y-104590001D01*
G75*
G02*
X122618501Y-104840000I-249999J0D01*
G01*
X122093499Y-104840000D01*
G75*
G02*
X121843500Y-104590001I0J249999D01*
G01*
G37*
%TD.AperFunction*%
%TO.P,R1,2*%
%TO.N,GND*%
%TA.AperFunction,SMDPad,CuDef*%
G36*
G01*
X123668500Y-104590001D02*
X123668500Y-103689999D01*
G75*
G02*
X123918499Y-103440000I249999J0D01*
G01*
X124443501Y-103440000D01*
G75*
G02*
X124693500Y-103689999I0J-249999D01*
G01*
X124693500Y-104590001D01*
G75*
G02*
X124443501Y-104840000I-249999J0D01*
G01*
X123918499Y-104840000D01*
G75*
G02*
X123668500Y-104590001I0J249999D01*
G01*
G37*
%TD.AperFunction*%
%TD*%
%TO.P,R2,1*%
%TO.N,Net-(J1-Pad11)*%
%TA.AperFunction,SMDPad,CuDef*%
G36*
G01*
X119322001Y-102263000D02*
X118421999Y-102263000D01*
G75*
G02*
X118172000Y-102013001I0J249999D01*
G01*
X118172000Y-101487999D01*
G75*
G02*
X118421999Y-101238000I249999J0D01*
G01*
X119322001Y-101238000D01*
G75*
G02*
X119572000Y-101487999I0J-249999D01*
G01*
X119572000Y-102013001D01*
G75*
G02*
X119322001Y-102263000I-249999J0D01*
G01*
G37*
%TD.AperFunction*%
%TO.P,R2,2*%
%TO.N,VCC*%
%TA.AperFunction,SMDPad,CuDef*%
G36*
G01*
X119322001Y-100438000D02*
X118421999Y-100438000D01*
G75*
G02*
X118172000Y-100188001I0J249999D01*
G01*
X118172000Y-99662999D01*
G75*
G02*
X118421999Y-99413000I249999J0D01*
G01*
X119322001Y-99413000D01*
G75*
G02*
X119572000Y-99662999I0J-249999D01*
G01*
X119572000Y-100188001D01*
G75*
G02*
X119322001Y-100438000I-249999J0D01*
G01*
G37*
%TD.AperFunction*%
%TD*%
%TO.P,R3,2*%
%TO.N,Net-(D1-Pad2)*%
%TA.AperFunction,SMDPad,CuDef*%
G36*
G01*
X123668500Y-107107501D02*
X123668500Y-106207499D01*
G75*
G02*
X123918499Y-105957500I249999J0D01*
G01*
X124443501Y-105957500D01*
G75*
G02*
X124693500Y-106207499I0J-249999D01*
G01*
X124693500Y-107107501D01*
G75*
G02*
X124443501Y-107357500I-249999J0D01*
G01*
X123918499Y-107357500D01*
G75*
G02*
X123668500Y-107107501I0J249999D01*
G01*
G37*
%TD.AperFunction*%
%TO.P,R3,1*%
%TO.N,Net-(J1-Pad7)*%
%TA.AperFunction,SMDPad,CuDef*%
G36*
G01*
X121843500Y-107107501D02*
X121843500Y-106207499D01*
G75*
G02*
X122093499Y-105957500I249999J0D01*
G01*
X122618501Y-105957500D01*
G75*
G02*
X122868500Y-106207499I0J-249999D01*
G01*
X122868500Y-107107501D01*
G75*
G02*
X122618501Y-107357500I-249999J0D01*
G01*
X122093499Y-107357500D01*
G75*
G02*
X121843500Y-107107501I0J249999D01*
G01*
G37*
%TD.AperFunction*%
%TD*%
%TO.P,R4,2*%
%TO.N,Net-(D2-Pad2)*%
%TA.AperFunction,SMDPad,CuDef*%
G36*
G01*
X116423501Y-100438000D02*
X115523499Y-100438000D01*
G75*
G02*
X115273500Y-100188001I0J249999D01*
G01*
X115273500Y-99662999D01*
G75*
G02*
X115523499Y-99413000I249999J0D01*
G01*
X116423501Y-99413000D01*
G75*
G02*
X116673500Y-99662999I0J-249999D01*
G01*
X116673500Y-100188001D01*
G75*
G02*
X116423501Y-100438000I-249999J0D01*
G01*
G37*
%TD.AperFunction*%
%TO.P,R4,1*%
%TO.N,VCC*%
%TA.AperFunction,SMDPad,CuDef*%
G36*
G01*
X116423501Y-102263000D02*
X115523499Y-102263000D01*
G75*
G02*
X115273500Y-102013001I0J249999D01*
G01*
X115273500Y-101487999D01*
G75*
G02*
X115523499Y-101238000I249999J0D01*
G01*
X116423501Y-101238000D01*
G75*
G02*
X116673500Y-101487999I0J-249999D01*
G01*
X116673500Y-102013001D01*
G75*
G02*
X116423501Y-102263000I-249999J0D01*
G01*
G37*
%TD.AperFunction*%
%TD*%
D10*
%TO.P,SW1,2*%
%TO.N,/button_input*%
X112522000Y-109148000D03*
%TO.P,SW1,1*%
%TO.N,VCC*%
X112522000Y-104648000D03*
%TO.P,SW1,2*%
%TO.N,/button_input*%
X119022000Y-109148000D03*
%TO.P,SW1,1*%
%TO.N,VCC*%
X119022000Y-104648000D03*
%TD*%
D11*
%TO.P,U1,1*%
%TO.N,VCC*%
X128778000Y-109220000D03*
D12*
%TO.P,U1,2*%
%TO.N,Net-(J1-Pad11)*%
X128778000Y-106680000D03*
%TO.P,U1,3*%
%TO.N,Net-(U1-Pad3)*%
X128778000Y-104140000D03*
%TO.P,U1,4*%
%TO.N,GND*%
X128778000Y-101600000D03*
%TD*%
D13*
%TO.P,J1,1*%
%TO.N,VCC*%
X112395000Y-97028000D03*
D14*
%TO.P,J1,2*%
%TO.N,Net-(J1-Pad2)*%
X112395000Y-94488000D03*
%TO.P,J1,3*%
%TO.N,Net-(J1-Pad3)*%
X114935000Y-97028000D03*
%TO.P,J1,4*%
%TO.N,Net-(J1-Pad4)*%
X114935000Y-94488000D03*
%TO.P,J1,5*%
%TO.N,Net-(J1-Pad5)*%
X117475000Y-97028000D03*
%TO.P,J1,6*%
%TO.N,GND*%
X117475000Y-94488000D03*
%TO.P,J1,7*%
%TO.N,Net-(J1-Pad7)*%
X120015000Y-97028000D03*
%TO.P,J1,8*%
%TO.N,/button_input*%
X120015000Y-94488000D03*
%TO.P,J1,9*%
%TO.N,GND*%
X122555000Y-97028000D03*
%TO.P,J1,10*%
%TO.N,Net-(J1-Pad10)*%
X122555000Y-94488000D03*
%TO.P,J1,11*%
%TO.N,Net-(J1-Pad11)*%
X125095000Y-97028000D03*
%TO.P,J1,12*%
%TO.N,Net-(J1-Pad12)*%
X125095000Y-94488000D03*
%TO.P,J1,13*%
%TO.N,Net-(J1-Pad13)*%
X127635000Y-97028000D03*
%TO.P,J1,14*%
%TO.N,Net-(J1-Pad14)*%
X127635000Y-94488000D03*
%TO.P,J1,15*%
%TO.N,Net-(J1-Pad15)*%
X130175000Y-97028000D03*
%TO.P,J1,16*%
%TO.N,Net-(J1-Pad16)*%
X130175000Y-94488000D03*
%TD*%
D15*
%TO.N,GND*%
X124206000Y-102235000D03*
D16*
%TO.N,Net-(J1-Pad7)*%
X120269000Y-107823000D03*
%TO.N,/button_input*%
X120269000Y-99568000D03*
X120396000Y-102997000D03*
%TD*%
D17*
%TO.N,GND*%
X122331000Y-109220000D02*
X122331000Y-109190000D01*
X124181000Y-102260000D02*
X124206000Y-102235000D01*
X124181000Y-104140000D02*
X124181000Y-102260000D01*
X124181000Y-104140000D02*
X124714000Y-104140000D01*
X124714000Y-104140000D02*
X125730000Y-105156000D01*
X125730000Y-105156000D02*
X125730000Y-110236000D01*
X111506000Y-101219000D02*
X112062500Y-101775500D01*
X112062500Y-101775500D02*
X113030000Y-101775500D01*
X122331000Y-109220000D02*
X122331000Y-109758000D01*
X122331000Y-109758000D02*
X123063000Y-110490000D01*
X125476000Y-110490000D02*
X125730000Y-110236000D01*
X123063000Y-110490000D02*
X125476000Y-110490000D01*
X111506000Y-101219000D02*
X111506000Y-99314000D01*
X111506000Y-99314000D02*
X110617000Y-98425000D01*
X110617000Y-98425000D02*
X110617000Y-93599000D01*
X110617000Y-93599000D02*
X111252000Y-92964000D01*
X111252000Y-92964000D02*
X116840000Y-92964000D01*
X117475000Y-93599000D02*
X117475000Y-94488000D01*
X116840000Y-92964000D02*
X117475000Y-93599000D01*
%TO.N,Net-(D1-Pad2)*%
X124206000Y-106682500D02*
X124181000Y-106657500D01*
X124206000Y-109220000D02*
X124206000Y-106682500D01*
%TO.N,Net-(D2-Pad2)*%
X115948500Y-99900500D02*
X115973500Y-99925500D01*
X113030000Y-99900500D02*
X115948500Y-99900500D01*
%TO.N,VCC*%
X115973500Y-101750500D02*
X116308500Y-101750500D01*
X118133500Y-99925500D02*
X118872000Y-99925500D01*
X116308500Y-101750500D02*
X118133500Y-99925500D01*
X112522000Y-104648000D02*
X113284000Y-104648000D01*
X112522000Y-104648000D02*
X115189000Y-104648000D01*
X115973500Y-103863500D02*
X115973500Y-101750500D01*
X115189000Y-104648000D02*
X115973500Y-103863500D01*
X116758000Y-104648000D02*
X115973500Y-103863500D01*
X119022000Y-104648000D02*
X116758000Y-104648000D01*
X112395000Y-97028000D02*
X112522000Y-97028000D01*
X112395000Y-97028000D02*
X112395000Y-97409000D01*
X112395000Y-97409000D02*
X113919000Y-98933000D01*
X117879500Y-98933000D02*
X118872000Y-99925500D01*
X113919000Y-98933000D02*
X117879500Y-98933000D01*
%TO.N,Net-(J1-Pad7)*%
X120269000Y-107823000D02*
X120396000Y-107823000D01*
X120396000Y-107823000D02*
X121031000Y-107188000D01*
X121031000Y-110490000D02*
X121031000Y-107188000D01*
X130302000Y-103632000D02*
X130302000Y-110617000D01*
X130302000Y-110617000D02*
X129794000Y-111125000D01*
X121666000Y-111125000D02*
X121031000Y-110490000D01*
X129794000Y-111125000D02*
X121666000Y-111125000D01*
X131572000Y-102362000D02*
X130302000Y-103632000D01*
X121561500Y-106657500D02*
X122356000Y-106657500D01*
X121031000Y-107188000D02*
X121561500Y-106657500D01*
D18*
%TO.N,/button_input*%
X112522000Y-109148000D02*
X119022000Y-109148000D01*
X119022000Y-109148000D02*
X119022000Y-107927000D01*
X119022000Y-107927000D02*
X120904000Y-106045000D01*
X120904000Y-106045000D02*
X120904000Y-104521000D01*
X121285000Y-104140000D02*
X122356000Y-104140000D01*
X120904000Y-104521000D02*
X121285000Y-104140000D01*
D17*
X120015000Y-94488000D02*
X120142000Y-94488000D01*
X120142000Y-94488000D02*
X118745000Y-95885000D01*
X118745000Y-95885000D02*
X118745000Y-97917000D01*
X118745000Y-97917000D02*
X120269000Y-99441000D01*
X120269000Y-99441000D02*
X120269000Y-99568000D01*
X120396000Y-102997000D02*
X120523000Y-102997000D01*
X120396000Y-103251000D02*
X121285000Y-104140000D01*
X120396000Y-102997000D02*
X120396000Y-103251000D01*
%TO.N,Net-(J1-Pad11)*%
X128778000Y-106680000D02*
X128778000Y-106426000D01*
X128778000Y-106680000D02*
X128778000Y-106299000D01*
X128778000Y-106299000D02*
X126365000Y-103886000D01*
X121562500Y-101750500D02*
X118872000Y-101750500D01*
X124460000Y-100711000D02*
X122809000Y-100711000D01*
X121769500Y-101750500D02*
X121562500Y-101750500D01*
X122809000Y-100711000D02*
X121769500Y-101750500D01*
X126365000Y-102616000D02*
X124460000Y-100711000D01*
X126365000Y-103886000D02*
X126365000Y-102616000D01*
X125095000Y-100076000D02*
X124460000Y-100711000D01*
X125095000Y-97028000D02*
X125095000Y-100076000D01*
%TD*%
D19*
%TO.N,GND*%
X131674001Y-101583249D02*
X131571999Y-101573203D01*
X131418112Y-101588359D01*
X131270140Y-101633247D01*
X131133767Y-101706139D01*
X131044187Y-101779655D01*
X129774190Y-103049653D01*
X129744236Y-103074236D01*
X129711189Y-103114504D01*
X129660886Y-103064201D01*
X129434043Y-102912629D01*
X129334721Y-102871489D01*
X129376832Y-102856277D01*
X129489863Y-102795860D01*
X129555388Y-102556993D01*
X128778000Y-101779605D01*
X128000612Y-102556993D01*
X128066137Y-102795860D01*
X128224477Y-102870164D01*
X128121957Y-102912629D01*
X127895114Y-103064201D01*
X127702201Y-103257114D01*
X127550629Y-103483957D01*
X127446225Y-103736011D01*
X127426140Y-103836983D01*
X127150000Y-103560843D01*
X127150000Y-102654556D01*
X127153797Y-102616000D01*
X127150000Y-102577444D01*
X127150000Y-102577439D01*
X127145869Y-102535500D01*
X127138642Y-102462113D01*
X127093754Y-102314140D01*
X127066419Y-102263000D01*
X127020862Y-102177767D01*
X126922764Y-102058236D01*
X126892810Y-102033653D01*
X126531649Y-101672492D01*
X127388188Y-101672492D01*
X127429035Y-101942238D01*
X127521723Y-102198832D01*
X127582140Y-102311863D01*
X127821007Y-102377388D01*
X128598395Y-101600000D01*
X128957605Y-101600000D01*
X129734993Y-102377388D01*
X129973860Y-102311863D01*
X130089760Y-102064884D01*
X130155250Y-101800040D01*
X130167812Y-101527508D01*
X130126965Y-101257762D01*
X130034277Y-101001168D01*
X129973860Y-100888137D01*
X129734993Y-100822612D01*
X128957605Y-101600000D01*
X128598395Y-101600000D01*
X127821007Y-100822612D01*
X127582140Y-100888137D01*
X127466240Y-101135116D01*
X127400750Y-101399960D01*
X127388188Y-101672492D01*
X126531649Y-101672492D01*
X125570157Y-100711000D01*
X125622810Y-100658347D01*
X125641501Y-100643007D01*
X128000612Y-100643007D01*
X128778000Y-101420395D01*
X129555388Y-100643007D01*
X129489863Y-100404140D01*
X129242884Y-100288240D01*
X128978040Y-100222750D01*
X128705508Y-100210188D01*
X128435762Y-100251035D01*
X128179168Y-100343723D01*
X128066137Y-100404140D01*
X128000612Y-100643007D01*
X125641501Y-100643007D01*
X125652764Y-100633764D01*
X125750862Y-100514233D01*
X125823754Y-100377860D01*
X125830143Y-100356798D01*
X125868642Y-100229887D01*
X125876785Y-100147201D01*
X125880000Y-100114561D01*
X125880000Y-100114556D01*
X125883797Y-100076000D01*
X125880000Y-100037444D01*
X125880000Y-98289474D01*
X126041632Y-98181475D01*
X126248475Y-97974632D01*
X126365000Y-97800240D01*
X126481525Y-97974632D01*
X126688368Y-98181475D01*
X126931589Y-98343990D01*
X127201842Y-98455932D01*
X127488740Y-98513000D01*
X127781260Y-98513000D01*
X128068158Y-98455932D01*
X128338411Y-98343990D01*
X128581632Y-98181475D01*
X128788475Y-97974632D01*
X128905000Y-97800240D01*
X129021525Y-97974632D01*
X129228368Y-98181475D01*
X129471589Y-98343990D01*
X129741842Y-98455932D01*
X130028740Y-98513000D01*
X130321260Y-98513000D01*
X130608158Y-98455932D01*
X130878411Y-98343990D01*
X131121632Y-98181475D01*
X131328475Y-97974632D01*
X131490990Y-97731411D01*
X131602932Y-97461158D01*
X131660000Y-97174260D01*
X131660000Y-96881740D01*
X131602932Y-96594842D01*
X131490990Y-96324589D01*
X131328475Y-96081368D01*
X131121632Y-95874525D01*
X130947240Y-95758000D01*
X131121632Y-95641475D01*
X131328475Y-95434632D01*
X131490990Y-95191411D01*
X131602932Y-94921158D01*
X131660000Y-94634260D01*
X131660000Y-94341740D01*
X131602932Y-94054842D01*
X131490990Y-93784589D01*
X131328475Y-93541368D01*
X131121632Y-93334525D01*
X130878411Y-93172010D01*
X130608158Y-93060068D01*
X130321260Y-93003000D01*
X130028740Y-93003000D01*
X129741842Y-93060068D01*
X129471589Y-93172010D01*
X129228368Y-93334525D01*
X129021525Y-93541368D01*
X128905000Y-93715760D01*
X128788475Y-93541368D01*
X128581632Y-93334525D01*
X128338411Y-93172010D01*
X128068158Y-93060068D01*
X127781260Y-93003000D01*
X127488740Y-93003000D01*
X127201842Y-93060068D01*
X126931589Y-93172010D01*
X126688368Y-93334525D01*
X126481525Y-93541368D01*
X126365000Y-93715760D01*
X126248475Y-93541368D01*
X126041632Y-93334525D01*
X125798411Y-93172010D01*
X125528158Y-93060068D01*
X125241260Y-93003000D01*
X124948740Y-93003000D01*
X124661842Y-93060068D01*
X124391589Y-93172010D01*
X124148368Y-93334525D01*
X123941525Y-93541368D01*
X123825000Y-93715760D01*
X123708475Y-93541368D01*
X123501632Y-93334525D01*
X123258411Y-93172010D01*
X122988158Y-93060068D01*
X122701260Y-93003000D01*
X122408740Y-93003000D01*
X122121842Y-93060068D01*
X121851589Y-93172010D01*
X121608368Y-93334525D01*
X121401525Y-93541368D01*
X121285000Y-93715760D01*
X121168475Y-93541368D01*
X120961632Y-93334525D01*
X120718411Y-93172010D01*
X120448158Y-93060068D01*
X120161260Y-93003000D01*
X119868740Y-93003000D01*
X119581842Y-93060068D01*
X119311589Y-93172010D01*
X119068368Y-93334525D01*
X118861525Y-93541368D01*
X118739805Y-93723534D01*
X118670178Y-93606645D01*
X118475269Y-93390412D01*
X118241920Y-93216359D01*
X117979099Y-93091175D01*
X117831890Y-93046524D01*
X117602000Y-93167845D01*
X117602000Y-94361000D01*
X117622000Y-94361000D01*
X117622000Y-94615000D01*
X117602000Y-94615000D01*
X117602000Y-94635000D01*
X117348000Y-94635000D01*
X117348000Y-94615000D01*
X117328000Y-94615000D01*
X117328000Y-94361000D01*
X117348000Y-94361000D01*
X117348000Y-93167845D01*
X117118110Y-93046524D01*
X116970901Y-93091175D01*
X116708080Y-93216359D01*
X116474731Y-93390412D01*
X116279822Y-93606645D01*
X116210195Y-93723534D01*
X116088475Y-93541368D01*
X115881632Y-93334525D01*
X115638411Y-93172010D01*
X115368158Y-93060068D01*
X115081260Y-93003000D01*
X114788740Y-93003000D01*
X114501842Y-93060068D01*
X114231589Y-93172010D01*
X113988368Y-93334525D01*
X113781525Y-93541368D01*
X113665000Y-93715760D01*
X113548475Y-93541368D01*
X113341632Y-93334525D01*
X113098411Y-93172010D01*
X112828158Y-93060068D01*
X112541260Y-93003000D01*
X112248740Y-93003000D01*
X111961842Y-93060068D01*
X111691589Y-93172010D01*
X111448368Y-93334525D01*
X111241525Y-93541368D01*
X111079010Y-93784589D01*
X110967068Y-94054842D01*
X110910000Y-94341740D01*
X110910000Y-94634260D01*
X110967068Y-94921158D01*
X111079010Y-95191411D01*
X111241525Y-95434632D01*
X111373380Y-95566487D01*
X111300820Y-95588498D01*
X111190506Y-95647463D01*
X111093815Y-95726815D01*
X111014463Y-95823506D01*
X110955498Y-95933820D01*
X110919188Y-96053518D01*
X110906928Y-96178000D01*
X110906928Y-97878000D01*
X110919188Y-98002482D01*
X110955498Y-98122180D01*
X111014463Y-98232494D01*
X111093815Y-98329185D01*
X111190506Y-98408537D01*
X111300820Y-98467502D01*
X111420518Y-98503812D01*
X111545000Y-98516072D01*
X112391915Y-98516072D01*
X112650770Y-98774928D01*
X112573750Y-98774928D01*
X112401715Y-98791872D01*
X112236291Y-98842053D01*
X112083836Y-98923542D01*
X111950208Y-99033208D01*
X111840542Y-99166836D01*
X111759053Y-99319291D01*
X111708872Y-99484715D01*
X111691928Y-99656750D01*
X111691928Y-100144250D01*
X111708872Y-100316285D01*
X111759053Y-100481709D01*
X111840542Y-100634164D01*
X111950208Y-100767792D01*
X111956564Y-100773008D01*
X111878815Y-100836815D01*
X111799463Y-100933506D01*
X111740498Y-101043820D01*
X111704188Y-101163518D01*
X111691928Y-101288000D01*
X111695000Y-101489750D01*
X111853750Y-101648500D01*
X112903000Y-101648500D01*
X112903000Y-101628500D01*
X113157000Y-101628500D01*
X113157000Y-101648500D01*
X114206250Y-101648500D01*
X114365000Y-101489750D01*
X114368072Y-101288000D01*
X114355812Y-101163518D01*
X114319502Y-101043820D01*
X114260537Y-100933506D01*
X114181185Y-100836815D01*
X114103436Y-100773008D01*
X114109792Y-100767792D01*
X114177328Y-100685500D01*
X114788470Y-100685500D01*
X114895538Y-100815962D01*
X114922391Y-100838000D01*
X114895538Y-100860038D01*
X114785095Y-100994613D01*
X114703028Y-101148149D01*
X114652492Y-101314745D01*
X114635428Y-101487999D01*
X114635428Y-102013001D01*
X114652492Y-102186255D01*
X114703028Y-102352851D01*
X114785095Y-102506387D01*
X114895538Y-102640962D01*
X115030113Y-102751405D01*
X115183649Y-102833472D01*
X115188500Y-102834944D01*
X115188500Y-103538343D01*
X114863843Y-103863000D01*
X113963877Y-103863000D01*
X113791987Y-103605748D01*
X113564252Y-103378013D01*
X113296463Y-103199082D01*
X112998912Y-103075832D01*
X112683033Y-103013000D01*
X112360967Y-103013000D01*
X112045088Y-103075832D01*
X111747537Y-103199082D01*
X111479748Y-103378013D01*
X111252013Y-103605748D01*
X111073082Y-103873537D01*
X110949832Y-104171088D01*
X110887000Y-104486967D01*
X110887000Y-104809033D01*
X110949832Y-105124912D01*
X111073082Y-105422463D01*
X111252013Y-105690252D01*
X111479748Y-105917987D01*
X111747537Y-106096918D01*
X112045088Y-106220168D01*
X112360967Y-106283000D01*
X112683033Y-106283000D01*
X112998912Y-106220168D01*
X113296463Y-106096918D01*
X113564252Y-105917987D01*
X113791987Y-105690252D01*
X113963877Y-105433000D01*
X115150447Y-105433000D01*
X115189000Y-105436797D01*
X115227553Y-105433000D01*
X115227561Y-105433000D01*
X115342887Y-105421641D01*
X115490860Y-105376754D01*
X115627233Y-105303862D01*
X115746764Y-105205764D01*
X115771347Y-105175810D01*
X115973500Y-104973657D01*
X116175653Y-105175810D01*
X116200236Y-105205764D01*
X116319767Y-105303862D01*
X116444509Y-105370537D01*
X116456140Y-105376754D01*
X116604113Y-105421642D01*
X116679026Y-105429020D01*
X116719439Y-105433000D01*
X116719444Y-105433000D01*
X116758000Y-105436797D01*
X116796556Y-105433000D01*
X117580123Y-105433000D01*
X117752013Y-105690252D01*
X117979748Y-105917987D01*
X118247537Y-106096918D01*
X118545088Y-106220168D01*
X118860967Y-106283000D01*
X119183033Y-106283000D01*
X119498912Y-106220168D01*
X119763716Y-106110482D01*
X118510998Y-107363201D01*
X118482000Y-107386999D01*
X118458202Y-107415997D01*
X118458201Y-107415998D01*
X118387026Y-107502724D01*
X118316454Y-107634754D01*
X118304041Y-107675677D01*
X118247537Y-107699082D01*
X117979748Y-107878013D01*
X117752013Y-108105748D01*
X117573082Y-108373537D01*
X117567091Y-108388000D01*
X113976909Y-108388000D01*
X113970918Y-108373537D01*
X113791987Y-108105748D01*
X113564252Y-107878013D01*
X113296463Y-107699082D01*
X112998912Y-107575832D01*
X112683033Y-107513000D01*
X112360967Y-107513000D01*
X112045088Y-107575832D01*
X111747537Y-107699082D01*
X111479748Y-107878013D01*
X111252013Y-108105748D01*
X111073082Y-108373537D01*
X110949832Y-108671088D01*
X110887000Y-108986967D01*
X110887000Y-109309033D01*
X110949832Y-109624912D01*
X111073082Y-109922463D01*
X111252013Y-110190252D01*
X111479748Y-110417987D01*
X111747537Y-110596918D01*
X112045088Y-110720168D01*
X112360967Y-110783000D01*
X112683033Y-110783000D01*
X112998912Y-110720168D01*
X113296463Y-110596918D01*
X113564252Y-110417987D01*
X113791987Y-110190252D01*
X113970918Y-109922463D01*
X113976909Y-109908000D01*
X117567091Y-109908000D01*
X117573082Y-109922463D01*
X117752013Y-110190252D01*
X117979748Y-110417987D01*
X118247537Y-110596918D01*
X118545088Y-110720168D01*
X118860967Y-110783000D01*
X119183033Y-110783000D01*
X119498912Y-110720168D01*
X119796463Y-110596918D01*
X120064252Y-110417987D01*
X120246000Y-110236239D01*
X120246000Y-110451447D01*
X120242203Y-110490000D01*
X120246000Y-110528553D01*
X120246000Y-110528560D01*
X120257359Y-110643886D01*
X120302246Y-110791859D01*
X120375138Y-110928232D01*
X120473236Y-111047764D01*
X120503190Y-111072347D01*
X120784843Y-111354000D01*
X110642000Y-111354000D01*
X110642000Y-102263000D01*
X111691928Y-102263000D01*
X111704188Y-102387482D01*
X111740498Y-102507180D01*
X111799463Y-102617494D01*
X111878815Y-102714185D01*
X111975506Y-102793537D01*
X112085820Y-102852502D01*
X112205518Y-102888812D01*
X112330000Y-102901072D01*
X112744250Y-102898000D01*
X112903000Y-102739250D01*
X112903000Y-101902500D01*
X113157000Y-101902500D01*
X113157000Y-102739250D01*
X113315750Y-102898000D01*
X113730000Y-102901072D01*
X113854482Y-102888812D01*
X113974180Y-102852502D01*
X114084494Y-102793537D01*
X114181185Y-102714185D01*
X114260537Y-102617494D01*
X114319502Y-102507180D01*
X114355812Y-102387482D01*
X114368072Y-102263000D01*
X114365000Y-102061250D01*
X114206250Y-101902500D01*
X113157000Y-101902500D01*
X112903000Y-101902500D01*
X111853750Y-101902500D01*
X111695000Y-102061250D01*
X111691928Y-102263000D01*
X110642000Y-102263000D01*
X110642000Y-99535581D01*
X110639251Y-99507668D01*
X110639272Y-99504633D01*
X110638372Y-99495462D01*
X110633238Y-99446616D01*
X110632450Y-99438617D01*
X110632369Y-99438350D01*
X110628008Y-99396860D01*
X110615984Y-99338286D01*
X110604771Y-99279504D01*
X110602107Y-99270683D01*
X110572789Y-99175973D01*
X110549636Y-99120895D01*
X110527202Y-99065368D01*
X110522875Y-99057232D01*
X110475720Y-98970020D01*
X110442270Y-98920429D01*
X110409514Y-98870371D01*
X110403689Y-98863230D01*
X110340493Y-98786838D01*
X110298058Y-98744699D01*
X110256195Y-98701949D01*
X110249094Y-98696075D01*
X110172263Y-98633413D01*
X110122467Y-98600329D01*
X110073079Y-98566512D01*
X110064973Y-98562130D01*
X109977434Y-98515585D01*
X109922159Y-98492803D01*
X109867149Y-98469225D01*
X109858346Y-98466500D01*
X109763432Y-98437844D01*
X109704752Y-98426225D01*
X109646242Y-98413788D01*
X109637077Y-98412825D01*
X109538406Y-98403150D01*
X109538402Y-98403150D01*
X109506419Y-98400000D01*
X105562000Y-98400000D01*
X105562000Y-97539658D01*
X105582229Y-97559887D01*
X105962174Y-97813758D01*
X106384346Y-97988628D01*
X106832522Y-98077776D01*
X107289478Y-98077776D01*
X107737654Y-97988628D01*
X108159826Y-97813758D01*
X108539771Y-97559887D01*
X108862887Y-97236771D01*
X109116758Y-96856826D01*
X109291628Y-96434654D01*
X109380776Y-95986478D01*
X109380776Y-95529522D01*
X109291628Y-95081346D01*
X109116758Y-94659174D01*
X108862887Y-94279229D01*
X108539771Y-93956113D01*
X108159826Y-93702242D01*
X107737654Y-93527372D01*
X107289478Y-93438224D01*
X106832522Y-93438224D01*
X106384346Y-93527372D01*
X105962174Y-93702242D01*
X105582229Y-93956113D01*
X105562000Y-93976342D01*
X105562000Y-92862000D01*
X131674001Y-92862000D01*
X131674001Y-101583249D01*
%TA.AperFunction,Conductor*%
D20*
G36*
X131674001Y-101583249D02*
G01*
X131571999Y-101573203D01*
X131418112Y-101588359D01*
X131270140Y-101633247D01*
X131133767Y-101706139D01*
X131044187Y-101779655D01*
X129774190Y-103049653D01*
X129744236Y-103074236D01*
X129711189Y-103114504D01*
X129660886Y-103064201D01*
X129434043Y-102912629D01*
X129334721Y-102871489D01*
X129376832Y-102856277D01*
X129489863Y-102795860D01*
X129555388Y-102556993D01*
X128778000Y-101779605D01*
X128000612Y-102556993D01*
X128066137Y-102795860D01*
X128224477Y-102870164D01*
X128121957Y-102912629D01*
X127895114Y-103064201D01*
X127702201Y-103257114D01*
X127550629Y-103483957D01*
X127446225Y-103736011D01*
X127426140Y-103836983D01*
X127150000Y-103560843D01*
X127150000Y-102654556D01*
X127153797Y-102616000D01*
X127150000Y-102577444D01*
X127150000Y-102577439D01*
X127145869Y-102535500D01*
X127138642Y-102462113D01*
X127093754Y-102314140D01*
X127066419Y-102263000D01*
X127020862Y-102177767D01*
X126922764Y-102058236D01*
X126892810Y-102033653D01*
X126531649Y-101672492D01*
X127388188Y-101672492D01*
X127429035Y-101942238D01*
X127521723Y-102198832D01*
X127582140Y-102311863D01*
X127821007Y-102377388D01*
X128598395Y-101600000D01*
X128957605Y-101600000D01*
X129734993Y-102377388D01*
X129973860Y-102311863D01*
X130089760Y-102064884D01*
X130155250Y-101800040D01*
X130167812Y-101527508D01*
X130126965Y-101257762D01*
X130034277Y-101001168D01*
X129973860Y-100888137D01*
X129734993Y-100822612D01*
X128957605Y-101600000D01*
X128598395Y-101600000D01*
X127821007Y-100822612D01*
X127582140Y-100888137D01*
X127466240Y-101135116D01*
X127400750Y-101399960D01*
X127388188Y-101672492D01*
X126531649Y-101672492D01*
X125570157Y-100711000D01*
X125622810Y-100658347D01*
X125641501Y-100643007D01*
X128000612Y-100643007D01*
X128778000Y-101420395D01*
X129555388Y-100643007D01*
X129489863Y-100404140D01*
X129242884Y-100288240D01*
X128978040Y-100222750D01*
X128705508Y-100210188D01*
X128435762Y-100251035D01*
X128179168Y-100343723D01*
X128066137Y-100404140D01*
X128000612Y-100643007D01*
X125641501Y-100643007D01*
X125652764Y-100633764D01*
X125750862Y-100514233D01*
X125823754Y-100377860D01*
X125830143Y-100356798D01*
X125868642Y-100229887D01*
X125876785Y-100147201D01*
X125880000Y-100114561D01*
X125880000Y-100114556D01*
X125883797Y-100076000D01*
X125880000Y-100037444D01*
X125880000Y-98289474D01*
X126041632Y-98181475D01*
X126248475Y-97974632D01*
X126365000Y-97800240D01*
X126481525Y-97974632D01*
X126688368Y-98181475D01*
X126931589Y-98343990D01*
X127201842Y-98455932D01*
X127488740Y-98513000D01*
X127781260Y-98513000D01*
X128068158Y-98455932D01*
X128338411Y-98343990D01*
X128581632Y-98181475D01*
X128788475Y-97974632D01*
X128905000Y-97800240D01*
X129021525Y-97974632D01*
X129228368Y-98181475D01*
X129471589Y-98343990D01*
X129741842Y-98455932D01*
X130028740Y-98513000D01*
X130321260Y-98513000D01*
X130608158Y-98455932D01*
X130878411Y-98343990D01*
X131121632Y-98181475D01*
X131328475Y-97974632D01*
X131490990Y-97731411D01*
X131602932Y-97461158D01*
X131660000Y-97174260D01*
X131660000Y-96881740D01*
X131602932Y-96594842D01*
X131490990Y-96324589D01*
X131328475Y-96081368D01*
X131121632Y-95874525D01*
X130947240Y-95758000D01*
X131121632Y-95641475D01*
X131328475Y-95434632D01*
X131490990Y-95191411D01*
X131602932Y-94921158D01*
X131660000Y-94634260D01*
X131660000Y-94341740D01*
X131602932Y-94054842D01*
X131490990Y-93784589D01*
X131328475Y-93541368D01*
X131121632Y-93334525D01*
X130878411Y-93172010D01*
X130608158Y-93060068D01*
X130321260Y-93003000D01*
X130028740Y-93003000D01*
X129741842Y-93060068D01*
X129471589Y-93172010D01*
X129228368Y-93334525D01*
X129021525Y-93541368D01*
X128905000Y-93715760D01*
X128788475Y-93541368D01*
X128581632Y-93334525D01*
X128338411Y-93172010D01*
X128068158Y-93060068D01*
X127781260Y-93003000D01*
X127488740Y-93003000D01*
X127201842Y-93060068D01*
X126931589Y-93172010D01*
X126688368Y-93334525D01*
X126481525Y-93541368D01*
X126365000Y-93715760D01*
X126248475Y-93541368D01*
X126041632Y-93334525D01*
X125798411Y-93172010D01*
X125528158Y-93060068D01*
X125241260Y-93003000D01*
X124948740Y-93003000D01*
X124661842Y-93060068D01*
X124391589Y-93172010D01*
X124148368Y-93334525D01*
X123941525Y-93541368D01*
X123825000Y-93715760D01*
X123708475Y-93541368D01*
X123501632Y-93334525D01*
X123258411Y-93172010D01*
X122988158Y-93060068D01*
X122701260Y-93003000D01*
X122408740Y-93003000D01*
X122121842Y-93060068D01*
X121851589Y-93172010D01*
X121608368Y-93334525D01*
X121401525Y-93541368D01*
X121285000Y-93715760D01*
X121168475Y-93541368D01*
X120961632Y-93334525D01*
X120718411Y-93172010D01*
X120448158Y-93060068D01*
X120161260Y-93003000D01*
X119868740Y-93003000D01*
X119581842Y-93060068D01*
X119311589Y-93172010D01*
X119068368Y-93334525D01*
X118861525Y-93541368D01*
X118739805Y-93723534D01*
X118670178Y-93606645D01*
X118475269Y-93390412D01*
X118241920Y-93216359D01*
X117979099Y-93091175D01*
X117831890Y-93046524D01*
X117602000Y-93167845D01*
X117602000Y-94361000D01*
X117622000Y-94361000D01*
X117622000Y-94615000D01*
X117602000Y-94615000D01*
X117602000Y-94635000D01*
X117348000Y-94635000D01*
X117348000Y-94615000D01*
X117328000Y-94615000D01*
X117328000Y-94361000D01*
X117348000Y-94361000D01*
X117348000Y-93167845D01*
X117118110Y-93046524D01*
X116970901Y-93091175D01*
X116708080Y-93216359D01*
X116474731Y-93390412D01*
X116279822Y-93606645D01*
X116210195Y-93723534D01*
X116088475Y-93541368D01*
X115881632Y-93334525D01*
X115638411Y-93172010D01*
X115368158Y-93060068D01*
X115081260Y-93003000D01*
X114788740Y-93003000D01*
X114501842Y-93060068D01*
X114231589Y-93172010D01*
X113988368Y-93334525D01*
X113781525Y-93541368D01*
X113665000Y-93715760D01*
X113548475Y-93541368D01*
X113341632Y-93334525D01*
X113098411Y-93172010D01*
X112828158Y-93060068D01*
X112541260Y-93003000D01*
X112248740Y-93003000D01*
X111961842Y-93060068D01*
X111691589Y-93172010D01*
X111448368Y-93334525D01*
X111241525Y-93541368D01*
X111079010Y-93784589D01*
X110967068Y-94054842D01*
X110910000Y-94341740D01*
X110910000Y-94634260D01*
X110967068Y-94921158D01*
X111079010Y-95191411D01*
X111241525Y-95434632D01*
X111373380Y-95566487D01*
X111300820Y-95588498D01*
X111190506Y-95647463D01*
X111093815Y-95726815D01*
X111014463Y-95823506D01*
X110955498Y-95933820D01*
X110919188Y-96053518D01*
X110906928Y-96178000D01*
X110906928Y-97878000D01*
X110919188Y-98002482D01*
X110955498Y-98122180D01*
X111014463Y-98232494D01*
X111093815Y-98329185D01*
X111190506Y-98408537D01*
X111300820Y-98467502D01*
X111420518Y-98503812D01*
X111545000Y-98516072D01*
X112391915Y-98516072D01*
X112650770Y-98774928D01*
X112573750Y-98774928D01*
X112401715Y-98791872D01*
X112236291Y-98842053D01*
X112083836Y-98923542D01*
X111950208Y-99033208D01*
X111840542Y-99166836D01*
X111759053Y-99319291D01*
X111708872Y-99484715D01*
X111691928Y-99656750D01*
X111691928Y-100144250D01*
X111708872Y-100316285D01*
X111759053Y-100481709D01*
X111840542Y-100634164D01*
X111950208Y-100767792D01*
X111956564Y-100773008D01*
X111878815Y-100836815D01*
X111799463Y-100933506D01*
X111740498Y-101043820D01*
X111704188Y-101163518D01*
X111691928Y-101288000D01*
X111695000Y-101489750D01*
X111853750Y-101648500D01*
X112903000Y-101648500D01*
X112903000Y-101628500D01*
X113157000Y-101628500D01*
X113157000Y-101648500D01*
X114206250Y-101648500D01*
X114365000Y-101489750D01*
X114368072Y-101288000D01*
X114355812Y-101163518D01*
X114319502Y-101043820D01*
X114260537Y-100933506D01*
X114181185Y-100836815D01*
X114103436Y-100773008D01*
X114109792Y-100767792D01*
X114177328Y-100685500D01*
X114788470Y-100685500D01*
X114895538Y-100815962D01*
X114922391Y-100838000D01*
X114895538Y-100860038D01*
X114785095Y-100994613D01*
X114703028Y-101148149D01*
X114652492Y-101314745D01*
X114635428Y-101487999D01*
X114635428Y-102013001D01*
X114652492Y-102186255D01*
X114703028Y-102352851D01*
X114785095Y-102506387D01*
X114895538Y-102640962D01*
X115030113Y-102751405D01*
X115183649Y-102833472D01*
X115188500Y-102834944D01*
X115188500Y-103538343D01*
X114863843Y-103863000D01*
X113963877Y-103863000D01*
X113791987Y-103605748D01*
X113564252Y-103378013D01*
X113296463Y-103199082D01*
X112998912Y-103075832D01*
X112683033Y-103013000D01*
X112360967Y-103013000D01*
X112045088Y-103075832D01*
X111747537Y-103199082D01*
X111479748Y-103378013D01*
X111252013Y-103605748D01*
X111073082Y-103873537D01*
X110949832Y-104171088D01*
X110887000Y-104486967D01*
X110887000Y-104809033D01*
X110949832Y-105124912D01*
X111073082Y-105422463D01*
X111252013Y-105690252D01*
X111479748Y-105917987D01*
X111747537Y-106096918D01*
X112045088Y-106220168D01*
X112360967Y-106283000D01*
X112683033Y-106283000D01*
X112998912Y-106220168D01*
X113296463Y-106096918D01*
X113564252Y-105917987D01*
X113791987Y-105690252D01*
X113963877Y-105433000D01*
X115150447Y-105433000D01*
X115189000Y-105436797D01*
X115227553Y-105433000D01*
X115227561Y-105433000D01*
X115342887Y-105421641D01*
X115490860Y-105376754D01*
X115627233Y-105303862D01*
X115746764Y-105205764D01*
X115771347Y-105175810D01*
X115973500Y-104973657D01*
X116175653Y-105175810D01*
X116200236Y-105205764D01*
X116319767Y-105303862D01*
X116444509Y-105370537D01*
X116456140Y-105376754D01*
X116604113Y-105421642D01*
X116679026Y-105429020D01*
X116719439Y-105433000D01*
X116719444Y-105433000D01*
X116758000Y-105436797D01*
X116796556Y-105433000D01*
X117580123Y-105433000D01*
X117752013Y-105690252D01*
X117979748Y-105917987D01*
X118247537Y-106096918D01*
X118545088Y-106220168D01*
X118860967Y-106283000D01*
X119183033Y-106283000D01*
X119498912Y-106220168D01*
X119763716Y-106110482D01*
X118510998Y-107363201D01*
X118482000Y-107386999D01*
X118458202Y-107415997D01*
X118458201Y-107415998D01*
X118387026Y-107502724D01*
X118316454Y-107634754D01*
X118304041Y-107675677D01*
X118247537Y-107699082D01*
X117979748Y-107878013D01*
X117752013Y-108105748D01*
X117573082Y-108373537D01*
X117567091Y-108388000D01*
X113976909Y-108388000D01*
X113970918Y-108373537D01*
X113791987Y-108105748D01*
X113564252Y-107878013D01*
X113296463Y-107699082D01*
X112998912Y-107575832D01*
X112683033Y-107513000D01*
X112360967Y-107513000D01*
X112045088Y-107575832D01*
X111747537Y-107699082D01*
X111479748Y-107878013D01*
X111252013Y-108105748D01*
X111073082Y-108373537D01*
X110949832Y-108671088D01*
X110887000Y-108986967D01*
X110887000Y-109309033D01*
X110949832Y-109624912D01*
X111073082Y-109922463D01*
X111252013Y-110190252D01*
X111479748Y-110417987D01*
X111747537Y-110596918D01*
X112045088Y-110720168D01*
X112360967Y-110783000D01*
X112683033Y-110783000D01*
X112998912Y-110720168D01*
X113296463Y-110596918D01*
X113564252Y-110417987D01*
X113791987Y-110190252D01*
X113970918Y-109922463D01*
X113976909Y-109908000D01*
X117567091Y-109908000D01*
X117573082Y-109922463D01*
X117752013Y-110190252D01*
X117979748Y-110417987D01*
X118247537Y-110596918D01*
X118545088Y-110720168D01*
X118860967Y-110783000D01*
X119183033Y-110783000D01*
X119498912Y-110720168D01*
X119796463Y-110596918D01*
X120064252Y-110417987D01*
X120246000Y-110236239D01*
X120246000Y-110451447D01*
X120242203Y-110490000D01*
X120246000Y-110528553D01*
X120246000Y-110528560D01*
X120257359Y-110643886D01*
X120302246Y-110791859D01*
X120375138Y-110928232D01*
X120473236Y-111047764D01*
X120503190Y-111072347D01*
X120784843Y-111354000D01*
X110642000Y-111354000D01*
X110642000Y-102263000D01*
X111691928Y-102263000D01*
X111704188Y-102387482D01*
X111740498Y-102507180D01*
X111799463Y-102617494D01*
X111878815Y-102714185D01*
X111975506Y-102793537D01*
X112085820Y-102852502D01*
X112205518Y-102888812D01*
X112330000Y-102901072D01*
X112744250Y-102898000D01*
X112903000Y-102739250D01*
X112903000Y-101902500D01*
X113157000Y-101902500D01*
X113157000Y-102739250D01*
X113315750Y-102898000D01*
X113730000Y-102901072D01*
X113854482Y-102888812D01*
X113974180Y-102852502D01*
X114084494Y-102793537D01*
X114181185Y-102714185D01*
X114260537Y-102617494D01*
X114319502Y-102507180D01*
X114355812Y-102387482D01*
X114368072Y-102263000D01*
X114365000Y-102061250D01*
X114206250Y-101902500D01*
X113157000Y-101902500D01*
X112903000Y-101902500D01*
X111853750Y-101902500D01*
X111695000Y-102061250D01*
X111691928Y-102263000D01*
X110642000Y-102263000D01*
X110642000Y-99535581D01*
X110639251Y-99507668D01*
X110639272Y-99504633D01*
X110638372Y-99495462D01*
X110633238Y-99446616D01*
X110632450Y-99438617D01*
X110632369Y-99438350D01*
X110628008Y-99396860D01*
X110615984Y-99338286D01*
X110604771Y-99279504D01*
X110602107Y-99270683D01*
X110572789Y-99175973D01*
X110549636Y-99120895D01*
X110527202Y-99065368D01*
X110522875Y-99057232D01*
X110475720Y-98970020D01*
X110442270Y-98920429D01*
X110409514Y-98870371D01*
X110403689Y-98863230D01*
X110340493Y-98786838D01*
X110298058Y-98744699D01*
X110256195Y-98701949D01*
X110249094Y-98696075D01*
X110172263Y-98633413D01*
X110122467Y-98600329D01*
X110073079Y-98566512D01*
X110064973Y-98562130D01*
X109977434Y-98515585D01*
X109922159Y-98492803D01*
X109867149Y-98469225D01*
X109858346Y-98466500D01*
X109763432Y-98437844D01*
X109704752Y-98426225D01*
X109646242Y-98413788D01*
X109637077Y-98412825D01*
X109538406Y-98403150D01*
X109538402Y-98403150D01*
X109506419Y-98400000D01*
X105562000Y-98400000D01*
X105562000Y-97539658D01*
X105582229Y-97559887D01*
X105962174Y-97813758D01*
X106384346Y-97988628D01*
X106832522Y-98077776D01*
X107289478Y-98077776D01*
X107737654Y-97988628D01*
X108159826Y-97813758D01*
X108539771Y-97559887D01*
X108862887Y-97236771D01*
X109116758Y-96856826D01*
X109291628Y-96434654D01*
X109380776Y-95986478D01*
X109380776Y-95529522D01*
X109291628Y-95081346D01*
X109116758Y-94659174D01*
X108862887Y-94279229D01*
X108539771Y-93956113D01*
X108159826Y-93702242D01*
X107737654Y-93527372D01*
X107289478Y-93438224D01*
X106832522Y-93438224D01*
X106384346Y-93527372D01*
X105962174Y-93702242D01*
X105582229Y-93956113D01*
X105562000Y-93976342D01*
X105562000Y-92862000D01*
X131674001Y-92862000D01*
X131674001Y-101583249D01*
G37*
%TD.AperFunction*%
D19*
X125580001Y-102941158D02*
X125580000Y-103847447D01*
X125576203Y-103886000D01*
X125580000Y-103924553D01*
X125580000Y-103924560D01*
X125591359Y-104039886D01*
X125636246Y-104187859D01*
X125709138Y-104324232D01*
X125807236Y-104443764D01*
X125837190Y-104468347D01*
X127504402Y-106135560D01*
X127446225Y-106276011D01*
X127393000Y-106543589D01*
X127393000Y-106816411D01*
X127446225Y-107083989D01*
X127550629Y-107336043D01*
X127702201Y-107562886D01*
X127895114Y-107755799D01*
X128011483Y-107833555D01*
X127903518Y-107844188D01*
X127783820Y-107880498D01*
X127673506Y-107939463D01*
X127576815Y-108018815D01*
X127497463Y-108115506D01*
X127438498Y-108225820D01*
X127402188Y-108345518D01*
X127389928Y-108470000D01*
X127389928Y-109970000D01*
X127402188Y-110094482D01*
X127438498Y-110214180D01*
X127497463Y-110324494D01*
X127510188Y-110340000D01*
X125024299Y-110340000D01*
X125073292Y-110299792D01*
X125182958Y-110166164D01*
X125264447Y-110013709D01*
X125314628Y-109848285D01*
X125331572Y-109676250D01*
X125331572Y-108763750D01*
X125314628Y-108591715D01*
X125264447Y-108426291D01*
X125182958Y-108273836D01*
X125073292Y-108140208D01*
X124991000Y-108072672D01*
X124991000Y-107801496D01*
X125071462Y-107735462D01*
X125181905Y-107600887D01*
X125263972Y-107447351D01*
X125314508Y-107280755D01*
X125331572Y-107107501D01*
X125331572Y-106207499D01*
X125314508Y-106034245D01*
X125263972Y-105867649D01*
X125181905Y-105714113D01*
X125071462Y-105579538D01*
X124936887Y-105469095D01*
X124889919Y-105443990D01*
X124937680Y-105429502D01*
X125047994Y-105370537D01*
X125144685Y-105291185D01*
X125224037Y-105194494D01*
X125283002Y-105084180D01*
X125319312Y-104964482D01*
X125331572Y-104840000D01*
X125328500Y-104425750D01*
X125169750Y-104267000D01*
X124308000Y-104267000D01*
X124308000Y-104287000D01*
X124054000Y-104287000D01*
X124054000Y-104267000D01*
X124034000Y-104267000D01*
X124034000Y-104013000D01*
X124054000Y-104013000D01*
X124054000Y-102963750D01*
X124308000Y-102963750D01*
X124308000Y-104013000D01*
X125169750Y-104013000D01*
X125328500Y-103854250D01*
X125331572Y-103440000D01*
X125319312Y-103315518D01*
X125283002Y-103195820D01*
X125224037Y-103085506D01*
X125144685Y-102988815D01*
X125047994Y-102909463D01*
X124937680Y-102850498D01*
X124817982Y-102814188D01*
X124693500Y-102801928D01*
X124466750Y-102805000D01*
X124308000Y-102963750D01*
X124054000Y-102963750D01*
X123895250Y-102805000D01*
X123668500Y-102801928D01*
X123544018Y-102814188D01*
X123424320Y-102850498D01*
X123314006Y-102909463D01*
X123217315Y-102988815D01*
X123193137Y-103018276D01*
X123111887Y-102951595D01*
X122958351Y-102869528D01*
X122791755Y-102818992D01*
X122618501Y-102801928D01*
X122093499Y-102801928D01*
X121920245Y-102818992D01*
X121753649Y-102869528D01*
X121600113Y-102951595D01*
X121465538Y-103062038D01*
X121429639Y-103105781D01*
X121431000Y-103098939D01*
X121431000Y-102895061D01*
X121391226Y-102695102D01*
X121325116Y-102535500D01*
X121730947Y-102535500D01*
X121769500Y-102539297D01*
X121808053Y-102535500D01*
X121808061Y-102535500D01*
X121923387Y-102524141D01*
X122071360Y-102479254D01*
X122207733Y-102406362D01*
X122327264Y-102308264D01*
X122351847Y-102278310D01*
X123134158Y-101496000D01*
X124134843Y-101496000D01*
X125580001Y-102941158D01*
%TA.AperFunction,Conductor*%
D20*
G36*
X125580001Y-102941158D02*
G01*
X125580000Y-103847447D01*
X125576203Y-103886000D01*
X125580000Y-103924553D01*
X125580000Y-103924560D01*
X125591359Y-104039886D01*
X125636246Y-104187859D01*
X125709138Y-104324232D01*
X125807236Y-104443764D01*
X125837190Y-104468347D01*
X127504402Y-106135560D01*
X127446225Y-106276011D01*
X127393000Y-106543589D01*
X127393000Y-106816411D01*
X127446225Y-107083989D01*
X127550629Y-107336043D01*
X127702201Y-107562886D01*
X127895114Y-107755799D01*
X128011483Y-107833555D01*
X127903518Y-107844188D01*
X127783820Y-107880498D01*
X127673506Y-107939463D01*
X127576815Y-108018815D01*
X127497463Y-108115506D01*
X127438498Y-108225820D01*
X127402188Y-108345518D01*
X127389928Y-108470000D01*
X127389928Y-109970000D01*
X127402188Y-110094482D01*
X127438498Y-110214180D01*
X127497463Y-110324494D01*
X127510188Y-110340000D01*
X125024299Y-110340000D01*
X125073292Y-110299792D01*
X125182958Y-110166164D01*
X125264447Y-110013709D01*
X125314628Y-109848285D01*
X125331572Y-109676250D01*
X125331572Y-108763750D01*
X125314628Y-108591715D01*
X125264447Y-108426291D01*
X125182958Y-108273836D01*
X125073292Y-108140208D01*
X124991000Y-108072672D01*
X124991000Y-107801496D01*
X125071462Y-107735462D01*
X125181905Y-107600887D01*
X125263972Y-107447351D01*
X125314508Y-107280755D01*
X125331572Y-107107501D01*
X125331572Y-106207499D01*
X125314508Y-106034245D01*
X125263972Y-105867649D01*
X125181905Y-105714113D01*
X125071462Y-105579538D01*
X124936887Y-105469095D01*
X124889919Y-105443990D01*
X124937680Y-105429502D01*
X125047994Y-105370537D01*
X125144685Y-105291185D01*
X125224037Y-105194494D01*
X125283002Y-105084180D01*
X125319312Y-104964482D01*
X125331572Y-104840000D01*
X125328500Y-104425750D01*
X125169750Y-104267000D01*
X124308000Y-104267000D01*
X124308000Y-104287000D01*
X124054000Y-104287000D01*
X124054000Y-104267000D01*
X124034000Y-104267000D01*
X124034000Y-104013000D01*
X124054000Y-104013000D01*
X124054000Y-102963750D01*
X124308000Y-102963750D01*
X124308000Y-104013000D01*
X125169750Y-104013000D01*
X125328500Y-103854250D01*
X125331572Y-103440000D01*
X125319312Y-103315518D01*
X125283002Y-103195820D01*
X125224037Y-103085506D01*
X125144685Y-102988815D01*
X125047994Y-102909463D01*
X124937680Y-102850498D01*
X124817982Y-102814188D01*
X124693500Y-102801928D01*
X124466750Y-102805000D01*
X124308000Y-102963750D01*
X124054000Y-102963750D01*
X123895250Y-102805000D01*
X123668500Y-102801928D01*
X123544018Y-102814188D01*
X123424320Y-102850498D01*
X123314006Y-102909463D01*
X123217315Y-102988815D01*
X123193137Y-103018276D01*
X123111887Y-102951595D01*
X122958351Y-102869528D01*
X122791755Y-102818992D01*
X122618501Y-102801928D01*
X122093499Y-102801928D01*
X121920245Y-102818992D01*
X121753649Y-102869528D01*
X121600113Y-102951595D01*
X121465538Y-103062038D01*
X121429639Y-103105781D01*
X121431000Y-103098939D01*
X121431000Y-102895061D01*
X121391226Y-102695102D01*
X121325116Y-102535500D01*
X121730947Y-102535500D01*
X121769500Y-102539297D01*
X121808053Y-102535500D01*
X121808061Y-102535500D01*
X121923387Y-102524141D01*
X122071360Y-102479254D01*
X122207733Y-102406362D01*
X122327264Y-102308264D01*
X122351847Y-102278310D01*
X123134158Y-101496000D01*
X124134843Y-101496000D01*
X125580001Y-102941158D01*
G37*
%TD.AperFunction*%
D19*
X122458000Y-109093000D02*
X122478000Y-109093000D01*
X122478000Y-109347000D01*
X122458000Y-109347000D01*
X122458000Y-109367000D01*
X122204000Y-109367000D01*
X122204000Y-109347000D01*
X122184000Y-109347000D01*
X122184000Y-109093000D01*
X122204000Y-109093000D01*
X122204000Y-109073000D01*
X122458000Y-109073000D01*
X122458000Y-109093000D01*
%TA.AperFunction,Conductor*%
D20*
G36*
X122458000Y-109093000D02*
G01*
X122478000Y-109093000D01*
X122478000Y-109347000D01*
X122458000Y-109347000D01*
X122458000Y-109367000D01*
X122204000Y-109367000D01*
X122204000Y-109347000D01*
X122184000Y-109347000D01*
X122184000Y-109093000D01*
X122204000Y-109093000D01*
X122204000Y-109073000D01*
X122458000Y-109073000D01*
X122458000Y-109093000D01*
G37*
%TD.AperFunction*%
D19*
X122682000Y-96901000D02*
X122702000Y-96901000D01*
X122702000Y-97155000D01*
X122682000Y-97155000D01*
X122682000Y-98348155D01*
X122911890Y-98469476D01*
X123059099Y-98424825D01*
X123321920Y-98299641D01*
X123555269Y-98125588D01*
X123750178Y-97909355D01*
X123819805Y-97792466D01*
X123941525Y-97974632D01*
X124148368Y-98181475D01*
X124310000Y-98289474D01*
X124310001Y-99750842D01*
X124134843Y-99926000D01*
X122847553Y-99926000D01*
X122809000Y-99922203D01*
X122770447Y-99926000D01*
X122770439Y-99926000D01*
X122655113Y-99937359D01*
X122507140Y-99982246D01*
X122370767Y-100055138D01*
X122319928Y-100096861D01*
X122281187Y-100128655D01*
X122281184Y-100128658D01*
X122251236Y-100153236D01*
X122226657Y-100183185D01*
X121444343Y-100965500D01*
X120036513Y-100965500D01*
X119949962Y-100860038D01*
X119923109Y-100838000D01*
X119949962Y-100815962D01*
X120060405Y-100681387D01*
X120108527Y-100591357D01*
X120167061Y-100603000D01*
X120370939Y-100603000D01*
X120570898Y-100563226D01*
X120759256Y-100485205D01*
X120928774Y-100371937D01*
X121072937Y-100227774D01*
X121186205Y-100058256D01*
X121264226Y-99869898D01*
X121304000Y-99669939D01*
X121304000Y-99466061D01*
X121264226Y-99266102D01*
X121186205Y-99077744D01*
X121072937Y-98908226D01*
X120928774Y-98764063D01*
X120759256Y-98650795D01*
X120570898Y-98572774D01*
X120496042Y-98557884D01*
X120403060Y-98464903D01*
X120448158Y-98455932D01*
X120718411Y-98343990D01*
X120961632Y-98181475D01*
X121168475Y-97974632D01*
X121290195Y-97792466D01*
X121359822Y-97909355D01*
X121554731Y-98125588D01*
X121788080Y-98299641D01*
X122050901Y-98424825D01*
X122198110Y-98469476D01*
X122428000Y-98348155D01*
X122428000Y-97155000D01*
X122408000Y-97155000D01*
X122408000Y-96901000D01*
X122428000Y-96901000D01*
X122428000Y-96881000D01*
X122682000Y-96881000D01*
X122682000Y-96901000D01*
%TA.AperFunction,Conductor*%
D20*
G36*
X122682000Y-96901000D02*
G01*
X122702000Y-96901000D01*
X122702000Y-97155000D01*
X122682000Y-97155000D01*
X122682000Y-98348155D01*
X122911890Y-98469476D01*
X123059099Y-98424825D01*
X123321920Y-98299641D01*
X123555269Y-98125588D01*
X123750178Y-97909355D01*
X123819805Y-97792466D01*
X123941525Y-97974632D01*
X124148368Y-98181475D01*
X124310000Y-98289474D01*
X124310001Y-99750842D01*
X124134843Y-99926000D01*
X122847553Y-99926000D01*
X122809000Y-99922203D01*
X122770447Y-99926000D01*
X122770439Y-99926000D01*
X122655113Y-99937359D01*
X122507140Y-99982246D01*
X122370767Y-100055138D01*
X122319928Y-100096861D01*
X122281187Y-100128655D01*
X122281184Y-100128658D01*
X122251236Y-100153236D01*
X122226657Y-100183185D01*
X121444343Y-100965500D01*
X120036513Y-100965500D01*
X119949962Y-100860038D01*
X119923109Y-100838000D01*
X119949962Y-100815962D01*
X120060405Y-100681387D01*
X120108527Y-100591357D01*
X120167061Y-100603000D01*
X120370939Y-100603000D01*
X120570898Y-100563226D01*
X120759256Y-100485205D01*
X120928774Y-100371937D01*
X121072937Y-100227774D01*
X121186205Y-100058256D01*
X121264226Y-99869898D01*
X121304000Y-99669939D01*
X121304000Y-99466061D01*
X121264226Y-99266102D01*
X121186205Y-99077744D01*
X121072937Y-98908226D01*
X120928774Y-98764063D01*
X120759256Y-98650795D01*
X120570898Y-98572774D01*
X120496042Y-98557884D01*
X120403060Y-98464903D01*
X120448158Y-98455932D01*
X120718411Y-98343990D01*
X120961632Y-98181475D01*
X121168475Y-97974632D01*
X121290195Y-97792466D01*
X121359822Y-97909355D01*
X121554731Y-98125588D01*
X121788080Y-98299641D01*
X122050901Y-98424825D01*
X122198110Y-98469476D01*
X122428000Y-98348155D01*
X122428000Y-97155000D01*
X122408000Y-97155000D01*
X122408000Y-96901000D01*
X122428000Y-96901000D01*
X122428000Y-96881000D01*
X122682000Y-96881000D01*
X122682000Y-96901000D01*
G37*
%TD.AperFunction*%
%TD*%
M02*
