M48
; DRILL file {KiCad (5.1.8)-1} date 12/07/20 12:25:29
; FORMAT={-:-/ absolute / inch / decimal}
; #@! TF.CreationDate,2020-12-07T12:25:29-05:00
; #@! TF.GenerationSoftware,Kicad,Pcbnew,(5.1.8)-1
; #@! TF.FileFunction,Plated,1,2,PTH
FMAT,2
INCH
T1C0.0157
T2C0.0315
T3C0.0394
T4C0.0433
%
G90
G05
T1
X4.735Y-3.92
X4.735Y-4.245
X4.74Y-4.055
T2
X4.89Y-4.025
X5.07Y-4.0
X5.07Y-4.1
X5.07Y-4.2
X5.07Y-4.3
T3
X4.425Y-3.72
X4.425Y-3.82
X4.525Y-3.72
X4.525Y-3.82
X4.625Y-3.72
X4.625Y-3.82
X4.725Y-3.72
X4.725Y-3.82
X4.825Y-3.72
X4.825Y-3.82
X4.925Y-3.72
X4.925Y-3.82
X5.025Y-3.72
X5.025Y-3.82
X5.125Y-3.72
X5.125Y-3.82
T4
X4.43Y-4.12
X4.43Y-4.2972
X4.6859Y-4.12
X4.6859Y-4.2972
T0
M30
