%TF.GenerationSoftware,KiCad,Pcbnew,(5.1.8)-1*%
%TF.CreationDate,2020-12-06T17:51:36-05:00*%
%TF.ProjectId,Breadboar Power Supply v1,42726561-6462-46f6-9172-20506f776572,1.0*%
%TF.SameCoordinates,Original*%
%TF.FileFunction,Copper,L1,Top*%
%TF.FilePolarity,Positive*%
%FSLAX46Y46*%
G04 Gerber Fmt 4.6, Leading zero omitted, Abs format (unit mm)*
G04 Created by KiCad (PCBNEW (5.1.8)-1) date 2020-12-06 17:51:36*
%MOMM*%
%LPD*%
G01*
G04 APERTURE LIST*
%TA.AperFunction,ComponentPad*%
%ADD10R,2.000000X2.000000*%
%TD*%
%TA.AperFunction,ComponentPad*%
%ADD11C,2.000000*%
%TD*%
%TA.AperFunction,ComponentPad*%
%ADD12R,1.600000X1.600000*%
%TD*%
%TA.AperFunction,ComponentPad*%
%ADD13C,1.600000*%
%TD*%
%TA.AperFunction,ComponentPad*%
%ADD14R,2.200000X2.200000*%
%TD*%
%TA.AperFunction,ComponentPad*%
%ADD15O,2.200000X2.200000*%
%TD*%
%TA.AperFunction,ComponentPad*%
%ADD16C,1.800000*%
%TD*%
%TA.AperFunction,ComponentPad*%
%ADD17R,1.800000X1.800000*%
%TD*%
%TA.AperFunction,ComponentPad*%
%ADD18R,2.600000X2.600000*%
%TD*%
%TA.AperFunction,ComponentPad*%
%ADD19C,2.600000*%
%TD*%
%TA.AperFunction,ComponentPad*%
%ADD20R,1.700000X1.700000*%
%TD*%
%TA.AperFunction,ComponentPad*%
%ADD21O,1.700000X1.700000*%
%TD*%
%TA.AperFunction,ComponentPad*%
%ADD22O,1.600000X1.600000*%
%TD*%
%TA.AperFunction,ComponentPad*%
%ADD23R,1.900000X1.900000*%
%TD*%
%TA.AperFunction,ComponentPad*%
%ADD24C,1.900000*%
%TD*%
%TA.AperFunction,ComponentPad*%
%ADD25R,1.905000X2.000000*%
%TD*%
%TA.AperFunction,ComponentPad*%
%ADD26O,1.905000X2.000000*%
%TD*%
%TA.AperFunction,ViaPad*%
%ADD27C,1.000000*%
%TD*%
%TA.AperFunction,Conductor*%
%ADD28C,0.300000*%
%TD*%
%TA.AperFunction,Conductor*%
%ADD29C,0.254000*%
%TD*%
%TA.AperFunction,Conductor*%
%ADD30C,0.100000*%
%TD*%
G04 APERTURE END LIST*
D10*
%TO.P,C1,1*%
%TO.N,/Vin*%
X175387000Y-90297000D03*
D11*
%TO.P,C1,2*%
%TO.N,/GND*%
X180387000Y-90297000D03*
%TD*%
D12*
%TO.P,C2,1*%
%TO.N,/Vout1*%
X187071000Y-88392000D03*
D13*
%TO.P,C2,2*%
%TO.N,/GND*%
X189571000Y-88392000D03*
%TD*%
D14*
%TO.P,D1,1*%
%TO.N,/Vin*%
X174349001Y-115815333D03*
D15*
%TO.P,D1,2*%
%TO.N,Net-(D1-Pad2)*%
X184509001Y-115815333D03*
%TD*%
%TO.P,D2,2*%
%TO.N,/GND*%
X184509001Y-106908001D03*
D14*
%TO.P,D2,1*%
%TO.N,Net-(D1-Pad2)*%
X174349001Y-106908001D03*
%TD*%
D15*
%TO.P,D3,2*%
%TO.N,Net-(D3-Pad2)*%
X184509001Y-120269000D03*
D14*
%TO.P,D3,1*%
%TO.N,/Vin*%
X174349001Y-120269000D03*
%TD*%
%TO.P,D4,1*%
%TO.N,Net-(D3-Pad2)*%
X174349001Y-111361667D03*
D15*
%TO.P,D4,2*%
%TO.N,/GND*%
X184509001Y-111361667D03*
%TD*%
D16*
%TO.P,D5,2*%
%TO.N,Net-(D5-Pad2)*%
X193367000Y-120523000D03*
D17*
%TO.P,D5,1*%
%TO.N,/GND*%
X190827000Y-120523000D03*
%TD*%
%TO.P,D6,1*%
%TO.N,/GND*%
X190827000Y-99695000D03*
D16*
%TO.P,D6,2*%
%TO.N,Net-(D6-Pad2)*%
X193367000Y-99695000D03*
%TD*%
D18*
%TO.P,J1,1*%
%TO.N,Net-(D1-Pad2)*%
X186309000Y-129413000D03*
D19*
%TO.P,J1,2*%
%TO.N,Net-(D3-Pad2)*%
X180309000Y-129413000D03*
%TO.P,J1,3*%
%TO.N,Net-(J1-Pad3)*%
X183309000Y-134113000D03*
%TD*%
D20*
%TO.P,J2,1*%
%TO.N,/Vout2*%
X197585000Y-86213000D03*
D21*
%TO.P,J2,2*%
X200125000Y-86213000D03*
%TO.P,J2,3*%
%TO.N,/GND*%
X197585000Y-88753000D03*
%TO.P,J2,4*%
X200125000Y-88753000D03*
%TD*%
%TO.P,J3,4*%
%TO.N,/GND*%
X200125000Y-133747000D03*
%TO.P,J3,3*%
X197585000Y-133747000D03*
%TO.P,J3,2*%
%TO.N,/Vout2*%
X200125000Y-131207000D03*
D20*
%TO.P,J3,1*%
X197585000Y-131207000D03*
%TD*%
D22*
%TO.P,R1,2*%
%TO.N,/Vout1*%
X191516000Y-126365000D03*
D13*
%TO.P,R1,1*%
%TO.N,Net-(D5-Pad2)*%
X191516000Y-133985000D03*
%TD*%
%TO.P,R2,1*%
%TO.N,/Vout2*%
X186055000Y-102616000D03*
D22*
%TO.P,R2,2*%
%TO.N,Net-(D6-Pad2)*%
X186055000Y-94996000D03*
%TD*%
D23*
%TO.P,SW1,1*%
%TO.N,/Vout2*%
X192102000Y-112454000D03*
D24*
%TO.P,SW1,2*%
%TO.N,/Vout1*%
X192102000Y-109954000D03*
%TO.P,SW1,3*%
%TO.N,Net-(SW1-Pad3)*%
X192102000Y-107454000D03*
%TD*%
D25*
%TO.P,U1,1*%
%TO.N,/Vin*%
X175709001Y-101346000D03*
D26*
%TO.P,U1,2*%
%TO.N,/GND*%
X178249001Y-101346000D03*
%TO.P,U1,3*%
%TO.N,/Vout1*%
X180789001Y-101346000D03*
%TD*%
D27*
%TO.N,/Vout1*%
X188849000Y-117475000D03*
%TD*%
D28*
%TO.N,/Vin*%
X175387000Y-101023999D02*
X175709001Y-101346000D01*
X175387000Y-90297000D02*
X175387000Y-101023999D01*
X175709001Y-101346000D02*
X175709001Y-103700001D01*
X175709001Y-103700001D02*
X176911000Y-104902000D01*
X176911000Y-113253334D02*
X174349001Y-115815333D01*
X176911000Y-104902000D02*
X176911000Y-113253334D01*
X174349001Y-115815333D02*
X174349001Y-120269000D01*
%TO.N,/Vout1*%
X180789001Y-101346000D02*
X181483000Y-101346000D01*
X181483000Y-101346000D02*
X184785000Y-104648000D01*
X184785000Y-104648000D02*
X187071000Y-104648000D01*
X187071000Y-104648000D02*
X189103000Y-106680000D01*
X189103000Y-106680000D02*
X189103000Y-109220000D01*
X189837000Y-109954000D02*
X192102000Y-109954000D01*
X189103000Y-109220000D02*
X189837000Y-109954000D01*
X180789001Y-101346000D02*
X180789001Y-95181999D01*
X187071000Y-88900000D02*
X187071000Y-88392000D01*
X180789001Y-95181999D02*
X187071000Y-88900000D01*
X188849000Y-110942000D02*
X189837000Y-109954000D01*
X188849000Y-117475000D02*
X188849000Y-110942000D01*
%TO.N,Net-(D5-Pad2)*%
X193367000Y-122228000D02*
X193367000Y-120523000D01*
X192659000Y-122936000D02*
X193367000Y-122228000D01*
X191516000Y-122936000D02*
X192659000Y-122936000D01*
X190119000Y-124333000D02*
X191516000Y-122936000D01*
X190119000Y-129032000D02*
X190119000Y-124333000D01*
X191643000Y-130556000D02*
X190119000Y-129032000D01*
X191643000Y-133985000D02*
X191643000Y-130556000D01*
%TO.N,/Vout2*%
X192102000Y-112454000D02*
X192102000Y-115775000D01*
X192102000Y-115775000D02*
X194945000Y-118618000D01*
X197585000Y-131207000D02*
X196358000Y-131207000D01*
X194945000Y-129794000D02*
X194945000Y-118618000D01*
X196358000Y-131207000D02*
X194945000Y-129794000D01*
X197585000Y-86213000D02*
X194965000Y-86213000D01*
X194965000Y-86213000D02*
X192405000Y-88773000D01*
X192405000Y-88773000D02*
X192405000Y-92710000D01*
X186055000Y-99060000D02*
X186055000Y-102616000D01*
X192405000Y-92710000D02*
X186055000Y-99060000D01*
X186055000Y-102616000D02*
X188341000Y-102616000D01*
X188341000Y-102616000D02*
X190754000Y-105029000D01*
X190754000Y-105029000D02*
X193294000Y-105029000D01*
X193294000Y-105029000D02*
X194310000Y-106045000D01*
X194310000Y-106045000D02*
X194310000Y-111633000D01*
X193489000Y-112454000D02*
X192102000Y-112454000D01*
X194310000Y-111633000D02*
X193489000Y-112454000D01*
%TD*%
D29*
%TO.N,/GND*%
X201397001Y-85443754D02*
X201278475Y-85266368D01*
X201071632Y-85059525D01*
X200828411Y-84897010D01*
X200558158Y-84785068D01*
X200271260Y-84728000D01*
X199978740Y-84728000D01*
X199691842Y-84785068D01*
X199421589Y-84897010D01*
X199178368Y-85059525D01*
X199046513Y-85191380D01*
X199024502Y-85118820D01*
X198965537Y-85008506D01*
X198886185Y-84911815D01*
X198789494Y-84832463D01*
X198679180Y-84773498D01*
X198559482Y-84737188D01*
X198435000Y-84724928D01*
X196735000Y-84724928D01*
X196610518Y-84737188D01*
X196490820Y-84773498D01*
X196380506Y-84832463D01*
X196283815Y-84911815D01*
X196204463Y-85008506D01*
X196145498Y-85118820D01*
X196109188Y-85238518D01*
X196096928Y-85363000D01*
X196096928Y-85428000D01*
X195003556Y-85428000D01*
X194965000Y-85424203D01*
X194926444Y-85428000D01*
X194926439Y-85428000D01*
X194886026Y-85431980D01*
X194811113Y-85439358D01*
X194663140Y-85484246D01*
X194526767Y-85557138D01*
X194407236Y-85655236D01*
X194382653Y-85685190D01*
X191877190Y-88190653D01*
X191847236Y-88215236D01*
X191749138Y-88334768D01*
X191676246Y-88471141D01*
X191631359Y-88619114D01*
X191620000Y-88734440D01*
X191620000Y-88734447D01*
X191616203Y-88773000D01*
X191620000Y-88811553D01*
X191620001Y-92384841D01*
X185527190Y-98477653D01*
X185497236Y-98502236D01*
X185399138Y-98621768D01*
X185326246Y-98758141D01*
X185281359Y-98906114D01*
X185270000Y-99021440D01*
X185270000Y-99021447D01*
X185266203Y-99060000D01*
X185270000Y-99098553D01*
X185270001Y-101414661D01*
X185140241Y-101501363D01*
X184940363Y-101701241D01*
X184783320Y-101936273D01*
X184675147Y-102197426D01*
X184620000Y-102474665D01*
X184620000Y-102757335D01*
X184675147Y-103034574D01*
X184783320Y-103295727D01*
X184940363Y-103530759D01*
X185140241Y-103730637D01*
X185338337Y-103863000D01*
X185110158Y-103863000D01*
X182366540Y-101119383D01*
X182353531Y-100987296D01*
X182262756Y-100688051D01*
X182115346Y-100412265D01*
X181916964Y-100170537D01*
X181675235Y-99972155D01*
X181574001Y-99918045D01*
X181574001Y-95507156D01*
X182226492Y-94854665D01*
X184620000Y-94854665D01*
X184620000Y-95137335D01*
X184675147Y-95414574D01*
X184783320Y-95675727D01*
X184940363Y-95910759D01*
X185140241Y-96110637D01*
X185375273Y-96267680D01*
X185636426Y-96375853D01*
X185913665Y-96431000D01*
X186196335Y-96431000D01*
X186473574Y-96375853D01*
X186734727Y-96267680D01*
X186969759Y-96110637D01*
X187169637Y-95910759D01*
X187326680Y-95675727D01*
X187434853Y-95414574D01*
X187490000Y-95137335D01*
X187490000Y-94854665D01*
X187434853Y-94577426D01*
X187326680Y-94316273D01*
X187169637Y-94081241D01*
X186969759Y-93881363D01*
X186734727Y-93724320D01*
X186473574Y-93616147D01*
X186196335Y-93561000D01*
X185913665Y-93561000D01*
X185636426Y-93616147D01*
X185375273Y-93724320D01*
X185140241Y-93881363D01*
X184940363Y-94081241D01*
X184783320Y-94316273D01*
X184675147Y-94577426D01*
X184620000Y-94854665D01*
X182226492Y-94854665D01*
X187251086Y-89830072D01*
X187871000Y-89830072D01*
X187995482Y-89817812D01*
X188115180Y-89781502D01*
X188225494Y-89722537D01*
X188322185Y-89643185D01*
X188401537Y-89546494D01*
X188460502Y-89436180D01*
X188476117Y-89384702D01*
X188757903Y-89384702D01*
X188829486Y-89628671D01*
X189084996Y-89749571D01*
X189359184Y-89818300D01*
X189641512Y-89832217D01*
X189921130Y-89790787D01*
X190187292Y-89695603D01*
X190312514Y-89628671D01*
X190384097Y-89384702D01*
X189571000Y-88571605D01*
X188757903Y-89384702D01*
X188476117Y-89384702D01*
X188496812Y-89316482D01*
X188509072Y-89192000D01*
X188509072Y-89184785D01*
X188578298Y-89205097D01*
X189391395Y-88392000D01*
X189750605Y-88392000D01*
X190563702Y-89205097D01*
X190807671Y-89133514D01*
X190928571Y-88878004D01*
X190997300Y-88603816D01*
X191011217Y-88321488D01*
X190969787Y-88041870D01*
X190874603Y-87775708D01*
X190807671Y-87650486D01*
X190563702Y-87578903D01*
X189750605Y-88392000D01*
X189391395Y-88392000D01*
X188578298Y-87578903D01*
X188509072Y-87599215D01*
X188509072Y-87592000D01*
X188496812Y-87467518D01*
X188476118Y-87399298D01*
X188757903Y-87399298D01*
X189571000Y-88212395D01*
X190384097Y-87399298D01*
X190312514Y-87155329D01*
X190057004Y-87034429D01*
X189782816Y-86965700D01*
X189500488Y-86951783D01*
X189220870Y-86993213D01*
X188954708Y-87088397D01*
X188829486Y-87155329D01*
X188757903Y-87399298D01*
X188476118Y-87399298D01*
X188460502Y-87347820D01*
X188401537Y-87237506D01*
X188322185Y-87140815D01*
X188225494Y-87061463D01*
X188115180Y-87002498D01*
X187995482Y-86966188D01*
X187871000Y-86953928D01*
X186271000Y-86953928D01*
X186146518Y-86966188D01*
X186026820Y-87002498D01*
X185916506Y-87061463D01*
X185819815Y-87140815D01*
X185740463Y-87237506D01*
X185681498Y-87347820D01*
X185645188Y-87467518D01*
X185632928Y-87592000D01*
X185632928Y-89192000D01*
X185636148Y-89224694D01*
X180261186Y-94599657D01*
X180231238Y-94624235D01*
X180206660Y-94654183D01*
X180206656Y-94654187D01*
X180173691Y-94694355D01*
X180133140Y-94743766D01*
X180094178Y-94816659D01*
X180060247Y-94880140D01*
X180015360Y-95028113D01*
X180000204Y-95181999D01*
X180004002Y-95220562D01*
X180004001Y-99918044D01*
X179902766Y-99972155D01*
X179661038Y-100170537D01*
X179513839Y-100349900D01*
X179358438Y-100164685D01*
X179115924Y-99970031D01*
X178840095Y-99826429D01*
X178621981Y-99755437D01*
X178376001Y-99875406D01*
X178376001Y-101219000D01*
X178396001Y-101219000D01*
X178396001Y-101473000D01*
X178376001Y-101473000D01*
X178376001Y-102816594D01*
X178621981Y-102936563D01*
X178840095Y-102865571D01*
X179115924Y-102721969D01*
X179358438Y-102527315D01*
X179513838Y-102342101D01*
X179661038Y-102521463D01*
X179902767Y-102719845D01*
X180178553Y-102867255D01*
X180477798Y-102958030D01*
X180789001Y-102988681D01*
X181100205Y-102958030D01*
X181399450Y-102867255D01*
X181675236Y-102719845D01*
X181714480Y-102687638D01*
X184202658Y-105175816D01*
X184227236Y-105205764D01*
X184257184Y-105230342D01*
X184257187Y-105230345D01*
X184286559Y-105254450D01*
X184346767Y-105303862D01*
X184381999Y-105322694D01*
X184381999Y-105336400D01*
X184112878Y-105218822D01*
X183790947Y-105328559D01*
X183496610Y-105498993D01*
X183241179Y-105723574D01*
X183034470Y-105993672D01*
X182884426Y-106298907D01*
X182819826Y-106511879D01*
X182937876Y-106781001D01*
X184382001Y-106781001D01*
X184382001Y-106761001D01*
X184636001Y-106761001D01*
X184636001Y-106781001D01*
X186080126Y-106781001D01*
X186198176Y-106511879D01*
X186133576Y-106298907D01*
X185983532Y-105993672D01*
X185776823Y-105723574D01*
X185521392Y-105498993D01*
X185407423Y-105433000D01*
X186745843Y-105433000D01*
X188318000Y-107005158D01*
X188318001Y-109181437D01*
X188314203Y-109220000D01*
X188329359Y-109373886D01*
X188374246Y-109521859D01*
X188374247Y-109521860D01*
X188447139Y-109658233D01*
X188487690Y-109707644D01*
X188520655Y-109747812D01*
X188520659Y-109747816D01*
X188545237Y-109777764D01*
X188575185Y-109802342D01*
X188726843Y-109954000D01*
X188321185Y-110359658D01*
X188291237Y-110384236D01*
X188266659Y-110414184D01*
X188266655Y-110414188D01*
X188264900Y-110416327D01*
X188193139Y-110503767D01*
X188188865Y-110511764D01*
X188120246Y-110640141D01*
X188075359Y-110788114D01*
X188060203Y-110942000D01*
X188064001Y-110980563D01*
X188064000Y-116654868D01*
X187967388Y-116751480D01*
X187843176Y-116937376D01*
X187757617Y-117143933D01*
X187714000Y-117363212D01*
X187714000Y-117586788D01*
X187757617Y-117806067D01*
X187843176Y-118012624D01*
X187967388Y-118198520D01*
X188125480Y-118356612D01*
X188311376Y-118480824D01*
X188517933Y-118566383D01*
X188737212Y-118610000D01*
X188960788Y-118610000D01*
X189180067Y-118566383D01*
X189386624Y-118480824D01*
X189572520Y-118356612D01*
X189730612Y-118198520D01*
X189854824Y-118012624D01*
X189940383Y-117806067D01*
X189984000Y-117586788D01*
X189984000Y-117363212D01*
X189940383Y-117143933D01*
X189854824Y-116937376D01*
X189730612Y-116751480D01*
X189634000Y-116654868D01*
X189634000Y-111267157D01*
X190162158Y-110739000D01*
X190720257Y-110739000D01*
X190856021Y-110942186D01*
X190797506Y-110973463D01*
X190700815Y-111052815D01*
X190621463Y-111149506D01*
X190562498Y-111259820D01*
X190526188Y-111379518D01*
X190513928Y-111504000D01*
X190513928Y-113404000D01*
X190526188Y-113528482D01*
X190562498Y-113648180D01*
X190621463Y-113758494D01*
X190700815Y-113855185D01*
X190797506Y-113934537D01*
X190907820Y-113993502D01*
X191027518Y-114029812D01*
X191152000Y-114042072D01*
X191317000Y-114042072D01*
X191317001Y-115736437D01*
X191313203Y-115775000D01*
X191328359Y-115928886D01*
X191373246Y-116076859D01*
X191407177Y-116140340D01*
X191446139Y-116213233D01*
X191479239Y-116253565D01*
X191519655Y-116302812D01*
X191519659Y-116302816D01*
X191544237Y-116332764D01*
X191574185Y-116357342D01*
X194160001Y-118943159D01*
X194160001Y-119206738D01*
X194094095Y-119162701D01*
X193814743Y-119046989D01*
X193518184Y-118988000D01*
X193215816Y-118988000D01*
X192919257Y-119046989D01*
X192639905Y-119162701D01*
X192388495Y-119330688D01*
X192322056Y-119397127D01*
X192316502Y-119378820D01*
X192257537Y-119268506D01*
X192178185Y-119171815D01*
X192081494Y-119092463D01*
X191971180Y-119033498D01*
X191851482Y-118997188D01*
X191727000Y-118984928D01*
X191112750Y-118988000D01*
X190954000Y-119146750D01*
X190954000Y-120396000D01*
X190974000Y-120396000D01*
X190974000Y-120650000D01*
X190954000Y-120650000D01*
X190954000Y-121899250D01*
X191112750Y-122058000D01*
X191727000Y-122061072D01*
X191851482Y-122048812D01*
X191971180Y-122012502D01*
X192081494Y-121953537D01*
X192178185Y-121874185D01*
X192257537Y-121777494D01*
X192316502Y-121667180D01*
X192322056Y-121648873D01*
X192388495Y-121715312D01*
X192582000Y-121844608D01*
X192582000Y-121902842D01*
X192333843Y-122151000D01*
X191554552Y-122151000D01*
X191515999Y-122147203D01*
X191477446Y-122151000D01*
X191477439Y-122151000D01*
X191376490Y-122160943D01*
X191362112Y-122162359D01*
X191327672Y-122172806D01*
X191214140Y-122207246D01*
X191077767Y-122280138D01*
X191017559Y-122329550D01*
X190988187Y-122353655D01*
X190988184Y-122353658D01*
X190958236Y-122378236D01*
X190933658Y-122408184D01*
X189591185Y-123750658D01*
X189561237Y-123775236D01*
X189536659Y-123805184D01*
X189536655Y-123805188D01*
X189503690Y-123845356D01*
X189463139Y-123894767D01*
X189424177Y-123967660D01*
X189390246Y-124031141D01*
X189345359Y-124179114D01*
X189330203Y-124333000D01*
X189334001Y-124371563D01*
X189334000Y-128993447D01*
X189330203Y-129032000D01*
X189334000Y-129070553D01*
X189334000Y-129070560D01*
X189345359Y-129185886D01*
X189390246Y-129333859D01*
X189463138Y-129470232D01*
X189561236Y-129589764D01*
X189591190Y-129614347D01*
X190858001Y-130881159D01*
X190858000Y-132704320D01*
X190836273Y-132713320D01*
X190601241Y-132870363D01*
X190401363Y-133070241D01*
X190244320Y-133305273D01*
X190136147Y-133566426D01*
X190081000Y-133843665D01*
X190081000Y-134126335D01*
X190136147Y-134403574D01*
X190244320Y-134664727D01*
X190401363Y-134899759D01*
X190601241Y-135099637D01*
X190836273Y-135256680D01*
X191078467Y-135357000D01*
X184801504Y-135357000D01*
X184812013Y-135346491D01*
X185023775Y-135029566D01*
X185169639Y-134677419D01*
X185244000Y-134303581D01*
X185244000Y-133922419D01*
X185169639Y-133548581D01*
X185023775Y-133196434D01*
X184812013Y-132879509D01*
X184542491Y-132609987D01*
X184225566Y-132398225D01*
X183873419Y-132252361D01*
X183499581Y-132178000D01*
X183118419Y-132178000D01*
X182744581Y-132252361D01*
X182392434Y-132398225D01*
X182075509Y-132609987D01*
X181805987Y-132879509D01*
X181594225Y-133196434D01*
X181448361Y-133548581D01*
X181374000Y-133922419D01*
X181374000Y-134303581D01*
X181448361Y-134677419D01*
X181594225Y-135029566D01*
X181805987Y-135346491D01*
X181816496Y-135357000D01*
X172618000Y-135357000D01*
X172618000Y-129222419D01*
X178374000Y-129222419D01*
X178374000Y-129603581D01*
X178448361Y-129977419D01*
X178594225Y-130329566D01*
X178805987Y-130646491D01*
X179075509Y-130916013D01*
X179392434Y-131127775D01*
X179744581Y-131273639D01*
X180118419Y-131348000D01*
X180499581Y-131348000D01*
X180873419Y-131273639D01*
X181225566Y-131127775D01*
X181542491Y-130916013D01*
X181812013Y-130646491D01*
X182023775Y-130329566D01*
X182169639Y-129977419D01*
X182244000Y-129603581D01*
X182244000Y-129222419D01*
X182169639Y-128848581D01*
X182023775Y-128496434D01*
X181812013Y-128179509D01*
X181745504Y-128113000D01*
X184370928Y-128113000D01*
X184370928Y-130713000D01*
X184383188Y-130837482D01*
X184419498Y-130957180D01*
X184478463Y-131067494D01*
X184557815Y-131164185D01*
X184654506Y-131243537D01*
X184764820Y-131302502D01*
X184884518Y-131338812D01*
X185009000Y-131351072D01*
X187609000Y-131351072D01*
X187733482Y-131338812D01*
X187853180Y-131302502D01*
X187963494Y-131243537D01*
X188060185Y-131164185D01*
X188139537Y-131067494D01*
X188198502Y-130957180D01*
X188234812Y-130837482D01*
X188247072Y-130713000D01*
X188247072Y-128113000D01*
X188234812Y-127988518D01*
X188198502Y-127868820D01*
X188139537Y-127758506D01*
X188060185Y-127661815D01*
X187963494Y-127582463D01*
X187853180Y-127523498D01*
X187733482Y-127487188D01*
X187609000Y-127474928D01*
X185009000Y-127474928D01*
X184884518Y-127487188D01*
X184764820Y-127523498D01*
X184654506Y-127582463D01*
X184557815Y-127661815D01*
X184478463Y-127758506D01*
X184419498Y-127868820D01*
X184383188Y-127988518D01*
X184370928Y-128113000D01*
X181745504Y-128113000D01*
X181542491Y-127909987D01*
X181225566Y-127698225D01*
X180873419Y-127552361D01*
X180499581Y-127478000D01*
X180118419Y-127478000D01*
X179744581Y-127552361D01*
X179392434Y-127698225D01*
X179075509Y-127909987D01*
X178805987Y-128179509D01*
X178594225Y-128496434D01*
X178448361Y-128848581D01*
X178374000Y-129222419D01*
X172618000Y-129222419D01*
X172618000Y-121440795D01*
X172623189Y-121493482D01*
X172659499Y-121613180D01*
X172718464Y-121723494D01*
X172797816Y-121820185D01*
X172894507Y-121899537D01*
X173004821Y-121958502D01*
X173124519Y-121994812D01*
X173249001Y-122007072D01*
X175449001Y-122007072D01*
X175573483Y-121994812D01*
X175693181Y-121958502D01*
X175803495Y-121899537D01*
X175900186Y-121820185D01*
X175979538Y-121723494D01*
X176038503Y-121613180D01*
X176074813Y-121493482D01*
X176087073Y-121369000D01*
X176087073Y-120098117D01*
X182774001Y-120098117D01*
X182774001Y-120439883D01*
X182840676Y-120775081D01*
X182971464Y-121090831D01*
X183161338Y-121374998D01*
X183403003Y-121616663D01*
X183687170Y-121806537D01*
X184002920Y-121937325D01*
X184338118Y-122004000D01*
X184679884Y-122004000D01*
X185015082Y-121937325D01*
X185330832Y-121806537D01*
X185614999Y-121616663D01*
X185808662Y-121423000D01*
X189288928Y-121423000D01*
X189301188Y-121547482D01*
X189337498Y-121667180D01*
X189396463Y-121777494D01*
X189475815Y-121874185D01*
X189572506Y-121953537D01*
X189682820Y-122012502D01*
X189802518Y-122048812D01*
X189927000Y-122061072D01*
X190541250Y-122058000D01*
X190700000Y-121899250D01*
X190700000Y-120650000D01*
X189450750Y-120650000D01*
X189292000Y-120808750D01*
X189288928Y-121423000D01*
X185808662Y-121423000D01*
X185856664Y-121374998D01*
X186046538Y-121090831D01*
X186177326Y-120775081D01*
X186244001Y-120439883D01*
X186244001Y-120098117D01*
X186177326Y-119762919D01*
X186119370Y-119623000D01*
X189288928Y-119623000D01*
X189292000Y-120237250D01*
X189450750Y-120396000D01*
X190700000Y-120396000D01*
X190700000Y-119146750D01*
X190541250Y-118988000D01*
X189927000Y-118984928D01*
X189802518Y-118997188D01*
X189682820Y-119033498D01*
X189572506Y-119092463D01*
X189475815Y-119171815D01*
X189396463Y-119268506D01*
X189337498Y-119378820D01*
X189301188Y-119498518D01*
X189288928Y-119623000D01*
X186119370Y-119623000D01*
X186046538Y-119447169D01*
X185856664Y-119163002D01*
X185614999Y-118921337D01*
X185330832Y-118731463D01*
X185015082Y-118600675D01*
X184679884Y-118534000D01*
X184338118Y-118534000D01*
X184002920Y-118600675D01*
X183687170Y-118731463D01*
X183403003Y-118921337D01*
X183161338Y-119163002D01*
X182971464Y-119447169D01*
X182840676Y-119762919D01*
X182774001Y-120098117D01*
X176087073Y-120098117D01*
X176087073Y-119169000D01*
X176074813Y-119044518D01*
X176038503Y-118924820D01*
X175979538Y-118814506D01*
X175900186Y-118717815D01*
X175803495Y-118638463D01*
X175693181Y-118579498D01*
X175573483Y-118543188D01*
X175449001Y-118530928D01*
X175134001Y-118530928D01*
X175134001Y-117553405D01*
X175449001Y-117553405D01*
X175573483Y-117541145D01*
X175693181Y-117504835D01*
X175803495Y-117445870D01*
X175900186Y-117366518D01*
X175979538Y-117269827D01*
X176038503Y-117159513D01*
X176074813Y-117039815D01*
X176087073Y-116915333D01*
X176087073Y-115644450D01*
X182774001Y-115644450D01*
X182774001Y-115986216D01*
X182840676Y-116321414D01*
X182971464Y-116637164D01*
X183161338Y-116921331D01*
X183403003Y-117162996D01*
X183687170Y-117352870D01*
X184002920Y-117483658D01*
X184338118Y-117550333D01*
X184679884Y-117550333D01*
X185015082Y-117483658D01*
X185330832Y-117352870D01*
X185614999Y-117162996D01*
X185856664Y-116921331D01*
X186046538Y-116637164D01*
X186177326Y-116321414D01*
X186244001Y-115986216D01*
X186244001Y-115644450D01*
X186177326Y-115309252D01*
X186046538Y-114993502D01*
X185856664Y-114709335D01*
X185614999Y-114467670D01*
X185330832Y-114277796D01*
X185015082Y-114147008D01*
X184679884Y-114080333D01*
X184338118Y-114080333D01*
X184002920Y-114147008D01*
X183687170Y-114277796D01*
X183403003Y-114467670D01*
X183161338Y-114709335D01*
X182971464Y-114993502D01*
X182840676Y-115309252D01*
X182774001Y-115644450D01*
X176087073Y-115644450D01*
X176087073Y-115187418D01*
X177438810Y-113835681D01*
X177468764Y-113811098D01*
X177566862Y-113691567D01*
X177639754Y-113555194D01*
X177647857Y-113528482D01*
X177684642Y-113407221D01*
X177692020Y-113332308D01*
X177696000Y-113291895D01*
X177696000Y-113291890D01*
X177699797Y-113253334D01*
X177696000Y-113214778D01*
X177696000Y-111757789D01*
X182819826Y-111757789D01*
X182884426Y-111970761D01*
X183034470Y-112275996D01*
X183241179Y-112546094D01*
X183496610Y-112770675D01*
X183790947Y-112941109D01*
X184112878Y-113050846D01*
X184382001Y-112933267D01*
X184382001Y-111488667D01*
X184636001Y-111488667D01*
X184636001Y-112933267D01*
X184905124Y-113050846D01*
X185227055Y-112941109D01*
X185521392Y-112770675D01*
X185776823Y-112546094D01*
X185983532Y-112275996D01*
X186133576Y-111970761D01*
X186198176Y-111757789D01*
X186080126Y-111488667D01*
X184636001Y-111488667D01*
X184382001Y-111488667D01*
X182937876Y-111488667D01*
X182819826Y-111757789D01*
X177696000Y-111757789D01*
X177696000Y-110965545D01*
X182819826Y-110965545D01*
X182937876Y-111234667D01*
X184382001Y-111234667D01*
X184382001Y-109790067D01*
X184636001Y-109790067D01*
X184636001Y-111234667D01*
X186080126Y-111234667D01*
X186198176Y-110965545D01*
X186133576Y-110752573D01*
X185983532Y-110447338D01*
X185776823Y-110177240D01*
X185521392Y-109952659D01*
X185227055Y-109782225D01*
X184905124Y-109672488D01*
X184636001Y-109790067D01*
X184382001Y-109790067D01*
X184112878Y-109672488D01*
X183790947Y-109782225D01*
X183496610Y-109952659D01*
X183241179Y-110177240D01*
X183034470Y-110447338D01*
X182884426Y-110752573D01*
X182819826Y-110965545D01*
X177696000Y-110965545D01*
X177696000Y-107304123D01*
X182819826Y-107304123D01*
X182884426Y-107517095D01*
X183034470Y-107822330D01*
X183241179Y-108092428D01*
X183496610Y-108317009D01*
X183790947Y-108487443D01*
X184112878Y-108597180D01*
X184382001Y-108479601D01*
X184382001Y-107035001D01*
X184636001Y-107035001D01*
X184636001Y-108479601D01*
X184905124Y-108597180D01*
X185227055Y-108487443D01*
X185521392Y-108317009D01*
X185776823Y-108092428D01*
X185983532Y-107822330D01*
X186133576Y-107517095D01*
X186198176Y-107304123D01*
X186080126Y-107035001D01*
X184636001Y-107035001D01*
X184382001Y-107035001D01*
X182937876Y-107035001D01*
X182819826Y-107304123D01*
X177696000Y-107304123D01*
X177696000Y-104940552D01*
X177699797Y-104901999D01*
X177696000Y-104863446D01*
X177696000Y-104863439D01*
X177684641Y-104748113D01*
X177639754Y-104600140D01*
X177566862Y-104463767D01*
X177468764Y-104344236D01*
X177438817Y-104319659D01*
X176494001Y-103374844D01*
X176494001Y-102984072D01*
X176661501Y-102984072D01*
X176785983Y-102971812D01*
X176905681Y-102935502D01*
X177015995Y-102876537D01*
X177112686Y-102797185D01*
X177192038Y-102700494D01*
X177241060Y-102608781D01*
X177382078Y-102721969D01*
X177657907Y-102865571D01*
X177876021Y-102936563D01*
X178122001Y-102816594D01*
X178122001Y-101473000D01*
X178102001Y-101473000D01*
X178102001Y-101219000D01*
X178122001Y-101219000D01*
X178122001Y-99875406D01*
X177876021Y-99755437D01*
X177657907Y-99826429D01*
X177382078Y-99970031D01*
X177241060Y-100083219D01*
X177192038Y-99991506D01*
X177112686Y-99894815D01*
X177015995Y-99815463D01*
X176905681Y-99756498D01*
X176785983Y-99720188D01*
X176661501Y-99707928D01*
X176172000Y-99707928D01*
X176172000Y-91935072D01*
X176387000Y-91935072D01*
X176511482Y-91922812D01*
X176631180Y-91886502D01*
X176741494Y-91827537D01*
X176838185Y-91748185D01*
X176917537Y-91651494D01*
X176976502Y-91541180D01*
X177009496Y-91432413D01*
X179431192Y-91432413D01*
X179526956Y-91696814D01*
X179816571Y-91837704D01*
X180128108Y-91919384D01*
X180449595Y-91938718D01*
X180768675Y-91894961D01*
X181073088Y-91789795D01*
X181247044Y-91696814D01*
X181342808Y-91432413D01*
X180387000Y-90476605D01*
X179431192Y-91432413D01*
X177009496Y-91432413D01*
X177012812Y-91421482D01*
X177025072Y-91297000D01*
X177025072Y-90359595D01*
X178745282Y-90359595D01*
X178789039Y-90678675D01*
X178894205Y-90983088D01*
X178987186Y-91157044D01*
X179251587Y-91252808D01*
X180207395Y-90297000D01*
X180566605Y-90297000D01*
X181522413Y-91252808D01*
X181786814Y-91157044D01*
X181927704Y-90867429D01*
X182009384Y-90555892D01*
X182028718Y-90234405D01*
X181984961Y-89915325D01*
X181879795Y-89610912D01*
X181786814Y-89436956D01*
X181522413Y-89341192D01*
X180566605Y-90297000D01*
X180207395Y-90297000D01*
X179251587Y-89341192D01*
X178987186Y-89436956D01*
X178846296Y-89726571D01*
X178764616Y-90038108D01*
X178745282Y-90359595D01*
X177025072Y-90359595D01*
X177025072Y-89297000D01*
X177012812Y-89172518D01*
X177009497Y-89161587D01*
X179431192Y-89161587D01*
X180387000Y-90117395D01*
X181342808Y-89161587D01*
X181247044Y-88897186D01*
X180957429Y-88756296D01*
X180645892Y-88674616D01*
X180324405Y-88655282D01*
X180005325Y-88699039D01*
X179700912Y-88804205D01*
X179526956Y-88897186D01*
X179431192Y-89161587D01*
X177009497Y-89161587D01*
X176976502Y-89052820D01*
X176917537Y-88942506D01*
X176838185Y-88845815D01*
X176741494Y-88766463D01*
X176631180Y-88707498D01*
X176511482Y-88671188D01*
X176387000Y-88658928D01*
X174387000Y-88658928D01*
X174262518Y-88671188D01*
X174142820Y-88707498D01*
X174032506Y-88766463D01*
X173935815Y-88845815D01*
X173856463Y-88942506D01*
X173797498Y-89052820D01*
X173761188Y-89172518D01*
X173748928Y-89297000D01*
X173748928Y-91297000D01*
X173761188Y-91421482D01*
X173797498Y-91541180D01*
X173856463Y-91651494D01*
X173935815Y-91748185D01*
X174032506Y-91827537D01*
X174142820Y-91886502D01*
X174262518Y-91922812D01*
X174387000Y-91935072D01*
X174602000Y-91935072D01*
X174602001Y-99729294D01*
X174512321Y-99756498D01*
X174402007Y-99815463D01*
X174305316Y-99894815D01*
X174225964Y-99991506D01*
X174166999Y-100101820D01*
X174130689Y-100221518D01*
X174118429Y-100346000D01*
X174118429Y-102346000D01*
X174130689Y-102470482D01*
X174166999Y-102590180D01*
X174225964Y-102700494D01*
X174305316Y-102797185D01*
X174402007Y-102876537D01*
X174512321Y-102935502D01*
X174632019Y-102971812D01*
X174756501Y-102984072D01*
X174924002Y-102984072D01*
X174924002Y-103661438D01*
X174920204Y-103700001D01*
X174935360Y-103853887D01*
X174980247Y-104001860D01*
X174980248Y-104001861D01*
X175053140Y-104138234D01*
X175081874Y-104173246D01*
X175126656Y-104227813D01*
X175126660Y-104227817D01*
X175151238Y-104257765D01*
X175181186Y-104282343D01*
X176126000Y-105227158D01*
X176126001Y-112928176D01*
X174976916Y-114077261D01*
X173249001Y-114077261D01*
X173124519Y-114089521D01*
X173004821Y-114125831D01*
X172894507Y-114184796D01*
X172797816Y-114264148D01*
X172718464Y-114360839D01*
X172659499Y-114471153D01*
X172623189Y-114590851D01*
X172618000Y-114643538D01*
X172618000Y-112533462D01*
X172623189Y-112586149D01*
X172659499Y-112705847D01*
X172718464Y-112816161D01*
X172797816Y-112912852D01*
X172894507Y-112992204D01*
X173004821Y-113051169D01*
X173124519Y-113087479D01*
X173249001Y-113099739D01*
X175449001Y-113099739D01*
X175573483Y-113087479D01*
X175693181Y-113051169D01*
X175803495Y-112992204D01*
X175900186Y-112912852D01*
X175979538Y-112816161D01*
X176038503Y-112705847D01*
X176074813Y-112586149D01*
X176087073Y-112461667D01*
X176087073Y-110261667D01*
X176074813Y-110137185D01*
X176038503Y-110017487D01*
X175979538Y-109907173D01*
X175900186Y-109810482D01*
X175803495Y-109731130D01*
X175693181Y-109672165D01*
X175573483Y-109635855D01*
X175449001Y-109623595D01*
X173249001Y-109623595D01*
X173124519Y-109635855D01*
X173004821Y-109672165D01*
X172894507Y-109731130D01*
X172797816Y-109810482D01*
X172718464Y-109907173D01*
X172659499Y-110017487D01*
X172623189Y-110137185D01*
X172618000Y-110189872D01*
X172618000Y-108079796D01*
X172623189Y-108132483D01*
X172659499Y-108252181D01*
X172718464Y-108362495D01*
X172797816Y-108459186D01*
X172894507Y-108538538D01*
X173004821Y-108597503D01*
X173124519Y-108633813D01*
X173249001Y-108646073D01*
X175449001Y-108646073D01*
X175573483Y-108633813D01*
X175693181Y-108597503D01*
X175803495Y-108538538D01*
X175900186Y-108459186D01*
X175979538Y-108362495D01*
X176038503Y-108252181D01*
X176074813Y-108132483D01*
X176087073Y-108008001D01*
X176087073Y-105808001D01*
X176074813Y-105683519D01*
X176038503Y-105563821D01*
X175979538Y-105453507D01*
X175900186Y-105356816D01*
X175803495Y-105277464D01*
X175693181Y-105218499D01*
X175573483Y-105182189D01*
X175449001Y-105169929D01*
X173249001Y-105169929D01*
X173124519Y-105182189D01*
X173004821Y-105218499D01*
X172894507Y-105277464D01*
X172797816Y-105356816D01*
X172718464Y-105453507D01*
X172659499Y-105563821D01*
X172623189Y-105683519D01*
X172618000Y-105736206D01*
X172618000Y-84607000D01*
X201397001Y-84607000D01*
X201397001Y-85443754D01*
%TA.AperFunction,Conductor*%
D30*
G36*
X201397001Y-85443754D02*
G01*
X201278475Y-85266368D01*
X201071632Y-85059525D01*
X200828411Y-84897010D01*
X200558158Y-84785068D01*
X200271260Y-84728000D01*
X199978740Y-84728000D01*
X199691842Y-84785068D01*
X199421589Y-84897010D01*
X199178368Y-85059525D01*
X199046513Y-85191380D01*
X199024502Y-85118820D01*
X198965537Y-85008506D01*
X198886185Y-84911815D01*
X198789494Y-84832463D01*
X198679180Y-84773498D01*
X198559482Y-84737188D01*
X198435000Y-84724928D01*
X196735000Y-84724928D01*
X196610518Y-84737188D01*
X196490820Y-84773498D01*
X196380506Y-84832463D01*
X196283815Y-84911815D01*
X196204463Y-85008506D01*
X196145498Y-85118820D01*
X196109188Y-85238518D01*
X196096928Y-85363000D01*
X196096928Y-85428000D01*
X195003556Y-85428000D01*
X194965000Y-85424203D01*
X194926444Y-85428000D01*
X194926439Y-85428000D01*
X194886026Y-85431980D01*
X194811113Y-85439358D01*
X194663140Y-85484246D01*
X194526767Y-85557138D01*
X194407236Y-85655236D01*
X194382653Y-85685190D01*
X191877190Y-88190653D01*
X191847236Y-88215236D01*
X191749138Y-88334768D01*
X191676246Y-88471141D01*
X191631359Y-88619114D01*
X191620000Y-88734440D01*
X191620000Y-88734447D01*
X191616203Y-88773000D01*
X191620000Y-88811553D01*
X191620001Y-92384841D01*
X185527190Y-98477653D01*
X185497236Y-98502236D01*
X185399138Y-98621768D01*
X185326246Y-98758141D01*
X185281359Y-98906114D01*
X185270000Y-99021440D01*
X185270000Y-99021447D01*
X185266203Y-99060000D01*
X185270000Y-99098553D01*
X185270001Y-101414661D01*
X185140241Y-101501363D01*
X184940363Y-101701241D01*
X184783320Y-101936273D01*
X184675147Y-102197426D01*
X184620000Y-102474665D01*
X184620000Y-102757335D01*
X184675147Y-103034574D01*
X184783320Y-103295727D01*
X184940363Y-103530759D01*
X185140241Y-103730637D01*
X185338337Y-103863000D01*
X185110158Y-103863000D01*
X182366540Y-101119383D01*
X182353531Y-100987296D01*
X182262756Y-100688051D01*
X182115346Y-100412265D01*
X181916964Y-100170537D01*
X181675235Y-99972155D01*
X181574001Y-99918045D01*
X181574001Y-95507156D01*
X182226492Y-94854665D01*
X184620000Y-94854665D01*
X184620000Y-95137335D01*
X184675147Y-95414574D01*
X184783320Y-95675727D01*
X184940363Y-95910759D01*
X185140241Y-96110637D01*
X185375273Y-96267680D01*
X185636426Y-96375853D01*
X185913665Y-96431000D01*
X186196335Y-96431000D01*
X186473574Y-96375853D01*
X186734727Y-96267680D01*
X186969759Y-96110637D01*
X187169637Y-95910759D01*
X187326680Y-95675727D01*
X187434853Y-95414574D01*
X187490000Y-95137335D01*
X187490000Y-94854665D01*
X187434853Y-94577426D01*
X187326680Y-94316273D01*
X187169637Y-94081241D01*
X186969759Y-93881363D01*
X186734727Y-93724320D01*
X186473574Y-93616147D01*
X186196335Y-93561000D01*
X185913665Y-93561000D01*
X185636426Y-93616147D01*
X185375273Y-93724320D01*
X185140241Y-93881363D01*
X184940363Y-94081241D01*
X184783320Y-94316273D01*
X184675147Y-94577426D01*
X184620000Y-94854665D01*
X182226492Y-94854665D01*
X187251086Y-89830072D01*
X187871000Y-89830072D01*
X187995482Y-89817812D01*
X188115180Y-89781502D01*
X188225494Y-89722537D01*
X188322185Y-89643185D01*
X188401537Y-89546494D01*
X188460502Y-89436180D01*
X188476117Y-89384702D01*
X188757903Y-89384702D01*
X188829486Y-89628671D01*
X189084996Y-89749571D01*
X189359184Y-89818300D01*
X189641512Y-89832217D01*
X189921130Y-89790787D01*
X190187292Y-89695603D01*
X190312514Y-89628671D01*
X190384097Y-89384702D01*
X189571000Y-88571605D01*
X188757903Y-89384702D01*
X188476117Y-89384702D01*
X188496812Y-89316482D01*
X188509072Y-89192000D01*
X188509072Y-89184785D01*
X188578298Y-89205097D01*
X189391395Y-88392000D01*
X189750605Y-88392000D01*
X190563702Y-89205097D01*
X190807671Y-89133514D01*
X190928571Y-88878004D01*
X190997300Y-88603816D01*
X191011217Y-88321488D01*
X190969787Y-88041870D01*
X190874603Y-87775708D01*
X190807671Y-87650486D01*
X190563702Y-87578903D01*
X189750605Y-88392000D01*
X189391395Y-88392000D01*
X188578298Y-87578903D01*
X188509072Y-87599215D01*
X188509072Y-87592000D01*
X188496812Y-87467518D01*
X188476118Y-87399298D01*
X188757903Y-87399298D01*
X189571000Y-88212395D01*
X190384097Y-87399298D01*
X190312514Y-87155329D01*
X190057004Y-87034429D01*
X189782816Y-86965700D01*
X189500488Y-86951783D01*
X189220870Y-86993213D01*
X188954708Y-87088397D01*
X188829486Y-87155329D01*
X188757903Y-87399298D01*
X188476118Y-87399298D01*
X188460502Y-87347820D01*
X188401537Y-87237506D01*
X188322185Y-87140815D01*
X188225494Y-87061463D01*
X188115180Y-87002498D01*
X187995482Y-86966188D01*
X187871000Y-86953928D01*
X186271000Y-86953928D01*
X186146518Y-86966188D01*
X186026820Y-87002498D01*
X185916506Y-87061463D01*
X185819815Y-87140815D01*
X185740463Y-87237506D01*
X185681498Y-87347820D01*
X185645188Y-87467518D01*
X185632928Y-87592000D01*
X185632928Y-89192000D01*
X185636148Y-89224694D01*
X180261186Y-94599657D01*
X180231238Y-94624235D01*
X180206660Y-94654183D01*
X180206656Y-94654187D01*
X180173691Y-94694355D01*
X180133140Y-94743766D01*
X180094178Y-94816659D01*
X180060247Y-94880140D01*
X180015360Y-95028113D01*
X180000204Y-95181999D01*
X180004002Y-95220562D01*
X180004001Y-99918044D01*
X179902766Y-99972155D01*
X179661038Y-100170537D01*
X179513839Y-100349900D01*
X179358438Y-100164685D01*
X179115924Y-99970031D01*
X178840095Y-99826429D01*
X178621981Y-99755437D01*
X178376001Y-99875406D01*
X178376001Y-101219000D01*
X178396001Y-101219000D01*
X178396001Y-101473000D01*
X178376001Y-101473000D01*
X178376001Y-102816594D01*
X178621981Y-102936563D01*
X178840095Y-102865571D01*
X179115924Y-102721969D01*
X179358438Y-102527315D01*
X179513838Y-102342101D01*
X179661038Y-102521463D01*
X179902767Y-102719845D01*
X180178553Y-102867255D01*
X180477798Y-102958030D01*
X180789001Y-102988681D01*
X181100205Y-102958030D01*
X181399450Y-102867255D01*
X181675236Y-102719845D01*
X181714480Y-102687638D01*
X184202658Y-105175816D01*
X184227236Y-105205764D01*
X184257184Y-105230342D01*
X184257187Y-105230345D01*
X184286559Y-105254450D01*
X184346767Y-105303862D01*
X184381999Y-105322694D01*
X184381999Y-105336400D01*
X184112878Y-105218822D01*
X183790947Y-105328559D01*
X183496610Y-105498993D01*
X183241179Y-105723574D01*
X183034470Y-105993672D01*
X182884426Y-106298907D01*
X182819826Y-106511879D01*
X182937876Y-106781001D01*
X184382001Y-106781001D01*
X184382001Y-106761001D01*
X184636001Y-106761001D01*
X184636001Y-106781001D01*
X186080126Y-106781001D01*
X186198176Y-106511879D01*
X186133576Y-106298907D01*
X185983532Y-105993672D01*
X185776823Y-105723574D01*
X185521392Y-105498993D01*
X185407423Y-105433000D01*
X186745843Y-105433000D01*
X188318000Y-107005158D01*
X188318001Y-109181437D01*
X188314203Y-109220000D01*
X188329359Y-109373886D01*
X188374246Y-109521859D01*
X188374247Y-109521860D01*
X188447139Y-109658233D01*
X188487690Y-109707644D01*
X188520655Y-109747812D01*
X188520659Y-109747816D01*
X188545237Y-109777764D01*
X188575185Y-109802342D01*
X188726843Y-109954000D01*
X188321185Y-110359658D01*
X188291237Y-110384236D01*
X188266659Y-110414184D01*
X188266655Y-110414188D01*
X188264900Y-110416327D01*
X188193139Y-110503767D01*
X188188865Y-110511764D01*
X188120246Y-110640141D01*
X188075359Y-110788114D01*
X188060203Y-110942000D01*
X188064001Y-110980563D01*
X188064000Y-116654868D01*
X187967388Y-116751480D01*
X187843176Y-116937376D01*
X187757617Y-117143933D01*
X187714000Y-117363212D01*
X187714000Y-117586788D01*
X187757617Y-117806067D01*
X187843176Y-118012624D01*
X187967388Y-118198520D01*
X188125480Y-118356612D01*
X188311376Y-118480824D01*
X188517933Y-118566383D01*
X188737212Y-118610000D01*
X188960788Y-118610000D01*
X189180067Y-118566383D01*
X189386624Y-118480824D01*
X189572520Y-118356612D01*
X189730612Y-118198520D01*
X189854824Y-118012624D01*
X189940383Y-117806067D01*
X189984000Y-117586788D01*
X189984000Y-117363212D01*
X189940383Y-117143933D01*
X189854824Y-116937376D01*
X189730612Y-116751480D01*
X189634000Y-116654868D01*
X189634000Y-111267157D01*
X190162158Y-110739000D01*
X190720257Y-110739000D01*
X190856021Y-110942186D01*
X190797506Y-110973463D01*
X190700815Y-111052815D01*
X190621463Y-111149506D01*
X190562498Y-111259820D01*
X190526188Y-111379518D01*
X190513928Y-111504000D01*
X190513928Y-113404000D01*
X190526188Y-113528482D01*
X190562498Y-113648180D01*
X190621463Y-113758494D01*
X190700815Y-113855185D01*
X190797506Y-113934537D01*
X190907820Y-113993502D01*
X191027518Y-114029812D01*
X191152000Y-114042072D01*
X191317000Y-114042072D01*
X191317001Y-115736437D01*
X191313203Y-115775000D01*
X191328359Y-115928886D01*
X191373246Y-116076859D01*
X191407177Y-116140340D01*
X191446139Y-116213233D01*
X191479239Y-116253565D01*
X191519655Y-116302812D01*
X191519659Y-116302816D01*
X191544237Y-116332764D01*
X191574185Y-116357342D01*
X194160001Y-118943159D01*
X194160001Y-119206738D01*
X194094095Y-119162701D01*
X193814743Y-119046989D01*
X193518184Y-118988000D01*
X193215816Y-118988000D01*
X192919257Y-119046989D01*
X192639905Y-119162701D01*
X192388495Y-119330688D01*
X192322056Y-119397127D01*
X192316502Y-119378820D01*
X192257537Y-119268506D01*
X192178185Y-119171815D01*
X192081494Y-119092463D01*
X191971180Y-119033498D01*
X191851482Y-118997188D01*
X191727000Y-118984928D01*
X191112750Y-118988000D01*
X190954000Y-119146750D01*
X190954000Y-120396000D01*
X190974000Y-120396000D01*
X190974000Y-120650000D01*
X190954000Y-120650000D01*
X190954000Y-121899250D01*
X191112750Y-122058000D01*
X191727000Y-122061072D01*
X191851482Y-122048812D01*
X191971180Y-122012502D01*
X192081494Y-121953537D01*
X192178185Y-121874185D01*
X192257537Y-121777494D01*
X192316502Y-121667180D01*
X192322056Y-121648873D01*
X192388495Y-121715312D01*
X192582000Y-121844608D01*
X192582000Y-121902842D01*
X192333843Y-122151000D01*
X191554552Y-122151000D01*
X191515999Y-122147203D01*
X191477446Y-122151000D01*
X191477439Y-122151000D01*
X191376490Y-122160943D01*
X191362112Y-122162359D01*
X191327672Y-122172806D01*
X191214140Y-122207246D01*
X191077767Y-122280138D01*
X191017559Y-122329550D01*
X190988187Y-122353655D01*
X190988184Y-122353658D01*
X190958236Y-122378236D01*
X190933658Y-122408184D01*
X189591185Y-123750658D01*
X189561237Y-123775236D01*
X189536659Y-123805184D01*
X189536655Y-123805188D01*
X189503690Y-123845356D01*
X189463139Y-123894767D01*
X189424177Y-123967660D01*
X189390246Y-124031141D01*
X189345359Y-124179114D01*
X189330203Y-124333000D01*
X189334001Y-124371563D01*
X189334000Y-128993447D01*
X189330203Y-129032000D01*
X189334000Y-129070553D01*
X189334000Y-129070560D01*
X189345359Y-129185886D01*
X189390246Y-129333859D01*
X189463138Y-129470232D01*
X189561236Y-129589764D01*
X189591190Y-129614347D01*
X190858001Y-130881159D01*
X190858000Y-132704320D01*
X190836273Y-132713320D01*
X190601241Y-132870363D01*
X190401363Y-133070241D01*
X190244320Y-133305273D01*
X190136147Y-133566426D01*
X190081000Y-133843665D01*
X190081000Y-134126335D01*
X190136147Y-134403574D01*
X190244320Y-134664727D01*
X190401363Y-134899759D01*
X190601241Y-135099637D01*
X190836273Y-135256680D01*
X191078467Y-135357000D01*
X184801504Y-135357000D01*
X184812013Y-135346491D01*
X185023775Y-135029566D01*
X185169639Y-134677419D01*
X185244000Y-134303581D01*
X185244000Y-133922419D01*
X185169639Y-133548581D01*
X185023775Y-133196434D01*
X184812013Y-132879509D01*
X184542491Y-132609987D01*
X184225566Y-132398225D01*
X183873419Y-132252361D01*
X183499581Y-132178000D01*
X183118419Y-132178000D01*
X182744581Y-132252361D01*
X182392434Y-132398225D01*
X182075509Y-132609987D01*
X181805987Y-132879509D01*
X181594225Y-133196434D01*
X181448361Y-133548581D01*
X181374000Y-133922419D01*
X181374000Y-134303581D01*
X181448361Y-134677419D01*
X181594225Y-135029566D01*
X181805987Y-135346491D01*
X181816496Y-135357000D01*
X172618000Y-135357000D01*
X172618000Y-129222419D01*
X178374000Y-129222419D01*
X178374000Y-129603581D01*
X178448361Y-129977419D01*
X178594225Y-130329566D01*
X178805987Y-130646491D01*
X179075509Y-130916013D01*
X179392434Y-131127775D01*
X179744581Y-131273639D01*
X180118419Y-131348000D01*
X180499581Y-131348000D01*
X180873419Y-131273639D01*
X181225566Y-131127775D01*
X181542491Y-130916013D01*
X181812013Y-130646491D01*
X182023775Y-130329566D01*
X182169639Y-129977419D01*
X182244000Y-129603581D01*
X182244000Y-129222419D01*
X182169639Y-128848581D01*
X182023775Y-128496434D01*
X181812013Y-128179509D01*
X181745504Y-128113000D01*
X184370928Y-128113000D01*
X184370928Y-130713000D01*
X184383188Y-130837482D01*
X184419498Y-130957180D01*
X184478463Y-131067494D01*
X184557815Y-131164185D01*
X184654506Y-131243537D01*
X184764820Y-131302502D01*
X184884518Y-131338812D01*
X185009000Y-131351072D01*
X187609000Y-131351072D01*
X187733482Y-131338812D01*
X187853180Y-131302502D01*
X187963494Y-131243537D01*
X188060185Y-131164185D01*
X188139537Y-131067494D01*
X188198502Y-130957180D01*
X188234812Y-130837482D01*
X188247072Y-130713000D01*
X188247072Y-128113000D01*
X188234812Y-127988518D01*
X188198502Y-127868820D01*
X188139537Y-127758506D01*
X188060185Y-127661815D01*
X187963494Y-127582463D01*
X187853180Y-127523498D01*
X187733482Y-127487188D01*
X187609000Y-127474928D01*
X185009000Y-127474928D01*
X184884518Y-127487188D01*
X184764820Y-127523498D01*
X184654506Y-127582463D01*
X184557815Y-127661815D01*
X184478463Y-127758506D01*
X184419498Y-127868820D01*
X184383188Y-127988518D01*
X184370928Y-128113000D01*
X181745504Y-128113000D01*
X181542491Y-127909987D01*
X181225566Y-127698225D01*
X180873419Y-127552361D01*
X180499581Y-127478000D01*
X180118419Y-127478000D01*
X179744581Y-127552361D01*
X179392434Y-127698225D01*
X179075509Y-127909987D01*
X178805987Y-128179509D01*
X178594225Y-128496434D01*
X178448361Y-128848581D01*
X178374000Y-129222419D01*
X172618000Y-129222419D01*
X172618000Y-121440795D01*
X172623189Y-121493482D01*
X172659499Y-121613180D01*
X172718464Y-121723494D01*
X172797816Y-121820185D01*
X172894507Y-121899537D01*
X173004821Y-121958502D01*
X173124519Y-121994812D01*
X173249001Y-122007072D01*
X175449001Y-122007072D01*
X175573483Y-121994812D01*
X175693181Y-121958502D01*
X175803495Y-121899537D01*
X175900186Y-121820185D01*
X175979538Y-121723494D01*
X176038503Y-121613180D01*
X176074813Y-121493482D01*
X176087073Y-121369000D01*
X176087073Y-120098117D01*
X182774001Y-120098117D01*
X182774001Y-120439883D01*
X182840676Y-120775081D01*
X182971464Y-121090831D01*
X183161338Y-121374998D01*
X183403003Y-121616663D01*
X183687170Y-121806537D01*
X184002920Y-121937325D01*
X184338118Y-122004000D01*
X184679884Y-122004000D01*
X185015082Y-121937325D01*
X185330832Y-121806537D01*
X185614999Y-121616663D01*
X185808662Y-121423000D01*
X189288928Y-121423000D01*
X189301188Y-121547482D01*
X189337498Y-121667180D01*
X189396463Y-121777494D01*
X189475815Y-121874185D01*
X189572506Y-121953537D01*
X189682820Y-122012502D01*
X189802518Y-122048812D01*
X189927000Y-122061072D01*
X190541250Y-122058000D01*
X190700000Y-121899250D01*
X190700000Y-120650000D01*
X189450750Y-120650000D01*
X189292000Y-120808750D01*
X189288928Y-121423000D01*
X185808662Y-121423000D01*
X185856664Y-121374998D01*
X186046538Y-121090831D01*
X186177326Y-120775081D01*
X186244001Y-120439883D01*
X186244001Y-120098117D01*
X186177326Y-119762919D01*
X186119370Y-119623000D01*
X189288928Y-119623000D01*
X189292000Y-120237250D01*
X189450750Y-120396000D01*
X190700000Y-120396000D01*
X190700000Y-119146750D01*
X190541250Y-118988000D01*
X189927000Y-118984928D01*
X189802518Y-118997188D01*
X189682820Y-119033498D01*
X189572506Y-119092463D01*
X189475815Y-119171815D01*
X189396463Y-119268506D01*
X189337498Y-119378820D01*
X189301188Y-119498518D01*
X189288928Y-119623000D01*
X186119370Y-119623000D01*
X186046538Y-119447169D01*
X185856664Y-119163002D01*
X185614999Y-118921337D01*
X185330832Y-118731463D01*
X185015082Y-118600675D01*
X184679884Y-118534000D01*
X184338118Y-118534000D01*
X184002920Y-118600675D01*
X183687170Y-118731463D01*
X183403003Y-118921337D01*
X183161338Y-119163002D01*
X182971464Y-119447169D01*
X182840676Y-119762919D01*
X182774001Y-120098117D01*
X176087073Y-120098117D01*
X176087073Y-119169000D01*
X176074813Y-119044518D01*
X176038503Y-118924820D01*
X175979538Y-118814506D01*
X175900186Y-118717815D01*
X175803495Y-118638463D01*
X175693181Y-118579498D01*
X175573483Y-118543188D01*
X175449001Y-118530928D01*
X175134001Y-118530928D01*
X175134001Y-117553405D01*
X175449001Y-117553405D01*
X175573483Y-117541145D01*
X175693181Y-117504835D01*
X175803495Y-117445870D01*
X175900186Y-117366518D01*
X175979538Y-117269827D01*
X176038503Y-117159513D01*
X176074813Y-117039815D01*
X176087073Y-116915333D01*
X176087073Y-115644450D01*
X182774001Y-115644450D01*
X182774001Y-115986216D01*
X182840676Y-116321414D01*
X182971464Y-116637164D01*
X183161338Y-116921331D01*
X183403003Y-117162996D01*
X183687170Y-117352870D01*
X184002920Y-117483658D01*
X184338118Y-117550333D01*
X184679884Y-117550333D01*
X185015082Y-117483658D01*
X185330832Y-117352870D01*
X185614999Y-117162996D01*
X185856664Y-116921331D01*
X186046538Y-116637164D01*
X186177326Y-116321414D01*
X186244001Y-115986216D01*
X186244001Y-115644450D01*
X186177326Y-115309252D01*
X186046538Y-114993502D01*
X185856664Y-114709335D01*
X185614999Y-114467670D01*
X185330832Y-114277796D01*
X185015082Y-114147008D01*
X184679884Y-114080333D01*
X184338118Y-114080333D01*
X184002920Y-114147008D01*
X183687170Y-114277796D01*
X183403003Y-114467670D01*
X183161338Y-114709335D01*
X182971464Y-114993502D01*
X182840676Y-115309252D01*
X182774001Y-115644450D01*
X176087073Y-115644450D01*
X176087073Y-115187418D01*
X177438810Y-113835681D01*
X177468764Y-113811098D01*
X177566862Y-113691567D01*
X177639754Y-113555194D01*
X177647857Y-113528482D01*
X177684642Y-113407221D01*
X177692020Y-113332308D01*
X177696000Y-113291895D01*
X177696000Y-113291890D01*
X177699797Y-113253334D01*
X177696000Y-113214778D01*
X177696000Y-111757789D01*
X182819826Y-111757789D01*
X182884426Y-111970761D01*
X183034470Y-112275996D01*
X183241179Y-112546094D01*
X183496610Y-112770675D01*
X183790947Y-112941109D01*
X184112878Y-113050846D01*
X184382001Y-112933267D01*
X184382001Y-111488667D01*
X184636001Y-111488667D01*
X184636001Y-112933267D01*
X184905124Y-113050846D01*
X185227055Y-112941109D01*
X185521392Y-112770675D01*
X185776823Y-112546094D01*
X185983532Y-112275996D01*
X186133576Y-111970761D01*
X186198176Y-111757789D01*
X186080126Y-111488667D01*
X184636001Y-111488667D01*
X184382001Y-111488667D01*
X182937876Y-111488667D01*
X182819826Y-111757789D01*
X177696000Y-111757789D01*
X177696000Y-110965545D01*
X182819826Y-110965545D01*
X182937876Y-111234667D01*
X184382001Y-111234667D01*
X184382001Y-109790067D01*
X184636001Y-109790067D01*
X184636001Y-111234667D01*
X186080126Y-111234667D01*
X186198176Y-110965545D01*
X186133576Y-110752573D01*
X185983532Y-110447338D01*
X185776823Y-110177240D01*
X185521392Y-109952659D01*
X185227055Y-109782225D01*
X184905124Y-109672488D01*
X184636001Y-109790067D01*
X184382001Y-109790067D01*
X184112878Y-109672488D01*
X183790947Y-109782225D01*
X183496610Y-109952659D01*
X183241179Y-110177240D01*
X183034470Y-110447338D01*
X182884426Y-110752573D01*
X182819826Y-110965545D01*
X177696000Y-110965545D01*
X177696000Y-107304123D01*
X182819826Y-107304123D01*
X182884426Y-107517095D01*
X183034470Y-107822330D01*
X183241179Y-108092428D01*
X183496610Y-108317009D01*
X183790947Y-108487443D01*
X184112878Y-108597180D01*
X184382001Y-108479601D01*
X184382001Y-107035001D01*
X184636001Y-107035001D01*
X184636001Y-108479601D01*
X184905124Y-108597180D01*
X185227055Y-108487443D01*
X185521392Y-108317009D01*
X185776823Y-108092428D01*
X185983532Y-107822330D01*
X186133576Y-107517095D01*
X186198176Y-107304123D01*
X186080126Y-107035001D01*
X184636001Y-107035001D01*
X184382001Y-107035001D01*
X182937876Y-107035001D01*
X182819826Y-107304123D01*
X177696000Y-107304123D01*
X177696000Y-104940552D01*
X177699797Y-104901999D01*
X177696000Y-104863446D01*
X177696000Y-104863439D01*
X177684641Y-104748113D01*
X177639754Y-104600140D01*
X177566862Y-104463767D01*
X177468764Y-104344236D01*
X177438817Y-104319659D01*
X176494001Y-103374844D01*
X176494001Y-102984072D01*
X176661501Y-102984072D01*
X176785983Y-102971812D01*
X176905681Y-102935502D01*
X177015995Y-102876537D01*
X177112686Y-102797185D01*
X177192038Y-102700494D01*
X177241060Y-102608781D01*
X177382078Y-102721969D01*
X177657907Y-102865571D01*
X177876021Y-102936563D01*
X178122001Y-102816594D01*
X178122001Y-101473000D01*
X178102001Y-101473000D01*
X178102001Y-101219000D01*
X178122001Y-101219000D01*
X178122001Y-99875406D01*
X177876021Y-99755437D01*
X177657907Y-99826429D01*
X177382078Y-99970031D01*
X177241060Y-100083219D01*
X177192038Y-99991506D01*
X177112686Y-99894815D01*
X177015995Y-99815463D01*
X176905681Y-99756498D01*
X176785983Y-99720188D01*
X176661501Y-99707928D01*
X176172000Y-99707928D01*
X176172000Y-91935072D01*
X176387000Y-91935072D01*
X176511482Y-91922812D01*
X176631180Y-91886502D01*
X176741494Y-91827537D01*
X176838185Y-91748185D01*
X176917537Y-91651494D01*
X176976502Y-91541180D01*
X177009496Y-91432413D01*
X179431192Y-91432413D01*
X179526956Y-91696814D01*
X179816571Y-91837704D01*
X180128108Y-91919384D01*
X180449595Y-91938718D01*
X180768675Y-91894961D01*
X181073088Y-91789795D01*
X181247044Y-91696814D01*
X181342808Y-91432413D01*
X180387000Y-90476605D01*
X179431192Y-91432413D01*
X177009496Y-91432413D01*
X177012812Y-91421482D01*
X177025072Y-91297000D01*
X177025072Y-90359595D01*
X178745282Y-90359595D01*
X178789039Y-90678675D01*
X178894205Y-90983088D01*
X178987186Y-91157044D01*
X179251587Y-91252808D01*
X180207395Y-90297000D01*
X180566605Y-90297000D01*
X181522413Y-91252808D01*
X181786814Y-91157044D01*
X181927704Y-90867429D01*
X182009384Y-90555892D01*
X182028718Y-90234405D01*
X181984961Y-89915325D01*
X181879795Y-89610912D01*
X181786814Y-89436956D01*
X181522413Y-89341192D01*
X180566605Y-90297000D01*
X180207395Y-90297000D01*
X179251587Y-89341192D01*
X178987186Y-89436956D01*
X178846296Y-89726571D01*
X178764616Y-90038108D01*
X178745282Y-90359595D01*
X177025072Y-90359595D01*
X177025072Y-89297000D01*
X177012812Y-89172518D01*
X177009497Y-89161587D01*
X179431192Y-89161587D01*
X180387000Y-90117395D01*
X181342808Y-89161587D01*
X181247044Y-88897186D01*
X180957429Y-88756296D01*
X180645892Y-88674616D01*
X180324405Y-88655282D01*
X180005325Y-88699039D01*
X179700912Y-88804205D01*
X179526956Y-88897186D01*
X179431192Y-89161587D01*
X177009497Y-89161587D01*
X176976502Y-89052820D01*
X176917537Y-88942506D01*
X176838185Y-88845815D01*
X176741494Y-88766463D01*
X176631180Y-88707498D01*
X176511482Y-88671188D01*
X176387000Y-88658928D01*
X174387000Y-88658928D01*
X174262518Y-88671188D01*
X174142820Y-88707498D01*
X174032506Y-88766463D01*
X173935815Y-88845815D01*
X173856463Y-88942506D01*
X173797498Y-89052820D01*
X173761188Y-89172518D01*
X173748928Y-89297000D01*
X173748928Y-91297000D01*
X173761188Y-91421482D01*
X173797498Y-91541180D01*
X173856463Y-91651494D01*
X173935815Y-91748185D01*
X174032506Y-91827537D01*
X174142820Y-91886502D01*
X174262518Y-91922812D01*
X174387000Y-91935072D01*
X174602000Y-91935072D01*
X174602001Y-99729294D01*
X174512321Y-99756498D01*
X174402007Y-99815463D01*
X174305316Y-99894815D01*
X174225964Y-99991506D01*
X174166999Y-100101820D01*
X174130689Y-100221518D01*
X174118429Y-100346000D01*
X174118429Y-102346000D01*
X174130689Y-102470482D01*
X174166999Y-102590180D01*
X174225964Y-102700494D01*
X174305316Y-102797185D01*
X174402007Y-102876537D01*
X174512321Y-102935502D01*
X174632019Y-102971812D01*
X174756501Y-102984072D01*
X174924002Y-102984072D01*
X174924002Y-103661438D01*
X174920204Y-103700001D01*
X174935360Y-103853887D01*
X174980247Y-104001860D01*
X174980248Y-104001861D01*
X175053140Y-104138234D01*
X175081874Y-104173246D01*
X175126656Y-104227813D01*
X175126660Y-104227817D01*
X175151238Y-104257765D01*
X175181186Y-104282343D01*
X176126000Y-105227158D01*
X176126001Y-112928176D01*
X174976916Y-114077261D01*
X173249001Y-114077261D01*
X173124519Y-114089521D01*
X173004821Y-114125831D01*
X172894507Y-114184796D01*
X172797816Y-114264148D01*
X172718464Y-114360839D01*
X172659499Y-114471153D01*
X172623189Y-114590851D01*
X172618000Y-114643538D01*
X172618000Y-112533462D01*
X172623189Y-112586149D01*
X172659499Y-112705847D01*
X172718464Y-112816161D01*
X172797816Y-112912852D01*
X172894507Y-112992204D01*
X173004821Y-113051169D01*
X173124519Y-113087479D01*
X173249001Y-113099739D01*
X175449001Y-113099739D01*
X175573483Y-113087479D01*
X175693181Y-113051169D01*
X175803495Y-112992204D01*
X175900186Y-112912852D01*
X175979538Y-112816161D01*
X176038503Y-112705847D01*
X176074813Y-112586149D01*
X176087073Y-112461667D01*
X176087073Y-110261667D01*
X176074813Y-110137185D01*
X176038503Y-110017487D01*
X175979538Y-109907173D01*
X175900186Y-109810482D01*
X175803495Y-109731130D01*
X175693181Y-109672165D01*
X175573483Y-109635855D01*
X175449001Y-109623595D01*
X173249001Y-109623595D01*
X173124519Y-109635855D01*
X173004821Y-109672165D01*
X172894507Y-109731130D01*
X172797816Y-109810482D01*
X172718464Y-109907173D01*
X172659499Y-110017487D01*
X172623189Y-110137185D01*
X172618000Y-110189872D01*
X172618000Y-108079796D01*
X172623189Y-108132483D01*
X172659499Y-108252181D01*
X172718464Y-108362495D01*
X172797816Y-108459186D01*
X172894507Y-108538538D01*
X173004821Y-108597503D01*
X173124519Y-108633813D01*
X173249001Y-108646073D01*
X175449001Y-108646073D01*
X175573483Y-108633813D01*
X175693181Y-108597503D01*
X175803495Y-108538538D01*
X175900186Y-108459186D01*
X175979538Y-108362495D01*
X176038503Y-108252181D01*
X176074813Y-108132483D01*
X176087073Y-108008001D01*
X176087073Y-105808001D01*
X176074813Y-105683519D01*
X176038503Y-105563821D01*
X175979538Y-105453507D01*
X175900186Y-105356816D01*
X175803495Y-105277464D01*
X175693181Y-105218499D01*
X175573483Y-105182189D01*
X175449001Y-105169929D01*
X173249001Y-105169929D01*
X173124519Y-105182189D01*
X173004821Y-105218499D01*
X172894507Y-105277464D01*
X172797816Y-105356816D01*
X172718464Y-105453507D01*
X172659499Y-105563821D01*
X172623189Y-105683519D01*
X172618000Y-105736206D01*
X172618000Y-84607000D01*
X201397001Y-84607000D01*
X201397001Y-85443754D01*
G37*
%TD.AperFunction*%
D29*
X194160000Y-129755447D02*
X194156203Y-129794000D01*
X194160000Y-129832553D01*
X194160000Y-129832560D01*
X194171359Y-129947886D01*
X194216246Y-130095859D01*
X194289138Y-130232232D01*
X194387236Y-130351764D01*
X194417190Y-130376347D01*
X195775653Y-131734810D01*
X195800236Y-131764764D01*
X195919767Y-131862862D01*
X196056140Y-131935754D01*
X196096928Y-131948127D01*
X196096928Y-132057000D01*
X196109188Y-132181482D01*
X196145498Y-132301180D01*
X196204463Y-132411494D01*
X196283815Y-132508185D01*
X196380506Y-132587537D01*
X196490820Y-132646502D01*
X196571466Y-132670966D01*
X196487412Y-132746731D01*
X196313359Y-132980080D01*
X196188175Y-133242901D01*
X196143524Y-133390110D01*
X196264845Y-133620000D01*
X197458000Y-133620000D01*
X197458000Y-133600000D01*
X197712000Y-133600000D01*
X197712000Y-133620000D01*
X199998000Y-133620000D01*
X199998000Y-133600000D01*
X200252000Y-133600000D01*
X200252000Y-133620000D01*
X200272000Y-133620000D01*
X200272000Y-133874000D01*
X200252000Y-133874000D01*
X200252000Y-135067814D01*
X200481891Y-135188481D01*
X200756252Y-135091157D01*
X201006355Y-134942178D01*
X201222588Y-134747269D01*
X201396641Y-134513920D01*
X201397000Y-134513166D01*
X201397000Y-135357000D01*
X191953533Y-135357000D01*
X192195727Y-135256680D01*
X192430759Y-135099637D01*
X192630637Y-134899759D01*
X192787680Y-134664727D01*
X192895853Y-134403574D01*
X192951000Y-134126335D01*
X192951000Y-134103890D01*
X196143524Y-134103890D01*
X196188175Y-134251099D01*
X196313359Y-134513920D01*
X196487412Y-134747269D01*
X196703645Y-134942178D01*
X196953748Y-135091157D01*
X197228109Y-135188481D01*
X197458000Y-135067814D01*
X197458000Y-133874000D01*
X197712000Y-133874000D01*
X197712000Y-135067814D01*
X197941891Y-135188481D01*
X198216252Y-135091157D01*
X198466355Y-134942178D01*
X198682588Y-134747269D01*
X198855000Y-134516120D01*
X199027412Y-134747269D01*
X199243645Y-134942178D01*
X199493748Y-135091157D01*
X199768109Y-135188481D01*
X199998000Y-135067814D01*
X199998000Y-133874000D01*
X197712000Y-133874000D01*
X197458000Y-133874000D01*
X196264845Y-133874000D01*
X196143524Y-134103890D01*
X192951000Y-134103890D01*
X192951000Y-133843665D01*
X192895853Y-133566426D01*
X192787680Y-133305273D01*
X192630637Y-133070241D01*
X192430759Y-132870363D01*
X192428000Y-132868519D01*
X192428000Y-130594552D01*
X192431797Y-130555999D01*
X192428000Y-130517446D01*
X192428000Y-130517439D01*
X192416641Y-130402113D01*
X192371754Y-130254140D01*
X192298862Y-130117767D01*
X192200764Y-129998236D01*
X192170816Y-129973658D01*
X190904000Y-128706843D01*
X190904000Y-127664733D01*
X191097426Y-127744853D01*
X191374665Y-127800000D01*
X191657335Y-127800000D01*
X191934574Y-127744853D01*
X192195727Y-127636680D01*
X192430759Y-127479637D01*
X192630637Y-127279759D01*
X192787680Y-127044727D01*
X192895853Y-126783574D01*
X192951000Y-126506335D01*
X192951000Y-126223665D01*
X192895853Y-125946426D01*
X192787680Y-125685273D01*
X192630637Y-125450241D01*
X192430759Y-125250363D01*
X192195727Y-125093320D01*
X191934574Y-124985147D01*
X191657335Y-124930000D01*
X191374665Y-124930000D01*
X191097426Y-124985147D01*
X190904000Y-125065267D01*
X190904000Y-124658157D01*
X191841158Y-123721000D01*
X192620447Y-123721000D01*
X192659000Y-123724797D01*
X192697553Y-123721000D01*
X192697561Y-123721000D01*
X192812887Y-123709641D01*
X192960860Y-123664754D01*
X193097233Y-123591862D01*
X193216764Y-123493764D01*
X193241347Y-123463811D01*
X193894816Y-122810341D01*
X193924764Y-122785764D01*
X194022862Y-122666233D01*
X194095754Y-122529860D01*
X194140641Y-122381887D01*
X194152000Y-122266561D01*
X194152000Y-122266554D01*
X194155797Y-122228001D01*
X194152000Y-122189448D01*
X194152000Y-121844608D01*
X194160001Y-121839262D01*
X194160000Y-129755447D01*
%TA.AperFunction,Conductor*%
D30*
G36*
X194160000Y-129755447D02*
G01*
X194156203Y-129794000D01*
X194160000Y-129832553D01*
X194160000Y-129832560D01*
X194171359Y-129947886D01*
X194216246Y-130095859D01*
X194289138Y-130232232D01*
X194387236Y-130351764D01*
X194417190Y-130376347D01*
X195775653Y-131734810D01*
X195800236Y-131764764D01*
X195919767Y-131862862D01*
X196056140Y-131935754D01*
X196096928Y-131948127D01*
X196096928Y-132057000D01*
X196109188Y-132181482D01*
X196145498Y-132301180D01*
X196204463Y-132411494D01*
X196283815Y-132508185D01*
X196380506Y-132587537D01*
X196490820Y-132646502D01*
X196571466Y-132670966D01*
X196487412Y-132746731D01*
X196313359Y-132980080D01*
X196188175Y-133242901D01*
X196143524Y-133390110D01*
X196264845Y-133620000D01*
X197458000Y-133620000D01*
X197458000Y-133600000D01*
X197712000Y-133600000D01*
X197712000Y-133620000D01*
X199998000Y-133620000D01*
X199998000Y-133600000D01*
X200252000Y-133600000D01*
X200252000Y-133620000D01*
X200272000Y-133620000D01*
X200272000Y-133874000D01*
X200252000Y-133874000D01*
X200252000Y-135067814D01*
X200481891Y-135188481D01*
X200756252Y-135091157D01*
X201006355Y-134942178D01*
X201222588Y-134747269D01*
X201396641Y-134513920D01*
X201397000Y-134513166D01*
X201397000Y-135357000D01*
X191953533Y-135357000D01*
X192195727Y-135256680D01*
X192430759Y-135099637D01*
X192630637Y-134899759D01*
X192787680Y-134664727D01*
X192895853Y-134403574D01*
X192951000Y-134126335D01*
X192951000Y-134103890D01*
X196143524Y-134103890D01*
X196188175Y-134251099D01*
X196313359Y-134513920D01*
X196487412Y-134747269D01*
X196703645Y-134942178D01*
X196953748Y-135091157D01*
X197228109Y-135188481D01*
X197458000Y-135067814D01*
X197458000Y-133874000D01*
X197712000Y-133874000D01*
X197712000Y-135067814D01*
X197941891Y-135188481D01*
X198216252Y-135091157D01*
X198466355Y-134942178D01*
X198682588Y-134747269D01*
X198855000Y-134516120D01*
X199027412Y-134747269D01*
X199243645Y-134942178D01*
X199493748Y-135091157D01*
X199768109Y-135188481D01*
X199998000Y-135067814D01*
X199998000Y-133874000D01*
X197712000Y-133874000D01*
X197458000Y-133874000D01*
X196264845Y-133874000D01*
X196143524Y-134103890D01*
X192951000Y-134103890D01*
X192951000Y-133843665D01*
X192895853Y-133566426D01*
X192787680Y-133305273D01*
X192630637Y-133070241D01*
X192430759Y-132870363D01*
X192428000Y-132868519D01*
X192428000Y-130594552D01*
X192431797Y-130555999D01*
X192428000Y-130517446D01*
X192428000Y-130517439D01*
X192416641Y-130402113D01*
X192371754Y-130254140D01*
X192298862Y-130117767D01*
X192200764Y-129998236D01*
X192170816Y-129973658D01*
X190904000Y-128706843D01*
X190904000Y-127664733D01*
X191097426Y-127744853D01*
X191374665Y-127800000D01*
X191657335Y-127800000D01*
X191934574Y-127744853D01*
X192195727Y-127636680D01*
X192430759Y-127479637D01*
X192630637Y-127279759D01*
X192787680Y-127044727D01*
X192895853Y-126783574D01*
X192951000Y-126506335D01*
X192951000Y-126223665D01*
X192895853Y-125946426D01*
X192787680Y-125685273D01*
X192630637Y-125450241D01*
X192430759Y-125250363D01*
X192195727Y-125093320D01*
X191934574Y-124985147D01*
X191657335Y-124930000D01*
X191374665Y-124930000D01*
X191097426Y-124985147D01*
X190904000Y-125065267D01*
X190904000Y-124658157D01*
X191841158Y-123721000D01*
X192620447Y-123721000D01*
X192659000Y-123724797D01*
X192697553Y-123721000D01*
X192697561Y-123721000D01*
X192812887Y-123709641D01*
X192960860Y-123664754D01*
X193097233Y-123591862D01*
X193216764Y-123493764D01*
X193241347Y-123463811D01*
X193894816Y-122810341D01*
X193924764Y-122785764D01*
X194022862Y-122666233D01*
X194095754Y-122529860D01*
X194140641Y-122381887D01*
X194152000Y-122266561D01*
X194152000Y-122266554D01*
X194155797Y-122228001D01*
X194152000Y-122189448D01*
X194152000Y-121844608D01*
X194160001Y-121839262D01*
X194160000Y-129755447D01*
G37*
%TD.AperFunction*%
D29*
X196096928Y-87063000D02*
X196109188Y-87187482D01*
X196145498Y-87307180D01*
X196204463Y-87417494D01*
X196283815Y-87514185D01*
X196380506Y-87593537D01*
X196490820Y-87652502D01*
X196571466Y-87676966D01*
X196487412Y-87752731D01*
X196313359Y-87986080D01*
X196188175Y-88248901D01*
X196143524Y-88396110D01*
X196264845Y-88626000D01*
X197458000Y-88626000D01*
X197458000Y-88606000D01*
X197712000Y-88606000D01*
X197712000Y-88626000D01*
X199998000Y-88626000D01*
X199998000Y-88606000D01*
X200252000Y-88606000D01*
X200252000Y-88626000D01*
X200272000Y-88626000D01*
X200272000Y-88880000D01*
X200252000Y-88880000D01*
X200252000Y-88900000D01*
X199998000Y-88900000D01*
X199998000Y-88880000D01*
X197712000Y-88880000D01*
X197712000Y-88900000D01*
X197458000Y-88900000D01*
X197458000Y-88880000D01*
X196264845Y-88880000D01*
X196143524Y-89109890D01*
X196188175Y-89257099D01*
X196313359Y-89519920D01*
X196487412Y-89753269D01*
X196703645Y-89948178D01*
X196953748Y-90097157D01*
X197088620Y-90145000D01*
X195866419Y-90145000D01*
X195834000Y-90141807D01*
X195801581Y-90145000D01*
X195704617Y-90154550D01*
X195580207Y-90192290D01*
X195465550Y-90253575D01*
X195365052Y-90336052D01*
X195282575Y-90436550D01*
X195221290Y-90551207D01*
X195183550Y-90675617D01*
X195170807Y-90805000D01*
X195174001Y-90837429D01*
X195174000Y-117736842D01*
X192887000Y-115449843D01*
X192887000Y-114042072D01*
X193052000Y-114042072D01*
X193176482Y-114029812D01*
X193296180Y-113993502D01*
X193406494Y-113934537D01*
X193503185Y-113855185D01*
X193582537Y-113758494D01*
X193641502Y-113648180D01*
X193677812Y-113528482D01*
X193690072Y-113404000D01*
X193690072Y-113213328D01*
X193790860Y-113182754D01*
X193927233Y-113109862D01*
X194046764Y-113011764D01*
X194071347Y-112981810D01*
X194837815Y-112215343D01*
X194867764Y-112190764D01*
X194899463Y-112152140D01*
X194916450Y-112131441D01*
X194965862Y-112071233D01*
X195038754Y-111934860D01*
X195083641Y-111786887D01*
X195095000Y-111671561D01*
X195095000Y-111671554D01*
X195098797Y-111633001D01*
X195095000Y-111594448D01*
X195095000Y-106083555D01*
X195098797Y-106045000D01*
X195095000Y-106006440D01*
X195095000Y-106006439D01*
X195089564Y-105951246D01*
X195083642Y-105891113D01*
X195038754Y-105743140D01*
X195007604Y-105684862D01*
X194965862Y-105606767D01*
X194867764Y-105487236D01*
X194837817Y-105462659D01*
X193876347Y-104501190D01*
X193851764Y-104471236D01*
X193732233Y-104373138D01*
X193595860Y-104300246D01*
X193447887Y-104255359D01*
X193332561Y-104244000D01*
X193332553Y-104244000D01*
X193294000Y-104240203D01*
X193255447Y-104244000D01*
X191079158Y-104244000D01*
X188923347Y-102088190D01*
X188898764Y-102058236D01*
X188779233Y-101960138D01*
X188642860Y-101887246D01*
X188494887Y-101842359D01*
X188379561Y-101831000D01*
X188379553Y-101831000D01*
X188341000Y-101827203D01*
X188302447Y-101831000D01*
X187256339Y-101831000D01*
X187169637Y-101701241D01*
X186969759Y-101501363D01*
X186840000Y-101414661D01*
X186840000Y-100595000D01*
X189288928Y-100595000D01*
X189301188Y-100719482D01*
X189337498Y-100839180D01*
X189396463Y-100949494D01*
X189475815Y-101046185D01*
X189572506Y-101125537D01*
X189682820Y-101184502D01*
X189802518Y-101220812D01*
X189927000Y-101233072D01*
X190541250Y-101230000D01*
X190700000Y-101071250D01*
X190700000Y-99822000D01*
X189450750Y-99822000D01*
X189292000Y-99980750D01*
X189288928Y-100595000D01*
X186840000Y-100595000D01*
X186840000Y-99385157D01*
X187430157Y-98795000D01*
X189288928Y-98795000D01*
X189292000Y-99409250D01*
X189450750Y-99568000D01*
X190700000Y-99568000D01*
X190700000Y-98318750D01*
X190954000Y-98318750D01*
X190954000Y-99568000D01*
X190974000Y-99568000D01*
X190974000Y-99822000D01*
X190954000Y-99822000D01*
X190954000Y-101071250D01*
X191112750Y-101230000D01*
X191727000Y-101233072D01*
X191851482Y-101220812D01*
X191971180Y-101184502D01*
X192081494Y-101125537D01*
X192178185Y-101046185D01*
X192257537Y-100949494D01*
X192316502Y-100839180D01*
X192322056Y-100820873D01*
X192388495Y-100887312D01*
X192639905Y-101055299D01*
X192919257Y-101171011D01*
X193215816Y-101230000D01*
X193518184Y-101230000D01*
X193814743Y-101171011D01*
X194094095Y-101055299D01*
X194345505Y-100887312D01*
X194559312Y-100673505D01*
X194727299Y-100422095D01*
X194843011Y-100142743D01*
X194902000Y-99846184D01*
X194902000Y-99543816D01*
X194843011Y-99247257D01*
X194727299Y-98967905D01*
X194559312Y-98716495D01*
X194345505Y-98502688D01*
X194094095Y-98334701D01*
X193814743Y-98218989D01*
X193518184Y-98160000D01*
X193215816Y-98160000D01*
X192919257Y-98218989D01*
X192639905Y-98334701D01*
X192388495Y-98502688D01*
X192322056Y-98569127D01*
X192316502Y-98550820D01*
X192257537Y-98440506D01*
X192178185Y-98343815D01*
X192081494Y-98264463D01*
X191971180Y-98205498D01*
X191851482Y-98169188D01*
X191727000Y-98156928D01*
X191112750Y-98160000D01*
X190954000Y-98318750D01*
X190700000Y-98318750D01*
X190541250Y-98160000D01*
X189927000Y-98156928D01*
X189802518Y-98169188D01*
X189682820Y-98205498D01*
X189572506Y-98264463D01*
X189475815Y-98343815D01*
X189396463Y-98440506D01*
X189337498Y-98550820D01*
X189301188Y-98670518D01*
X189288928Y-98795000D01*
X187430157Y-98795000D01*
X192932816Y-93292342D01*
X192962764Y-93267764D01*
X193060862Y-93148233D01*
X193133754Y-93011860D01*
X193178641Y-92863887D01*
X193190000Y-92748561D01*
X193190000Y-92748554D01*
X193193797Y-92710001D01*
X193190000Y-92671448D01*
X193190000Y-89098157D01*
X195290157Y-86998000D01*
X196096928Y-86998000D01*
X196096928Y-87063000D01*
%TA.AperFunction,Conductor*%
D30*
G36*
X196096928Y-87063000D02*
G01*
X196109188Y-87187482D01*
X196145498Y-87307180D01*
X196204463Y-87417494D01*
X196283815Y-87514185D01*
X196380506Y-87593537D01*
X196490820Y-87652502D01*
X196571466Y-87676966D01*
X196487412Y-87752731D01*
X196313359Y-87986080D01*
X196188175Y-88248901D01*
X196143524Y-88396110D01*
X196264845Y-88626000D01*
X197458000Y-88626000D01*
X197458000Y-88606000D01*
X197712000Y-88606000D01*
X197712000Y-88626000D01*
X199998000Y-88626000D01*
X199998000Y-88606000D01*
X200252000Y-88606000D01*
X200252000Y-88626000D01*
X200272000Y-88626000D01*
X200272000Y-88880000D01*
X200252000Y-88880000D01*
X200252000Y-88900000D01*
X199998000Y-88900000D01*
X199998000Y-88880000D01*
X197712000Y-88880000D01*
X197712000Y-88900000D01*
X197458000Y-88900000D01*
X197458000Y-88880000D01*
X196264845Y-88880000D01*
X196143524Y-89109890D01*
X196188175Y-89257099D01*
X196313359Y-89519920D01*
X196487412Y-89753269D01*
X196703645Y-89948178D01*
X196953748Y-90097157D01*
X197088620Y-90145000D01*
X195866419Y-90145000D01*
X195834000Y-90141807D01*
X195801581Y-90145000D01*
X195704617Y-90154550D01*
X195580207Y-90192290D01*
X195465550Y-90253575D01*
X195365052Y-90336052D01*
X195282575Y-90436550D01*
X195221290Y-90551207D01*
X195183550Y-90675617D01*
X195170807Y-90805000D01*
X195174001Y-90837429D01*
X195174000Y-117736842D01*
X192887000Y-115449843D01*
X192887000Y-114042072D01*
X193052000Y-114042072D01*
X193176482Y-114029812D01*
X193296180Y-113993502D01*
X193406494Y-113934537D01*
X193503185Y-113855185D01*
X193582537Y-113758494D01*
X193641502Y-113648180D01*
X193677812Y-113528482D01*
X193690072Y-113404000D01*
X193690072Y-113213328D01*
X193790860Y-113182754D01*
X193927233Y-113109862D01*
X194046764Y-113011764D01*
X194071347Y-112981810D01*
X194837815Y-112215343D01*
X194867764Y-112190764D01*
X194899463Y-112152140D01*
X194916450Y-112131441D01*
X194965862Y-112071233D01*
X195038754Y-111934860D01*
X195083641Y-111786887D01*
X195095000Y-111671561D01*
X195095000Y-111671554D01*
X195098797Y-111633001D01*
X195095000Y-111594448D01*
X195095000Y-106083555D01*
X195098797Y-106045000D01*
X195095000Y-106006440D01*
X195095000Y-106006439D01*
X195089564Y-105951246D01*
X195083642Y-105891113D01*
X195038754Y-105743140D01*
X195007604Y-105684862D01*
X194965862Y-105606767D01*
X194867764Y-105487236D01*
X194837817Y-105462659D01*
X193876347Y-104501190D01*
X193851764Y-104471236D01*
X193732233Y-104373138D01*
X193595860Y-104300246D01*
X193447887Y-104255359D01*
X193332561Y-104244000D01*
X193332553Y-104244000D01*
X193294000Y-104240203D01*
X193255447Y-104244000D01*
X191079158Y-104244000D01*
X188923347Y-102088190D01*
X188898764Y-102058236D01*
X188779233Y-101960138D01*
X188642860Y-101887246D01*
X188494887Y-101842359D01*
X188379561Y-101831000D01*
X188379553Y-101831000D01*
X188341000Y-101827203D01*
X188302447Y-101831000D01*
X187256339Y-101831000D01*
X187169637Y-101701241D01*
X186969759Y-101501363D01*
X186840000Y-101414661D01*
X186840000Y-100595000D01*
X189288928Y-100595000D01*
X189301188Y-100719482D01*
X189337498Y-100839180D01*
X189396463Y-100949494D01*
X189475815Y-101046185D01*
X189572506Y-101125537D01*
X189682820Y-101184502D01*
X189802518Y-101220812D01*
X189927000Y-101233072D01*
X190541250Y-101230000D01*
X190700000Y-101071250D01*
X190700000Y-99822000D01*
X189450750Y-99822000D01*
X189292000Y-99980750D01*
X189288928Y-100595000D01*
X186840000Y-100595000D01*
X186840000Y-99385157D01*
X187430157Y-98795000D01*
X189288928Y-98795000D01*
X189292000Y-99409250D01*
X189450750Y-99568000D01*
X190700000Y-99568000D01*
X190700000Y-98318750D01*
X190954000Y-98318750D01*
X190954000Y-99568000D01*
X190974000Y-99568000D01*
X190974000Y-99822000D01*
X190954000Y-99822000D01*
X190954000Y-101071250D01*
X191112750Y-101230000D01*
X191727000Y-101233072D01*
X191851482Y-101220812D01*
X191971180Y-101184502D01*
X192081494Y-101125537D01*
X192178185Y-101046185D01*
X192257537Y-100949494D01*
X192316502Y-100839180D01*
X192322056Y-100820873D01*
X192388495Y-100887312D01*
X192639905Y-101055299D01*
X192919257Y-101171011D01*
X193215816Y-101230000D01*
X193518184Y-101230000D01*
X193814743Y-101171011D01*
X194094095Y-101055299D01*
X194345505Y-100887312D01*
X194559312Y-100673505D01*
X194727299Y-100422095D01*
X194843011Y-100142743D01*
X194902000Y-99846184D01*
X194902000Y-99543816D01*
X194843011Y-99247257D01*
X194727299Y-98967905D01*
X194559312Y-98716495D01*
X194345505Y-98502688D01*
X194094095Y-98334701D01*
X193814743Y-98218989D01*
X193518184Y-98160000D01*
X193215816Y-98160000D01*
X192919257Y-98218989D01*
X192639905Y-98334701D01*
X192388495Y-98502688D01*
X192322056Y-98569127D01*
X192316502Y-98550820D01*
X192257537Y-98440506D01*
X192178185Y-98343815D01*
X192081494Y-98264463D01*
X191971180Y-98205498D01*
X191851482Y-98169188D01*
X191727000Y-98156928D01*
X191112750Y-98160000D01*
X190954000Y-98318750D01*
X190700000Y-98318750D01*
X190541250Y-98160000D01*
X189927000Y-98156928D01*
X189802518Y-98169188D01*
X189682820Y-98205498D01*
X189572506Y-98264463D01*
X189475815Y-98343815D01*
X189396463Y-98440506D01*
X189337498Y-98550820D01*
X189301188Y-98670518D01*
X189288928Y-98795000D01*
X187430157Y-98795000D01*
X192932816Y-93292342D01*
X192962764Y-93267764D01*
X193060862Y-93148233D01*
X193133754Y-93011860D01*
X193178641Y-92863887D01*
X193190000Y-92748561D01*
X193190000Y-92748554D01*
X193193797Y-92710001D01*
X193190000Y-92671448D01*
X193190000Y-89098157D01*
X195290157Y-86998000D01*
X196096928Y-86998000D01*
X196096928Y-87063000D01*
G37*
%TD.AperFunction*%
%TD*%
M02*
