%TF.GenerationSoftware,KiCad,Pcbnew,(5.1.8)-1*%
%TF.CreationDate,2020-12-06T17:51:36-05:00*%
%TF.ProjectId,Breadboar Power Supply v1,42726561-6462-46f6-9172-20506f776572,1.0*%
%TF.SameCoordinates,Original*%
%TF.FileFunction,Soldermask,Top*%
%TF.FilePolarity,Negative*%
%FSLAX46Y46*%
G04 Gerber Fmt 4.6, Leading zero omitted, Abs format (unit mm)*
G04 Created by KiCad (PCBNEW (5.1.8)-1) date 2020-12-06 17:51:36*
%MOMM*%
%LPD*%
G01*
G04 APERTURE LIST*
%ADD10R,2.000000X2.000000*%
%ADD11C,2.000000*%
%ADD12R,1.600000X1.600000*%
%ADD13C,1.600000*%
%ADD14R,2.200000X2.200000*%
%ADD15O,2.200000X2.200000*%
%ADD16C,1.800000*%
%ADD17R,1.800000X1.800000*%
%ADD18R,2.600000X2.600000*%
%ADD19C,2.600000*%
%ADD20R,1.700000X1.700000*%
%ADD21O,1.700000X1.700000*%
%ADD22O,1.600000X1.600000*%
%ADD23R,1.900000X1.900000*%
%ADD24C,1.900000*%
%ADD25R,1.905000X2.000000*%
%ADD26O,1.905000X2.000000*%
G04 APERTURE END LIST*
D10*
%TO.C,C1*%
X175387000Y-90297000D03*
D11*
X180387000Y-90297000D03*
%TD*%
D12*
%TO.C,C2*%
X187071000Y-88392000D03*
D13*
X189571000Y-88392000D03*
%TD*%
D14*
%TO.C,D1*%
X174349001Y-115815333D03*
D15*
X184509001Y-115815333D03*
%TD*%
%TO.C,D2*%
X184509001Y-106908001D03*
D14*
X174349001Y-106908001D03*
%TD*%
D15*
%TO.C,D3*%
X184509001Y-120269000D03*
D14*
X174349001Y-120269000D03*
%TD*%
%TO.C,D4*%
X174349001Y-111361667D03*
D15*
X184509001Y-111361667D03*
%TD*%
D16*
%TO.C,D5*%
X193367000Y-120523000D03*
D17*
X190827000Y-120523000D03*
%TD*%
%TO.C,D6*%
X190827000Y-99695000D03*
D16*
X193367000Y-99695000D03*
%TD*%
D18*
%TO.C,J1*%
X186309000Y-129413000D03*
D19*
X180309000Y-129413000D03*
X183309000Y-134113000D03*
%TD*%
D20*
%TO.C,J2*%
X197585000Y-86213000D03*
D21*
X200125000Y-86213000D03*
X197585000Y-88753000D03*
X200125000Y-88753000D03*
%TD*%
%TO.C,J3*%
X200125000Y-133747000D03*
X197585000Y-133747000D03*
X200125000Y-131207000D03*
D20*
X197585000Y-131207000D03*
%TD*%
D22*
%TO.C,R1*%
X191516000Y-126365000D03*
D13*
X191516000Y-133985000D03*
%TD*%
%TO.C,R2*%
X186055000Y-102616000D03*
D22*
X186055000Y-94996000D03*
%TD*%
D23*
%TO.C,SW1*%
X192102000Y-112454000D03*
D24*
X192102000Y-109954000D03*
X192102000Y-107454000D03*
%TD*%
D25*
%TO.C,U1*%
X175709001Y-101346000D03*
D26*
X178249001Y-101346000D03*
X180789001Y-101346000D03*
%TD*%
M02*
