M48
; DRILL file {KiCad (5.1.8)-1} date 12/06/20 17:52:27
; FORMAT={-:-/ absolute / inch / decimal}
; #@! TF.CreationDate,2020-12-06T17:52:27-05:00
; #@! TF.GenerationSoftware,Kicad,Pcbnew,(5.1.8)-1
; #@! TF.FileFunction,Plated,1,2,PTH
FMAT,2
INCH
T1C0.0197
T2C0.0315
T3C0.0354
T4C0.0394
T5C0.0433
T6C0.0630
%
G90
G05
T1
X7.435Y-4.625
T2
X7.365Y-3.48
X7.4634Y-3.48
X7.54Y-4.975
X7.54Y-5.275
X7.325Y-3.74
X7.325Y-4.04
T3
X7.5631Y-4.2305
X7.5631Y-4.3289
X7.5631Y-4.4273
X7.5129Y-4.745
X7.6129Y-4.745
X7.5129Y-3.925
X7.6129Y-3.925
T4
X6.905Y-3.555
X7.1019Y-3.555
X7.7789Y-5.1656
X7.7789Y-5.2656
X7.8789Y-5.1656
X7.8789Y-5.2656
X7.7789Y-3.3942
X7.7789Y-3.4942
X7.8789Y-3.3942
X7.8789Y-3.4942
T5
X6.8641Y-4.209
X7.2641Y-4.209
X6.9177Y-3.99
X7.0177Y-3.99
X7.1177Y-3.99
X6.8641Y-4.3843
X7.2641Y-4.3843
X6.8641Y-4.5597
X7.2641Y-4.5597
X6.8641Y-4.735
X7.2641Y-4.735
T6
X7.0988Y-5.095
X7.2169Y-5.28
X7.335Y-5.095
T0
M30
